<svg width="187" height="69" viewBox="0 0 187 69" fill="none" xmlns="http://www.w3.org/2000/svg">
<rect x="1.5" y="1.5" width="184" height="66" rx="33" fill="#10454F" stroke="#CA8923" stroke-width="3"/>
<path d="M32.38 34.7C33.74 35.0467 34.7133 35.54 35.3 36.18C35.8867 36.82 36.18 37.78 36.18 39.06C36.18 40.34 35.74 41.3667 34.86 42.14C33.98 42.9 32.6867 43.28 30.98 43.28C29.2733 43.28 28.04 42.92 27.28 42.2C26.52 41.4667 26.0533 40.4067 25.88 39.02L28.06 38.68C28.14 39.4667 28.4067 40.08 28.86 40.52C29.3267 40.9467 29.9733 41.16 30.8 41.16C32.5733 41.16 33.46 40.4867 33.46 39.14C33.46 38.5667 33.2933 38.1333 32.96 37.84C32.6267 37.5467 31.9867 37.28 31.04 37.04L29.9 36.76C28.5667 36.4267 27.6133 35.9333 27.04 35.28C26.4667 34.6267 26.18 33.6533 26.18 32.36C26.18 31.0533 26.6 30.02 27.44 29.26C28.28 28.5 29.52 28.12 31.16 28.12C32.8133 28.12 34 28.4867 34.72 29.22C35.4533 29.94 35.9067 30.9933 36.08 32.38L33.92 32.72C33.7467 31.0667 32.8933 30.24 31.36 30.24C30.52 30.24 29.9 30.4267 29.5 30.8C29.1 31.16 28.9 31.64 28.9 32.24C28.9 32.84 29.0533 33.2867 29.36 33.58C29.6667 33.8733 30.2533 34.1333 31.12 34.36L32.38 34.7ZM38.9308 31.56H41.6108V43H38.9308V31.56ZM39.0308 30.6L38.1308 29.16L42.0308 26.5L43.2308 28.42L39.0308 30.6ZM52.9161 38.26C52.6094 38.6867 52.1428 39.0267 51.5161 39.28C50.8894 39.52 50.1494 39.64 49.2961 39.64C48.4561 39.64 47.7561 39.54 47.1961 39.34L46.6361 39.94C46.4094 40.1667 46.2961 40.3867 46.2961 40.6C46.2961 40.92 46.5161 41.08 46.9561 41.08H51.2161C52.2694 41.08 53.0961 41.3667 53.6961 41.94C54.3094 42.5133 54.6161 43.1867 54.6161 43.96C54.6161 44.7333 54.4561 45.3467 54.1361 45.8C53.8161 46.2533 53.3561 46.5867 52.7561 46.8C51.7428 47.16 50.4428 47.34 48.8561 47.34C47.2828 47.34 46.0694 47.1467 45.2161 46.76C44.3628 46.3867 43.9361 45.74 43.9361 44.82C43.9361 44.38 44.0628 43.98 44.3161 43.62C44.5694 43.2733 44.8828 43.0067 45.2561 42.82C44.4428 42.5667 44.0361 41.9733 44.0361 41.04C44.0361 40.4267 44.2761 39.86 44.7561 39.34L45.6761 38.38C45.0494 37.66 44.7361 36.6867 44.7361 35.46C44.7361 34.38 45.0294 33.4467 45.6161 32.66C46.2828 31.74 47.4961 31.28 49.2561 31.28C50.0161 31.28 50.6761 31.3733 51.2361 31.56H54.5761V33.14H53.2561C53.6161 33.7933 53.7961 34.48 53.7961 35.2C53.7961 35.9067 53.7294 36.4867 53.5961 36.94C53.4628 37.3933 53.2361 37.8333 52.9161 38.26ZM49.2561 33.06C47.9494 33.06 47.2961 33.86 47.2961 35.46C47.2961 37.06 47.9494 37.86 49.2561 37.86C50.5761 37.86 51.2361 37.06 51.2361 35.46C51.2361 33.86 50.5761 33.06 49.2561 33.06ZM46.3761 44.22C46.3761 44.7 46.5894 45.0067 47.0161 45.14C47.4561 45.2733 48.1761 45.34 49.1761 45.34C50.1761 45.34 50.8828 45.26 51.2961 45.1C51.7228 44.9533 51.9361 44.6267 51.9361 44.12C51.9361 43.3733 51.4161 43 50.3761 43H46.9561C46.5694 43.3467 46.3761 43.7533 46.3761 44.22ZM60.2586 43.28C57.9119 43.28 56.7386 42.0667 56.7386 39.64V31.56H59.4186V39.2C59.4186 39.8933 59.5519 40.4067 59.8186 40.74C60.0986 41.06 60.5586 41.22 61.1986 41.22C62.1053 41.22 62.9653 40.7933 63.7786 39.94V31.56H66.4586V43H64.7186L63.9586 41.62C62.9186 42.7267 61.6853 43.28 60.2586 43.28ZM74.1798 43.28C72.3398 43.28 71.0265 42.7867 70.2398 41.8C69.4532 40.8 69.0598 39.2933 69.0598 37.28C69.0598 33.28 70.7398 31.28 74.0998 31.28C76.0332 31.28 77.3532 31.88 78.0598 33.08C78.6732 34.1067 78.9798 35.44 78.9798 37.08V37.8H71.6598C71.6732 39.0533 71.8798 39.94 72.2798 40.46C72.6798 40.9667 73.3398 41.22 74.2598 41.22C75.7398 41.22 76.5265 40.6867 76.6198 39.62L78.8198 39.7C78.6065 42.0867 77.0598 43.28 74.1798 43.28ZM75.7198 34C75.3865 33.56 74.8398 33.34 74.0798 33.34C73.3198 33.34 72.7598 33.5533 72.3998 33.98C72.0532 34.3933 71.8265 35.06 71.7198 35.98H76.3398C76.2598 35.0867 76.0532 34.4267 75.7198 34ZM83.6094 32.6C84.8627 31.72 86.1427 31.28 87.4494 31.28C88.7694 31.28 89.7227 31.6067 90.3094 32.26C90.896 32.9 91.1894 33.7867 91.1894 34.92V43H88.5094V35.2C88.5094 34.52 88.3827 34.04 88.1294 33.76C87.8894 33.48 87.4627 33.34 86.8494 33.34C85.8894 33.34 84.996 33.64 84.1694 34.24V43H81.4894V31.56H82.7494L83.6094 32.6ZM96.7911 40.22C97.1378 40.8867 97.8044 41.22 98.7911 41.22C99.7778 41.22 100.444 40.8867 100.791 40.22C101.138 39.5533 101.311 38.5733 101.311 37.28C101.311 35.9867 101.138 35.0067 100.791 34.34C100.444 33.6733 99.7778 33.34 98.7911 33.34C97.8044 33.34 97.1378 33.6733 96.7911 34.34C96.4444 35.0067 96.2711 35.9867 96.2711 37.28C96.2711 38.5733 96.4444 39.5533 96.7911 40.22ZM103.991 37.28C103.991 41.28 102.258 43.28 98.7911 43.28C95.3244 43.28 93.5911 41.28 93.5911 37.28C93.5911 33.28 95.3244 31.28 98.7911 31.28C102.258 31.28 103.991 33.28 103.991 37.28ZM114.767 39.8C114.767 42.08 113.167 43.22 109.967 43.22C108.567 43.22 107.527 42.92 106.847 42.32C106.167 41.7067 105.74 40.82 105.567 39.66L107.647 39.34C107.794 40.62 108.587 41.26 110.027 41.26C111.48 41.26 112.207 40.8067 112.207 39.9C112.207 39.5267 112.06 39.2467 111.767 39.06C111.487 38.8733 110.914 38.68 110.047 38.48L109.127 38.26C107.94 37.98 107.087 37.5733 106.567 37.04C106.06 36.4933 105.807 35.7067 105.807 34.68C105.807 32.4133 107.354 31.28 110.447 31.28C111.78 31.28 112.774 31.5867 113.427 32.2C114.094 32.8 114.507 33.68 114.667 34.84L112.587 35.14C112.44 33.8733 111.7 33.24 110.367 33.24C109.047 33.24 108.387 33.6933 108.387 34.6C108.387 34.9733 108.514 35.26 108.767 35.46C109.034 35.6467 109.567 35.8333 110.367 36.02L111.407 36.28C112.594 36.5733 113.447 36.9867 113.967 37.52C114.5 38.04 114.767 38.8 114.767 39.8Z" fill="#FFF7D2"/>
<path d="M147.969 43.125H141.5C141.309 43.125 141.127 43.0493 140.992 42.9145C140.857 42.7797 140.781 42.5969 140.781 42.4062V35.2188C140.781 35.0281 140.857 34.8453 140.992 34.7105C141.127 34.5757 141.309 34.5 141.5 34.5H143.225L143.448 33.0625H141.5C141.309 33.0625 141.127 32.9868 140.992 32.852C140.857 32.7172 140.781 32.5344 140.781 32.3438V31.1434C140.775 30.5068 140.988 29.8874 141.385 29.3897C141.588 29.1847 141.83 29.0224 142.096 28.9125C142.363 28.8026 142.649 28.7474 142.938 28.75H143.656V27.3125H142.765C142.24 27.2874 141.716 27.3671 141.223 27.5469C140.73 27.7267 140.277 28.003 139.891 28.3596C139.506 28.7163 139.196 29.1461 138.978 29.6241C138.761 30.1021 138.641 30.6186 138.625 31.1434V32.3438C138.625 32.5344 138.549 32.7172 138.414 32.852C138.28 32.9868 138.097 33.0625 137.906 33.0625H136.469V34.5H137.906C138.097 34.5 138.28 34.5757 138.414 34.7105C138.549 34.8453 138.625 35.0281 138.625 35.2188V42.4062C138.625 42.5969 138.549 42.7797 138.414 42.9145C138.28 43.0493 138.097 43.125 137.906 43.125H132.156C131.584 43.125 131.036 42.8978 130.632 42.4934C130.227 42.0891 130 41.5406 130 40.9688V25.1562C130 24.5844 130.227 24.0359 130.632 23.6316C131.036 23.2272 131.584 23 132.156 23H147.969C148.541 23 149.089 23.2272 149.493 23.6316C149.898 24.0359 150.125 24.5844 150.125 25.1562V40.9688C150.125 41.5406 149.898 42.0891 149.493 42.4934C149.089 42.8978 148.541 43.125 147.969 43.125ZM142.219 41.6875H147.969C148.159 41.6875 148.342 41.6118 148.477 41.477C148.612 41.3422 148.688 41.1594 148.688 40.9688V25.1562C148.688 24.9656 148.612 24.7828 148.477 24.648C148.342 24.5132 148.159 24.4375 147.969 24.4375H132.156C131.966 24.4375 131.783 24.5132 131.648 24.648C131.513 24.7828 131.438 24.9656 131.438 25.1562V40.9688C131.438 41.1594 131.513 41.3422 131.648 41.477C131.783 41.6118 131.966 41.6875 132.156 41.6875H137.188V35.9375H136.167C135.866 35.9375 135.577 35.8179 135.364 35.6049C135.151 35.3919 135.031 35.1031 135.031 34.8019V32.7534C135.033 32.4535 135.154 32.1665 135.366 31.9551C135.579 31.7437 135.867 31.625 136.167 31.625H137.188V31.1506C137.229 29.7131 137.838 28.3507 138.883 27.3618C139.927 26.3729 141.32 25.8383 142.758 25.875H143.958C144.258 25.875 144.546 25.9937 144.759 26.2051C144.971 26.4165 145.092 26.7035 145.094 27.0034V29.0447C145.096 29.1947 145.068 29.3436 145.011 29.4826C144.955 29.6217 144.872 29.7481 144.766 29.8545C144.66 29.9609 144.534 30.0452 144.396 30.1023C144.257 30.1595 144.108 30.1885 143.958 30.1875H142.938C142.748 30.1902 142.567 30.2677 142.434 30.4031C142.317 30.6249 142.253 30.871 142.248 31.1219V31.625H143.822C144.142 31.6404 144.445 31.7765 144.67 32.0059C144.779 32.1248 144.861 32.2663 144.909 32.4203C144.958 32.5743 144.972 32.7372 144.95 32.8972L144.634 34.9744C144.592 35.2498 144.45 35.5001 144.235 35.6777C144.02 35.8553 143.748 35.9478 143.469 35.9375H142.219V41.6875Z" fill="#F5F6D2"/>
</svg>
