<svg width="60" height="20" viewBox="0 0 60 20" fill="none" xmlns="http://www.w3.org/2000/svg">
<rect width="60" height="20" rx="10" fill="#FFF6D2"/>
<path d="M9.0191 6.7H13.1391V7.75H10.3791V9.77H12.8891V10.81H10.3791V12.95H13.3391V14H9.0191V6.7ZM17.3648 9.85C18.0448 10.0233 18.5315 10.27 18.8248 10.59C19.1181 10.91 19.2648 11.39 19.2648 12.03C19.2648 12.67 19.0448 13.1833 18.6048 13.57C18.1648 13.95 17.5181 14.14 16.6648 14.14C15.8115 14.14 15.1948 13.96 14.8148 13.6C14.4348 13.2333 14.2015 12.7033 14.1148 12.01L15.2048 11.84C15.2448 12.2333 15.3781 12.54 15.6048 12.76C15.8381 12.9733 16.1615 13.08 16.5748 13.08C17.4615 13.08 17.9048 12.7433 17.9048 12.07C17.9048 11.7833 17.8215 11.5667 17.6548 11.42C17.4881 11.2733 17.1681 11.14 16.6948 11.02L16.1248 10.88C15.4581 10.7133 14.9815 10.4667 14.6948 10.14C14.4081 9.81333 14.2648 9.32667 14.2648 8.68C14.2648 8.02667 14.4748 7.51 14.8948 7.13C15.3148 6.75 15.9348 6.56 16.7548 6.56C17.5815 6.56 18.1748 6.74333 18.5348 7.11C18.9015 7.47 19.1281 7.99667 19.2148 8.69L18.1348 8.86C18.0481 8.03333 17.6215 7.62 16.8548 7.62C16.4348 7.62 16.1248 7.71333 15.9248 7.9C15.7248 8.08 15.6248 8.32 15.6248 8.62C15.6248 8.92 15.7015 9.14333 15.8548 9.29C16.0081 9.43667 16.3015 9.56667 16.7348 9.68L17.3648 9.85ZM23.1602 11.41H22.0002V14H20.6402V6.7H23.1602C24.0402 6.7 24.6602 6.94 25.0202 7.42C25.3335 7.85333 25.4902 8.4 25.4902 9.06C25.4902 9.71333 25.3335 10.2533 25.0202 10.68C24.6602 11.1667 24.0402 11.41 23.1602 11.41ZM22.0002 10.36H22.9502C23.7369 10.36 24.1302 9.92667 24.1302 9.06C24.1302 8.18667 23.7369 7.75 22.9502 7.75H22.0002V10.36ZM27.3427 6.7H29.1127L31.3527 14H30.0427L29.4227 11.98H27.0227L26.4127 14H25.0927L27.3427 6.7ZM28.2227 7.99L27.3327 10.95H29.1127L28.2227 7.99ZM36.6987 6.7H38.0587V14H36.6187L33.7287 9.04V14H32.3687V6.7H33.8087L36.6987 11.67V6.7ZM37.0687 4.64C36.9554 5.06 36.812 5.36 36.6387 5.54C36.472 5.72 36.2887 5.81 36.0887 5.81C35.8887 5.81 35.632 5.75 35.3187 5.63C35.0054 5.51 34.7987 5.45 34.6987 5.45C34.5054 5.45 34.3654 5.59667 34.2787 5.89L33.5287 5.65C33.642 5.23 33.782 4.93 33.9487 4.75C34.122 4.57 34.3087 4.48 34.5087 4.48C34.7087 4.48 34.9654 4.54 35.2787 4.66C35.5987 4.78 35.8087 4.84 35.9087 4.84C36.102 4.84 36.242 4.69333 36.3287 4.4L37.0687 4.64ZM44.9471 13.03C44.7337 13.39 44.4237 13.6667 44.0171 13.86C43.6171 14.0467 43.1504 14.14 42.6171 14.14C42.0904 14.14 41.6504 14.0767 41.2971 13.95C40.9437 13.8167 40.6571 13.6433 40.4371 13.43C40.2171 13.21 40.0404 12.9333 39.9071 12.6C39.6737 12.0133 39.5571 11.2633 39.5571 10.35C39.5571 9.78333 39.6004 9.28667 39.6871 8.86C39.7737 8.43333 39.9237 8.04 40.1371 7.68C40.5637 6.93333 41.3637 6.56 42.5371 6.56C43.8704 6.56 44.7504 7.07667 45.1771 8.11C45.4104 8.69 45.5271 9.43667 45.5271 10.35C45.5271 10.9233 45.4837 11.4233 45.3971 11.85C45.3104 12.2767 45.1604 12.67 44.9471 13.03ZM42.5371 13.04C43.1437 13.04 43.5671 12.8033 43.8071 12.33C44.0471 11.8567 44.1671 11.1967 44.1671 10.35C44.1671 9.50333 44.0471 8.84333 43.8071 8.37C43.5671 7.89667 43.1437 7.66 42.5371 7.66C41.8971 7.66 41.4604 7.92 41.2271 8.44C41.0204 8.91333 40.9171 9.55 40.9171 10.35C40.9171 11.6833 41.1871 12.5133 41.7271 12.84C41.9471 12.9733 42.2171 13.04 42.5371 13.04ZM47.0269 14V6.7H48.3869V12.95H50.8769V14H47.0269Z" fill="#10454F"/>
</svg>
