<svg width="120" height="122" viewBox="0 0 120 122" fill="none" xmlns="http://www.w3.org/2000/svg">
<rect x="2" y="2" width="115.856" height="118.489" rx="31" fill="#10454F" stroke="#CA8923" stroke-width="3"/>
<path d="M41.3055 73.82V77.22C41.3055 77.56 41.1455 77.72 40.8055 77.72H40.4455C40.1055 77.72 39.9455 77.56 39.9455 77.22V68.78C39.9455 68.44 40.1055 68.28 40.4455 68.28H40.7655C41.1055 68.28 41.2655 68.44 41.2655 68.78V71.76H44.0255V68.48C44.0255 66.74 43.1655 65.88 41.4255 65.88H39.7455C38.0055 65.88 37.1455 66.74 37.1455 68.48V77.52C37.1455 79.26 38.0055 80.12 39.7455 80.12H41.4655C43.2055 80.12 44.0655 79.26 44.0655 77.52V73.82H41.3055ZM52.5004 80L50.6604 66H46.8404L45.0004 80H47.5404L47.7404 77.96H49.5004L49.7204 80H52.5004ZM48.6204 69.42L49.2404 75.52H48.0004L48.6204 69.42ZM53.5957 66V80H58.4157V77.5H56.3957V66H53.5957ZM59.6621 66V80H64.4821V77.5H62.4621V66H59.6621ZM75.8234 66H73.0234V77.22C73.0234 77.56 72.8634 77.72 72.5234 77.72H72.2234C71.8834 77.72 71.7234 77.56 71.7234 77.22V66H68.9234V77.52C68.9234 79.26 69.7834 80.12 71.5234 80.12H73.2234C74.9634 80.12 75.8234 79.26 75.8234 77.52V66ZM82.8549 72.74L80.4549 70.96C80.1149 70.72 79.9749 70.5 79.9749 70.06V68.74C79.9749 68.4 80.1349 68.24 80.4749 68.24H80.6949C81.0349 68.24 81.1949 68.4 81.1949 68.74V71.04H83.9349V68.48C83.9349 66.74 83.0749 65.88 81.3349 65.88H79.8149C78.0749 65.88 77.2149 66.74 77.2149 68.48V70.7C77.2149 71.7 77.4749 72.28 78.3349 72.9L80.7349 74.68C81.0749 74.92 81.2149 75.14 81.2149 75.58V77.26C81.2149 77.6 81.0549 77.76 80.7149 77.76H80.4549C80.1149 77.76 79.9549 77.6 79.9549 77.26V74.54H77.2149V77.52C77.2149 79.26 78.0749 80.12 79.8149 80.12H81.3749C83.1149 80.12 83.9749 79.26 83.9749 77.52V74.94C83.9749 73.9 83.7149 73.36 82.8549 72.74Z" fill="#CA8923"/>
<path d="M30.6147 91.504H31.5987V90.196H32.8707V89.26H31.5987V87.964H30.6147V89.26H29.3427V90.196H30.6147V91.504ZM35.5964 85.564H34.7804L34.6364 85.756C34.3604 86.128 34.1324 86.284 33.6644 86.344L33.5684 86.356V87.292H34.3604V94H35.5964V85.564ZM40.5059 85.528C39.4619 85.528 38.9459 86.044 38.9459 87.088V88.384C38.9459 89.104 39.1979 89.464 39.6419 89.632C39.1379 89.776 38.9219 90.1 38.9219 90.712V92.512C38.9219 93.556 39.4379 94.072 40.4819 94.072H41.0459C42.0899 94.072 42.6059 93.556 42.6059 92.512V90.712C42.6059 90.1 42.3899 89.776 41.8859 89.632C42.3299 89.464 42.5819 89.104 42.5819 88.384V87.088C42.5819 86.044 42.0659 85.528 41.0219 85.528H40.5059ZM40.1699 90.736C40.1699 90.412 40.3259 90.256 40.6619 90.256H40.8779C41.2019 90.256 41.3579 90.412 41.3579 90.736V92.476C41.3579 92.8 41.2019 92.956 40.8779 92.956H40.6619C40.3259 92.956 40.1699 92.8 40.1699 92.476V90.736ZM40.6739 89.164C40.3379 89.164 40.1819 89.008 40.1819 88.672V87.124C40.1819 86.8 40.3379 86.644 40.6739 86.644H40.8659C41.1899 86.644 41.3459 86.8 41.3459 87.124V88.672C41.3459 89.008 41.1899 89.164 40.8659 89.164H40.6739ZM45.089 87.148C45.089 86.812 45.245 86.656 45.557 86.656H45.761C46.073 86.656 46.229 86.812 46.229 87.148V88.216H47.465V87.064C47.465 86.02 46.973 85.528 45.929 85.528H45.377C44.333 85.528 43.817 86.044 43.817 87.088V92.512C43.817 93.556 44.333 94.072 45.377 94.072H45.941C46.985 94.072 47.501 93.556 47.501 92.512V90.316C47.501 89.488 46.997 88.924 46.145 88.924H46.085C45.701 88.924 45.377 89.02 45.089 89.176V87.148ZM45.089 90.196C45.245 90.124 45.509 90.064 45.749 90.064C46.097 90.064 46.241 90.22 46.241 90.568V92.452C46.241 92.788 46.085 92.944 45.773 92.944H45.557C45.245 92.944 45.089 92.788 45.089 92.452V90.196ZM49.9718 87.148C49.9718 86.812 50.1278 86.656 50.4398 86.656H50.6438C50.9558 86.656 51.1118 86.812 51.1118 87.148V88.216H52.3478V87.064C52.3478 86.02 51.8558 85.528 50.8118 85.528H50.2598C49.2158 85.528 48.6998 86.044 48.6998 87.088V92.512C48.6998 93.556 49.2158 94.072 50.2598 94.072H50.8238C51.8678 94.072 52.3838 93.556 52.3838 92.512V90.316C52.3838 89.488 51.8798 88.924 51.0278 88.924H50.9678C50.5838 88.924 50.2598 89.02 49.9718 89.176V87.148ZM49.9718 90.196C50.1278 90.124 50.3918 90.064 50.6318 90.064C50.9798 90.064 51.1238 90.22 51.1238 90.568V92.452C51.1238 92.788 50.9678 92.944 50.6558 92.944H50.4398C50.1278 92.944 49.9718 92.788 49.9718 92.452V90.196ZM56.8781 87.148C56.8781 86.812 57.0341 86.656 57.3461 86.656H57.5501C57.8621 86.656 58.0181 86.812 58.0181 87.148V88.216H59.2541V87.064C59.2541 86.02 58.7621 85.528 57.7181 85.528H57.1661C56.1221 85.528 55.6061 86.044 55.6061 87.088V92.512C55.6061 93.556 56.1221 94.072 57.1661 94.072H57.7301C58.7741 94.072 59.2901 93.556 59.2901 92.512V90.316C59.2901 89.488 58.7861 88.924 57.9341 88.924H57.8741C57.4901 88.924 57.1661 89.02 56.8781 89.176V87.148ZM56.8781 90.196C57.0341 90.124 57.2981 90.064 57.5381 90.064C57.8861 90.064 58.0301 90.22 58.0301 90.568V92.452C58.0301 92.788 57.8741 92.944 57.5621 92.944H57.3461C57.0341 92.944 56.8781 92.788 56.8781 92.452V90.196ZM61.0769 90.82C60.5729 91.456 60.4169 91.876 60.4169 92.488V94H64.0409V92.836H61.6889V92.536C61.6889 92.14 61.7729 91.948 62.0369 91.612L63.3929 89.908C63.9089 89.272 64.0409 88.84 64.0409 88.252V87.088C64.0409 86.044 63.5249 85.528 62.4929 85.528H61.9889C60.9569 85.528 60.4409 86.044 60.4409 87.088V88.636H61.6649V87.148C61.6649 86.812 61.8209 86.656 62.1449 86.656H62.3009C62.6129 86.656 62.7689 86.812 62.7689 87.148V88.312C62.7689 88.612 62.6849 88.804 62.4329 89.116L61.0769 90.82ZM68.8082 89.956C68.8082 89.104 68.2922 88.588 67.5242 88.588H67.5122C67.0082 88.588 66.6962 88.768 66.3962 89.02L66.4202 86.764H68.6882V85.6H65.2322V90.184H66.3602C66.6242 89.884 66.8282 89.764 67.0922 89.764C67.4042 89.764 67.5362 89.944 67.5362 90.292V92.452C67.5362 92.788 67.3802 92.944 67.0562 92.944H66.9002C66.5762 92.944 66.4202 92.788 66.4202 92.452V91.036H65.1842V92.524C65.1842 93.568 65.6882 94.072 66.7202 94.072H67.2602C68.2922 94.072 68.8082 93.556 68.8082 92.512V89.956ZM72.5964 90.82C72.0924 91.456 71.9364 91.876 71.9364 92.488V94H75.5604V92.836H73.2084V92.536C73.2084 92.14 73.2924 91.948 73.5564 91.612L74.9124 89.908C75.4284 89.272 75.5604 88.84 75.5604 88.252V87.088C75.5604 86.044 75.0444 85.528 74.0124 85.528H73.5084C72.4764 85.528 71.9604 86.044 71.9604 87.088V88.636H73.1844V87.148C73.1844 86.812 73.3404 86.656 73.6644 86.656H73.8204C74.1324 86.656 74.2884 86.812 74.2884 87.148V88.312C74.2884 88.612 74.2044 88.804 73.9524 89.116L72.5964 90.82ZM76.1602 92.56H78.3682V94H79.5202V92.56H80.1202V91.444H79.5202V85.6H77.8402L76.1602 91.324V92.56ZM78.3682 91.444H77.2042L78.3682 87.364V91.444ZM84.6309 85.528C83.5869 85.528 83.0709 86.044 83.0709 87.088V88.384C83.0709 89.104 83.3229 89.464 83.7669 89.632C83.2629 89.776 83.0469 90.1 83.0469 90.712V92.512C83.0469 93.556 83.5629 94.072 84.6069 94.072H85.1709C86.2149 94.072 86.7309 93.556 86.7309 92.512V90.712C86.7309 90.1 86.5149 89.776 86.0109 89.632C86.4549 89.464 86.7069 89.104 86.7069 88.384V87.088C86.7069 86.044 86.1909 85.528 85.1469 85.528H84.6309ZM84.2949 90.736C84.2949 90.412 84.4509 90.256 84.7869 90.256H85.0029C85.3269 90.256 85.4829 90.412 85.4829 90.736V92.476C85.4829 92.8 85.3269 92.956 85.0029 92.956H84.7869C84.4509 92.956 84.2949 92.8 84.2949 92.476V90.736ZM84.7989 89.164C84.4629 89.164 84.3069 89.008 84.3069 88.672V87.124C84.3069 86.8 84.4629 86.644 84.7989 86.644H84.9909C85.3149 86.644 85.4709 86.8 85.4709 87.124V88.672C85.4709 89.008 85.3149 89.164 84.9909 89.164H84.7989ZM87.75 92.56H89.958V94H91.11V92.56H91.71V91.444H91.11V85.6H89.43L87.75 91.324V92.56ZM89.958 91.444H88.794L89.958 87.364V91.444ZM16.2159 99.884C16.2159 99.372 16.4579 99.016 16.9419 98.816C16.4979 98.628 16.2759 98.288 16.2759 97.796C16.2759 97.428 16.3979 97.126 16.6419 96.89C16.8859 96.654 17.2379 96.536 17.6979 96.536C18.1619 96.536 18.5159 96.656 18.7599 96.896C19.0039 97.132 19.1259 97.432 19.1259 97.796C19.1259 98.252 18.9019 98.58 18.4539 98.78C18.9419 98.964 19.1859 99.332 19.1859 99.884C19.1859 100.24 19.0519 100.53 18.7839 100.754C18.5199 100.974 18.1599 101.084 17.7039 101.084C17.2479 101.084 16.8859 100.974 16.6179 100.754C16.3499 100.53 16.2159 100.24 16.2159 99.884ZM17.4999 98.966C17.2479 99.006 17.0559 99.108 16.9239 99.272C16.7959 99.432 16.7319 99.632 16.7319 99.872C16.7319 100.108 16.8139 100.298 16.9779 100.442C17.1459 100.586 17.3839 100.658 17.6919 100.658C18.0039 100.658 18.2459 100.586 18.4179 100.442C18.5899 100.294 18.6759 100.104 18.6759 99.872C18.6759 99.64 18.6219 99.454 18.5139 99.314C18.4059 99.174 18.2259 99.084 17.9739 99.044L17.4999 98.966ZM17.7039 96.962C17.3959 96.962 17.1659 97.042 17.0139 97.202C16.8619 97.358 16.7859 97.554 16.7859 97.79C16.7859 98.022 16.8379 98.202 16.9419 98.33C17.0499 98.458 17.2339 98.542 17.4939 98.582L17.8599 98.642C18.1079 98.598 18.2959 98.502 18.4239 98.354C18.5519 98.206 18.6159 98.016 18.6159 97.784C18.6159 97.552 18.5399 97.358 18.3879 97.202C18.2399 97.042 18.0119 96.962 17.7039 96.962ZM22.1786 97.712C22.4186 97.884 22.5386 98.208 22.5386 98.684V101H22.1966L22.0646 100.466C21.6806 100.878 21.2586 101.084 20.7986 101.084C20.4946 101.084 20.2706 101.004 20.1266 100.844C19.9866 100.684 19.9166 100.468 19.9166 100.196C19.9166 99.924 20.0006 99.704 20.1686 99.536C20.3406 99.368 20.6606 99.246 21.1286 99.17L22.0226 99.026V98.684C22.0226 98.388 21.9586 98.184 21.8306 98.072C21.7066 97.96 21.5346 97.904 21.3146 97.904C20.8746 97.904 20.6126 98.118 20.5286 98.546L20.1086 98.42C20.1726 98.124 20.3066 97.894 20.5106 97.73C20.7146 97.566 20.9906 97.484 21.3386 97.484C21.6906 97.484 21.9706 97.56 22.1786 97.712ZM20.9426 100.688C21.3026 100.688 21.6626 100.494 22.0226 100.106V99.386L21.1766 99.53C20.8926 99.582 20.6966 99.664 20.5886 99.776C20.4806 99.884 20.4266 100.018 20.4266 100.178C20.4266 100.334 20.4686 100.458 20.5526 100.55C20.6366 100.642 20.7666 100.688 20.9426 100.688ZM25.3043 97.484C25.7683 97.484 26.0803 97.642 26.2403 97.958C26.3883 97.826 26.5643 97.714 26.7683 97.622C26.9763 97.53 27.1903 97.484 27.4103 97.484C28.1063 97.484 28.4543 97.842 28.4543 98.558V101H27.9383V98.588C27.9383 98.364 27.8903 98.194 27.7943 98.078C27.6983 97.962 27.5423 97.904 27.3263 97.904C26.9703 97.904 26.6423 98.04 26.3423 98.312C26.3543 98.392 26.3603 98.474 26.3603 98.558V101H25.8443V98.588C25.8443 98.364 25.7963 98.194 25.7003 98.078C25.6043 97.962 25.4463 97.904 25.2263 97.904C24.8783 97.904 24.5583 98.03 24.2663 98.282V101H23.7503V97.568H24.0683L24.2003 97.91C24.5363 97.626 24.9043 97.484 25.3043 97.484ZM31.1805 99.296V98.888H33.8205V99.296H31.1805ZM36.8217 99.848C36.8457 100.392 37.1697 100.664 37.7937 100.664C38.1097 100.664 38.3457 100.54 38.5017 100.292C38.6617 100.04 38.7517 99.626 38.7717 99.05C38.4397 99.146 38.1217 99.194 37.8177 99.194C37.5177 99.194 37.2697 99.16 37.0737 99.092C36.8777 99.02 36.7257 98.922 36.6177 98.798C36.4177 98.562 36.3177 98.258 36.3177 97.886C36.3177 97.51 36.4517 97.192 36.7197 96.932C36.9877 96.668 37.3737 96.536 37.8777 96.536C38.3817 96.536 38.7417 96.724 38.9577 97.1C39.1777 97.472 39.2877 98.026 39.2877 98.762C39.2877 99.462 39.1857 100.012 38.9817 100.412C38.7577 100.86 38.3497 101.084 37.7577 101.084C37.3217 101.084 36.9877 100.982 36.7557 100.778C36.5237 100.574 36.3957 100.282 36.3717 99.902L36.8217 99.848ZM36.8337 97.88C36.8337 98.136 36.9117 98.35 37.0677 98.522C37.2277 98.694 37.4737 98.78 37.8057 98.78C38.1377 98.78 38.4617 98.74 38.7777 98.66C38.7697 98.052 38.6937 97.618 38.5497 97.358C38.4097 97.094 38.1737 96.962 37.8417 96.962C37.5137 96.962 37.2637 97.05 37.0917 97.226C36.9197 97.402 36.8337 97.62 36.8337 97.88ZM41.9145 97.484C42.7785 97.484 43.2105 98.084 43.2105 99.284C43.2105 100.484 42.7625 101.084 41.8665 101.084C41.5745 101.084 41.2605 101.022 40.9245 100.898V102.332L40.4085 102.404V97.568H40.7145L40.8345 97.868C41.1825 97.612 41.5425 97.484 41.9145 97.484ZM42.6945 99.284C42.6945 98.888 42.6245 98.56 42.4845 98.3C42.3485 98.036 42.1245 97.904 41.8125 97.904C41.5005 97.904 41.2045 98.006 40.9245 98.21V100.508C41.1725 100.612 41.4545 100.664 41.7705 100.664C42.3865 100.664 42.6945 100.204 42.6945 99.284ZM45.7242 97.484C46.1882 97.484 46.5002 97.642 46.6602 97.958C46.8082 97.826 46.9842 97.714 47.1882 97.622C47.3962 97.53 47.6102 97.484 47.8302 97.484C48.5262 97.484 48.8742 97.842 48.8742 98.558V101H48.3582V98.588C48.3582 98.364 48.3102 98.194 48.2142 98.078C48.1182 97.962 47.9622 97.904 47.7462 97.904C47.3902 97.904 47.0622 98.04 46.7622 98.312C46.7742 98.392 46.7802 98.474 46.7802 98.558V101H46.2642V98.588C46.2642 98.364 46.2162 98.194 46.1202 98.078C46.0242 97.962 45.8662 97.904 45.6462 97.904C45.2982 97.904 44.9782 98.03 44.6862 98.282V101H44.1702V97.568H44.4882L44.6202 97.91C44.9562 97.626 45.3242 97.484 45.7242 97.484ZM51.1804 101.636L52.6024 96.35H53.1244L51.7024 101.636H51.1804ZM58.7065 96.62H59.4265L59.5405 101H59.0245L58.9345 97.31L57.6805 100.628H57.2005L56.0365 97.346L55.9465 101H55.4305L55.5505 96.62H56.2645L57.4465 99.974L58.7065 96.62ZM61.4242 100.556C61.5602 100.628 61.7282 100.664 61.9282 100.664C62.1282 100.664 62.2942 100.628 62.4262 100.556C62.5622 100.48 62.6622 100.374 62.7262 100.238C62.7902 100.098 62.8342 99.954 62.8582 99.806C62.8862 99.654 62.9002 99.48 62.9002 99.284C62.9002 99.088 62.8862 98.916 62.8582 98.768C62.8342 98.616 62.7902 98.472 62.7262 98.336C62.6622 98.196 62.5622 98.09 62.4262 98.018C62.2942 97.942 62.1282 97.904 61.9282 97.904C61.7282 97.904 61.5602 97.942 61.4242 98.018C61.2922 98.09 61.1922 98.196 61.1242 98.336C61.0602 98.472 61.0162 98.614 60.9922 98.762C60.9682 98.91 60.9562 99.084 60.9562 99.284C60.9562 99.484 60.9682 99.658 60.9922 99.806C61.0162 99.954 61.0602 100.098 61.1242 100.238C61.1922 100.374 61.2922 100.48 61.4242 100.556ZM63.4162 99.284C63.4162 100.484 62.9202 101.084 61.9282 101.084C60.9362 101.084 60.4402 100.484 60.4402 99.284C60.4402 98.084 60.9362 97.484 61.9282 97.484C62.9202 97.484 63.4162 98.084 63.4162 99.284ZM64.8233 97.928C65.2273 97.632 65.6253 97.484 66.0173 97.484C66.4093 97.484 66.6853 97.574 66.8453 97.754C67.0053 97.93 67.0853 98.2 67.0853 98.564V101H66.5693V98.576C66.5693 98.336 66.5233 98.164 66.4313 98.06C66.3393 97.956 66.1853 97.904 65.9693 97.904C65.5973 97.904 65.2373 98.038 64.8893 98.306V101H64.3733V97.568H64.6793L64.8233 97.928ZM69.0911 101.084C68.3551 101.084 67.9871 100.484 67.9871 99.284C67.9871 98.084 68.4331 97.484 69.3251 97.484C69.6331 97.484 69.9491 97.562 70.2731 97.718V96.452L70.7891 96.392V101H70.4471L70.2971 100.478C69.9331 100.882 69.5311 101.084 69.0911 101.084ZM69.2591 100.664C69.6191 100.664 69.9571 100.472 70.2731 100.088V98.126C69.9851 97.97 69.7031 97.892 69.4271 97.892C69.0911 97.892 68.8531 98.014 68.7131 98.258C68.5731 98.502 68.5031 98.844 68.5031 99.284C68.5031 100.204 68.7551 100.664 69.2591 100.664ZM74.0048 97.712C74.2448 97.884 74.3648 98.208 74.3648 98.684V101H74.0228L73.8908 100.466C73.5068 100.878 73.0848 101.084 72.6248 101.084C72.3208 101.084 72.0968 101.004 71.9528 100.844C71.8128 100.684 71.7428 100.468 71.7428 100.196C71.7428 99.924 71.8268 99.704 71.9948 99.536C72.1668 99.368 72.4868 99.246 72.9548 99.17L73.8488 99.026V98.684C73.8488 98.388 73.7848 98.184 73.6568 98.072C73.5328 97.96 73.3608 97.904 73.1408 97.904C72.7008 97.904 72.4388 98.118 72.3548 98.546L71.9348 98.42C71.9988 98.124 72.1328 97.894 72.3368 97.73C72.5408 97.566 72.8168 97.484 73.1648 97.484C73.5168 97.484 73.7968 97.56 74.0048 97.712ZM72.7688 100.688C73.1288 100.688 73.4888 100.494 73.8488 100.106V99.386L73.0028 99.53C72.7188 99.582 72.5228 99.664 72.4148 99.776C72.3068 99.884 72.2528 100.018 72.2528 100.178C72.2528 100.334 72.2948 100.458 72.3788 100.55C72.4628 100.642 72.5928 100.688 72.7688 100.688ZM76.2724 102.47L75.8044 102.386L76.3324 101.024L75.0364 97.568H75.5704L76.5844 100.346L77.5684 97.568H78.0964L76.2724 102.47ZM80.0645 97.922V97.568H80.6525V96.944L81.1685 96.74V97.568H81.8945V97.922H81.1685V100.196C81.1685 100.376 81.1925 100.504 81.2405 100.58C81.2925 100.652 81.3665 100.688 81.4625 100.688C81.5585 100.688 81.6765 100.672 81.8165 100.64L81.8765 100.988C81.6605 101.052 81.4765 101.084 81.3245 101.084C81.1765 101.084 81.0545 101.06 80.9585 101.012C80.8625 100.964 80.7945 100.892 80.7545 100.796C80.6865 100.652 80.6525 100.458 80.6525 100.214V97.922H80.0645ZM83.3148 100.556C83.4508 100.628 83.6188 100.664 83.8188 100.664C84.0188 100.664 84.1848 100.628 84.3168 100.556C84.4528 100.48 84.5528 100.374 84.6168 100.238C84.6808 100.098 84.7248 99.954 84.7488 99.806C84.7768 99.654 84.7908 99.48 84.7908 99.284C84.7908 99.088 84.7768 98.916 84.7488 98.768C84.7248 98.616 84.6808 98.472 84.6168 98.336C84.5528 98.196 84.4528 98.09 84.3168 98.018C84.1848 97.942 84.0188 97.904 83.8188 97.904C83.6188 97.904 83.4508 97.942 83.3148 98.018C83.1828 98.09 83.0828 98.196 83.0148 98.336C82.9508 98.472 82.9068 98.614 82.8828 98.762C82.8588 98.91 82.8468 99.084 82.8468 99.284C82.8468 99.484 82.8588 99.658 82.8828 99.806C82.9068 99.954 82.9508 100.098 83.0148 100.238C83.0828 100.374 83.1828 100.48 83.3148 100.556ZM85.3068 99.284C85.3068 100.484 84.8108 101.084 83.8188 101.084C82.8268 101.084 82.3308 100.484 82.3308 99.284C82.3308 98.084 82.8268 97.484 83.8188 97.484C84.8108 97.484 85.3068 98.084 85.3068 99.284ZM88.0042 96.62H90.2122V97.04H88.5322V98.564H90.0742V98.984H88.5322V101H88.0042V96.62ZM91.6256 101H91.1096V97.568H91.4156L91.6016 98.18C91.8816 97.736 92.2916 97.504 92.8316 97.484V97.958C92.2916 97.978 91.8896 98.206 91.6256 98.642V101ZM93.5178 97.568H94.0338V101H93.5178V97.568ZM93.7758 96.992C93.5718 96.992 93.4698 96.882 93.4698 96.662C93.4698 96.438 93.5718 96.326 93.7758 96.326C93.9878 96.326 94.0938 96.438 94.0938 96.662C94.0938 96.882 93.9878 96.992 93.7758 96.992ZM96.0969 101.084C95.3609 101.084 94.9929 100.484 94.9929 99.284C94.9929 98.084 95.4389 97.484 96.3309 97.484C96.6389 97.484 96.9549 97.562 97.2789 97.718V96.452L97.7949 96.392V101H97.4529L97.3029 100.478C96.9389 100.882 96.5369 101.084 96.0969 101.084ZM96.2649 100.664C96.6249 100.664 96.9629 100.472 97.2789 100.088V98.126C96.9909 97.97 96.7089 97.892 96.4329 97.892C96.0969 97.892 95.8589 98.014 95.7189 98.258C95.5789 98.502 95.5089 98.844 95.5089 99.284C95.5089 100.204 95.7609 100.664 96.2649 100.664ZM101.011 97.712C101.251 97.884 101.371 98.208 101.371 98.684V101H101.029L100.897 100.466C100.513 100.878 100.091 101.084 99.6307 101.084C99.3267 101.084 99.1027 101.004 98.9587 100.844C98.8187 100.684 98.7487 100.468 98.7487 100.196C98.7487 99.924 98.8327 99.704 99.0007 99.536C99.1727 99.368 99.4927 99.246 99.9607 99.17L100.855 99.026V98.684C100.855 98.388 100.791 98.184 100.663 98.072C100.539 97.96 100.367 97.904 100.147 97.904C99.7067 97.904 99.4447 98.118 99.3607 98.546L98.9407 98.42C99.0047 98.124 99.1387 97.894 99.3427 97.73C99.5467 97.566 99.8227 97.484 100.171 97.484C100.523 97.484 100.803 97.56 101.011 97.712ZM99.7747 100.688C100.135 100.688 100.495 100.494 100.855 100.106V99.386L100.009 99.53C99.7247 99.582 99.5287 99.664 99.4207 99.776C99.3127 99.884 99.2587 100.018 99.2587 100.178C99.2587 100.334 99.3007 100.458 99.3847 100.55C99.4687 100.642 99.5987 100.688 99.7747 100.688ZM103.278 102.47L102.81 102.386L103.338 101.024L102.042 97.568H102.576L103.59 100.346L104.574 97.568H105.102L103.278 102.47Z" fill="#FFF6D2"/>
<rect x="39.6134" y="16.3096" width="41.0057" height="41.0057" rx="20.5029" stroke="#FFF6D2" stroke-width="1.5"/>
<g clip-path="url(#clip0_4521_30738)">
<path d="M54.2925 28.2172C54.2134 28.1172 54.1135 28.035 53.9995 27.9758C53.8856 27.9167 53.7601 27.882 53.6314 27.8742C53.5028 27.8663 53.3739 27.8855 53.2534 27.9303C53.1328 27.9752 53.0234 28.0447 52.9323 28.1343L51.5467 29.4969C50.8994 30.1341 50.6609 31.036 50.9437 31.8272C52.1172 35.1022 54.0262 38.0757 56.529 40.527C59.0241 42.9858 62.0506 44.8613 65.3841 46.0143C66.1895 46.2921 67.1074 46.0578 67.756 45.4219L69.1417 44.0606C69.2329 43.9711 69.3036 43.8636 69.3493 43.7451C69.3949 43.6267 69.4144 43.5001 69.4064 43.3737C69.3984 43.2473 69.3632 43.124 69.303 43.0121C69.2428 42.9001 69.159 42.802 69.0572 42.7243L65.9657 40.3624C65.857 40.2795 65.7306 40.222 65.5959 40.1942C65.4613 40.1664 65.322 40.169 65.1885 40.2018L62.2538 40.9219C61.862 41.0181 61.4516 41.013 61.0625 40.9071C60.6734 40.8012 60.3188 40.5981 60.0333 40.3176L56.7421 37.0829C56.4564 36.8025 56.2494 36.4542 56.1414 36.0719C56.0333 35.6896 56.0279 35.2863 56.1257 34.9013L56.86 32.0181C56.8934 31.887 56.896 31.7501 56.8677 31.6178C56.8394 31.4855 56.7809 31.3613 56.6965 31.2545L54.2925 28.2172ZM51.9206 27.1416C52.1551 26.9111 52.4368 26.7323 52.747 26.617C53.0573 26.5018 53.3889 26.4526 53.72 26.4729C54.051 26.4932 54.3739 26.5825 54.6671 26.7348C54.9604 26.887 55.2173 27.0989 55.4208 27.3562L57.8249 30.3922C58.2657 30.9491 58.4212 31.6745 58.247 32.3591L57.514 35.2423C57.4761 35.3917 57.4781 35.5481 57.5199 35.6964C57.5617 35.8447 57.6418 35.9799 57.7525 36.0889L61.045 39.3236C61.156 39.4326 61.2939 39.5114 61.4451 39.5525C61.5963 39.5936 61.7558 39.5955 61.908 39.558L64.8414 38.8378C65.1853 38.7534 65.5442 38.7468 65.8911 38.8186C66.2379 38.8905 66.5636 39.0389 66.8435 39.2525L69.9336 41.6144C71.0445 42.4636 71.1464 44.0764 70.1521 45.0519L68.7664 46.4132C67.7748 47.3875 66.2927 47.8154 64.9111 47.3375C61.3749 46.1151 58.1643 44.1262 55.5173 41.5183C52.863 38.9182 50.8386 35.7643 49.5942 32.2906C49.1091 30.9346 49.5446 29.4772 50.5363 28.5029L51.9219 27.1416H51.9206Z" fill="#FFF6D2"/>
</g>
<defs>
<clipPath id="clip0_4521_30738">
<rect width="21.4409" height="21.0648" fill="white" transform="translate(49.3958 26.4688)"/>
</clipPath>
</defs>
</svg>
