<svg width="120" height="122" viewBox="0 0 120 122" fill="none" xmlns="http://www.w3.org/2000/svg">
<rect x="2" y="1.74219" width="115.856" height="118.489" rx="31" fill="#10454F" stroke="#CA8923" stroke-width="3"/>
<path d="M21.4702 77.74L19.0702 75.96C18.7302 75.72 18.5902 75.5 18.5902 75.06V73.74C18.5902 73.4 18.7502 73.24 19.0902 73.24H19.3102C19.6502 73.24 19.8102 73.4 19.8102 73.74V76.04H22.5502V73.48C22.5502 71.74 21.6902 70.88 19.9502 70.88H18.4302C16.6902 70.88 15.8302 71.74 15.8302 73.48V75.7C15.8302 76.7 16.0902 77.28 16.9502 77.9L19.3502 79.68C19.6902 79.92 19.8302 80.14 19.8302 80.58V82.26C19.8302 82.6 19.6702 82.76 19.3302 82.76H19.0702C18.7302 82.76 18.5702 82.6 18.5702 82.26V79.54H15.8302V82.52C15.8302 84.26 16.6902 85.12 18.4302 85.12H19.9902C21.7302 85.12 22.5902 84.26 22.5902 82.52V79.94C22.5902 78.9 22.3302 78.36 21.4702 77.74ZM23.9297 71V85H29.1697V82.5H26.7297V79.14H29.0297V76.64H26.7297V73.5H29.1297V71H23.9297ZM37.4025 85V71H34.9825L35.0025 73.9L35.0425 77.94L33.4225 71H30.5625V85H32.9825L32.9425 80.94L32.9025 77.38L34.6825 85H37.4025ZM38.8945 85H42.8345C44.8545 85 45.8345 84.02 45.8345 82V74C45.8345 71.98 44.8545 71 42.8345 71H38.8945V85ZM41.6945 73.4H42.2545C42.7945 73.4 43.0345 73.64 43.0345 74.18V81.82C43.0345 82.36 42.7945 82.6 42.2545 82.6H41.6945V73.4ZM57.38 71H54.58V82.22C54.58 82.56 54.42 82.72 54.08 82.72H53.78C53.44 82.72 53.28 82.56 53.28 82.22V71H50.48V82.52C50.48 84.26 51.34 85.12 53.08 85.12H54.78C56.52 85.12 57.38 84.26 57.38 82.52V71ZM64.4116 77.74L62.0116 75.96C61.6716 75.72 61.5316 75.5 61.5316 75.06V73.74C61.5316 73.4 61.6916 73.24 62.0316 73.24H62.2516C62.5916 73.24 62.7516 73.4 62.7516 73.74V76.04H65.4916V73.48C65.4916 71.74 64.6316 70.88 62.8916 70.88H61.3716C59.6316 70.88 58.7716 71.74 58.7716 73.48V75.7C58.7716 76.7 59.0316 77.28 59.8916 77.9L62.2916 79.68C62.6316 79.92 62.7716 80.14 62.7716 80.58V82.26C62.7716 82.6 62.6116 82.76 62.2716 82.76H62.0116C61.6716 82.76 61.5116 82.6 61.5116 82.26V79.54H58.7716V82.52C58.7716 84.26 59.6316 85.12 61.3716 85.12H62.9316C64.6716 85.12 65.5316 84.26 65.5316 82.52V79.94C65.5316 78.9 65.2716 78.36 64.4116 77.74ZM70.0859 71V85H75.3259V82.5H72.8859V79.14H75.1859V76.64H72.8859V73.5H75.2859V71H70.0859ZM80.0188 85H82.6588L83.7188 75.84V85H86.4788V71H82.4188L81.5588 79.48L80.7588 71H76.7188V85H78.9588V75.74L80.0188 85ZM95.0805 85L93.2405 71H89.4205L87.5805 85H90.1205L90.3205 82.96H92.0805L92.3005 85H95.0805ZM91.2005 74.42L91.8205 80.52H90.5805L91.2005 74.42ZM98.9958 71H96.1958V85H98.9958V71ZM100.523 71V85H105.343V82.5H103.323V71H100.523Z" fill="#CA8923"/>
<path d="M15.9106 92.9165L14.9386 92.2055C14.7586 92.0795 14.6686 91.9535 14.6686 91.6925V90.9905C14.6686 90.7475 14.7856 90.6305 15.0286 90.6305H15.1456C15.3886 90.6305 15.5056 90.7475 15.5056 90.9905V92.0975H16.4506V90.9545C16.4506 90.1805 16.0636 89.7935 15.2896 89.7935H14.8846C14.1016 89.7935 13.7146 90.1805 13.7146 90.9635V91.8275C13.7146 92.3135 13.8406 92.6105 14.2726 92.9165L15.2446 93.6275C15.4246 93.7625 15.5146 93.8795 15.5146 94.1405V95.0045C15.5146 95.2475 15.3976 95.3645 15.1456 95.3645H15.0196C14.7676 95.3645 14.6506 95.2475 14.6506 95.0045V93.7085H13.7146V95.0405C13.7146 95.8145 14.0926 96.2015 14.8756 96.2015H15.2986C16.0816 96.2015 16.4686 95.8145 16.4686 95.0315V94.0055C16.4686 93.4925 16.3336 93.2225 15.9106 92.9165ZM20.2925 89.8475H19.3295V94.9865C19.3295 95.2385 19.2125 95.3555 18.9695 95.3555H18.8165C18.5645 95.3555 18.4475 95.2385 18.4475 94.9865V89.8475H17.4845V95.0315C17.4845 95.8145 17.8715 96.2015 18.6545 96.2015H19.1225C19.9055 96.2015 20.2925 95.8145 20.2925 95.0315V89.8475ZM22.3227 93.8615H22.8717C23.6547 93.8615 24.0417 93.4745 24.0417 92.6915V91.0175C24.0417 90.2345 23.6547 89.8475 22.8717 89.8475H21.3597V96.1475H22.3227V93.8615ZM23.0787 91.0625V92.6465C23.0787 92.8985 22.9617 93.0155 22.7187 93.0155H22.3227V90.6935H22.7187C22.9617 90.6935 23.0787 90.8105 23.0787 91.0625ZM25.978 93.8615H26.527C27.31 93.8615 27.697 93.4745 27.697 92.6915V91.0175C27.697 90.2345 27.31 89.8475 26.527 89.8475H25.015V96.1475H25.978V93.8615ZM26.734 91.0625V92.6465C26.734 92.8985 26.617 93.0155 26.374 93.0155H25.978V90.6935H26.374C26.617 90.6935 26.734 90.8105 26.734 91.0625ZM31.5053 95.0315V90.9635C31.5053 90.1805 31.1183 89.7935 30.3353 89.7935H29.8223C29.0393 89.7935 28.6523 90.1805 28.6523 90.9635V95.0315C28.6523 95.8145 29.0393 96.2015 29.8223 96.2015H30.3353C31.1183 96.2015 31.5053 95.8145 31.5053 95.0315ZM30.5423 91.0085V94.9865C30.5423 95.2385 30.4253 95.3555 30.1823 95.3555H29.9843C29.7323 95.3555 29.6153 95.2385 29.6153 94.9865V91.0085C29.6153 90.7565 29.7323 90.6395 29.9843 90.6395H30.1823C30.4253 90.6395 30.5423 90.7565 30.5423 91.0085ZM34.7679 93.1775C35.1189 93.0335 35.3169 92.7635 35.3169 92.2055V91.0175C35.3169 90.2345 34.9299 89.8475 34.1469 89.8475H32.5629V96.1475H33.5259V93.6185H33.9579C34.2369 93.6185 34.3629 93.7445 34.3629 94.0235V96.1475H35.3259V94.0055C35.3259 93.5285 35.1639 93.2855 34.7679 93.1775ZM34.3539 91.0625V92.3945C34.3539 92.6555 34.2279 92.7815 33.9579 92.7815H33.5259V90.7025H33.9939C34.2369 90.7025 34.3539 90.8195 34.3539 91.0625ZM37.9438 96.1475V90.7205H38.8078V89.8475H36.1168V90.7205H36.9808V96.1475H37.9438ZM42.9108 95.8775C43.3608 95.8775 43.5768 95.6525 43.5768 95.1305V91.9895C43.5768 90.9095 43.1538 90.5135 42.1728 90.5135H41.1108C40.1298 90.5135 39.7068 90.9095 39.7068 91.9895V95.3465C39.7068 96.4445 40.1118 96.8225 41.1108 96.8225H43.2798V96.5165H41.1108C40.3458 96.5165 40.0308 96.2195 40.0308 95.3465V91.9895C40.0308 91.1165 40.3458 90.8195 41.1108 90.8195H42.1728C42.9378 90.8195 43.2528 91.1165 43.2528 91.9895V95.1215C43.2528 95.4275 43.1448 95.5715 42.9198 95.5715H42.8658C42.7218 95.5715 42.6498 95.5085 42.6498 95.3465V92.2865C42.6498 91.7195 42.3618 91.4405 41.7858 91.4405H41.5158C40.9398 91.4405 40.6428 91.7195 40.6428 92.2865V92.9165H41.3628V92.3765C41.3628 92.1965 41.4438 92.1155 41.6238 92.1155H41.6688C41.8488 92.1155 41.9208 92.1965 41.9208 92.3765V93.1055L41.1648 93.3575C40.7418 93.5015 40.5978 93.7175 40.5978 94.1945V95.1755C40.5978 95.6255 40.8408 95.8865 41.2548 95.8865C41.5338 95.8865 41.7678 95.7695 41.9928 95.5175C42.0918 95.7695 42.2628 95.8775 42.6048 95.8775H42.9108ZM41.5608 95.1935C41.3988 95.1935 41.3268 95.1125 41.3268 94.9505V94.2485C41.3268 94.0685 41.3808 93.9785 41.5338 93.9155L41.9208 93.7715V95.0675C41.7858 95.1485 41.6868 95.1935 41.5608 95.1935ZM46.8403 92.9165L45.8683 92.2055C45.6883 92.0795 45.5983 91.9535 45.5983 91.6925V90.9905C45.5983 90.7475 45.7153 90.6305 45.9583 90.6305H46.0753C46.3183 90.6305 46.4353 90.7475 46.4353 90.9905V92.0975H47.3803V90.9545C47.3803 90.1805 46.9933 89.7935 46.2193 89.7935H45.8143C45.0313 89.7935 44.6443 90.1805 44.6443 90.9635V91.8275C44.6443 92.3135 44.7703 92.6105 45.2023 92.9165L46.1743 93.6275C46.3543 93.7625 46.4443 93.8795 46.4443 94.1405V95.0045C46.4443 95.2475 46.3273 95.3645 46.0753 95.3645H45.9493C45.6973 95.3645 45.5803 95.2475 45.5803 95.0045V93.7085H44.6443V95.0405C44.6443 95.8145 45.0223 96.2015 45.8053 96.2015H46.2283C47.0113 96.2015 47.3983 95.8145 47.3983 95.0315V94.0055C47.3983 93.4925 47.2633 93.2225 46.8403 92.9165ZM50.3773 89.8385H49.0993L48.1993 96.1475H49.0903L49.2073 95.1575H50.2063L50.3323 96.1475H51.2863L50.3773 89.8385ZM49.7023 91.1165L50.0983 94.3025H49.3153L49.7023 91.1165ZM53.994 93.5645V94.9865C53.994 95.2385 53.877 95.3555 53.634 95.3555H53.454C53.202 95.3555 53.085 95.2385 53.085 94.9865V91.0085C53.085 90.7565 53.202 90.6395 53.454 90.6395H53.616C53.859 90.6395 53.976 90.7565 53.976 91.0085V92.2415H54.921V90.9545C54.921 90.1715 54.543 89.7935 53.76 89.7935H53.292C52.509 89.7935 52.122 90.1805 52.122 90.9635V95.0315C52.122 95.8145 52.509 96.2015 53.292 96.2015H53.769C54.552 96.2015 54.939 95.8145 54.939 95.0315V93.5645H53.994ZM58.1759 92.9075C58.5179 92.7815 58.7069 92.5025 58.7069 91.9445V91.0175C58.7069 90.2345 58.3199 89.8475 57.5369 89.8475H55.9799V96.1475H57.5549C58.3379 96.1475 58.7249 95.7605 58.7249 94.9775V93.8165C58.7249 93.3035 58.5449 93.0335 58.1759 92.9075ZM57.7529 91.0535V92.1335C57.7529 92.3945 57.6269 92.5295 57.3569 92.5295H56.9339V90.6935H57.3929C57.6359 90.6935 57.7529 90.8105 57.7529 91.0535ZM56.9339 93.3485H57.3749C57.6449 93.3485 57.7709 93.4745 57.7709 93.7445V94.9415C57.7709 95.1845 57.6539 95.3015 57.4109 95.3015H56.9339V93.3485ZM59.767 89.8475V96.1475H61.927V95.2745H60.73V93.3755H61.864V92.5025H60.73V90.7205H61.909V89.8475H59.767ZM63.9018 93.8615H64.4508C65.2338 93.8615 65.6208 93.4745 65.6208 92.6915V91.0175C65.6208 90.2345 65.2338 89.8475 64.4508 89.8475H62.9388V96.1475H63.9018V93.8615ZM64.6578 91.0625V92.6465C64.6578 92.8985 64.5408 93.0155 64.2978 93.0155H63.9018V90.6935H64.2978C64.5408 90.6935 64.6578 90.8105 64.6578 91.0625ZM68.3636 89.8385H67.0856L66.1856 96.1475H67.0766L67.1936 95.1575H68.1926L68.3186 96.1475H69.2726L68.3636 89.8385ZM67.6886 91.1165L68.0846 94.3025H67.3016L67.6886 91.1165ZM72.6439 89.8475H71.7169L71.1409 92.5295L70.6009 89.8475H69.6109L70.6459 94.0055V96.1475H71.6089V93.9065L72.6439 89.8475ZM76.1204 89.8475L75.4994 94.4285L74.8964 89.8475H73.4564V96.1475H74.2844V91.2965L74.9774 96.1475H75.9224L76.6064 91.3595V96.1475H77.5514V89.8475H76.1204ZM78.6234 89.8475V96.1475H80.7834V95.2745H79.5864V93.3755H80.7204V92.5025H79.5864V90.7205H80.7654V89.8475H78.6234ZM84.6753 96.1475V89.8475H83.8113V92.6825L83.8203 93.7355L82.9203 89.8475H81.7953V96.1475H82.6593V93.0155L82.6503 91.9085L83.6313 96.1475H84.6753ZM87.3784 96.1475V90.7205H88.2424V89.8475H85.5514V90.7205H86.4154V96.1475H87.3784ZM91.2221 92.9165L90.2501 92.2055C90.0701 92.0795 89.9801 91.9535 89.9801 91.6925V90.9905C89.9801 90.7475 90.0971 90.6305 90.3401 90.6305H90.4571C90.7001 90.6305 90.8171 90.7475 90.8171 90.9905V92.0975H91.7621V90.9545C91.7621 90.1805 91.3751 89.7935 90.6011 89.7935H90.1961C89.4131 89.7935 89.0261 90.1805 89.0261 90.9635V91.8275C89.0261 92.3135 89.1521 92.6105 89.5841 92.9165L90.5561 93.6275C90.7361 93.7625 90.8261 93.8795 90.8261 94.1405V95.0045C90.8261 95.2475 90.7091 95.3645 90.4571 95.3645H90.3311C90.0791 95.3645 89.9621 95.2475 89.9621 95.0045V93.7085H89.0261V95.0405C89.0261 95.8145 89.4041 96.2015 90.1871 96.2015H90.6101C91.3931 96.2015 91.7801 95.8145 91.7801 95.0315V94.0055C91.7801 93.4925 91.6451 93.2225 91.2221 92.9165ZM93.6511 94.9505H92.7421V96.1475H93.6511V94.9505ZM96.5214 93.5645V94.9865C96.5214 95.2385 96.4044 95.3555 96.1614 95.3555H95.9814C95.7294 95.3555 95.6124 95.2385 95.6124 94.9865V91.0085C95.6124 90.7565 95.7294 90.6395 95.9814 90.6395H96.1434C96.3864 90.6395 96.5034 90.7565 96.5034 91.0085V92.2415H97.4484V90.9545C97.4484 90.1715 97.0704 89.7935 96.2874 89.7935H95.8194C95.0364 89.7935 94.6494 90.1805 94.6494 90.9635V95.0315C94.6494 95.8145 95.0364 96.2015 95.8194 96.2015H96.2964C97.0794 96.2015 97.4664 95.8145 97.4664 95.0315V93.5645H96.5214ZM101.342 95.0315V90.9635C101.342 90.1805 100.955 89.7935 100.172 89.7935H99.6592C98.8762 89.7935 98.4892 90.1805 98.4892 90.9635V95.0315C98.4892 95.8145 98.8762 96.2015 99.6592 96.2015H100.172C100.955 96.2015 101.342 95.8145 101.342 95.0315ZM100.379 91.0085V94.9865C100.379 95.2385 100.262 95.3555 100.019 95.3555H99.8212C99.5692 95.3555 99.4522 95.2385 99.4522 94.9865V91.0085C99.4522 90.7565 99.5692 90.6395 99.8212 90.6395H100.019C100.262 90.6395 100.379 90.7565 100.379 91.0085ZM105.064 89.8475L104.443 94.4285L103.84 89.8475H102.4V96.1475H103.228V91.2965L103.921 96.1475H104.866L105.55 91.3595V96.1475H106.495V89.8475H105.064Z" fill="#FFF6D2"/>
<rect x="39.6134" y="16.0518" width="41.0057" height="41.0057" rx="20.5029" stroke="#FFF6D2" stroke-width="1.5"/>
<path fill-rule="evenodd" clip-rule="evenodd" d="M51.2296 29.1618C50.0026 29.1618 49.0079 30.1565 49.0079 31.3835V43.2324C49.0079 44.4594 50.0026 45.4541 51.2296 45.4541H69.003C70.23 45.4541 71.2247 44.4594 71.2247 43.2324V31.3835C71.2247 30.1565 70.23 29.1618 69.003 29.1618H51.2296ZM50.4891 31.5883V43.2324C50.4891 43.6414 50.8206 43.9729 51.2296 43.9729H69.003C69.412 43.9729 69.7436 43.6414 69.7436 43.2324V31.5884L62.6348 37.2301C62.6261 37.237 62.6173 37.2437 62.6083 37.2502C61.136 38.3146 59.0967 38.3146 57.6244 37.2502C57.6154 37.2437 57.6066 37.237 57.5979 37.2301L50.4891 31.5883ZM68.5524 30.6429H51.6803L58.5048 36.059C59.4541 36.7369 60.7786 36.7369 61.7278 36.059L68.5524 30.6429Z" fill="#FFF6D2"/>
</svg>
