<svg width="224" height="69" viewBox="0 0 224 69" fill="none" xmlns="http://www.w3.org/2000/svg">
<rect x="1.5" y="1.5" width="221" height="66" rx="33" fill="#10454F" stroke="#CA8923" stroke-width="3"/>
<path fill-rule="evenodd" clip-rule="evenodd" d="M179.875 27.75C178.684 27.75 177.719 28.7574 177.719 30V42C177.719 43.2426 178.684 44.25 179.875 44.25H197.125C198.316 44.25 199.281 43.2426 199.281 42V30C199.281 28.7574 198.316 27.75 197.125 27.75H179.875ZM179.156 30.2075V42C179.156 42.4142 179.478 42.75 179.875 42.75H197.125C197.522 42.75 197.844 42.4142 197.844 42V30.2075L190.944 35.9212C190.936 35.9282 190.927 35.9349 190.919 35.9415C189.49 37.0195 187.51 37.0195 186.081 35.9415C186.073 35.9349 186.064 35.9282 186.056 35.9212L179.156 30.2075ZM196.688 29.25H180.312L186.936 34.7351C187.857 35.4217 189.143 35.4217 190.064 34.7351L196.688 29.25Z" fill="#FFF6D2"/>
<path d="M32.38 34.7C33.74 35.0467 34.7133 35.54 35.3 36.18C35.8867 36.82 36.18 37.78 36.18 39.06C36.18 40.34 35.74 41.3667 34.86 42.14C33.98 42.9 32.6867 43.28 30.98 43.28C29.2733 43.28 28.04 42.92 27.28 42.2C26.52 41.4667 26.0533 40.4067 25.88 39.02L28.06 38.68C28.14 39.4667 28.4067 40.08 28.86 40.52C29.3267 40.9467 29.9733 41.16 30.8 41.16C32.5733 41.16 33.46 40.4867 33.46 39.14C33.46 38.5667 33.2933 38.1333 32.96 37.84C32.6267 37.5467 31.9867 37.28 31.04 37.04L29.9 36.76C28.5667 36.4267 27.6133 35.9333 27.04 35.28C26.4667 34.6267 26.18 33.6533 26.18 32.36C26.18 31.0533 26.6 30.02 27.44 29.26C28.28 28.5 29.52 28.12 31.16 28.12C32.8133 28.12 34 28.4867 34.72 29.22C35.4533 29.94 35.9067 30.9933 36.08 32.38L33.92 32.72C33.7467 31.0667 32.8933 30.24 31.36 30.24C30.52 30.24 29.9 30.4267 29.5 30.8C29.1 31.16 28.9 31.64 28.9 32.24C28.9 32.84 29.0533 33.2867 29.36 33.58C29.6667 33.8733 30.2533 34.1333 31.12 34.36L32.38 34.7ZM42.8908 43.28C41.0508 43.28 39.7374 42.7867 38.9508 41.8C38.1641 40.8 37.7708 39.2933 37.7708 37.28C37.7708 33.28 39.4508 31.28 42.8108 31.28C44.7441 31.28 46.0641 31.88 46.7708 33.08C47.3841 34.1067 47.6908 35.44 47.6908 37.08V37.8H40.3708C40.3841 39.0533 40.5908 39.94 40.9908 40.46C41.3908 40.9667 42.0508 41.22 42.9708 41.22C44.4508 41.22 45.2374 40.6867 45.3308 39.62L47.5308 39.7C47.3174 42.0867 45.7708 43.28 42.8908 43.28ZM44.4308 34C44.0974 33.56 43.5508 33.34 42.7908 33.34C42.0308 33.34 41.4708 33.5533 41.1108 33.98C40.7641 34.3933 40.5374 35.06 40.4308 35.98H45.0508C44.9708 35.0867 44.7641 34.4267 44.4308 34ZM52.3203 32.6C53.5736 31.72 54.8536 31.28 56.1603 31.28C57.4803 31.28 58.4336 31.6067 59.0203 32.26C59.607 32.9 59.9003 33.7867 59.9003 34.92V43H57.2203V35.2C57.2203 34.52 57.0936 34.04 56.8403 33.76C56.6003 33.48 56.1736 33.34 55.5603 33.34C54.6003 33.34 53.707 33.64 52.8803 34.24V43H50.2003V31.56H51.4603L52.3203 32.6ZM66.162 43.28C63.5887 43.28 62.302 41.28 62.302 37.28C62.302 33.28 63.862 31.28 66.982 31.28C67.862 31.28 68.7287 31.44 69.582 31.76V27.96L72.262 27.76V43H70.522L69.782 41.58C68.6754 42.7133 67.4687 43.28 66.162 43.28ZM67.222 41.22C68.0487 41.22 68.8354 40.7933 69.582 39.94V33.74C68.9287 33.4733 68.2887 33.34 67.662 33.34C66.702 33.34 66.0154 33.6733 65.602 34.34C65.1887 35.0067 64.982 35.9867 64.982 37.28C64.982 39.9067 65.7287 41.22 67.222 41.22ZM84.8484 43.28C82.5018 43.28 81.3284 42.0667 81.3284 39.64V31.56H84.0084V39.2C84.0084 39.8933 84.1418 40.4067 84.4084 40.74C84.6884 41.06 85.1484 41.22 85.7884 41.22C86.6951 41.22 87.5551 40.7933 88.3684 39.94V31.56H91.0484V43H89.3084L88.5484 41.62C87.5084 42.7267 86.2751 43.28 84.8484 43.28ZM102.99 39.8C102.99 42.08 101.39 43.22 98.1897 43.22C96.7897 43.22 95.7497 42.92 95.0697 42.32C94.3897 41.7067 93.963 40.82 93.7897 39.66L95.8697 39.34C96.0164 40.62 96.8097 41.26 98.2497 41.26C99.703 41.26 100.43 40.8067 100.43 39.9C100.43 39.5267 100.283 39.2467 99.9897 39.06C99.7097 38.8733 99.1364 38.68 98.2697 38.48L97.3497 38.26C96.163 37.98 95.3097 37.5733 94.7897 37.04C94.283 36.4933 94.0297 35.7067 94.0297 34.68C94.0297 32.4133 95.5764 31.28 98.6697 31.28C100.003 31.28 100.996 31.5867 101.65 32.2C102.316 32.8 102.73 33.68 102.89 34.84L100.81 35.14C100.663 33.8733 99.923 33.24 98.5897 33.24C97.2697 33.24 96.6097 33.6933 96.6097 34.6C96.6097 34.9733 96.7364 35.26 96.9897 35.46C97.2564 35.6467 97.7897 35.8333 98.5897 36.02L99.6297 36.28C100.816 36.5733 101.67 36.9867 102.19 37.52C102.723 38.04 102.99 38.8 102.99 39.8ZM115.195 43.28C113.355 43.28 112.042 42.7867 111.255 41.8C110.469 40.8 110.075 39.2933 110.075 37.28C110.075 33.28 111.755 31.28 115.115 31.28C117.049 31.28 118.369 31.88 119.075 33.08C119.689 34.1067 119.995 35.44 119.995 37.08V37.8H112.675C112.689 39.0533 112.895 39.94 113.295 40.46C113.695 40.9667 114.355 41.22 115.275 41.22C116.755 41.22 117.542 40.6867 117.635 39.62L119.835 39.7C119.622 42.0867 118.075 43.28 115.195 43.28ZM116.735 34C116.402 33.56 115.855 33.34 115.095 33.34C114.335 33.34 113.775 33.5533 113.415 33.98C113.069 34.3933 112.842 35.06 112.735 35.98H117.355C117.275 35.0867 117.069 34.4267 116.735 34ZM128.045 31.28C129.645 31.28 130.765 31.74 131.405 32.66C132.552 31.74 133.772 31.28 135.065 31.28C136.372 31.28 137.338 31.6067 137.965 32.26C138.592 32.9 138.905 33.7867 138.905 34.92V43H136.225V35.36C136.225 34.6667 136.098 34.16 135.845 33.84C135.592 33.5067 135.145 33.34 134.505 33.34C133.598 33.34 132.765 33.6533 132.005 34.28C132.032 34.5467 132.045 34.76 132.045 34.92V43H129.365V35.36C129.365 34.6667 129.232 34.16 128.965 33.84C128.698 33.5067 128.185 33.34 127.425 33.34C126.678 33.34 125.932 33.6067 125.185 34.14V43H122.505V31.56H123.925L124.625 32.5C125.705 31.6867 126.845 31.28 128.045 31.28ZM146.486 31.28C149.393 31.28 150.846 32.6067 150.846 35.26V43H149.106L148.346 41.6C147.279 42.72 146.033 43.28 144.606 43.28C143.593 43.28 142.819 43 142.286 42.44C141.766 41.8667 141.506 41.1067 141.506 40.16C141.506 39.2 141.806 38.4267 142.406 37.84C143.006 37.2533 144.126 36.84 145.766 36.6L148.166 36.24V35.28C148.166 33.9867 147.553 33.34 146.326 33.34C145.166 33.34 144.479 33.9267 144.266 35.1L142.186 34.48C142.693 32.3467 144.126 31.28 146.486 31.28ZM145.466 41.32C146.373 41.32 147.273 40.8733 148.166 39.98V37.92L146.246 38.26C145.379 38.4067 144.806 38.64 144.526 38.96C144.246 39.28 144.106 39.64 144.106 40.04C144.106 40.44 144.226 40.7533 144.466 40.98C144.706 41.2067 145.039 41.32 145.466 41.32ZM154.4 31.56H157.08V43H154.4V31.56ZM155.74 30.2C154.74 30.2 154.24 29.6867 154.24 28.66C154.24 27.62 154.74 27.1 155.74 27.1C156.766 27.1 157.28 27.62 157.28 28.66C157.28 29.6867 156.766 30.2 155.74 30.2ZM163.525 43H160.845V27.96L163.525 27.6V43Z" fill="#FFF7D2"/>
</svg>
