<svg width="187" height="69" viewBox="0 0 187 69" fill="none" xmlns="http://www.w3.org/2000/svg">
<rect x="1.5" y="1.5" width="184" height="66" rx="33" fill="#10454F" stroke="#CA8923" stroke-width="3"/>
<g clip-path="url(#clip0_6241_29461)">
<path d="M144.025 25.7941C143.944 25.6915 143.841 25.6071 143.724 25.5464C143.607 25.4857 143.479 25.4502 143.347 25.4421C143.215 25.4341 143.082 25.4537 142.959 25.4997C142.835 25.5457 142.723 25.6171 142.629 25.709L141.208 27.1072C140.543 27.761 140.299 28.6863 140.589 29.4982C141.793 32.8587 143.752 35.9096 146.32 38.4248C148.88 40.9478 151.985 42.8722 155.406 44.0553C156.232 44.3403 157.174 44.0999 157.84 43.4474L159.261 42.0506C159.355 41.9588 159.427 41.8484 159.474 41.7269C159.521 41.6054 159.541 41.4755 159.533 41.3458C159.525 41.2161 159.489 41.0896 159.427 40.9747C159.365 40.8598 159.279 40.7592 159.175 40.6794L156.003 38.256C155.891 38.171 155.761 38.112 155.623 38.0834C155.485 38.0549 155.342 38.0575 155.205 38.0912L152.194 38.8301C151.792 38.9288 151.371 38.9235 150.971 38.8149C150.572 38.7062 150.208 38.4978 149.915 38.21L146.538 34.8909C146.245 34.6032 146.033 34.2459 145.922 33.8536C145.811 33.4613 145.806 33.0475 145.906 32.6525L146.659 29.6941C146.694 29.5595 146.696 29.4191 146.667 29.2834C146.638 29.1477 146.578 29.0202 146.492 28.9106L144.025 25.7941ZM141.591 24.6905C141.832 24.454 142.121 24.2705 142.439 24.1522C142.757 24.0339 143.098 23.9835 143.437 24.0043C143.777 24.0252 144.108 24.1167 144.409 24.273C144.71 24.4293 144.974 24.6466 145.183 24.9106L147.649 28.0258C148.102 28.5972 148.261 29.3415 148.083 30.044L147.33 33.0024C147.292 33.1556 147.294 33.3161 147.336 33.4683C147.379 33.6205 147.462 33.7592 147.575 33.871L150.954 37.1901C151.067 37.3019 151.209 37.3828 151.364 37.425C151.519 37.4671 151.683 37.469 151.839 37.4306L154.849 36.6916C155.202 36.605 155.57 36.5982 155.926 36.672C156.282 36.7457 156.616 36.8979 156.903 37.1172L160.074 39.5406C161.214 40.412 161.318 42.0668 160.298 43.0678L158.876 44.4646C157.859 45.4642 156.338 45.9033 154.92 45.4129C151.292 44.1587 147.998 42.1179 145.282 39.442C142.558 36.7741 140.481 33.538 139.204 29.9737C138.706 28.5823 139.153 27.0869 140.171 26.0873L141.593 24.6905H141.591Z" fill="#F5F6D2"/>
</g>
<path d="M30.88 43V28.4H33.6V40.9H38.58V43H30.88ZM43.228 43H40.548V27.96L43.228 27.6V43ZM51.0133 31.28C53.9199 31.28 55.3733 32.6067 55.3733 35.26V43H53.6333L52.8733 41.6C51.8066 42.72 50.5599 43.28 49.1333 43.28C48.1199 43.28 47.3466 43 46.8133 42.44C46.2933 41.8667 46.0333 41.1067 46.0333 40.16C46.0333 39.2 46.3333 38.4267 46.9333 37.84C47.5333 37.2533 48.6533 36.84 50.2933 36.6L52.6933 36.24V35.28C52.6933 33.9867 52.0799 33.34 50.8533 33.34C49.6933 33.34 49.0066 33.9267 48.7933 35.1L46.7133 34.48C47.2199 32.3467 48.6533 31.28 51.0133 31.28ZM49.9933 41.32C50.8999 41.32 51.7999 40.8733 52.6933 39.98V37.92L50.7733 38.26C49.9066 38.4067 49.3333 38.64 49.0533 38.96C48.7733 39.28 48.6333 39.64 48.6333 40.04C48.6333 40.44 48.7533 40.7533 48.9933 40.98C49.2333 41.2067 49.5666 41.32 49.9933 41.32ZM50.2733 30.6L49.3733 29.16L53.2733 26.5L54.4733 28.42L50.2733 30.6ZM64.4669 31.28C66.0669 31.28 67.1869 31.74 67.8269 32.66C68.9735 31.74 70.1935 31.28 71.4869 31.28C72.7935 31.28 73.7602 31.6067 74.3869 32.26C75.0135 32.9 75.3269 33.7867 75.3269 34.92V43H72.6469V35.36C72.6469 34.6667 72.5202 34.16 72.2669 33.84C72.0135 33.5067 71.5669 33.34 70.9269 33.34C70.0202 33.34 69.1869 33.6533 68.4269 34.28C68.4535 34.5467 68.4669 34.76 68.4669 34.92V43H65.7869V35.36C65.7869 34.6667 65.6535 34.16 65.3869 33.84C65.1202 33.5067 64.6069 33.34 63.8469 33.34C63.1002 33.34 62.3535 33.6067 61.6069 34.14V43H58.9269V31.56H60.3469L61.0469 32.5C62.1269 31.6867 63.2669 31.28 64.4669 31.28ZM82.9078 31.28C85.8145 31.28 87.2678 32.6067 87.2678 35.26V43H85.5278L84.7678 41.6C83.7011 42.72 82.4545 43.28 81.0278 43.28C80.0145 43.28 79.2411 43 78.7078 42.44C78.1878 41.8667 77.9278 41.1067 77.9278 40.16C77.9278 39.2 78.2278 38.4267 78.8278 37.84C79.4278 37.2533 80.5478 36.84 82.1878 36.6L84.5878 36.24V35.28C84.5878 33.9867 83.9745 33.34 82.7478 33.34C81.5878 33.34 80.9011 33.9267 80.6878 35.1L78.6078 34.48C79.1145 32.3467 80.5478 31.28 82.9078 31.28ZM81.8878 41.32C82.7945 41.32 83.6945 40.8733 84.5878 39.98V37.92L82.6678 38.26C81.8011 38.4067 81.2278 38.64 80.9478 38.96C80.6678 39.28 80.5278 39.64 80.5278 40.04C80.5278 40.44 80.6478 40.7533 80.8878 40.98C81.1278 41.2067 81.4611 41.32 81.8878 41.32ZM92.9414 32.6C94.1947 31.72 95.4747 31.28 96.7814 31.28C98.1014 31.28 99.0547 31.6067 99.6414 32.26C100.228 32.9 100.521 33.7867 100.521 34.92V43H97.8414V35.2C97.8414 34.52 97.7147 34.04 97.4614 33.76C97.2214 33.48 96.7947 33.34 96.1814 33.34C95.2214 33.34 94.3281 33.64 93.5014 34.24V43H90.8214V31.56H92.0814L92.9414 32.6ZM106.123 40.22C106.47 40.8867 107.136 41.22 108.123 41.22C109.11 41.22 109.776 40.8867 110.123 40.22C110.47 39.5533 110.643 38.5733 110.643 37.28C110.643 35.9867 110.47 35.0067 110.123 34.34C109.776 33.6733 109.11 33.34 108.123 33.34C107.136 33.34 106.47 33.6733 106.123 34.34C105.776 35.0067 105.603 35.9867 105.603 37.28C105.603 38.5733 105.776 39.5533 106.123 40.22ZM113.323 37.28C113.323 41.28 111.59 43.28 108.123 43.28C104.656 43.28 102.923 41.28 102.923 37.28C102.923 33.28 104.656 31.28 108.123 31.28C111.59 31.28 113.323 33.28 113.323 37.28ZM124.099 39.8C124.099 42.08 122.499 43.22 119.299 43.22C117.899 43.22 116.859 42.92 116.179 42.32C115.499 41.7067 115.072 40.82 114.899 39.66L116.979 39.34C117.126 40.62 117.919 41.26 119.359 41.26C120.812 41.26 121.539 40.8067 121.539 39.9C121.539 39.5267 121.392 39.2467 121.099 39.06C120.819 38.8733 120.246 38.68 119.379 38.48L118.459 38.26C117.272 37.98 116.419 37.5733 115.899 37.04C115.392 36.4933 115.139 35.7067 115.139 34.68C115.139 32.4133 116.686 31.28 119.779 31.28C121.112 31.28 122.106 31.5867 122.759 32.2C123.426 32.8 123.839 33.68 123.999 34.84L121.919 35.14C121.772 33.8733 121.032 33.24 119.699 33.24C118.379 33.24 117.719 33.6933 117.719 34.6C117.719 34.9733 117.846 35.26 118.099 35.46C118.366 35.6467 118.899 35.8333 119.699 36.02L120.739 36.28C121.926 36.5733 122.779 36.9867 123.299 37.52C123.832 38.04 124.099 38.8 124.099 39.8Z" fill="#FFF7D2"/>
<defs>
<clipPath id="clip0_6241_29461">
<rect width="22" height="21.614" fill="white" transform="translate(139 24)"/>
</clipPath>
</defs>
</svg>
