<svg width="257" height="54" viewBox="0 0 257 54" fill="none" xmlns="http://www.w3.org/2000/svg">
<rect x="1.5" y="1.5" width="254" height="51" rx="25.5" fill="#10454F" stroke="#CA8923" stroke-width="3"/>
<path d="M47.5774 23.0164C46.3547 18.3294 42.5847 14.5595 37.8471 13.3874C33.1094 12.2154 27.9636 13.744 24.7031 17.4121C20.6784 21.8953 20.1689 28.6202 23.4295 33.7147C23.1747 35.5488 22.9709 37.3828 22.7162 39.2169C22.6143 39.8792 23.4295 40.3377 23.9899 40.1848C25.773 39.6754 27.607 39.2169 29.3901 38.7074C34.2299 40.6943 39.8343 39.7773 43.7061 36.2111C47.3233 32.8996 48.8007 27.7034 47.578 23.0164H47.5774ZM44.0112 32.8493C40.9545 37.3325 34.9429 39.014 30.0014 36.7721H29.9505C29.7467 36.6702 29.492 36.6192 29.1863 36.6702C27.7598 37.0777 26.3334 37.4344 24.9069 37.8419C25.0597 36.6192 25.2126 35.4475 25.3654 34.2248C25.4163 33.8172 25.5182 33.3587 25.3144 32.9511C25.1616 32.6964 24.9578 32.4417 24.805 32.136C24.4484 31.5247 24.1427 30.8624 23.888 30.2001C23.0728 27.8566 23.0219 25.2583 23.7861 22.9151C25.1107 18.7885 28.8806 15.6808 33.1601 15.1714C37.5924 14.56 42.0246 16.6998 44.3169 20.4188C46.6604 24.2397 46.5076 29.1302 44.0112 32.8495V32.8493Z" fill="#CA8923"/>
<path d="M41.7184 28.0608L39.4258 26.2777C38.7126 25.7173 37.7446 25.8192 37.1333 26.4305L36.471 27.0928C35.9615 26.7872 35.503 26.4305 35.0445 26.023C34.6369 25.6154 34.2803 25.106 33.9746 24.5965L34.6369 23.9342C35.2483 23.3229 35.2992 22.3549 34.7898 21.6417L33.0067 19.2982C32.65 18.7887 32.0896 18.483 31.4783 18.483C30.8669 18.4321 30.2556 18.6868 29.848 19.0944L27.8611 21.0813C26.7403 22.2021 26.4856 23.9342 27.1988 25.3607C28.1668 27.1947 29.3895 28.825 30.816 30.2515C32.2425 31.678 33.9237 32.9006 35.7068 33.8686C36.2672 34.1743 36.8276 34.2762 37.388 34.2762C38.305 34.2762 39.273 33.9196 39.9353 33.2063L41.9221 31.2194C42.3297 30.8119 42.5844 30.2005 42.5335 29.5892C42.5335 28.9778 42.2278 28.4174 41.7184 28.0608ZM40.4957 29.793L38.5088 31.7798C37.9993 32.2893 37.2351 32.3912 36.6238 32.0855C34.9935 31.2194 33.5161 30.1496 32.1915 28.825C30.8669 27.5004 29.7971 26.023 28.931 24.3927C28.6253 23.7814 28.7272 23.0172 29.2367 22.5077L31.2236 20.5208H31.2745C31.3254 20.5208 31.3254 20.5208 31.3254 20.5718L32.9557 22.7115L32.2934 23.3229C31.784 23.8323 31.6311 24.6474 31.9877 25.3097C32.3953 26.1249 32.9557 26.8381 33.5671 27.4495C34.1784 28.0608 34.8916 28.6212 35.7068 29.0288C36.3691 29.3854 37.1333 29.2326 37.6427 28.7231L38.356 28.0099L40.4447 29.6401C40.4447 29.6401 40.4957 29.6401 40.4957 29.6911V29.793Z" fill="#CA8923"/>
<path d="M69.4 33H66.445L64.33 22.05H66.37L67.99 30.975L69.79 22.05H71.815L73.6 30.975L75.235 22.05H77.275L75.16 33H72.205L70.795 26.175L69.4 33ZM81.0284 24.945C81.8484 24.455 82.7084 24.21 83.6084 24.21C84.5184 24.21 85.1934 24.455 85.6334 24.945C86.0734 25.425 86.2934 26.09 86.2934 26.94V33H84.2834V27.15C84.2834 26.64 84.1884 26.28 83.9984 26.07C83.8184 25.86 83.4984 25.755 83.0384 25.755C82.3184 25.755 81.6484 25.98 81.0284 26.43V33H79.0184V21.72L81.0284 21.57V24.945ZM91.9797 24.21C94.1597 24.21 95.2497 25.205 95.2497 27.195V33H93.9447L93.3747 31.95C92.5747 32.79 91.6397 33.21 90.5697 33.21C89.8097 33.21 89.2297 33 88.8297 32.58C88.4397 32.15 88.2447 31.58 88.2447 30.87C88.2447 30.15 88.4697 29.57 88.9197 29.13C89.3697 28.69 90.2097 28.38 91.4397 28.2L93.2397 27.93V27.21C93.2397 26.24 92.7797 25.755 91.8597 25.755C90.9897 25.755 90.4747 26.195 90.3147 27.075L88.7547 26.61C89.1347 25.01 90.2097 24.21 91.9797 24.21ZM91.2147 31.74C91.8947 31.74 92.5697 31.405 93.2397 30.735V29.19L91.7997 29.445C91.1497 29.555 90.7197 29.73 90.5097 29.97C90.2997 30.21 90.1947 30.48 90.1947 30.78C90.1947 31.08 90.2847 31.315 90.4647 31.485C90.6447 31.655 90.8947 31.74 91.2147 31.74ZM96.6399 25.725V24.42H98.0199V22.86L100.03 22.35V24.42H101.665V25.725H100.03V30.57C100.03 31 100.09 31.305 100.21 31.485C100.34 31.665 100.525 31.755 100.765 31.755C101.015 31.755 101.285 31.715 101.575 31.635L101.83 32.88C101.24 33.1 100.71 33.21 100.24 33.21C99.7799 33.21 99.4099 33.155 99.1299 33.045C98.8499 32.935 98.6399 32.81 98.4999 32.67C98.3599 32.52 98.2549 32.32 98.1849 32.07C98.0749 31.72 98.0199 31.285 98.0199 30.765V25.725H96.6399ZM109.455 30.6C109.455 32.31 108.255 33.165 105.855 33.165C104.805 33.165 104.025 32.94 103.515 32.49C103.005 32.03 102.685 31.365 102.555 30.495L104.115 30.255C104.225 31.215 104.82 31.695 105.9 31.695C106.99 31.695 107.535 31.355 107.535 30.675C107.535 30.395 107.425 30.185 107.205 30.045C106.995 29.905 106.565 29.76 105.915 29.61L105.225 29.445C104.335 29.235 103.695 28.93 103.305 28.53C102.925 28.12 102.735 27.53 102.735 26.76C102.735 25.06 103.895 24.21 106.215 24.21C107.215 24.21 107.96 24.44 108.45 24.9C108.95 25.35 109.26 26.01 109.38 26.88L107.82 27.105C107.71 26.155 107.155 25.68 106.155 25.68C105.165 25.68 104.67 26.02 104.67 26.7C104.67 26.98 104.765 27.195 104.955 27.345C105.155 27.485 105.555 27.625 106.155 27.765L106.935 27.96C107.825 28.18 108.465 28.49 108.855 28.89C109.255 29.28 109.455 29.85 109.455 30.6ZM113.594 22.05H116.249L119.609 33H117.644L116.714 29.97H113.114L112.199 33H110.219L113.594 22.05ZM114.914 23.985L113.579 28.425H116.249L114.914 23.985ZM125.153 24.21C127.453 24.21 128.603 25.71 128.603 28.71C128.603 31.71 127.433 33.21 125.093 33.21C124.493 33.21 123.843 33.11 123.143 32.91V36.075L121.133 36.345V24.42H122.093L122.618 25.065C123.468 24.495 124.313 24.21 125.153 24.21ZM124.598 25.755C124.088 25.755 123.603 25.895 123.143 26.175V31.455C123.613 31.595 124.093 31.665 124.583 31.665C125.303 31.665 125.818 31.415 126.128 30.915C126.438 30.405 126.593 29.67 126.593 28.71C126.593 26.74 125.928 25.755 124.598 25.755ZM134.572 24.21C136.872 24.21 138.022 25.71 138.022 28.71C138.022 31.71 136.852 33.21 134.512 33.21C133.912 33.21 133.262 33.11 132.562 32.91V36.075L130.552 36.345V24.42H131.512L132.037 25.065C132.887 24.495 133.732 24.21 134.572 24.21ZM134.017 25.755C133.507 25.755 133.022 25.895 132.562 26.175V31.455C133.032 31.595 133.512 31.665 134.002 31.665C134.722 31.665 135.237 31.415 135.547 30.915C135.857 30.405 136.012 29.67 136.012 28.71C136.012 26.74 135.347 25.755 134.017 25.755Z" fill="#FFF6D2"/>
</svg>
