<svg width="206" height="69" viewBox="0 0 206 69" fill="none" xmlns="http://www.w3.org/2000/svg">
<rect x="1.5" y="1.5" width="203" height="66" rx="33" fill="#10454F" stroke="#CA8923" stroke-width="3"/>
<path fill-rule="evenodd" clip-rule="evenodd" d="M155.875 27.75C154.684 27.75 153.719 28.7574 153.719 30V42C153.719 43.2426 154.684 44.25 155.875 44.25H173.125C174.316 44.25 175.281 43.2426 175.281 42V30C175.281 28.7574 174.316 27.75 173.125 27.75H155.875ZM155.156 30.2075V42C155.156 42.4142 155.478 42.75 155.875 42.75H173.125C173.522 42.75 173.844 42.4142 173.844 42V30.2075L166.944 35.9212C166.936 35.9282 166.927 35.9349 166.919 35.9415C165.49 37.0195 163.51 37.0195 162.081 35.9415C162.073 35.9349 162.064 35.9282 162.056 35.9212L155.156 30.2075ZM172.688 29.25H156.312L162.936 34.7351C163.857 35.4217 165.143 35.4217 166.064 34.7351L172.688 29.25Z" fill="#FFF6D2"/>
<path d="M32.7238 28.4H40.9638V30.5H35.4438V34.54H40.4638V36.62H35.4438V40.9H41.3638V43H32.7238V28.4ZM52.0952 39.8C52.0952 42.08 50.4952 43.22 47.2952 43.22C45.8952 43.22 44.8552 42.92 44.1752 42.32C43.4952 41.7067 43.0685 40.82 42.8952 39.66L44.9752 39.34C45.1218 40.62 45.9152 41.26 47.3552 41.26C48.8085 41.26 49.5352 40.8067 49.5352 39.9C49.5352 39.5267 49.3885 39.2467 49.0952 39.06C48.8152 38.8733 48.2418 38.68 47.3752 38.48L46.4552 38.26C45.2685 37.98 44.4152 37.5733 43.8952 37.04C43.3885 36.4933 43.1352 35.7067 43.1352 34.68C43.1352 32.4133 44.6818 31.28 47.7752 31.28C49.1085 31.28 50.1018 31.5867 50.7552 32.2C51.4218 32.8 51.8352 33.68 51.9952 34.84L49.9152 35.14C49.7685 33.8733 49.0285 33.24 47.6952 33.24C46.3752 33.24 45.7152 33.6933 45.7152 34.6C45.7152 34.9733 45.8418 35.26 46.0952 35.46C46.3618 35.6467 46.8952 35.8333 47.6952 36.02L48.7352 36.28C49.9218 36.5733 50.7752 36.9867 51.2952 37.52C51.8285 38.04 52.0952 38.8 52.0952 39.8ZM56.8531 34.3C56.5198 34.94 56.3531 35.9333 56.3531 37.28C56.3531 38.6267 56.5198 39.62 56.8531 40.26C57.1998 40.9 57.7931 41.22 58.6331 41.22C59.4865 41.22 60.0931 41.0467 60.4531 40.7C60.8265 40.3533 61.0265 39.8067 61.0531 39.06L63.1531 39.16C63.0731 40.52 62.6731 41.5467 61.9531 42.24C61.2465 42.9333 60.0798 43.28 58.4531 43.28C56.5465 43.28 55.2465 42.66 54.5531 41.42C54.2198 40.82 53.9865 40.1933 53.8531 39.54C53.7331 38.8867 53.6731 38.1333 53.6731 37.28C53.6731 36.4133 53.7331 35.6533 53.8531 35C53.9865 34.3333 54.2198 33.7067 54.5531 33.12C55.2331 31.8933 56.5331 31.28 58.4531 31.28C60.0665 31.28 61.2265 31.6133 61.9331 32.28C62.6398 32.9333 63.0398 33.9133 63.1331 35.22L61.0531 35.5C61.0265 34.7533 60.8265 34.2067 60.4531 33.86C60.0931 33.5133 59.4865 33.34 58.6331 33.34C57.7931 33.34 57.1998 33.66 56.8531 34.3ZM68.2358 43H65.5558V31.56H66.8158L67.8758 33.34C68.7958 32.0333 70.0958 31.3467 71.7758 31.28V33.58C70.2024 33.62 69.0224 34.1 68.2358 35.02V43ZM73.7003 31.56H76.3803V43H73.7003V31.56ZM73.8003 30.6L72.9003 29.16L76.8003 26.5L78.0003 28.42L73.8003 30.6ZM85.5056 43.28C84.2923 43.28 83.139 42.9333 82.0456 42.24L81.4256 43H80.1456V27.96L82.8256 27.76V31.84C83.7323 31.4667 84.6256 31.28 85.5056 31.28C88.5723 31.28 90.1056 33.28 90.1056 37.28C90.1056 41.28 88.5723 43.28 85.5056 43.28ZM84.7656 33.34C84.1256 33.34 83.479 33.4733 82.8256 33.74V40.76C83.399 41.0667 84.0256 41.22 84.7056 41.22C86.519 41.22 87.4256 39.9067 87.4256 37.28C87.4256 34.6533 86.539 33.34 84.7656 33.34ZM96.6642 43.28C94.8242 43.28 93.5109 42.7867 92.7242 41.8C91.9376 40.8 91.5442 39.2933 91.5442 37.28C91.5442 33.28 93.2242 31.28 96.5842 31.28C98.5176 31.28 99.8376 31.88 100.544 33.08C101.158 34.1067 101.464 35.44 101.464 37.08V37.8H94.1442C94.1576 39.0533 94.3642 39.94 94.7642 40.46C95.1642 40.9667 95.8242 41.22 96.7442 41.22C98.2242 41.22 99.0109 40.6867 99.1042 39.62L101.304 39.7C101.091 42.0867 99.5442 43.28 96.6642 43.28ZM98.2042 34C97.8709 33.56 97.3242 33.34 96.5642 33.34C95.8042 33.34 95.2442 33.5533 94.8842 33.98C94.5376 34.3933 94.3109 35.06 94.2042 35.98H98.8242C98.7442 35.0867 98.5376 34.4267 98.2042 34ZM106.094 32.6C107.347 31.72 108.627 31.28 109.934 31.28C111.254 31.28 112.207 31.6067 112.794 32.26C113.38 32.9 113.674 33.7867 113.674 34.92V43H110.994V35.2C110.994 34.52 110.867 34.04 110.614 33.76C110.374 33.48 109.947 33.34 109.334 33.34C108.374 33.34 107.48 33.64 106.654 34.24V43H103.974V31.56H105.234L106.094 32.6ZM119.275 40.22C119.622 40.8867 120.289 41.22 121.275 41.22C122.262 41.22 122.929 40.8867 123.275 40.22C123.622 39.5533 123.795 38.5733 123.795 37.28C123.795 35.9867 123.622 35.0067 123.275 34.34C122.929 33.6733 122.262 33.34 121.275 33.34C120.289 33.34 119.622 33.6733 119.275 34.34C118.929 35.0067 118.755 35.9867 118.755 37.28C118.755 38.5733 118.929 39.5533 119.275 40.22ZM126.475 37.28C126.475 41.28 124.742 43.28 121.275 43.28C117.809 43.28 116.075 41.28 116.075 37.28C116.075 33.28 117.809 31.28 121.275 31.28C124.742 31.28 126.475 33.28 126.475 37.28ZM137.251 39.8C137.251 42.08 135.651 43.22 132.451 43.22C131.051 43.22 130.011 42.92 129.331 42.32C128.651 41.7067 128.225 40.82 128.051 39.66L130.131 39.34C130.278 40.62 131.071 41.26 132.511 41.26C133.965 41.26 134.691 40.8067 134.691 39.9C134.691 39.5267 134.545 39.2467 134.251 39.06C133.971 38.8733 133.398 38.68 132.531 38.48L131.611 38.26C130.425 37.98 129.571 37.5733 129.051 37.04C128.545 36.4933 128.291 35.7067 128.291 34.68C128.291 32.4133 129.838 31.28 132.931 31.28C134.265 31.28 135.258 31.5867 135.911 32.2C136.578 32.8 136.991 33.68 137.151 34.84L135.071 35.14C134.925 33.8733 134.185 33.24 132.851 33.24C131.531 33.24 130.871 33.6933 130.871 34.6C130.871 34.9733 130.998 35.26 131.251 35.46C131.518 35.6467 132.051 35.8333 132.851 36.02L133.891 36.28C135.078 36.5733 135.931 36.9867 136.451 37.52C136.985 38.04 137.251 38.8 137.251 39.8Z" fill="#FFF7D2"/>
</svg>
