<svg width="187" height="69" viewBox="0 0 187 69" fill="none" xmlns="http://www.w3.org/2000/svg">
<rect x="1.5" y="1.5" width="184" height="66" rx="33" fill="#10454F" stroke="#CA8923" stroke-width="3"/>
<path d="M26.88 28.4H34.72V30.5H29.6V34.54H34.06V36.62H29.6V43H26.88V28.4ZM38.3536 40.22C38.7003 40.8867 39.3669 41.22 40.3536 41.22C41.3403 41.22 42.0069 40.8867 42.3536 40.22C42.7003 39.5533 42.8736 38.5733 42.8736 37.28C42.8736 35.9867 42.7003 35.0067 42.3536 34.34C42.0069 33.6733 41.3403 33.34 40.3536 33.34C39.3669 33.34 38.7003 33.6733 38.3536 34.34C38.0069 35.0067 37.8336 35.9867 37.8336 37.28C37.8336 38.5733 38.0069 39.5533 38.3536 40.22ZM45.5536 37.28C45.5536 41.28 43.8203 43.28 40.3536 43.28C36.8869 43.28 35.1536 41.28 35.1536 37.28C35.1536 33.28 36.8869 31.28 40.3536 31.28C43.8203 31.28 45.5536 33.28 45.5536 37.28ZM50.8295 43H48.1495V27.96L50.8295 27.6V43ZM57.2748 43H54.5948V27.96L57.2748 27.6V43ZM63.0802 40.22C63.4268 40.8867 64.0935 41.22 65.0802 41.22C66.0668 41.22 66.7335 40.8867 67.0802 40.22C67.4268 39.5533 67.6002 38.5733 67.6002 37.28C67.6002 35.9867 67.4268 35.0067 67.0802 34.34C66.7335 33.6733 66.0668 33.34 65.0802 33.34C64.0935 33.34 63.4268 33.6733 63.0802 34.34C62.7335 35.0067 62.5602 35.9867 62.5602 37.28C62.5602 38.5733 62.7335 39.5533 63.0802 40.22ZM70.2802 37.28C70.2802 41.28 68.5468 43.28 65.0802 43.28C61.6135 43.28 59.8802 41.28 59.8802 37.28C59.8802 33.28 61.6135 31.28 65.0802 31.28C68.5468 31.28 70.2802 33.28 70.2802 37.28ZM76.6361 43H74.1161L71.1761 31.56H73.8761L75.5561 39.4L77.4361 32.56H79.6961L81.5761 39.4L83.2761 31.56H85.9761L83.0561 43H80.5161L78.5761 36.08L76.6361 43ZM96.8602 43.28C94.5135 43.28 93.3402 42.0667 93.3402 39.64V31.56H96.0202V39.2C96.0202 39.8933 96.1535 40.4067 96.4202 40.74C96.7002 41.06 97.1602 41.22 97.8002 41.22C98.7068 41.22 99.5668 40.7933 100.38 39.94V31.56H103.06V43H101.32L100.56 41.62C99.5202 42.7267 98.2868 43.28 96.8602 43.28ZM115.001 39.8C115.001 42.08 113.401 43.22 110.201 43.22C108.801 43.22 107.761 42.92 107.081 42.32C106.401 41.7067 105.975 40.82 105.801 39.66L107.881 39.34C108.028 40.62 108.821 41.26 110.261 41.26C111.715 41.26 112.441 40.8067 112.441 39.9C112.441 39.5267 112.295 39.2467 112.001 39.06C111.721 38.8733 111.148 38.68 110.281 38.48L109.361 38.26C108.175 37.98 107.321 37.5733 106.801 37.04C106.295 36.4933 106.041 35.7067 106.041 34.68C106.041 32.4133 107.588 31.28 110.681 31.28C112.015 31.28 113.008 31.5867 113.661 32.2C114.328 32.8 114.741 33.68 114.901 34.84L112.821 35.14C112.675 33.8733 111.935 33.24 110.601 33.24C109.281 33.24 108.621 33.6933 108.621 34.6C108.621 34.9733 108.748 35.26 109.001 35.46C109.268 35.6467 109.801 35.8333 110.601 36.02L111.641 36.28C112.828 36.5733 113.681 36.9867 114.201 37.52C114.735 38.04 115.001 38.8 115.001 39.8Z" fill="#FFF7D2"/>
<path d="M157.406 44.5625H150.938C150.747 44.5625 150.564 44.4868 150.429 44.352C150.294 44.2172 150.219 44.0344 150.219 43.8438V36.6562C150.219 36.4656 150.294 36.2828 150.429 36.148C150.564 36.0132 150.747 35.9375 150.938 35.9375H152.662L152.885 34.5H150.938C150.747 34.5 150.564 34.4243 150.429 34.2895C150.294 34.1547 150.219 33.9719 150.219 33.7812V32.5809C150.212 31.9443 150.425 31.3249 150.823 30.8272C151.025 30.6222 151.267 30.4599 151.534 30.35C151.801 30.2401 152.087 30.1849 152.375 30.1875H153.094V28.75H152.203C151.678 28.7249 151.154 28.8046 150.66 28.9844C150.167 29.1642 149.714 29.4405 149.329 29.7971C148.944 30.1538 148.633 30.5836 148.416 31.0616C148.198 31.5396 148.078 32.0561 148.062 32.5809V33.7812C148.062 33.9719 147.987 34.1547 147.852 34.2895C147.717 34.4243 147.534 34.5 147.344 34.5H145.906V35.9375H147.344C147.534 35.9375 147.717 36.0132 147.852 36.148C147.987 36.2828 148.062 36.4656 148.062 36.6562V43.8438C148.062 44.0344 147.987 44.2172 147.852 44.352C147.717 44.4868 147.534 44.5625 147.344 44.5625H141.594C141.022 44.5625 140.473 44.3353 140.069 43.931C139.665 43.5266 139.438 42.9781 139.438 42.4062V26.5938C139.438 26.0219 139.665 25.4734 140.069 25.0691C140.473 24.6647 141.022 24.4375 141.594 24.4375H157.406C157.978 24.4375 158.527 24.6647 158.931 25.0691C159.335 25.4734 159.562 26.0219 159.562 26.5938V42.4062C159.562 42.9781 159.335 43.5266 158.931 43.931C158.527 44.3353 157.978 44.5625 157.406 44.5625ZM151.656 43.125H157.406C157.597 43.125 157.78 43.0493 157.914 42.9145C158.049 42.7797 158.125 42.5969 158.125 42.4062V26.5938C158.125 26.4031 158.049 26.2203 157.914 26.0855C157.78 25.9507 157.597 25.875 157.406 25.875H141.594C141.403 25.875 141.22 25.9507 141.086 26.0855C140.951 26.2203 140.875 26.4031 140.875 26.5938V42.4062C140.875 42.5969 140.951 42.7797 141.086 42.9145C141.22 43.0493 141.403 43.125 141.594 43.125H146.625V37.375H145.604C145.303 37.375 145.014 37.2554 144.801 37.0424C144.588 36.8294 144.469 36.5406 144.469 36.2394V34.1909C144.471 33.891 144.591 33.604 144.804 33.3926C145.017 33.1812 145.304 33.0625 145.604 33.0625H146.625V32.5881C146.666 31.1506 147.276 29.7882 148.32 28.7993C149.364 27.8104 150.758 27.2758 152.195 27.3125H153.396C153.696 27.3125 153.983 27.4312 154.196 27.6426C154.409 27.854 154.529 28.141 154.531 28.4409V30.4822C154.533 30.6322 154.505 30.7811 154.449 30.9201C154.393 31.0592 154.309 31.1856 154.203 31.292C154.098 31.3984 153.972 31.4827 153.833 31.5398C153.694 31.597 153.546 31.626 153.396 31.625H152.375C152.185 31.6277 152.005 31.7052 151.872 31.8406C151.754 32.0624 151.69 32.3085 151.685 32.5594V33.0625H153.259C153.58 33.0779 153.883 33.214 154.107 33.4434C154.216 33.5623 154.298 33.7038 154.347 33.8578C154.395 34.0118 154.409 34.1747 154.387 34.3347L154.071 36.4119C154.029 36.6873 153.887 36.9376 153.673 37.1152C153.458 37.2928 153.185 37.3853 152.907 37.375H151.656V43.125Z" fill="#FFF6D2"/>
</svg>
