<svg width="187" height="69" viewBox="0 0 187 69" fill="none" xmlns="http://www.w3.org/2000/svg">
<rect x="1.5" y="1.5" width="184" height="66" rx="33" fill="#10454F" stroke="#CA8923" stroke-width="3"/>
<path d="M32.38 34.7C33.74 35.0467 34.7133 35.54 35.3 36.18C35.8867 36.82 36.18 37.78 36.18 39.06C36.18 40.34 35.74 41.3667 34.86 42.14C33.98 42.9 32.6867 43.28 30.98 43.28C29.2733 43.28 28.04 42.92 27.28 42.2C26.52 41.4667 26.0533 40.4067 25.88 39.02L28.06 38.68C28.14 39.4667 28.4067 40.08 28.86 40.52C29.3267 40.9467 29.9733 41.16 30.8 41.16C32.5733 41.16 33.46 40.4867 33.46 39.14C33.46 38.5667 33.2933 38.1333 32.96 37.84C32.6267 37.5467 31.9867 37.28 31.04 37.04L29.9 36.76C28.5667 36.4267 27.6133 35.9333 27.04 35.28C26.4667 34.6267 26.18 33.6533 26.18 32.36C26.18 31.0533 26.6 30.02 27.44 29.26C28.28 28.5 29.52 28.12 31.16 28.12C32.8133 28.12 34 28.4867 34.72 29.22C35.4533 29.94 35.9067 30.9933 36.08 32.38L33.92 32.72C33.7467 31.0667 32.8933 30.24 31.36 30.24C30.52 30.24 29.9 30.4267 29.5 30.8C29.1 31.16 28.9 31.64 28.9 32.24C28.9 32.84 29.0533 33.2867 29.36 33.58C29.6667 33.8733 30.2533 34.1333 31.12 34.36L32.38 34.7ZM38.9308 31.56H41.6108V43H38.9308V31.56ZM39.0308 30.6L38.1308 29.16L42.0308 26.5L43.2308 28.42L39.0308 30.6ZM52.9161 38.26C52.6094 38.6867 52.1428 39.0267 51.5161 39.28C50.8894 39.52 50.1494 39.64 49.2961 39.64C48.4561 39.64 47.7561 39.54 47.1961 39.34L46.6361 39.94C46.4094 40.1667 46.2961 40.3867 46.2961 40.6C46.2961 40.92 46.5161 41.08 46.9561 41.08H51.2161C52.2694 41.08 53.0961 41.3667 53.6961 41.94C54.3094 42.5133 54.6161 43.1867 54.6161 43.96C54.6161 44.7333 54.4561 45.3467 54.1361 45.8C53.8161 46.2533 53.3561 46.5867 52.7561 46.8C51.7428 47.16 50.4428 47.34 48.8561 47.34C47.2828 47.34 46.0694 47.1467 45.2161 46.76C44.3628 46.3867 43.9361 45.74 43.9361 44.82C43.9361 44.38 44.0628 43.98 44.3161 43.62C44.5694 43.2733 44.8828 43.0067 45.2561 42.82C44.4428 42.5667 44.0361 41.9733 44.0361 41.04C44.0361 40.4267 44.2761 39.86 44.7561 39.34L45.6761 38.38C45.0494 37.66 44.7361 36.6867 44.7361 35.46C44.7361 34.38 45.0294 33.4467 45.6161 32.66C46.2828 31.74 47.4961 31.28 49.2561 31.28C50.0161 31.28 50.6761 31.3733 51.2361 31.56H54.5761V33.14H53.2561C53.6161 33.7933 53.7961 34.48 53.7961 35.2C53.7961 35.9067 53.7294 36.4867 53.5961 36.94C53.4628 37.3933 53.2361 37.8333 52.9161 38.26ZM49.2561 33.06C47.9494 33.06 47.2961 33.86 47.2961 35.46C47.2961 37.06 47.9494 37.86 49.2561 37.86C50.5761 37.86 51.2361 37.06 51.2361 35.46C51.2361 33.86 50.5761 33.06 49.2561 33.06ZM46.3761 44.22C46.3761 44.7 46.5894 45.0067 47.0161 45.14C47.4561 45.2733 48.1761 45.34 49.1761 45.34C50.1761 45.34 50.8828 45.26 51.2961 45.1C51.7228 44.9533 51.9361 44.6267 51.9361 44.12C51.9361 43.3733 51.4161 43 50.3761 43H46.9561C46.5694 43.3467 46.3761 43.7533 46.3761 44.22ZM60.2586 43.28C57.9119 43.28 56.7386 42.0667 56.7386 39.64V31.56H59.4186V39.2C59.4186 39.8933 59.5519 40.4067 59.8186 40.74C60.0986 41.06 60.5586 41.22 61.1986 41.22C62.1053 41.22 62.9653 40.7933 63.7786 39.94V31.56H66.4586V43H64.7186L63.9586 41.62C62.9186 42.7267 61.6853 43.28 60.2586 43.28ZM74.1798 43.28C72.3398 43.28 71.0265 42.7867 70.2398 41.8C69.4532 40.8 69.0598 39.2933 69.0598 37.28C69.0598 33.28 70.7398 31.28 74.0998 31.28C76.0332 31.28 77.3532 31.88 78.0598 33.08C78.6732 34.1067 78.9798 35.44 78.9798 37.08V37.8H71.6598C71.6732 39.0533 71.8798 39.94 72.2798 40.46C72.6798 40.9667 73.3398 41.22 74.2598 41.22C75.7398 41.22 76.5265 40.6867 76.6198 39.62L78.8198 39.7C78.6065 42.0867 77.0598 43.28 74.1798 43.28ZM75.7198 34C75.3865 33.56 74.8398 33.34 74.0798 33.34C73.3198 33.34 72.7598 33.5533 72.3998 33.98C72.0532 34.3933 71.8265 35.06 71.7198 35.98H76.3398C76.2598 35.0867 76.0532 34.4267 75.7198 34ZM83.6094 32.6C84.8627 31.72 86.1427 31.28 87.4494 31.28C88.7694 31.28 89.7227 31.6067 90.3094 32.26C90.896 32.9 91.1894 33.7867 91.1894 34.92V43H88.5094V35.2C88.5094 34.52 88.3827 34.04 88.1294 33.76C87.8894 33.48 87.4627 33.34 86.8494 33.34C85.8894 33.34 84.996 33.64 84.1694 34.24V43H81.4894V31.56H82.7494L83.6094 32.6ZM96.7911 40.22C97.1378 40.8867 97.8044 41.22 98.7911 41.22C99.7778 41.22 100.444 40.8867 100.791 40.22C101.138 39.5533 101.311 38.5733 101.311 37.28C101.311 35.9867 101.138 35.0067 100.791 34.34C100.444 33.6733 99.7778 33.34 98.7911 33.34C97.8044 33.34 97.1378 33.6733 96.7911 34.34C96.4444 35.0067 96.2711 35.9867 96.2711 37.28C96.2711 38.5733 96.4444 39.5533 96.7911 40.22ZM103.991 37.28C103.991 41.28 102.258 43.28 98.7911 43.28C95.3244 43.28 93.5911 41.28 93.5911 37.28C93.5911 33.28 95.3244 31.28 98.7911 31.28C102.258 31.28 103.991 33.28 103.991 37.28ZM114.767 39.8C114.767 42.08 113.167 43.22 109.967 43.22C108.567 43.22 107.527 42.92 106.847 42.32C106.167 41.7067 105.74 40.82 105.567 39.66L107.647 39.34C107.794 40.62 108.587 41.26 110.027 41.26C111.48 41.26 112.207 40.8067 112.207 39.9C112.207 39.5267 112.06 39.2467 111.767 39.06C111.487 38.8733 110.914 38.68 110.047 38.48L109.127 38.26C107.94 37.98 107.087 37.5733 106.567 37.04C106.06 36.4933 105.807 35.7067 105.807 34.68C105.807 32.4133 107.354 31.28 110.447 31.28C111.78 31.28 112.774 31.5867 113.427 32.2C114.094 32.8 114.507 33.68 114.667 34.84L112.587 35.14C112.44 33.8733 111.7 33.24 110.367 33.24C109.047 33.24 108.387 33.6933 108.387 34.6C108.387 34.9733 108.514 35.26 108.767 35.46C109.034 35.6467 109.567 35.8333 110.367 36.02L111.407 36.28C112.594 36.5733 113.447 36.9867 113.967 37.52C114.5 38.04 114.767 38.8 114.767 39.8Z" fill="#FFF7D2"/>
<path d="M157.406 44.5625H150.938C150.747 44.5625 150.564 44.4868 150.429 44.352C150.294 44.2172 150.219 44.0344 150.219 43.8438V36.6562C150.219 36.4656 150.294 36.2828 150.429 36.148C150.564 36.0132 150.747 35.9375 150.938 35.9375H152.662L152.885 34.5H150.938C150.747 34.5 150.564 34.4243 150.429 34.2895C150.294 34.1547 150.219 33.9719 150.219 33.7812V32.5809C150.212 31.9443 150.425 31.3249 150.823 30.8272C151.025 30.6222 151.267 30.4599 151.534 30.35C151.801 30.2401 152.087 30.1849 152.375 30.1875H153.094V28.75H152.203C151.678 28.7249 151.154 28.8046 150.66 28.9844C150.167 29.1642 149.714 29.4405 149.329 29.7971C148.944 30.1538 148.633 30.5836 148.416 31.0616C148.198 31.5396 148.078 32.0561 148.062 32.5809V33.7812C148.062 33.9719 147.987 34.1547 147.852 34.2895C147.717 34.4243 147.534 34.5 147.344 34.5H145.906V35.9375H147.344C147.534 35.9375 147.717 36.0132 147.852 36.148C147.987 36.2828 148.062 36.4656 148.062 36.6562V43.8438C148.062 44.0344 147.987 44.2172 147.852 44.352C147.717 44.4868 147.534 44.5625 147.344 44.5625H141.594C141.022 44.5625 140.473 44.3353 140.069 43.931C139.665 43.5266 139.438 42.9781 139.438 42.4062V26.5938C139.438 26.0219 139.665 25.4734 140.069 25.0691C140.473 24.6647 141.022 24.4375 141.594 24.4375H157.406C157.978 24.4375 158.527 24.6647 158.931 25.0691C159.335 25.4734 159.562 26.0219 159.562 26.5938V42.4062C159.562 42.9781 159.335 43.5266 158.931 43.931C158.527 44.3353 157.978 44.5625 157.406 44.5625ZM151.656 43.125H157.406C157.597 43.125 157.78 43.0493 157.914 42.9145C158.049 42.7797 158.125 42.5969 158.125 42.4062V26.5938C158.125 26.4031 158.049 26.2203 157.914 26.0855C157.78 25.9507 157.597 25.875 157.406 25.875H141.594C141.403 25.875 141.22 25.9507 141.086 26.0855C140.951 26.2203 140.875 26.4031 140.875 26.5938V42.4062C140.875 42.5969 140.951 42.7797 141.086 42.9145C141.22 43.0493 141.403 43.125 141.594 43.125H146.625V37.375H145.604C145.303 37.375 145.014 37.2554 144.801 37.0424C144.588 36.8294 144.469 36.5406 144.469 36.2394V34.1909C144.471 33.891 144.591 33.604 144.804 33.3926C145.017 33.1812 145.304 33.0625 145.604 33.0625H146.625V32.5881C146.666 31.1506 147.276 29.7882 148.32 28.7993C149.364 27.8104 150.758 27.2758 152.195 27.3125H153.396C153.696 27.3125 153.983 27.4312 154.196 27.6426C154.409 27.854 154.529 28.141 154.531 28.4409V30.4822C154.533 30.6322 154.505 30.7811 154.449 30.9201C154.393 31.0592 154.309 31.1856 154.203 31.292C154.098 31.3984 153.972 31.4827 153.833 31.5398C153.694 31.597 153.546 31.626 153.396 31.625H152.375C152.185 31.6277 152.005 31.7052 151.872 31.8406C151.754 32.0624 151.69 32.3085 151.685 32.5594V33.0625H153.259C153.58 33.0779 153.883 33.214 154.107 33.4434C154.216 33.5623 154.298 33.7038 154.347 33.8578C154.395 34.0118 154.409 34.1747 154.387 34.3347L154.071 36.4119C154.029 36.6873 153.887 36.9376 153.673 37.1152C153.458 37.2928 153.185 37.3853 152.907 37.375H151.656V43.125Z" fill="#FFF6D2"/>
</svg>
