<svg width="187" height="69" viewBox="0 0 187 69" fill="none" xmlns="http://www.w3.org/2000/svg">
<rect x="1.5" y="1.5" width="184" height="66" rx="33" fill="#10454F" stroke="#CA8923" stroke-width="3"/>
<g clip-path="url(#clip0_5433_37513)">
<path d="M143.025 25.7941C142.944 25.6915 142.841 25.607 142.724 25.5463C142.607 25.4857 142.479 25.4501 142.347 25.4421C142.215 25.434 142.082 25.4536 141.959 25.4997C141.835 25.5457 141.723 25.617 141.629 25.709L140.208 27.1071C139.543 27.7609 139.299 28.6863 139.589 29.4982C140.793 32.8586 142.752 35.9096 145.32 38.4248C147.88 40.9478 150.985 42.8722 154.406 44.0552C155.232 44.3403 156.174 44.0998 156.84 43.4473L158.261 42.0505C158.355 41.9587 158.427 41.8484 158.474 41.7269C158.521 41.6053 158.541 41.4754 158.533 41.3457C158.525 41.2161 158.489 41.0896 158.427 40.9747C158.365 40.8598 158.279 40.7591 158.175 40.6794L155.003 38.2559C154.891 38.1709 154.761 38.1119 154.623 38.0834C154.485 38.0548 154.342 38.0575 154.205 38.0911L151.194 38.83C150.792 38.9287 150.371 38.9235 149.971 38.8148C149.572 38.7062 149.208 38.4978 148.915 38.21L145.538 34.8909C145.245 34.6032 145.033 34.2458 144.922 33.8535C144.811 33.4613 144.806 33.0475 144.906 32.6525L145.659 29.694C145.694 29.5595 145.696 29.4191 145.667 29.2833C145.638 29.1476 145.578 29.0201 145.492 28.9105L143.025 25.7941ZM140.591 24.6904C140.832 24.4539 141.121 24.2705 141.439 24.1522C141.757 24.0339 142.098 23.9835 142.437 24.0043C142.777 24.0251 143.108 24.1167 143.409 24.2729C143.71 24.4292 143.974 24.6466 144.183 24.9106L146.649 28.0257C147.102 28.5971 147.261 29.3415 147.083 30.0439L146.33 33.0023C146.292 33.1556 146.294 33.3161 146.336 33.4683C146.379 33.6205 146.462 33.7592 146.575 33.871L149.954 37.1901C150.067 37.3019 150.209 37.3828 150.364 37.4249C150.519 37.467 150.683 37.469 150.839 37.4305L153.849 36.6916C154.202 36.6049 154.57 36.5982 154.926 36.6719C155.282 36.7456 155.616 36.8979 155.903 37.1171L159.074 39.5406C160.214 40.4119 160.318 42.0667 159.298 43.0677L157.876 44.4645C156.859 45.4642 155.338 45.9032 153.92 45.4129C150.292 44.1586 146.998 42.1178 144.282 39.442C141.558 36.774 139.481 33.5379 138.204 29.9737C137.706 28.5823 138.153 27.0869 139.171 26.0872L140.593 24.6904H140.591Z" fill="#FFF6D2"/>
</g>
<path d="M30.88 43V28.4H33.6V40.9H38.58V43H30.88ZM43.228 43H40.548V27.96L43.228 27.6V43ZM51.0133 31.28C53.9199 31.28 55.3733 32.6067 55.3733 35.26V43H53.6333L52.8733 41.6C51.8066 42.72 50.5599 43.28 49.1333 43.28C48.1199 43.28 47.3466 43 46.8133 42.44C46.2933 41.8667 46.0333 41.1067 46.0333 40.16C46.0333 39.2 46.3333 38.4267 46.9333 37.84C47.5333 37.2533 48.6533 36.84 50.2933 36.6L52.6933 36.24V35.28C52.6933 33.9867 52.0799 33.34 50.8533 33.34C49.6933 33.34 49.0066 33.9267 48.7933 35.1L46.7133 34.48C47.2199 32.3467 48.6533 31.28 51.0133 31.28ZM49.9933 41.32C50.8999 41.32 51.7999 40.8733 52.6933 39.98V37.92L50.7733 38.26C49.9066 38.4067 49.3333 38.64 49.0533 38.96C48.7733 39.28 48.6333 39.64 48.6333 40.04C48.6333 40.44 48.7533 40.7533 48.9933 40.98C49.2333 41.2067 49.5666 41.32 49.9933 41.32ZM50.2733 30.6L49.3733 29.16L53.2733 26.5L54.4733 28.42L50.2733 30.6ZM64.4669 31.28C66.0669 31.28 67.1869 31.74 67.8269 32.66C68.9735 31.74 70.1935 31.28 71.4869 31.28C72.7935 31.28 73.7602 31.6067 74.3869 32.26C75.0135 32.9 75.3269 33.7867 75.3269 34.92V43H72.6469V35.36C72.6469 34.6667 72.5202 34.16 72.2669 33.84C72.0135 33.5067 71.5669 33.34 70.9269 33.34C70.0202 33.34 69.1869 33.6533 68.4269 34.28C68.4535 34.5467 68.4669 34.76 68.4669 34.92V43H65.7869V35.36C65.7869 34.6667 65.6535 34.16 65.3869 33.84C65.1202 33.5067 64.6069 33.34 63.8469 33.34C63.1002 33.34 62.3535 33.6067 61.6069 34.14V43H58.9269V31.56H60.3469L61.0469 32.5C62.1269 31.6867 63.2669 31.28 64.4669 31.28ZM82.9078 31.28C85.8145 31.28 87.2678 32.6067 87.2678 35.26V43H85.5278L84.7678 41.6C83.7011 42.72 82.4545 43.28 81.0278 43.28C80.0145 43.28 79.2411 43 78.7078 42.44C78.1878 41.8667 77.9278 41.1067 77.9278 40.16C77.9278 39.2 78.2278 38.4267 78.8278 37.84C79.4278 37.2533 80.5478 36.84 82.1878 36.6L84.5878 36.24V35.28C84.5878 33.9867 83.9745 33.34 82.7478 33.34C81.5878 33.34 80.9011 33.9267 80.6878 35.1L78.6078 34.48C79.1145 32.3467 80.5478 31.28 82.9078 31.28ZM81.8878 41.32C82.7945 41.32 83.6945 40.8733 84.5878 39.98V37.92L82.6678 38.26C81.8011 38.4067 81.2278 38.64 80.9478 38.96C80.6678 39.28 80.5278 39.64 80.5278 40.04C80.5278 40.44 80.6478 40.7533 80.8878 40.98C81.1278 41.2067 81.4611 41.32 81.8878 41.32ZM92.9414 32.6C94.1947 31.72 95.4747 31.28 96.7814 31.28C98.1014 31.28 99.0547 31.6067 99.6414 32.26C100.228 32.9 100.521 33.7867 100.521 34.92V43H97.8414V35.2C97.8414 34.52 97.7147 34.04 97.4614 33.76C97.2214 33.48 96.7947 33.34 96.1814 33.34C95.2214 33.34 94.3281 33.64 93.5014 34.24V43H90.8214V31.56H92.0814L92.9414 32.6ZM106.123 40.22C106.47 40.8867 107.136 41.22 108.123 41.22C109.11 41.22 109.776 40.8867 110.123 40.22C110.47 39.5533 110.643 38.5733 110.643 37.28C110.643 35.9867 110.47 35.0067 110.123 34.34C109.776 33.6733 109.11 33.34 108.123 33.34C107.136 33.34 106.47 33.6733 106.123 34.34C105.776 35.0067 105.603 35.9867 105.603 37.28C105.603 38.5733 105.776 39.5533 106.123 40.22ZM113.323 37.28C113.323 41.28 111.59 43.28 108.123 43.28C104.656 43.28 102.923 41.28 102.923 37.28C102.923 33.28 104.656 31.28 108.123 31.28C111.59 31.28 113.323 33.28 113.323 37.28ZM124.099 39.8C124.099 42.08 122.499 43.22 119.299 43.22C117.899 43.22 116.859 42.92 116.179 42.32C115.499 41.7067 115.072 40.82 114.899 39.66L116.979 39.34C117.126 40.62 117.919 41.26 119.359 41.26C120.812 41.26 121.539 40.8067 121.539 39.9C121.539 39.5267 121.392 39.2467 121.099 39.06C120.819 38.8733 120.246 38.68 119.379 38.48L118.459 38.26C117.272 37.98 116.419 37.5733 115.899 37.04C115.392 36.4933 115.139 35.7067 115.139 34.68C115.139 32.4133 116.686 31.28 119.779 31.28C121.112 31.28 122.106 31.5867 122.759 32.2C123.426 32.8 123.839 33.68 123.999 34.84L121.919 35.14C121.772 33.8733 121.032 33.24 119.699 33.24C118.379 33.24 117.719 33.6933 117.719 34.6C117.719 34.9733 117.846 35.26 118.099 35.46C118.366 35.6467 118.899 35.8333 119.699 36.02L120.739 36.28C121.926 36.5733 122.779 36.9867 123.299 37.52C123.832 38.04 124.099 38.8 124.099 39.8Z" fill="#FFF7D2"/>
<defs>
<clipPath id="clip0_5433_37513">
<rect width="22" height="21.614" fill="white" transform="translate(138 24)"/>
</clipPath>
</defs>
</svg>
