<svg width="187" height="69" viewBox="0 0 187 69" fill="none" xmlns="http://www.w3.org/2000/svg">
<rect x="1.5" y="1.5" width="184" height="66" rx="33" fill="#10454F" stroke="#CA8923" stroke-width="3"/>
<g clip-path="url(#clip0_5459_37404)">
<path d="M143.024 25.7941C142.943 25.6915 142.841 25.607 142.724 25.5464C142.607 25.4857 142.478 25.4501 142.346 25.4421C142.214 25.434 142.082 25.4537 141.958 25.4997C141.835 25.5457 141.722 25.617 141.629 25.709L140.207 27.1071C139.543 27.761 139.298 28.6863 139.588 29.4982C140.792 32.8586 142.751 35.9096 145.319 38.4248C147.879 40.9478 150.985 42.8722 154.405 44.0552C155.232 44.3403 156.174 44.0998 156.839 43.4473L158.261 42.0505C158.354 41.9587 158.427 41.8484 158.474 41.7269C158.521 41.6054 158.541 41.4754 158.532 41.3458C158.524 41.2161 158.488 41.0896 158.426 40.9747C158.365 40.8598 158.279 40.7591 158.174 40.6794L155.002 38.2559C154.89 38.1709 154.761 38.1119 154.623 38.0834C154.484 38.0548 154.341 38.0575 154.205 38.0911L151.193 38.83C150.791 38.9287 150.37 38.9235 149.971 38.8148C149.572 38.7062 149.208 38.4978 148.915 38.21L145.538 34.8909C145.245 34.6032 145.032 34.2458 144.922 33.8535C144.811 33.4613 144.805 33.0475 144.905 32.6525L145.659 29.6941C145.693 29.5595 145.696 29.4191 145.667 29.2833C145.638 29.1476 145.578 29.0201 145.491 28.9105L143.024 25.7941ZM140.591 24.6904C140.831 24.4539 141.12 24.2705 141.439 24.1522C141.757 24.0339 142.097 23.9835 142.437 24.0043C142.777 24.0251 143.108 24.1167 143.409 24.273C143.71 24.4292 143.973 24.6466 144.182 24.9106L146.649 28.0257C147.101 28.5971 147.261 29.3415 147.082 30.0439L146.33 33.0024C146.291 33.1556 146.293 33.3161 146.336 33.4683C146.379 33.6205 146.461 33.7592 146.575 33.871L149.953 37.1901C150.067 37.3019 150.208 37.3828 150.364 37.4249C150.519 37.467 150.682 37.469 150.839 37.4305L153.848 36.6916C154.201 36.6049 154.57 36.5982 154.925 36.6719C155.281 36.7456 155.615 36.8979 155.903 37.1171L159.073 39.5406C160.213 40.4119 160.318 42.0667 159.298 43.0677L157.876 44.4645C156.858 45.4642 155.338 45.9032 153.92 45.4129C150.292 44.1586 146.997 42.1179 144.281 39.442C141.558 36.774 139.48 33.5379 138.204 29.9737C137.706 28.5823 138.153 27.0869 139.17 26.0872L140.592 24.6904H140.591Z" fill="#FFF6D2"/>
</g>
<path d="M36.04 30.32C34.7867 30.32 33.94 30.7333 33.5 31.56C33.06 32.3733 32.84 33.7533 32.84 35.7C32.84 37.6333 33.06 39.0133 33.5 39.84C33.94 40.6667 34.7867 41.08 36.04 41.08C37.0133 41.08 37.7 40.8133 38.1 40.28C38.5133 39.7467 38.7333 38.9733 38.76 37.96L40.96 38.06C40.8533 39.78 40.44 41.08 39.72 41.96C39.0133 42.84 37.7867 43.28 36.04 43.28C33.76 43.28 32.1867 42.6133 31.32 41.28C30.88 40.6133 30.5667 39.84 30.38 38.96C30.2067 38.0667 30.12 36.98 30.12 35.7C30.12 34.42 30.2067 33.34 30.38 32.46C30.5667 31.5667 30.88 30.7867 31.32 30.12C32.1867 28.7867 33.76 28.12 36.04 28.12C37.68 28.12 38.86 28.4867 39.58 29.22C40.3 29.9533 40.74 31.0333 40.9 32.46L38.7 32.8C38.62 32 38.3733 31.3867 37.96 30.96C37.5467 30.5333 36.9067 30.32 36.04 30.32ZM47.4195 31.28C50.3262 31.28 51.7795 32.6067 51.7795 35.26V43H50.0395L49.2795 41.6C48.2129 42.72 46.9662 43.28 45.5395 43.28C44.5262 43.28 43.7529 43 43.2195 42.44C42.6995 41.8667 42.4395 41.1067 42.4395 40.16C42.4395 39.2 42.7395 38.4267 43.3395 37.84C43.9395 37.2533 45.0595 36.84 46.6995 36.6L49.0995 36.24V35.28C49.0995 33.9867 48.4862 33.34 47.2595 33.34C46.0995 33.34 45.4129 33.9267 45.1995 35.1L43.1195 34.48C43.6262 32.3467 45.0595 31.28 47.4195 31.28ZM46.3995 41.32C47.3062 41.32 48.2062 40.8733 49.0995 39.98V37.92L47.1795 38.26C46.3129 38.4067 45.7395 38.64 45.4595 38.96C45.1795 39.28 45.0395 39.64 45.0395 40.04C45.0395 40.44 45.1595 40.7533 45.3995 40.98C45.6395 41.2067 45.9729 41.32 46.3995 41.32ZM58.0131 43H55.3331V27.96L58.0131 27.6V43ZM64.4584 43H61.7784V27.96L64.4584 27.6V43ZM77.0516 43.28C74.7049 43.28 73.5316 42.0667 73.5316 39.64V31.56H76.2116V39.2C76.2116 39.8933 76.3449 40.4067 76.6116 40.74C76.8916 41.06 77.3516 41.22 77.9916 41.22C78.8982 41.22 79.7582 40.7933 80.5716 39.94V31.56H83.2516V43H81.5116L80.7516 41.62C79.7116 42.7267 78.4782 43.28 77.0516 43.28ZM95.1928 39.8C95.1928 42.08 93.5928 43.22 90.3928 43.22C88.9928 43.22 87.9528 42.92 87.2728 42.32C86.5928 41.7067 86.1661 40.82 85.9928 39.66L88.0728 39.34C88.2195 40.62 89.0128 41.26 90.4528 41.26C91.9061 41.26 92.6328 40.8067 92.6328 39.9C92.6328 39.5267 92.4861 39.2467 92.1928 39.06C91.9128 38.8733 91.3395 38.68 90.4728 38.48L89.5528 38.26C88.3661 37.98 87.5128 37.5733 86.9928 37.04C86.4861 36.4933 86.2328 35.7067 86.2328 34.68C86.2328 32.4133 87.7795 31.28 90.8728 31.28C92.2061 31.28 93.1995 31.5867 93.8528 32.2C94.5195 32.8 94.9328 33.68 95.0928 34.84L93.0128 35.14C92.8661 33.8733 92.1261 33.24 90.7928 33.24C89.4728 33.24 88.8128 33.6933 88.8128 34.6C88.8128 34.9733 88.9395 35.26 89.1928 35.46C89.4595 35.6467 89.9928 35.8333 90.7928 36.02L91.8328 36.28C93.0195 36.5733 93.8728 36.9867 94.3928 37.52C94.9261 38.04 95.1928 38.8 95.1928 39.8Z" fill="#FFF7D2"/>
<defs>
<clipPath id="clip0_5459_37404">
<rect width="22" height="21.614" fill="white" transform="translate(138 24)"/>
</clipPath>
</defs>
</svg>
