<svg width="79" height="79" viewBox="0 0 79 79" fill="none" xmlns="http://www.w3.org/2000/svg">
<circle cx="39.5002" cy="39.5" r="33.051" fill="#F5F6D2"/>
<circle cx="39.5" cy="39.5" r="38.5" stroke="#CA8923" stroke-width="2"/>
<path d="M35.0643 43C33.3443 45.16 32.8243 46.56 32.8243 48.64V54H46.0643V49H38.3443V48.8C38.3443 47.92 38.6243 47.36 39.3043 46.48L43.8243 40.8C45.5443 38.64 46.0643 37.16 46.0643 35.16V30.96C46.0643 27.48 44.3443 25.76 40.8643 25.76H38.1043C34.6243 25.76 32.9043 27.48 32.9043 30.96V36.2H38.1843V31.56C38.1843 30.88 38.5043 30.56 39.1843 30.56H39.5443C40.2243 30.56 40.5443 30.88 40.5443 31.56V35C40.5443 35.88 40.2643 36.44 39.5843 37.32L35.0643 43Z" fill="#CA8923"/>
</svg>
