<svg width="79" height="79" viewBox="0 0 79 79" fill="none" xmlns="http://www.w3.org/2000/svg">
<circle cx="39.5002" cy="39.5" r="33.051" fill="#F5F6D2"/>
<circle cx="39.5" cy="39.5" r="38.5" stroke="#CA8923" stroke-width="2"/>
<path d="M40.548 48.44C40.548 49.12 40.228 49.44 39.548 49.44H38.948C38.268 49.44 37.948 49.12 37.948 48.44V44.56H32.668V49.04C32.668 52.52 34.388 54.24 37.868 54.24H40.908C44.388 54.24 46.108 52.52 46.108 49.04V43.12C46.108 41.08 45.388 40 43.708 39.52C45.188 38.96 46.028 37.76 46.028 35.36V30.96C46.028 27.48 44.308 25.76 40.828 25.76H37.948C34.468 25.76 32.748 27.48 32.748 30.96V34.92H38.028V31.56C38.028 30.88 38.348 30.56 39.028 30.56H39.468C40.148 30.56 40.468 30.88 40.468 31.56V36.32C40.468 37 40.148 37.32 39.468 37.32H35.308V42.24H39.548C40.228 42.24 40.548 42.56 40.548 43.24V48.44Z" fill="#CA8923"/>
</svg>
