<svg width="295" height="101" viewBox="0 0 295 101" fill="none" xmlns="http://www.w3.org/2000/svg">
<path d="M261.42 11.731L264.485 17.037L271.197 15.0683L287.349 9.12415L283.098 0L261.42 11.731ZM5.53333 84.2897C3.78931 85.5454 -1.25192 89.4597 0.288925 92.0348C3.32046 97.1018 12.5332 99.657 17.8601 100.422C35.4122 102.944 54.7839 93.539 50.3059 72.5587C47.469 59.2679 32.4542 57.2001 22.1107 52.9196C16.4799 50.5895 11.4145 45.8506 13.7744 39.1035C16.7868 30.4907 28.5682 30.8674 35.2876 33.9066C37.5285 34.9203 39.7231 37.2617 42.0882 37.8035C44.0617 38.2562 48.7408 33.4113 47.9646 31.4084C46.1475 26.719 36.5925 24.1503 32.3122 23.4273C16.9203 20.8274 1.32225 28.3066 2.59616 46.0552C3.5568 59.4369 18.9525 62.6321 28.9117 66.3434C34.6891 68.4967 40.7071 72.8793 39.84 79.9449C37.6488 97.8 14.5025 92.2169 5.53333 84.2897ZM148.779 23.2136C110.808 28.7736 113.816 100.8 153.455 100.8C157.393 100.8 161.243 100.388 164.931 98.8654C169.679 96.9054 176.219 94.196 171.977 88.635C171.383 87.8569 170.752 86.8567 169.909 86.3366C167.823 85.0514 163.519 89.1212 161.531 89.9932C156.47 92.2139 150.776 92.362 145.804 89.8207C131.668 82.5953 131.36 59.396 135.753 46.0552C137.471 40.8406 140.895 36.2146 145.804 33.7963C150.926 31.2732 156.351 31.4922 161.531 33.7229C163.383 34.5206 165.473 36.7464 167.465 36.9224C169.317 37.0862 172.873 32.6505 173.047 30.8874C173.242 28.9109 169.691 27.3112 168.332 26.51C162.649 23.158 155.23 22.269 148.779 23.2136ZM58.2409 99.4967H69.2925L74.3932 80.8139H93.9461C95.9328 80.8139 99.7069 80.0792 101.414 81.2605C106.059 84.4735 103.198 95.7705 107.765 99.05C109.983 100.643 115.935 99.4967 118.6 99.4967C114.844 82.9024 108.254 66.6693 103.308 50.4001C101.5 44.4511 99.6989 38.4974 97.7716 32.5862C97.0448 30.3569 96.6924 27.2955 95.4091 25.3382C94.1603 23.433 84.5616 23.6611 82.5876 24.5931C81.0493 25.3199 80.685 28.0654 80.2026 29.5449C78.6966 34.1621 77.2641 38.8111 75.8147 43.4483C69.9735 62.1359 64.1799 80.8404 58.2409 99.4967ZM189.16 24.3311V99.4967C202.224 99.4967 221.637 102.92 232.516 93.7054C244.572 83.4933 239.32 61.4003 223.165 59.9587C227.143 58.1469 230.817 56.465 233.32 52.5725C238.423 44.6392 235.363 32.8495 227.415 28.3774C216.27 22.1069 201.394 24.3311 189.16 24.3311ZM253.769 24.3311V99.4967H295V90.807H264.396V65.607H289.049V56.9173H264.396V33.0207H292.875L294.15 24.3311H253.769Z" fill="#FFF6D2"/>
<path d="M199.787 33.0189V56.0465C206.236 56.0465 213.983 57.2387 219.764 53.666C225.583 50.0702 227.261 39.7643 221.038 35.6123C215.098 31.649 206.509 33.0189 199.787 33.0189ZM87.9955 34.3224L77.3689 72.1224H99.4721L92.0013 46.4879L87.9955 34.3224Z" fill="#10454F"/>
<path d="M199.786 64.301V90.8045C207.04 90.8045 216.686 92.3351 223.164 88.1997C230.234 83.6872 229.06 71.0724 222.313 66.9487C215.835 62.9897 206.996 64.301 199.786 64.301Z" fill="#10454F"/>
</svg>
