<svg width="192" height="59" viewBox="0 0 192 59" fill="none" xmlns="http://www.w3.org/2000/svg">
<g clip-path="url(#clip0_4906_32365)">
<path d="M184.34 1.32C185.956 1.32 187.506 1.9613 188.65 3.10311C189.794 4.24492 190.437 5.79391 190.44 7.41V50.9C190.437 52.517 189.794 54.067 188.65 55.2104C187.507 56.3538 185.957 56.9974 184.34 57H7.41C5.79391 56.9974 4.24492 56.3535 3.10311 55.2098C1.9613 54.0661 1.32 52.5161 1.32 50.9V7.41C1.32 5.79483 1.96162 4.24582 3.10372 3.10372C4.24582 1.96162 5.79483 1.32 7.41 1.32H184.34ZM184.34 0H7.41C5.44475 0 3.55998 0.780694 2.17034 2.17034C0.780694 3.55998 0 5.44475 0 7.41L0 50.9C0 52.8653 0.780694 54.75 2.17034 56.1397C3.55998 57.5293 5.44475 58.31 7.41 58.31H184.34C185.313 58.3113 186.278 58.1205 187.177 57.7486C188.077 57.3767 188.894 56.8309 189.583 56.1426C190.271 55.4543 190.817 54.6369 191.189 53.7372C191.561 52.8376 191.751 51.8735 191.75 50.9V7.41C191.75 5.44475 190.969 3.55998 189.58 2.17034C188.19 0.780694 186.305 0 184.34 0Z" fill="#10454F"/>
<path d="M20.1902 23.8306C17.0802 29.2206 19.0602 37.4206 22.5002 42.3806C24.2102 44.8706 25.9502 47.1006 28.3302 47.1006H28.4702C29.4121 47.0413 30.3331 46.7966 31.1802 46.3806C32.1802 45.8913 33.277 45.6316 34.3902 45.6206C35.4336 45.6349 36.4599 45.888 37.3902 46.3606C38.2997 46.8171 39.3026 47.0566 40.3202 47.0606C43.0002 47.0606 44.6502 44.6006 46.1002 42.4806C47.1881 40.8809 48.0401 39.133 48.6302 37.2906C48.6543 37.2201 48.6512 37.1431 48.6216 37.0747C48.5921 37.0064 48.5381 36.9514 48.4702 36.9206V36.9206C47.0969 36.3333 45.9247 35.3584 45.097 34.1151C44.2693 32.8718 43.8222 31.4142 43.8102 29.9206C43.8292 28.5922 44.1816 27.2899 44.8351 26.1332C45.4886 24.9764 46.4222 24.0025 47.5502 23.3006V23.3006C47.5844 23.2779 47.6136 23.2485 47.636 23.2141C47.6583 23.1797 47.6734 23.1411 47.6802 23.1006C47.7097 23.0268 47.7097 22.9445 47.6802 22.8706C46.9059 21.7619 45.8834 20.8491 44.6942 20.205C43.5051 19.561 42.182 19.2033 40.8302 19.1606C40.6304 19.1502 40.4301 19.1502 40.2302 19.1606C38.7745 19.2118 37.3406 19.5304 36.0002 20.1006C35.3497 20.4104 34.6546 20.6163 33.9402 20.7106C33.2002 20.6264 32.4799 20.4167 31.8102 20.0906C30.6132 19.5316 29.3195 19.209 28.0002 19.1406H27.9002C26.3204 19.1942 24.7811 19.6539 23.4307 20.4753C22.0802 21.2968 20.9642 22.4524 20.1902 23.8306V23.8306Z" fill="#10454F"/>
<path d="M40.8596 10.2998C38.7156 10.5035 36.732 11.5239 35.3196 13.1498C34.612 13.9376 34.0703 14.8598 33.7267 15.8614C33.3831 16.863 33.2447 17.9235 33.3196 18.9798C33.3305 19.0482 33.364 19.1109 33.4148 19.158C33.4655 19.2052 33.5306 19.2339 33.5996 19.2398H33.9896C35.0045 19.1918 35.9973 18.9269 36.9012 18.4629C37.8051 17.9989 38.5991 17.3465 39.2296 16.5498C40.6629 14.8927 41.382 12.7355 41.2296 10.5498C41.2224 10.5087 41.2071 10.4695 41.1844 10.4345C41.1617 10.3995 41.1323 10.3694 41.0977 10.3461C41.0632 10.3228 41.0243 10.3066 40.9834 10.2987C40.9425 10.2907 40.9003 10.2911 40.8596 10.2998V10.2998Z" fill="#10454F"/>
<path d="M72.3796 39.3997H64.5896L63.0596 42.9997H60.0596L67.0596 27.4297H69.8996L76.9996 42.9997H73.9996L72.3796 39.3997ZM71.3796 37.1397L68.4496 30.3297L65.5296 37.1397H71.3796Z" fill="#10454F"/>
<path d="M88.3697 31.7509C89.2691 32.2501 90.0105 32.9915 90.5097 33.8909C91.0432 34.8645 91.3121 35.9609 91.2897 37.0709C91.3106 38.1839 91.0419 39.2832 90.5097 40.2609C90.0138 41.1653 89.2718 41.9107 88.3697 42.4109C87.4134 42.9205 86.3432 43.1786 85.2597 43.1609C84.547 43.1947 83.8359 43.0685 83.1783 42.7917C82.5208 42.5148 81.9335 42.0943 81.4597 41.5609V47.3209H78.6797V31.1309H81.3197V32.6909C81.7634 32.1324 82.3414 31.6954 82.9997 31.4209C83.7171 31.1302 84.4858 30.9873 85.2597 31.0009C86.3432 30.9831 87.4134 31.2412 88.3697 31.7509V31.7509ZM87.4797 39.7509C88.1187 39.0002 88.4696 38.0467 88.4696 37.0609C88.4696 36.0751 88.1187 35.1215 87.4797 34.3709C87.1514 34.0365 86.7566 33.7748 86.3208 33.6025C85.885 33.4302 85.4179 33.3513 84.9497 33.3709C84.3198 33.3641 83.6991 33.5227 83.1497 33.8309C82.611 34.1342 82.1703 34.5853 81.8797 35.1309C81.5706 35.738 81.4095 36.4096 81.4095 37.0909C81.4095 37.7722 81.5706 38.4438 81.8797 39.0509C82.1734 39.5942 82.6134 40.0445 83.1497 40.3509C83.6999 40.656 84.3206 40.8112 84.9497 40.8009C85.4206 40.8134 85.8889 40.7274 86.3246 40.5483C86.7603 40.3692 87.1537 40.101 87.4797 39.7609V39.7509Z" fill="#10454F"/>
<path d="M103.63 31.7509C104.53 32.25 105.271 32.9914 105.77 33.8909C106.304 34.8644 106.573 35.9609 106.55 37.0709C106.571 38.1838 106.303 39.2831 105.77 40.2609C105.274 41.1653 104.533 41.9107 103.63 42.4109C102.674 42.9205 101.604 43.1786 100.52 43.1609C99.8078 43.1947 99.0966 43.0685 98.439 42.7916C97.7815 42.5148 97.1943 42.0942 96.7204 41.5609V47.3209H93.9404V31.1309H96.5904V32.6909C97.0368 32.1267 97.6228 31.6889 98.2904 31.4209C98.9985 31.1341 99.7566 30.9913 100.52 31.0009C101.604 30.9831 102.674 31.2412 103.63 31.7509V31.7509ZM102.74 39.7509C103.379 39.0002 103.73 38.0466 103.73 37.0609C103.73 36.0751 103.379 35.1215 102.74 34.3709C102.412 34.0365 102.017 33.7747 101.582 33.6025C101.146 33.4302 100.679 33.3513 100.21 33.3709C99.5805 33.3641 98.9598 33.5227 98.4104 33.8309C97.8741 34.1372 97.4342 34.5875 97.1404 35.1309C96.8313 35.738 96.6702 36.4096 96.6702 37.0909C96.6702 37.7721 96.8313 38.4437 97.1404 39.0509C97.4371 39.592 97.8764 40.0416 98.4104 40.3509C98.9606 40.656 99.5814 40.8112 100.21 40.8009C100.681 40.8134 101.15 40.7273 101.585 40.5482C102.021 40.3691 102.414 40.1009 102.74 39.7609V39.7509Z" fill="#10454F"/>
<path d="M117 42.7205C116.028 42.4576 115.122 41.9943 114.34 41.3605L115.34 39.1205C116.049 39.6584 116.844 40.0741 117.69 40.3505C118.587 40.6648 119.53 40.827 120.48 40.8305C121.382 40.8887 122.282 40.6948 123.08 40.2705C123.339 40.123 123.555 39.9091 123.704 39.6508C123.854 39.3924 123.932 39.0989 123.93 38.8005C123.934 38.5933 123.894 38.3876 123.811 38.1977C123.728 38.0078 123.605 37.8381 123.45 37.7005C123.097 37.3942 122.685 37.1628 122.24 37.0205C121.75 36.8605 121.08 36.6805 120.24 36.4705C119.262 36.2507 118.3 35.9667 117.36 35.6205C116.629 35.3469 115.978 34.8928 115.47 34.3005C114.912 33.614 114.63 32.7438 114.68 31.8605C114.67 31.0275 114.914 30.2113 115.38 29.5205C115.904 28.766 116.637 28.1818 117.49 27.8405C118.587 27.3913 119.765 27.1767 120.95 27.2105C121.895 27.2097 122.836 27.3307 123.75 27.5705C124.593 27.77 125.397 28.1079 126.13 28.5705L125.22 30.8205C124.552 30.4273 123.836 30.1214 123.09 29.9105C122.388 29.7082 121.661 29.6039 120.93 29.6005C120.043 29.5388 119.156 29.7369 118.38 30.1705C118.123 30.3361 117.912 30.5642 117.766 30.8335C117.621 31.1029 117.547 31.4046 117.55 31.7105C117.544 31.9164 117.584 32.121 117.667 32.3095C117.75 32.498 117.874 32.6657 118.03 32.8005C118.385 33.1021 118.796 33.3299 119.24 33.4705C119.73 33.6305 120.39 33.8205 121.24 34.0205C122.208 34.2333 123.161 34.514 124.09 34.8605C124.819 35.1439 125.47 35.5963 125.99 36.1805C126.545 36.8528 126.827 37.7096 126.78 38.5805C126.79 39.4135 126.545 40.2297 126.08 40.9205C125.544 41.6696 124.805 42.2492 123.95 42.5905C122.847 43.0312 121.667 43.2422 120.48 43.2105C119.302 43.2201 118.129 43.055 117 42.7205V42.7205Z" fill="#10454F"/>
<path d="M136.47 42.36C136.122 42.6436 135.716 42.8483 135.28 42.96C134.8 43.0991 134.301 43.1665 133.8 43.16C132.708 43.2302 131.632 42.8714 130.8 42.16C130.423 41.7623 130.132 41.2899 129.948 40.7733C129.764 40.2566 129.69 39.707 129.73 39.16V33.44H127.73V31.22H129.73V28.5H132.51V31.22H135.69V33.44H132.51V39.09C132.478 39.5704 132.628 40.0455 132.93 40.42C133.093 40.5765 133.286 40.6974 133.498 40.7748C133.71 40.8523 133.935 40.8847 134.16 40.87C134.718 40.8919 135.267 40.7187 135.71 40.38L136.47 42.36Z" fill="#10454F"/>
<path d="M140.46 42.3906C139.518 41.893 138.735 41.1412 138.2 40.2206C137.652 39.2621 137.372 38.1742 137.39 37.0706C137.371 35.9699 137.651 34.8848 138.2 33.9306C138.736 33.013 139.519 32.2646 140.46 31.7706C141.47 31.2639 142.584 31 143.715 31C144.845 31 145.959 31.2639 146.97 31.7706C147.91 32.2646 148.694 33.013 149.23 33.9306C149.778 34.8848 150.058 35.9699 150.04 37.0706C150.057 38.1742 149.777 39.2621 149.23 40.2206C148.702 41.1371 147.93 41.8885 147 42.3906C145.989 42.8973 144.875 43.1612 143.745 43.1612C142.614 43.1612 141.5 42.8973 140.49 42.3906H140.46ZM146.24 39.7606C146.884 39.0126 147.239 38.058 147.239 37.0706C147.239 36.0831 146.884 35.1285 146.24 34.3806C145.909 34.0465 145.512 33.7849 145.075 33.6128C144.638 33.4406 144.169 33.3615 143.7 33.3806C143.233 33.3612 142.767 33.4402 142.333 33.6125C141.899 33.7848 141.506 34.0465 141.18 34.3806C140.541 35.1312 140.19 36.0848 140.19 37.0706C140.19 38.0564 140.541 39.0099 141.18 39.7606C141.507 40.0932 141.9 40.3539 142.334 40.526C142.768 40.6982 143.233 40.7781 143.7 40.7606C144.169 40.7778 144.637 40.6979 145.074 40.5258C145.511 40.3537 145.908 40.0932 146.24 39.7606V39.7606Z" fill="#10454F"/>
<path d="M159.59 31V33.64C159.375 33.602 159.158 33.5819 158.94 33.58C158.476 33.5514 158.011 33.6203 157.575 33.7822C157.14 33.9441 156.743 34.1954 156.41 34.52C155.754 35.2723 155.423 36.2541 155.49 37.25V43H152.71V31.13H155.36V32.86C156.16 31.62 157.57 31 159.59 31Z" fill="#10454F"/>
<path d="M173 37.9994H163.68C163.827 38.7983 164.27 39.5124 164.92 39.9994C165.669 40.5308 166.572 40.8014 167.49 40.7694C168.087 40.7886 168.681 40.6839 169.235 40.4618C169.789 40.2398 170.292 39.9053 170.71 39.4794L172.2 41.1894C171.665 41.8324 170.977 42.331 170.2 42.6394C169.318 42.9704 168.382 43.1333 167.44 43.1194C166.244 43.1489 165.06 42.8845 163.99 42.3494C163.033 41.8588 162.235 41.1062 161.69 40.1794C161.165 39.2162 160.89 38.1366 160.89 37.0394C160.89 35.9423 161.165 34.8627 161.69 33.8994C162.201 32.9845 162.96 32.2323 163.88 31.7294C164.842 31.2279 165.915 30.9769 167 30.9994C168.082 30.9802 169.15 31.2421 170.1 31.7594C171.002 32.2636 171.744 33.0123 172.24 33.9194C172.763 34.9105 173.025 36.0189 173 37.1394C173 37.3294 173 37.5994 173 37.9994ZM164.78 33.9994C164.158 34.5371 163.756 35.2845 163.65 36.0994H170.4C170.297 35.2834 169.894 34.5347 169.27 33.9994C168.628 33.4841 167.829 33.2033 167.005 33.2033C166.181 33.2033 165.382 33.4841 164.74 33.9994H164.78Z" fill="#10454F"/>
<path d="M62.7754 9.08802H66.0654C66.6814 9.08802 67.2974 9.19068 67.9134 9.39602C68.5387 9.60135 69.0987 9.91402 69.5934 10.334C70.0974 10.7447 70.5034 11.2627 70.8114 11.888C71.1194 12.504 71.2734 13.2227 71.2734 14.044C71.2734 14.8747 71.1194 15.598 70.8114 16.214C70.5034 16.83 70.0974 17.348 69.5934 17.768C69.0987 18.1787 68.5387 18.4867 67.9134 18.692C67.2974 18.8973 66.6814 19 66.0654 19H62.7754V9.08802ZM63.7834 18.104H65.7854C66.5321 18.104 67.1807 17.9873 67.7314 17.754C68.2914 17.5207 68.7534 17.2173 69.1174 16.844C69.4814 16.4613 69.7521 16.0273 69.9294 15.542C70.1161 15.0567 70.2094 14.5573 70.2094 14.044C70.2094 13.5307 70.1161 13.0313 69.9294 12.546C69.7521 12.0607 69.4814 11.6313 69.1174 11.258C68.7534 10.8753 68.2914 10.5673 67.7314 10.334C67.1807 10.1007 66.5321 9.98402 65.7854 9.98402H63.7834V18.104Z" fill="#10454F"/>
<path d="M78.8131 15.22C78.7851 14.604 78.5844 14.0953 78.2111 13.694C77.8471 13.2833 77.3244 13.078 76.6431 13.078C76.3258 13.078 76.0318 13.1387 75.7611 13.26C75.4904 13.372 75.2524 13.5307 75.0471 13.736C74.8418 13.932 74.6784 14.1607 74.5571 14.422C74.4358 14.674 74.3658 14.94 74.3471 15.22H78.8131ZM79.7791 15.528C79.7791 15.5933 79.7791 15.6633 79.7791 15.738C79.7791 15.8127 79.7744 15.892 79.7651 15.976H74.3331C74.3424 16.3027 74.4078 16.6107 74.5291 16.9C74.6504 17.1893 74.8184 17.4413 75.0331 17.656C75.2478 17.8707 75.4998 18.0433 75.7891 18.174C76.0784 18.2953 76.3911 18.356 76.7271 18.356C77.2218 18.356 77.6464 18.244 78.0011 18.02C78.3651 17.7867 78.6404 17.5207 78.8271 17.222L79.5411 17.782C79.1491 18.2767 78.7151 18.6314 78.2391 18.846C77.7724 19.0607 77.2684 19.168 76.7271 19.168C76.2418 19.168 75.7891 19.084 75.3691 18.916C74.9584 18.7387 74.6038 18.496 74.3051 18.188C74.0064 17.88 73.7684 17.516 73.5911 17.096C73.4231 16.676 73.3391 16.2187 73.3391 15.724C73.3391 15.2293 73.4231 14.772 73.5911 14.352C73.7591 13.932 73.9924 13.568 74.2911 13.26C74.5898 12.952 74.9398 12.714 75.3411 12.546C75.7424 12.3687 76.1764 12.28 76.6431 12.28C77.1564 12.28 77.6091 12.3687 78.0011 12.546C78.3931 12.714 78.7198 12.9473 78.9811 13.246C79.2424 13.5353 79.4384 13.876 79.5691 14.268C79.7091 14.66 79.7791 15.08 79.7791 15.528Z" fill="#10454F"/>
<path d="M85.8128 14.002C85.6728 13.7313 85.4581 13.512 85.1688 13.344C84.8888 13.1667 84.5668 13.078 84.2028 13.078C84.0348 13.078 83.8668 13.0967 83.6988 13.134C83.5308 13.1713 83.3815 13.232 83.2508 13.316C83.1201 13.4 83.0128 13.5073 82.9288 13.638C82.8541 13.7687 82.8168 13.9227 82.8168 14.1C82.8168 14.408 82.9428 14.646 83.1948 14.814C83.4468 14.9727 83.8435 15.108 84.3848 15.22C85.1595 15.3787 85.7288 15.612 86.0928 15.92C86.4661 16.2187 86.6528 16.6247 86.6528 17.138C86.6528 17.5114 86.5781 17.8287 86.4288 18.09C86.2888 18.342 86.1021 18.552 85.8688 18.72C85.6355 18.8787 85.3695 18.9907 85.0708 19.056C84.7815 19.1307 84.4875 19.168 84.1888 19.168C83.6941 19.168 83.2135 19.0654 82.7468 18.86C82.2801 18.6547 81.8975 18.3327 81.5988 17.894L82.3548 17.334C82.5228 17.6233 82.7701 17.866 83.0968 18.062C83.4235 18.258 83.7828 18.356 84.1748 18.356C84.3801 18.356 84.5761 18.3373 84.7628 18.3C84.9495 18.2627 85.1128 18.1973 85.2528 18.104C85.3928 18.0107 85.5048 17.894 85.5888 17.754C85.6728 17.6047 85.7148 17.4227 85.7148 17.208C85.7148 16.8627 85.5468 16.606 85.2108 16.438C84.8841 16.2607 84.4081 16.0973 83.7828 15.948C83.5868 15.9013 83.3768 15.8454 83.1528 15.78C82.9381 15.7054 82.7375 15.6027 82.5508 15.472C82.3641 15.332 82.2101 15.1593 82.0888 14.954C81.9675 14.7487 81.9068 14.492 81.9068 14.184C81.9068 13.848 81.9721 13.5633 82.1028 13.33C82.2335 13.0873 82.4061 12.8913 82.6208 12.742C82.8448 12.5833 83.0968 12.4667 83.3768 12.392C83.6568 12.3173 83.9461 12.28 84.2448 12.28C84.7021 12.28 85.1455 12.3827 85.5748 12.588C86.0041 12.7933 86.3261 13.0827 86.5408 13.456L85.8128 14.002Z" fill="#10454F"/>
<path d="M93.7655 13.946C93.6068 13.694 93.3735 13.4887 93.0655 13.33C92.7668 13.162 92.4402 13.078 92.0855 13.078C91.7028 13.078 91.3575 13.148 91.0495 13.288C90.7415 13.4187 90.4755 13.6053 90.2515 13.848C90.0368 14.0813 89.8688 14.3613 89.7475 14.688C89.6355 15.0053 89.5795 15.3507 89.5795 15.724C89.5795 16.0973 89.6355 16.4427 89.7475 16.76C89.8688 17.0773 90.0368 17.3573 90.2515 17.6C90.4662 17.8333 90.7275 18.02 91.0355 18.16C91.3435 18.2907 91.6888 18.356 92.0715 18.356C92.4915 18.356 92.8462 18.2767 93.1355 18.118C93.4248 17.9593 93.6628 17.754 93.8495 17.502L94.5635 18.034C94.2835 18.3793 93.9382 18.6547 93.5275 18.86C93.1262 19.0654 92.6408 19.168 92.0715 19.168C91.5395 19.168 91.0588 19.084 90.6295 18.916C90.2002 18.7387 89.8315 18.496 89.5235 18.188C89.2248 17.88 88.9915 17.516 88.8235 17.096C88.6555 16.676 88.5715 16.2187 88.5715 15.724C88.5715 15.2293 88.6555 14.772 88.8235 14.352C88.9915 13.932 89.2248 13.568 89.5235 13.26C89.8315 12.952 90.2002 12.714 90.6295 12.546C91.0588 12.3687 91.5395 12.28 92.0715 12.28C92.5102 12.28 92.9535 12.378 93.4015 12.574C93.8588 12.7607 94.2275 13.0407 94.5075 13.414L93.7655 13.946Z" fill="#10454F"/>
<path d="M100.678 14.772C100.678 14.2027 100.528 13.778 100.23 13.498C99.9308 13.218 99.4968 13.078 98.9275 13.078C98.5355 13.078 98.1715 13.148 97.8355 13.288C97.4995 13.428 97.2148 13.6147 96.9815 13.848L96.4495 13.218C96.7202 12.9473 97.0748 12.7233 97.5135 12.546C97.9615 12.3687 98.4655 12.28 99.0255 12.28C99.3802 12.28 99.7115 12.3313 100.02 12.434C100.328 12.5273 100.598 12.672 100.832 12.868C101.065 13.064 101.247 13.3113 101.378 13.61C101.508 13.9087 101.574 14.2587 101.574 14.66V17.53C101.574 17.782 101.583 18.0433 101.602 18.314C101.62 18.5847 101.648 18.8133 101.686 19H100.832C100.804 18.8413 100.78 18.6687 100.762 18.482C100.743 18.2953 100.734 18.1134 100.734 17.936H100.706C100.407 18.3747 100.066 18.692 99.6835 18.888C99.3102 19.0747 98.8575 19.168 98.3255 19.168C98.0735 19.168 97.8122 19.1307 97.5415 19.056C97.2802 18.9907 97.0375 18.8787 96.8135 18.72C96.5988 18.5613 96.4168 18.356 96.2675 18.104C96.1275 17.852 96.0575 17.544 96.0575 17.18C96.0575 16.676 96.1835 16.2793 96.4355 15.99C96.6968 15.6913 97.0422 15.472 97.4715 15.332C97.9008 15.1827 98.3908 15.0893 98.9415 15.052C99.5015 15.0053 100.08 14.982 100.678 14.982V14.772ZM100.398 15.724C100.006 15.724 99.6088 15.7427 99.2075 15.78C98.8155 15.808 98.4562 15.8733 98.1295 15.976C97.8122 16.0693 97.5508 16.2093 97.3455 16.396C97.1402 16.5827 97.0375 16.83 97.0375 17.138C97.0375 17.3714 97.0795 17.5673 97.1635 17.726C97.2568 17.8847 97.3782 18.0153 97.5275 18.118C97.6768 18.2113 97.8402 18.2813 98.0175 18.328C98.2042 18.3653 98.3908 18.384 98.5775 18.384C98.9135 18.384 99.2122 18.328 99.4735 18.216C99.7348 18.0947 99.9542 17.936 100.132 17.74C100.309 17.5347 100.444 17.3014 100.538 17.04C100.631 16.7787 100.678 16.5034 100.678 16.214V15.724H100.398Z" fill="#10454F"/>
<path d="M104.526 13.89C104.526 13.7127 104.521 13.484 104.512 13.204C104.503 12.924 104.489 12.672 104.47 12.448H105.38C105.399 12.6253 105.413 12.8213 105.422 13.036C105.431 13.2507 105.436 13.428 105.436 13.568H105.464C105.651 13.1853 105.931 12.8773 106.304 12.644C106.677 12.4013 107.097 12.28 107.564 12.28C107.685 12.28 107.793 12.2847 107.886 12.294C107.989 12.3033 108.091 12.322 108.194 12.35L108.068 13.246C108.012 13.2273 107.919 13.2087 107.788 13.19C107.657 13.1713 107.527 13.162 107.396 13.162C107.144 13.162 106.901 13.2087 106.668 13.302C106.435 13.3953 106.229 13.5447 106.052 13.75C105.884 13.946 105.744 14.2027 105.632 14.52C105.529 14.828 105.478 15.2013 105.478 15.64V19H104.526V13.89Z" fill="#10454F"/>
<path d="M110.175 20.316C110.436 20.652 110.791 20.9367 111.239 21.17C111.696 21.4033 112.177 21.52 112.681 21.52C113.148 21.52 113.544 21.45 113.871 21.31C114.198 21.1793 114.459 20.9973 114.655 20.764C114.86 20.5307 115.01 20.2553 115.103 19.938C115.196 19.63 115.243 19.2987 115.243 18.944V17.712H115.215C114.963 18.1227 114.604 18.44 114.137 18.664C113.68 18.888 113.213 19 112.737 19C112.224 19 111.757 18.916 111.337 18.748C110.926 18.58 110.572 18.3513 110.273 18.062C109.984 17.7633 109.755 17.4087 109.587 16.998C109.428 16.5873 109.349 16.144 109.349 15.668C109.349 15.2013 109.428 14.7627 109.587 14.352C109.755 13.9413 109.984 13.582 110.273 13.274C110.572 12.966 110.926 12.7233 111.337 12.546C111.757 12.3687 112.224 12.28 112.737 12.28C113.213 12.28 113.68 12.392 114.137 12.616C114.594 12.84 114.954 13.162 115.215 13.582H115.243V12.448H116.195V18.944C116.195 19.2987 116.144 19.6767 116.041 20.078C115.948 20.4794 115.766 20.848 115.495 21.184C115.234 21.52 114.874 21.8 114.417 22.024C113.96 22.248 113.367 22.36 112.639 22.36C112.032 22.36 111.454 22.2433 110.903 22.01C110.352 21.7767 109.881 21.4547 109.489 21.044L110.175 20.316ZM110.357 15.64C110.357 15.9853 110.413 16.312 110.525 16.62C110.637 16.928 110.796 17.1987 111.001 17.432C111.216 17.6653 111.477 17.852 111.785 17.992C112.093 18.1227 112.443 18.188 112.835 18.188C113.199 18.188 113.535 18.1274 113.843 18.006C114.151 17.8847 114.417 17.712 114.641 17.488C114.865 17.264 115.038 16.998 115.159 16.69C115.29 16.3727 115.355 16.0227 115.355 15.64C115.355 15.2947 115.29 14.968 115.159 14.66C115.038 14.352 114.865 14.0813 114.641 13.848C114.417 13.6147 114.151 13.428 113.843 13.288C113.535 13.148 113.199 13.078 112.835 13.078C112.443 13.078 112.093 13.148 111.785 13.288C111.477 13.428 111.216 13.6147 111.001 13.848C110.796 14.0813 110.637 14.352 110.525 14.66C110.413 14.968 110.357 15.2947 110.357 15.64Z" fill="#10454F"/>
<path d="M123.301 14.772C123.301 14.2027 123.151 13.778 122.853 13.498C122.554 13.218 122.12 13.078 121.551 13.078C121.159 13.078 120.795 13.148 120.459 13.288C120.123 13.428 119.838 13.6147 119.605 13.848L119.073 13.218C119.343 12.9473 119.698 12.7233 120.137 12.546C120.585 12.3687 121.089 12.28 121.649 12.28C122.003 12.28 122.335 12.3313 122.643 12.434C122.951 12.5273 123.221 12.672 123.455 12.868C123.688 13.064 123.87 13.3113 124.001 13.61C124.131 13.9087 124.197 14.2587 124.197 14.66V17.53C124.197 17.782 124.206 18.0433 124.225 18.314C124.243 18.5847 124.271 18.8133 124.309 19H123.455C123.427 18.8413 123.403 18.6687 123.385 18.482C123.366 18.2953 123.357 18.1134 123.357 17.936H123.329C123.03 18.3747 122.689 18.692 122.307 18.888C121.933 19.0747 121.481 19.168 120.949 19.168C120.697 19.168 120.435 19.1307 120.165 19.056C119.903 18.9907 119.661 18.8787 119.437 18.72C119.222 18.5613 119.04 18.356 118.891 18.104C118.751 17.852 118.681 17.544 118.681 17.18C118.681 16.676 118.807 16.2793 119.059 15.99C119.32 15.6913 119.665 15.472 120.095 15.332C120.524 15.1827 121.014 15.0893 121.565 15.052C122.125 15.0053 122.703 14.982 123.301 14.982V14.772ZM123.021 15.724C122.629 15.724 122.232 15.7427 121.831 15.78C121.439 15.808 121.079 15.8733 120.753 15.976C120.435 16.0693 120.174 16.2093 119.969 16.396C119.763 16.5827 119.661 16.83 119.661 17.138C119.661 17.3714 119.703 17.5673 119.787 17.726C119.88 17.8847 120.001 18.0153 120.151 18.118C120.3 18.2113 120.463 18.2813 120.641 18.328C120.827 18.3653 121.014 18.384 121.201 18.384C121.537 18.384 121.835 18.328 122.097 18.216C122.358 18.0947 122.577 17.936 122.755 17.74C122.932 17.5347 123.067 17.3014 123.161 17.04C123.254 16.7787 123.301 16.5034 123.301 16.214V15.724H123.021Z" fill="#10454F"/>
<path d="M136.147 15.22C136.119 14.604 135.918 14.0953 135.545 13.694C135.181 13.2833 134.658 13.078 133.977 13.078C133.66 13.078 133.366 13.1387 133.095 13.26C132.824 13.372 132.586 13.5307 132.381 13.736C132.176 13.932 132.012 14.1607 131.891 14.422C131.77 14.674 131.7 14.94 131.681 15.22H136.147ZM137.113 15.528C137.113 15.5933 137.113 15.6633 137.113 15.738C137.113 15.8127 137.108 15.892 137.099 15.976H131.667C131.676 16.3027 131.742 16.6107 131.863 16.9C131.984 17.1893 132.152 17.4413 132.367 17.656C132.582 17.8707 132.834 18.0433 133.123 18.174C133.412 18.2953 133.725 18.356 134.061 18.356C134.556 18.356 134.98 18.244 135.335 18.02C135.699 17.7867 135.974 17.5207 136.161 17.222L136.875 17.782C136.483 18.2767 136.049 18.6314 135.573 18.846C135.106 19.0607 134.602 19.168 134.061 19.168C133.576 19.168 133.123 19.084 132.703 18.916C132.292 18.7387 131.938 18.496 131.639 18.188C131.34 17.88 131.102 17.516 130.925 17.096C130.757 16.676 130.673 16.2187 130.673 15.724C130.673 15.2293 130.757 14.772 130.925 14.352C131.093 13.932 131.326 13.568 131.625 13.26C131.924 12.952 132.274 12.714 132.675 12.546C133.076 12.3687 133.51 12.28 133.977 12.28C134.49 12.28 134.943 12.3687 135.335 12.546C135.727 12.714 136.054 12.9473 136.315 13.246C136.576 13.5353 136.772 13.876 136.903 14.268C137.043 14.66 137.113 15.08 137.113 15.528Z" fill="#10454F"/>
<path d="M140.515 12.448C140.533 12.6253 140.547 12.8213 140.557 13.036C140.566 13.2507 140.571 13.428 140.571 13.568H140.599C140.785 13.1853 141.089 12.8773 141.509 12.644C141.929 12.4013 142.372 12.28 142.839 12.28C143.669 12.28 144.29 12.5273 144.701 13.022C145.121 13.5167 145.331 14.17 145.331 14.982V19H144.379V15.374C144.379 15.0287 144.351 14.716 144.295 14.436C144.239 14.156 144.141 13.918 144.001 13.722C143.87 13.5167 143.688 13.358 143.455 13.246C143.231 13.134 142.946 13.078 142.601 13.078C142.349 13.078 142.101 13.1293 141.859 13.232C141.625 13.3347 141.415 13.4933 141.229 13.708C141.042 13.9133 140.893 14.1794 140.781 14.506C140.669 14.8234 140.613 15.2013 140.613 15.64V19H139.661V13.89C139.661 13.7127 139.656 13.484 139.647 13.204C139.637 12.924 139.623 12.672 139.605 12.448H140.515Z" fill="#10454F"/>
<path d="M153.276 19H152.324V8.41602H153.276V19Z" fill="#10454F"/>
<path d="M160.453 14.772C160.453 14.2027 160.304 13.778 160.005 13.498C159.706 13.218 159.272 13.078 158.703 13.078C158.311 13.078 157.947 13.148 157.611 13.288C157.275 13.428 156.99 13.6147 156.757 13.848L156.225 13.218C156.496 12.9473 156.85 12.7233 157.289 12.546C157.737 12.3687 158.241 12.28 158.801 12.28C159.156 12.28 159.487 12.3313 159.795 12.434C160.103 12.5273 160.374 12.672 160.607 12.868C160.84 13.064 161.022 13.3113 161.153 13.61C161.284 13.9087 161.349 14.2587 161.349 14.66V17.53C161.349 17.782 161.358 18.0433 161.377 18.314C161.396 18.5847 161.424 18.8133 161.461 19H160.607C160.579 18.8413 160.556 18.6687 160.537 18.482C160.518 18.2953 160.509 18.1134 160.509 17.936H160.481C160.182 18.3747 159.842 18.692 159.459 18.888C159.086 19.0747 158.633 19.168 158.101 19.168C157.849 19.168 157.588 19.1307 157.317 19.056C157.056 18.9907 156.813 18.8787 156.589 18.72C156.374 18.5613 156.192 18.356 156.043 18.104C155.903 17.852 155.833 17.544 155.833 17.18C155.833 16.676 155.959 16.2793 156.211 15.99C156.472 15.6913 156.818 15.472 157.247 15.332C157.676 15.1827 158.166 15.0893 158.717 15.052C159.277 15.0053 159.856 14.982 160.453 14.982V14.772ZM160.173 15.724C159.781 15.724 159.384 15.7427 158.983 15.78C158.591 15.808 158.232 15.8733 157.905 15.976C157.588 16.0693 157.326 16.2093 157.121 16.396C156.916 16.5827 156.813 16.83 156.813 17.138C156.813 17.3714 156.855 17.5673 156.939 17.726C157.032 17.8847 157.154 18.0153 157.303 18.118C157.452 18.2113 157.616 18.2813 157.793 18.328C157.98 18.3653 158.166 18.384 158.353 18.384C158.689 18.384 158.988 18.328 159.249 18.216C159.51 18.0947 159.73 17.936 159.907 17.74C160.084 17.5347 160.22 17.3014 160.313 17.04C160.406 16.7787 160.453 16.5034 160.453 16.214V15.724H160.173Z" fill="#10454F"/>
</g>
<defs>
<clipPath id="clip0_4906_32365">
<rect width="191.75" height="58.31" fill="white"/>
</clipPath>
</defs>
</svg>
