<svg width="312" height="319" viewBox="0 0 312 319" fill="none" xmlns="http://www.w3.org/2000/svg">
<rect x="2" y="2" width="308" height="315" rx="50" fill="#10454F" stroke="#CA8923" stroke-width="4"/>
<path d="M54.4179 213.035L47.8179 208.14C46.8829 207.48 46.4979 206.875 46.4979 205.665V202.035C46.4979 201.1 46.9379 200.66 47.8729 200.66H48.4779C49.4129 200.66 49.8529 201.1 49.8529 202.035V208.36H57.3879V201.32C57.3879 196.535 55.0229 194.17 50.2379 194.17H46.0579C41.2729 194.17 38.9079 196.535 38.9079 201.32V207.425C38.9079 210.175 39.6229 211.77 41.9879 213.475L48.5879 218.37C49.5229 219.03 49.9079 219.635 49.9079 220.845V225.465C49.9079 226.4 49.4679 226.84 48.5329 226.84H47.8179C46.8829 226.84 46.4429 226.4 46.4429 225.465V217.985H38.9079V226.18C38.9079 230.965 41.2729 233.33 46.0579 233.33H50.3479C55.1329 233.33 57.4979 230.965 57.4979 226.18V219.085C57.4979 216.225 56.7829 214.74 54.4179 213.035ZM60.3066 194.5V233H74.7166V226.125H68.0066V216.885H74.3316V210.01H68.0066V201.375H74.6066V194.5H60.3066ZM96.4819 233V194.5H89.8269L89.8819 202.475L89.9919 213.585L85.5369 194.5H77.6719V233H84.3269L84.2169 221.835L84.1069 212.045L89.0019 233H96.4819ZM99.71 233H110.545C116.1 233 118.795 230.305 118.795 224.75V202.75C118.795 197.195 116.1 194.5 110.545 194.5H99.71V233ZM107.41 201.1H108.95C110.435 201.1 111.095 201.76 111.095 203.245V224.255C111.095 225.74 110.435 226.4 108.95 226.4H107.41V201.1ZM148.795 194.5H141.095V225.355C141.095 226.29 140.655 226.73 139.72 226.73H138.895C137.96 226.73 137.52 226.29 137.52 225.355V194.5H129.82V226.18C129.82 230.965 132.185 233.33 136.97 233.33H141.645C146.43 233.33 148.795 230.965 148.795 226.18V194.5ZM167.257 213.035L160.657 208.14C159.722 207.48 159.337 206.875 159.337 205.665V202.035C159.337 201.1 159.777 200.66 160.712 200.66H161.317C162.252 200.66 162.692 201.1 162.692 202.035V208.36H170.227V201.32C170.227 196.535 167.862 194.17 163.077 194.17H158.897C154.112 194.17 151.747 196.535 151.747 201.32V207.425C151.747 210.175 152.462 211.77 154.827 213.475L161.427 218.37C162.362 219.03 162.747 219.635 162.747 220.845V225.465C162.747 226.4 162.307 226.84 161.372 226.84H160.657C159.722 226.84 159.282 226.4 159.282 225.465V217.985H151.747V226.18C151.747 230.965 154.112 233.33 158.897 233.33H163.187C167.972 233.33 170.337 230.965 170.337 226.18V219.085C170.337 216.225 169.622 214.74 167.257 213.035ZM181.111 194.5V233H195.521V226.125H188.811V216.885H195.136V210.01H188.811V201.375H195.411V194.5H181.111ZM207.552 233H214.812L217.727 207.81V233H225.317V194.5H214.152L211.787 217.82L209.587 194.5H198.477V233H204.637V207.535L207.552 233ZM248.096 233L243.036 194.5H232.531L227.471 233H234.456L235.006 227.39H239.846L240.451 233H248.096ZM237.426 203.905L239.131 220.68H235.721L237.426 203.905ZM257.988 194.5H250.288V233H257.988V194.5ZM261.314 194.5V233H274.569V226.125H269.014V194.5H261.314Z" fill="#CA8923"/>
<path d="M44.3733 260.025L41.6733 258.05C41.1733 257.7 40.9233 257.35 40.9233 256.625V254.675C40.9233 254 41.2483 253.675 41.9233 253.675H42.2483C42.9233 253.675 43.2483 254 43.2483 254.675V257.75H45.8733V254.575C45.8733 252.425 44.7983 251.35 42.6483 251.35H41.5233C39.3483 251.35 38.2733 252.425 38.2733 254.6V257C38.2733 258.35 38.6233 259.175 39.8233 260.025L42.5233 262C43.0233 262.375 43.2733 262.7 43.2733 263.425V265.825C43.2733 266.5 42.9483 266.825 42.2483 266.825H41.8983C41.1983 266.825 40.8733 266.5 40.8733 265.825V262.225H38.2733V265.925C38.2733 268.075 39.3233 269.15 41.4983 269.15H42.6733C44.8483 269.15 45.9233 268.075 45.9233 265.9V263.05C45.9233 261.625 45.5483 260.875 44.3733 260.025ZM55.6565 251.5H52.9815V265.775C52.9815 266.475 52.6565 266.8 51.9815 266.8H51.5565C50.8565 266.8 50.5315 266.475 50.5315 265.775V251.5H47.8565V265.9C47.8565 268.075 48.9315 269.15 51.1065 269.15H52.4065C54.5815 269.15 55.6565 268.075 55.6565 265.9V251.5ZM60.4071 262.65H61.9321C64.1071 262.65 65.1821 261.575 65.1821 259.4V254.75C65.1821 252.575 64.1071 251.5 61.9321 251.5H57.7321V269H60.4071V262.65ZM62.5071 254.875V259.275C62.5071 259.975 62.1821 260.3 61.5071 260.3H60.4071V253.85H61.5071C62.1821 253.85 62.5071 254.175 62.5071 254.875ZM69.6718 262.65H71.1968C73.3718 262.65 74.4468 261.575 74.4468 259.4V254.75C74.4468 252.575 73.3718 251.5 71.1968 251.5H66.9968V269H69.6718V262.65ZM71.7718 254.875V259.275C71.7718 259.975 71.4468 260.3 70.7718 260.3H69.6718V253.85H70.7718C71.4468 253.85 71.7718 254.175 71.7718 254.875ZM84.1364 265.9V254.6C84.1364 252.425 83.0614 251.35 80.8864 251.35H79.4614C77.2864 251.35 76.2114 252.425 76.2114 254.6V265.9C76.2114 268.075 77.2864 269.15 79.4614 269.15H80.8864C83.0614 269.15 84.1364 268.075 84.1364 265.9ZM81.4614 254.725V265.775C81.4614 266.475 81.1364 266.8 80.4614 266.8H79.9114C79.2114 266.8 78.8864 266.475 78.8864 265.775V254.725C78.8864 254.025 79.2114 253.7 79.9114 253.7H80.4614C81.1364 253.7 81.4614 254.025 81.4614 254.725ZM92.3103 260.75C93.2853 260.35 93.8353 259.6 93.8353 258.05V254.75C93.8353 252.575 92.7603 251.5 90.5853 251.5H86.1853V269H88.8603V261.975H90.0603C90.8353 261.975 91.1853 262.325 91.1853 263.1V269H93.8603V263.05C93.8603 261.725 93.4103 261.05 92.3103 260.75ZM91.1603 254.875V258.575C91.1603 259.3 90.8103 259.65 90.0603 259.65H88.8603V253.875H90.1603C90.8353 253.875 91.1603 254.2 91.1603 254.875ZM100.243 269V253.925H102.643V251.5H95.1685V253.925H97.5685V269H100.243ZM113.152 268.25C114.402 268.25 115.002 267.625 115.002 266.175V257.45C115.002 254.45 113.827 253.35 111.102 253.35H108.152C105.427 253.35 104.252 254.45 104.252 257.45V266.775C104.252 269.825 105.377 270.875 108.152 270.875H114.177V270.025H108.152C106.027 270.025 105.152 269.2 105.152 266.775V257.45C105.152 255.025 106.027 254.2 108.152 254.2H111.102C113.227 254.2 114.102 255.025 114.102 257.45V266.15C114.102 267 113.802 267.4 113.177 267.4H113.027C112.627 267.4 112.427 267.225 112.427 266.775V258.275C112.427 256.7 111.627 255.925 110.027 255.925H109.277C107.677 255.925 106.852 256.7 106.852 258.275V260.025H108.852V258.525C108.852 258.025 109.077 257.8 109.577 257.8H109.702C110.202 257.8 110.402 258.025 110.402 258.525V260.55L108.302 261.25C107.127 261.65 106.727 262.25 106.727 263.575V266.3C106.727 267.55 107.402 268.275 108.552 268.275C109.327 268.275 109.977 267.95 110.602 267.25C110.877 267.95 111.352 268.25 112.302 268.25H113.152ZM109.402 266.35C108.952 266.35 108.752 266.125 108.752 265.675V263.725C108.752 263.225 108.902 262.975 109.327 262.8L110.402 262.4V266C110.027 266.225 109.752 266.35 109.402 266.35ZM123.178 260.025L120.478 258.05C119.978 257.7 119.728 257.35 119.728 256.625V254.675C119.728 254 120.053 253.675 120.728 253.675H121.053C121.728 253.675 122.053 254 122.053 254.675V257.75H124.678V254.575C124.678 252.425 123.603 251.35 121.453 251.35H120.328C118.153 251.35 117.078 252.425 117.078 254.6V257C117.078 258.35 117.428 259.175 118.628 260.025L121.328 262C121.828 262.375 122.078 262.7 122.078 263.425V265.825C122.078 266.5 121.753 266.825 121.053 266.825H120.703C120.003 266.825 119.678 266.5 119.678 265.825V262.225H117.078V265.925C117.078 268.075 118.128 269.15 120.303 269.15H121.478C123.653 269.15 124.728 268.075 124.728 265.9V263.05C124.728 261.625 124.353 260.875 123.178 260.025ZM132.114 251.475H128.564L126.064 269H128.539L128.864 266.25H131.639L131.989 269H134.639L132.114 251.475ZM130.239 255.025L131.339 263.875H129.164L130.239 255.025ZM141.272 261.825V265.775C141.272 266.475 140.947 266.8 140.272 266.8H139.772C139.072 266.8 138.747 266.475 138.747 265.775V254.725C138.747 254.025 139.072 253.7 139.772 253.7H140.222C140.897 253.7 141.222 254.025 141.222 254.725V258.15H143.847V254.575C143.847 252.4 142.797 251.35 140.622 251.35H139.322C137.147 251.35 136.072 252.425 136.072 254.6V265.9C136.072 268.075 137.147 269.15 139.322 269.15H140.647C142.822 269.15 143.897 268.075 143.897 265.9V261.825H141.272ZM151.999 260C152.949 259.65 153.474 258.875 153.474 257.325V254.75C153.474 252.575 152.399 251.5 150.224 251.5H145.899V269H150.274C152.449 269 153.524 267.925 153.524 265.75V262.525C153.524 261.1 153.024 260.35 151.999 260ZM150.824 254.85V257.85C150.824 258.575 150.474 258.95 149.724 258.95H148.549V253.85H149.824C150.499 253.85 150.824 254.175 150.824 254.85ZM148.549 261.225H149.774C150.524 261.225 150.874 261.575 150.874 262.325V265.65C150.874 266.325 150.549 266.65 149.874 266.65H148.549V261.225ZM155.53 251.5V269H161.53V266.575H158.205V261.3H161.355V258.875H158.205V253.925H161.48V251.5H155.53ZM166.127 262.65H167.652C169.827 262.65 170.902 261.575 170.902 259.4V254.75C170.902 252.575 169.827 251.5 167.652 251.5H163.452V269H166.127V262.65ZM168.227 254.875V259.275C168.227 259.975 167.902 260.3 167.227 260.3H166.127V253.85H167.227C167.902 253.85 168.227 254.175 168.227 254.875ZM177.632 251.475H174.082L171.582 269H174.057L174.382 266.25H177.157L177.507 269H180.157L177.632 251.475ZM175.757 255.025L176.857 263.875H174.682L175.757 255.025ZM188.633 251.5H186.058L184.458 258.95L182.958 251.5H180.208L183.083 263.05V269H185.758V262.775L188.633 251.5ZM197.401 251.5L195.676 264.225L194.001 251.5H190.001V269H192.301V255.525L194.226 269H196.851L198.751 255.7V269H201.376V251.5H197.401ZM203.465 251.5V269H209.465V266.575H206.14V261.3H209.29V258.875H206.14V253.925H209.415V251.5H203.465ZM219.386 269V251.5H216.986V259.375L217.011 262.3L214.511 251.5H211.386V269H213.786V260.3L213.761 257.225L216.486 269H219.386ZM226.006 269V253.925H228.406V251.5H220.931V253.925H223.331V269H226.006ZM235.794 260.025L233.094 258.05C232.594 257.7 232.344 257.35 232.344 256.625V254.675C232.344 254 232.669 253.675 233.344 253.675H233.669C234.344 253.675 234.669 254 234.669 254.675V257.75H237.294V254.575C237.294 252.425 236.219 251.35 234.069 251.35H232.944C230.769 251.35 229.694 252.425 229.694 254.6V257C229.694 258.35 230.044 259.175 231.244 260.025L233.944 262C234.444 262.375 234.694 262.7 234.694 263.425V265.825C234.694 266.5 234.369 266.825 233.669 266.825H233.319C232.619 266.825 232.294 266.5 232.294 265.825V262.225H229.694V265.925C229.694 268.075 230.744 269.15 232.919 269.15H234.094C236.269 269.15 237.344 268.075 237.344 265.9V263.05C237.344 261.625 236.969 260.875 235.794 260.025ZM241.652 265.675H239.127V269H241.652V265.675ZM248.737 261.825V265.775C248.737 266.475 248.412 266.8 247.737 266.8H247.237C246.537 266.8 246.212 266.475 246.212 265.775V254.725C246.212 254.025 246.537 253.7 247.237 253.7H247.687C248.362 253.7 248.687 254.025 248.687 254.725V258.15H251.312V254.575C251.312 252.4 250.262 251.35 248.087 251.35H246.787C244.612 251.35 243.537 252.425 243.537 254.6V265.9C243.537 268.075 244.612 269.15 246.787 269.15H248.112C250.287 269.15 251.362 268.075 251.362 265.9V261.825H248.737ZM261.239 265.9V254.6C261.239 252.425 260.164 251.35 257.989 251.35H256.564C254.389 251.35 253.314 252.425 253.314 254.6V265.9C253.314 268.075 254.389 269.15 256.564 269.15H257.989C260.164 269.15 261.239 268.075 261.239 265.9ZM258.564 254.725V265.775C258.564 266.475 258.239 266.8 257.564 266.8H257.014C256.314 266.8 255.989 266.475 255.989 265.775V254.725C255.989 254.025 256.314 253.7 257.014 253.7H257.564C258.239 253.7 258.564 254.025 258.564 254.725ZM270.688 251.5L268.963 264.225L267.288 251.5H263.288V269H265.588V255.525L267.513 269H270.138L272.038 255.7V269H274.663V251.5H270.688Z" fill="#FFF6D2"/>
<rect x="102.5" y="56.5" width="108" height="108" rx="54" stroke="#FFF6D2" stroke-width="5"/>
<path fill-rule="evenodd" clip-rule="evenodd" d="M132.875 90.8438C129.613 90.8438 126.969 93.4881 126.969 96.75V128.25C126.969 131.512 129.613 134.156 132.875 134.156H180.125C183.387 134.156 186.031 131.512 186.031 128.25V96.75C186.031 93.4881 183.387 90.8438 180.125 90.8438H132.875ZM130.906 97.2947V128.25C130.906 129.337 131.788 130.219 132.875 130.219H180.125C181.212 130.219 182.094 129.337 182.094 128.25V97.2948L163.195 112.293C163.172 112.311 163.149 112.329 163.125 112.346C159.211 115.176 153.789 115.176 149.875 112.346C149.851 112.329 149.828 112.311 149.805 112.293L130.906 97.2947ZM178.927 94.7812H134.073L152.216 109.18C154.74 110.982 158.261 110.982 160.784 109.18L178.927 94.7812Z" fill="#FFF6D2"/>
</svg>
