<svg width="193" height="69" viewBox="0 0 193 69" fill="none" xmlns="http://www.w3.org/2000/svg">
<g clip-path="url(#clip0_4906_32469)">
<path d="M158.5 1.5H34.5C16.2746 1.5 1.5 16.2746 1.5 34.5C1.5 52.7254 16.2746 67.5 34.5 67.5H158.5C176.725 67.5 191.5 52.7254 191.5 34.5C191.5 16.2746 176.725 1.5 158.5 1.5Z" fill="#10454F" stroke="#CA8923" stroke-width="3"/>
<path d="M163.083 37.666V40.5549C163.083 40.9379 162.906 41.3053 162.59 41.5762C162.274 41.8471 161.845 41.9993 161.398 41.9993H149.602C149.155 41.9993 148.726 41.8471 148.41 41.5762C148.094 41.3053 147.917 40.9379 147.917 40.5549V37.666" stroke="#FFF6D2" stroke-width="2" stroke-linecap="square" stroke-linejoin="round"/>
<path d="M151.926 34.0547L155.537 37.6658L159.148 34.0547" stroke="#FFF6D2" stroke-width="2" stroke-linecap="square" stroke-linejoin="round"/>
<path d="M154.499 37.6674C154.499 38.2196 154.947 38.6674 155.499 38.6674C156.052 38.6674 156.499 38.2197 156.499 37.6675L154.499 37.6674ZM156.5 26.8341V25.8341L154.5 25.834V26.834L156.5 26.8341ZM156.499 37.6675L156.5 26.8341L154.5 26.834L154.499 37.6674L156.499 37.6675Z" fill="#FFF6D2"/>
<path d="M28 27H33.1562C35.66 27 37.3575 27.7639 38.2487 29.2916C38.6872 30.0272 38.9913 30.8264 39.1611 31.6893C39.3308 32.5522 39.4157 33.5142 39.4157 34.5751C39.4157 35.6219 39.3662 36.506 39.2672 37.2274C39.1681 37.9489 38.9772 38.6562 38.6943 39.3493C38.4255 40.0283 38.0648 40.5871 37.6121 41.0256C36.6077 42.0017 35.1224 42.4897 33.1562 42.4897H28V27ZM32.7742 29.228H30.8857V40.2617H32.7742C34.2878 40.2617 35.3134 39.7171 35.8509 38.6279C36.3036 37.6801 36.5299 36.3858 36.5299 34.7448C36.5299 33.1039 36.3036 31.8096 35.8509 30.8618C35.3134 29.7726 34.2878 29.228 32.7742 29.228Z" fill="#FFF7D2"/>
<path d="M47.017 42.786C45.0649 42.786 43.6716 42.2626 42.8369 41.2158C42.0023 40.1548 41.585 38.5563 41.585 36.4203C41.585 32.1766 43.3674 30.0547 46.9322 30.0547C48.9833 30.0547 50.3837 30.6913 51.1335 31.9644C51.7842 33.0536 52.1095 34.4682 52.1095 36.2081V36.972H44.3435C44.3576 38.3017 44.5769 39.2424 45.0013 39.7941C45.4256 40.3316 46.1259 40.6004 47.1019 40.6004C48.6721 40.6004 49.5067 40.0346 49.6057 38.9029L51.9398 38.9878C51.7135 41.5199 50.0725 42.786 47.017 42.786ZM48.6509 32.9405C48.2972 32.4736 47.7173 32.2402 46.9109 32.2402C46.1046 32.2402 45.5105 32.4666 45.1286 32.9192C44.7608 33.3578 44.5203 34.065 44.4071 35.0411H49.3087C49.2238 34.0933 49.0045 33.3931 48.6509 32.9405Z" fill="#FFF7D2"/>
<path d="M63.4502 39.0939C63.4502 41.5128 61.7527 42.7223 58.3577 42.7223C56.8724 42.7223 55.769 42.404 55.0475 41.7675C54.3261 41.1167 53.8734 40.176 53.6895 38.9454L55.8963 38.6059C56.0519 39.9639 56.8936 40.6429 58.4213 40.6429C59.9632 40.6429 60.7342 40.1619 60.7342 39.2C60.7342 38.8039 60.5786 38.5068 60.2674 38.3088C59.9703 38.1108 59.362 37.9056 58.4425 37.6935L57.4665 37.46C56.2075 37.163 55.3022 36.7315 54.7505 36.1657C54.2129 35.5857 53.9442 34.7511 53.9442 33.6619C53.9442 31.2571 55.5851 30.0547 58.8669 30.0547C60.2815 30.0547 61.3354 30.3801 62.0285 31.0308C62.7358 31.6673 63.1743 32.6009 63.3441 33.8316L61.1373 34.1499C60.9817 32.8061 60.1966 32.1341 58.782 32.1341C57.3816 32.1341 56.6814 32.6151 56.6814 33.577C56.6814 33.9731 56.8158 34.2772 57.0845 34.4894C57.3675 34.6875 57.9333 34.8855 58.782 35.0835L59.8854 35.3594C61.1444 35.6706 62.0497 36.1091 62.6014 36.675C63.1672 37.2266 63.4502 38.033 63.4502 39.0939Z" fill="#FFF7D2"/>
<path d="M68.4988 33.2587C68.1451 33.9377 67.9683 34.9916 67.9683 36.4203C67.9683 37.8491 68.1451 38.9029 68.4988 39.5819C68.8666 40.2609 69.4961 40.6004 70.3872 40.6004C71.2926 40.6004 71.9362 40.4165 72.3181 40.0487C72.7142 39.6809 72.9264 39.101 72.9547 38.3088L75.1827 38.4149C75.0978 39.8578 74.6734 40.947 73.9096 41.6826C73.1598 42.4182 71.9221 42.786 70.1963 42.786C68.1734 42.786 66.7942 42.1282 66.0586 40.8126C65.705 40.176 65.4574 39.5112 65.316 38.818C65.1886 38.1249 65.125 37.3257 65.125 36.4203C65.125 35.5008 65.1886 34.6945 65.316 34.0014C65.4574 33.2941 65.705 32.6292 66.0586 32.0068C66.7801 30.7054 68.1593 30.0547 70.1963 30.0547C71.9079 30.0547 73.1386 30.4083 73.8883 31.1156C74.6381 31.8088 75.0624 32.8485 75.1615 34.2348L72.9547 34.5319C72.9264 33.7397 72.7142 33.1597 72.3181 32.7919C71.9362 32.4241 71.2926 32.2402 70.3872 32.2402C69.4961 32.2402 68.8666 32.5797 68.4988 33.2587Z" fill="#FFF7D2"/>
<path d="M81.9964 30.0547C85.0802 30.0547 86.6221 31.4622 86.6221 34.2772V42.4889H84.7761L83.9698 41.0036C82.8381 42.1918 81.5155 42.786 80.0019 42.786C78.9268 42.786 78.1063 42.4889 77.5405 41.8948C76.9888 41.2865 76.7129 40.4802 76.7129 39.4758C76.7129 38.4573 77.0312 37.6369 77.6678 37.0145C78.3044 36.392 79.4926 35.9535 81.2325 35.6989L83.7788 35.3169V34.2985C83.7788 32.9263 83.1281 32.2402 81.8267 32.2402C80.596 32.2402 79.8675 32.8626 79.6411 34.1075L77.4344 33.4497C77.9719 31.1864 79.4926 30.0547 81.9964 30.0547ZM80.9143 40.7065C81.8762 40.7065 82.831 40.2326 83.7788 39.2849V37.0993L81.7418 37.46C80.8223 37.6156 80.214 37.8632 79.917 38.2027C79.6199 38.5422 79.4714 38.9241 79.4714 39.3485C79.4714 39.7729 79.5987 40.1053 79.8533 40.3458C80.1079 40.5863 80.4616 40.7065 80.9143 40.7065Z" fill="#FFF7D2"/>
<path d="M93.236 42.4889H90.3926V30.3518H91.7294L92.854 32.2402C93.8301 30.8539 95.2093 30.1254 96.9917 30.0547V32.4949C95.3225 32.5373 94.0706 33.0465 93.236 34.0226V42.4889Z" fill="#FFF7D2"/>
<path d="M107.033 37.46C106.707 37.9127 106.212 38.2734 105.547 38.5422C104.882 38.7968 104.097 38.9241 103.192 38.9241C102.301 38.9241 101.558 38.818 100.964 38.6059L100.37 39.2424C100.129 39.4829 100.009 39.7163 100.009 39.9426C100.009 40.2821 100.243 40.4519 100.709 40.4519H105.229C106.346 40.4519 107.224 40.756 107.86 41.3643C108.511 41.9726 108.836 42.6869 108.836 43.5074C108.836 44.3278 108.666 44.9786 108.327 45.4595C107.987 45.9405 107.499 46.2941 106.863 46.5205C105.788 46.9024 104.409 47.0934 102.725 47.0934C101.056 47.0934 99.7683 46.8882 98.8629 46.478C97.9576 46.0819 97.5049 45.3959 97.5049 44.4198C97.5049 43.953 97.6393 43.5286 97.9081 43.1467C98.1769 42.7789 98.5093 42.496 98.9054 42.2979C98.0425 42.0291 97.611 41.3997 97.611 40.4095C97.611 39.7587 97.8657 39.1575 98.3749 38.6059L99.351 37.5874C98.6861 36.8235 98.3537 35.7908 98.3537 34.4894C98.3537 33.3436 98.6649 32.3534 99.2873 31.5188C99.9946 30.5427 101.282 30.0547 103.15 30.0547C103.956 30.0547 104.656 30.1537 105.25 30.3518H108.794V32.028H107.393C107.775 32.7212 107.966 33.4497 107.966 34.2136C107.966 34.9633 107.895 35.5786 107.754 36.0596C107.613 36.5406 107.372 37.0074 107.033 37.46ZM103.15 31.9432C101.763 31.9432 101.07 32.7919 101.07 34.4894C101.07 36.1869 101.763 37.0357 103.15 37.0357C104.55 37.0357 105.25 36.1869 105.25 34.4894C105.25 32.7919 104.55 31.9432 103.15 31.9432ZM100.094 43.7832C100.094 44.2925 100.32 44.6178 100.773 44.7593C101.24 44.9008 102.004 44.9715 103.065 44.9715C104.126 44.9715 104.875 44.8866 105.314 44.7169C105.767 44.5613 105.993 44.2147 105.993 43.6771C105.993 42.885 105.441 42.4889 104.338 42.4889H100.709C100.299 42.8567 100.094 43.2881 100.094 43.7832Z" fill="#FFF7D2"/>
<path d="M115.565 30.0547C118.649 30.0547 120.191 31.4622 120.191 34.2772V42.4889H118.345L117.538 41.0036C116.407 42.1918 115.084 42.786 113.571 42.786C112.495 42.786 111.675 42.4889 111.109 41.8948C110.558 41.2865 110.282 40.4802 110.282 39.4758C110.282 38.4573 110.6 37.6369 111.237 37.0145C111.873 36.392 113.061 35.9535 114.801 35.6989L117.348 35.3169V34.2985C117.348 32.9263 116.697 32.2402 115.395 32.2402C114.165 32.2402 113.436 32.8626 113.21 34.1075L111.003 33.4497C111.541 31.1864 113.061 30.0547 115.565 30.0547ZM114.483 40.7065C115.445 40.7065 116.4 40.2326 117.348 39.2849V37.0993L115.311 37.46C114.391 37.6156 113.783 37.8632 113.486 38.2027C113.189 38.5422 113.04 38.9241 113.04 39.3485C113.04 39.7729 113.167 40.1053 113.422 40.3458C113.677 40.5863 114.03 40.7065 114.483 40.7065Z" fill="#FFF7D2"/>
<path d="M126.804 42.4889H123.961V30.3518H125.298L126.422 32.2402C127.398 30.8539 128.778 30.1254 130.56 30.0547V32.4949C128.891 32.5373 127.639 33.0465 126.804 34.0226V42.4889Z" fill="#FFF7D2"/>
</g>
<defs>
<clipPath id="clip0_4906_32469">
<rect width="193" height="69" fill="white"/>
</clipPath>
</defs>
</svg>
