<svg xmlns="http://www.w3.org/2000/svg" viewBox="0 0 191.75 58.31"><defs><style>.cls-1{fill:#10454f;}</style></defs><g id="Capa_2" data-name="Capa 2"><g id="Capa_3" data-name="Capa 3"><path class="cls-1" d="M184.34,1.32a6.1,6.1,0,0,1,6.1,6.09V50.9a6.11,6.11,0,0,1-6.1,6.1H7.41a6.1,6.1,0,0,1-6.09-6.1V7.41A6.09,6.09,0,0,1,7.41,1.32H184.34m0-1.32H7.41A7.41,7.41,0,0,0,0,7.41V50.9a7.41,7.41,0,0,0,7.41,7.41H184.34a7.4,7.4,0,0,0,7.41-7.41V7.41A7.41,7.41,0,0,0,184.34,0Z"/><path class="cls-1" d="M59.63,16.69H54.35l-1.16,2.57h-.72l4.19-9.11h.67l4.19,9.11H60.8Zm-.24-.56L57,10.88l-2.38,5.25Z"/><path class="cls-1" d="M68.08,12.46,65,19.26h-.66l-3.06-6.8H62l2.7,6.08,2.74-6.08Z"/><path class="cls-1" d="M73.52,13.06A2.5,2.5,0,0,1,74.2,15v4.31h-.62V18.05a2.3,2.3,0,0,1-1,.93,3.19,3.19,0,0,1-1.5.33,2.79,2.79,0,0,1-1.79-.53,1.73,1.73,0,0,1-.66-1.41A1.72,1.72,0,0,1,69.29,16a2.89,2.89,0,0,1,1.93-.53h2.33v-.55A1.92,1.92,0,0,0,73,13.48a2.12,2.12,0,0,0-1.51-.5,3.52,3.52,0,0,0-1.29.24,3.17,3.17,0,0,0-1,.62l-.33-.46a3.4,3.4,0,0,1,1.23-.71,4.36,4.36,0,0,1,1.49-.26A2.69,2.69,0,0,1,73.52,13.06Zm-.86,5.33a2.4,2.4,0,0,0,.89-1.14V16H71.23a2.32,2.32,0,0,0-1.45.36,1.34,1.34,0,0,0,0,2.05,2.19,2.19,0,0,0,1.39.39A2.58,2.58,0,0,0,72.66,18.39Z"/><path class="cls-1" d="M76.83,10.66a.51.51,0,0,1-.16-.37.55.55,0,0,1,.16-.38.52.52,0,0,1,.38-.15.51.51,0,0,1,.37.15.47.47,0,0,1,.16.37.55.55,0,0,1-.53.53A.52.52,0,0,1,76.83,10.66Zm0,1.8h.65v6.8h-.65Z"/><path class="cls-1" d="M80.28,9.6h.65v9.66h-.65Z"/><path class="cls-1" d="M87.91,13.06A2.49,2.49,0,0,1,88.58,15v4.31H88V18.05A2.24,2.24,0,0,1,87,19a3.19,3.19,0,0,1-1.5.33,2.81,2.81,0,0,1-1.79-.53,1.86,1.86,0,0,1,0-2.78,2.91,2.91,0,0,1,1.93-.53h2.33v-.55a1.92,1.92,0,0,0-.51-1.44,2.07,2.07,0,0,0-1.5-.5,3.53,3.53,0,0,0-1.3.24,3.39,3.39,0,0,0-1.05.62l-.32-.46a3.36,3.36,0,0,1,1.22-.71,4.46,4.46,0,0,1,1.5-.26A2.71,2.71,0,0,1,87.91,13.06ZM87,18.39a2.34,2.34,0,0,0,.89-1.14V16H85.62a2.3,2.3,0,0,0-1.45.36,1.35,1.35,0,0,0,0,2.05,2.19,2.19,0,0,0,1.39.39A2.54,2.54,0,0,0,87,18.39Z"/><path class="cls-1" d="M96.4,12.85a3.13,3.13,0,0,1,1.2,1.22A3.65,3.65,0,0,1,98,15.86a3.59,3.59,0,0,1-.44,1.78,3.15,3.15,0,0,1-1.2,1.23,3.47,3.47,0,0,1-1.72.44A3.17,3.17,0,0,1,93,18.88a3,3,0,0,1-1.14-1.22v1.6h-.62V9.6h.65V14a3,3,0,0,1,1.13-1.18,3.22,3.22,0,0,1,1.63-.42A3.47,3.47,0,0,1,96.4,12.85ZM96,18.36a2.6,2.6,0,0,0,1-1,3,3,0,0,0,.36-1.49A3,3,0,0,0,97,14.38a2.62,2.62,0,0,0-1-1,2.9,2.9,0,0,0-2.8,0,2.67,2.67,0,0,0-1,1,3,3,0,0,0-.36,1.48,3,3,0,0,0,.36,1.49,2.64,2.64,0,0,0,1,1,2.83,2.83,0,0,0,2.8,0Z"/><path class="cls-1" d="M100.05,9.6h.65v9.66h-.65Z"/><path class="cls-1" d="M109.19,16h-5.84a2.76,2.76,0,0,0,.4,1.41,2.62,2.62,0,0,0,1,1,3.16,3.16,0,0,0,1.45.34,2.91,2.91,0,0,0,1.23-.25,2.38,2.38,0,0,0,1-.7l.38.42a3,3,0,0,1-1.12.83,3.64,3.64,0,0,1-1.45.28,3.7,3.7,0,0,1-1.81-.44,3.19,3.19,0,0,1-1.24-1.23,3.49,3.49,0,0,1-.45-1.78,3.74,3.74,0,0,1,.42-1.78,3.15,3.15,0,0,1,1.17-1.23,3.35,3.35,0,0,1,3.32,0,3,3,0,0,1,1.16,1.22,3.68,3.68,0,0,1,.43,1.77Zm-4.51-2.72a2.48,2.48,0,0,0-.92.9,2.88,2.88,0,0,0-.4,1.31h5.21a2.79,2.79,0,0,0-.39-1.3,2.67,2.67,0,0,0-.93-.9A2.53,2.53,0,0,0,106,13,2.61,2.61,0,0,0,104.68,13.3Z"/><path class="cls-1" d="M115.49,18.87a3.2,3.2,0,0,1-1.22-1.23,3.82,3.82,0,0,1,0-3.56,3.2,3.2,0,0,1,1.22-1.23,3.64,3.64,0,0,1,3.47,0,3.27,3.27,0,0,1,1.22,1.23,3.82,3.82,0,0,1,0,3.56A3.27,3.27,0,0,1,119,18.87a3.64,3.64,0,0,1-3.47,0Zm3.13-.51a2.57,2.57,0,0,0,1-1,3,3,0,0,0,.36-1.49,3,3,0,0,0-.36-1.48,2.6,2.6,0,0,0-1-1,2.7,2.7,0,0,0-1.4-.36,2.75,2.75,0,0,0-1.4.36,2.65,2.65,0,0,0-1,1,3,3,0,0,0-.36,1.48,3,3,0,0,0,.36,1.49,2.62,2.62,0,0,0,1,1,2.76,2.76,0,0,0,1.4.37A2.71,2.71,0,0,0,118.62,18.36Z"/><path class="cls-1" d="M128,13.15a2.93,2.93,0,0,1,.74,2.14v4h-.65V15.34a2.39,2.39,0,0,0-.58-1.74,2.16,2.16,0,0,0-1.62-.6,2.53,2.53,0,0,0-1.89.71,2.67,2.67,0,0,0-.69,1.93v3.62h-.65v-6.8h.62v1.47a2.62,2.62,0,0,1,1-1.11,3.26,3.26,0,0,1,1.65-.41A2.76,2.76,0,0,1,128,13.15Z"/><path class="cls-1" d="M138.12,18.83a1.59,1.59,0,0,1-.62.36,2.53,2.53,0,0,1-.77.12,1.81,1.81,0,0,1-1.37-.49,1.85,1.85,0,0,1-.48-1.36V13h-1.25v-.56h1.25V11h.65v1.48h2.16V13h-2.16V17.4a1.41,1.41,0,0,0,.32,1,1.2,1.2,0,0,0,.94.34,1.44,1.44,0,0,0,1.05-.38Z"/><path class="cls-1" d="M145.27,13.15a2.93,2.93,0,0,1,.74,2.14v4h-.65V15.34a2.43,2.43,0,0,0-.58-1.74,2.16,2.16,0,0,0-1.62-.6,2.53,2.53,0,0,0-1.89.71,2.67,2.67,0,0,0-.69,1.93v3.62h-.65V9.6h.65v4.28a2.41,2.41,0,0,1,1-1.08,3.25,3.25,0,0,1,1.63-.39A2.76,2.76,0,0,1,145.27,13.15Z"/><path class="cls-1" d="M154.44,16H148.6a2.76,2.76,0,0,0,.4,1.41,2.62,2.62,0,0,0,1,1,3.16,3.16,0,0,0,1.45.34,2.91,2.91,0,0,0,1.23-.25,2.38,2.38,0,0,0,1-.7l.38.42a3,3,0,0,1-1.12.83,3.64,3.64,0,0,1-1.45.28,3.7,3.7,0,0,1-1.81-.44,3.19,3.19,0,0,1-1.24-1.23,3.49,3.49,0,0,1-.45-1.78,3.74,3.74,0,0,1,.42-1.78,3.15,3.15,0,0,1,1.17-1.23,3.35,3.35,0,0,1,3.32,0A3,3,0,0,1,154,14.07a3.68,3.68,0,0,1,.43,1.77Zm-4.51-2.72a2.48,2.48,0,0,0-.92.9,3,3,0,0,0-.4,1.31h5.21a2.79,2.79,0,0,0-.39-1.3,2.67,2.67,0,0,0-.93-.9,2.53,2.53,0,0,0-1.29-.33A2.61,2.61,0,0,0,149.93,13.3Z"/><path class="cls-1" d="M62.84,35.23h2.68v6.06a8.83,8.83,0,0,1-2.74,1.44,10.67,10.67,0,0,1-3.22.5,8.75,8.75,0,0,1-4.2-1,7.59,7.59,0,0,1-2.93-2.8,8.09,8.09,0,0,1,0-8,7.55,7.55,0,0,1,2.94-2.8,8.87,8.87,0,0,1,4.23-1,9.22,9.22,0,0,1,3.48.63,6.79,6.79,0,0,1,2.63,1.85l-1.78,1.74a5.72,5.72,0,0,0-4.2-1.74,6.07,6.07,0,0,0-2.86.67,4.88,4.88,0,0,0-1.95,1.9,5.45,5.45,0,0,0-.71,2.78,5.38,5.38,0,0,0,.71,2.74,5,5,0,0,0,1.95,1.91,5.69,5.69,0,0,0,2.84.7A6,6,0,0,0,62.84,40Z"/><path class="cls-1" d="M71,42.4a5.57,5.57,0,0,1-2.21-2.12A6,6,0,0,1,68,37.2a5.91,5.91,0,0,1,.79-3.06A5.61,5.61,0,0,1,71,32a7.05,7.05,0,0,1,6.37,0,5.52,5.52,0,0,1,2.2,2.11,5.92,5.92,0,0,1,.8,3.06,6,6,0,0,1-.8,3.08,5.48,5.48,0,0,1-2.2,2.12,7.05,7.05,0,0,1-6.37,0Zm5.65-2.57a4,4,0,0,0,0-5.26,3.56,3.56,0,0,0-5,0,4.08,4.08,0,0,0,0,5.26,3.56,3.56,0,0,0,5,0Z"/><path class="cls-1" d="M85,42.4a5.57,5.57,0,0,1-2.21-2.12A6,6,0,0,1,82,37.2a5.91,5.91,0,0,1,.79-3.06A5.61,5.61,0,0,1,85,32a7.05,7.05,0,0,1,6.37,0,5.61,5.61,0,0,1,2.21,2.11,5.91,5.91,0,0,1,.79,3.06,6,6,0,0,1-.79,3.08,5.57,5.57,0,0,1-2.21,2.12,7.05,7.05,0,0,1-6.37,0Zm5.65-2.57a4,4,0,0,0,0-5.26,3.35,3.35,0,0,0-2.48-1,3.29,3.29,0,0,0-2.46,1,4.05,4.05,0,0,0,0,5.26,3.25,3.25,0,0,0,2.46,1A3.31,3.31,0,0,0,90.69,39.83Z"/><path class="cls-1" d="M108.54,31.4v9.85q0,6.14-6.26,6.13A11.34,11.34,0,0,1,99.11,47a6.77,6.77,0,0,1-2.48-1.22l1.22-2a5.62,5.62,0,0,0,1.92,1,7.38,7.38,0,0,0,2.36.38,3.88,3.88,0,0,0,2.8-.87,3.53,3.53,0,0,0,.9-2.65v-.61a4.6,4.6,0,0,1-1.7,1.16,6,6,0,0,1-2.2.39,6.34,6.34,0,0,1-3-.71,5.23,5.23,0,0,1-2.1-2,5.89,5.89,0,0,1,0-5.86,5.25,5.25,0,0,1,2.1-2,6.45,6.45,0,0,1,3-.69,6.28,6.28,0,0,1,2.3.41A4.36,4.36,0,0,1,106,32.94V31.4Zm-3.66,7.86a3.14,3.14,0,0,0,1-2.4,3.05,3.05,0,0,0-1-2.37,3.58,3.58,0,0,0-2.53-.92,3.62,3.62,0,0,0-2.56.92,3.05,3.05,0,0,0-1,2.37,3.14,3.14,0,0,0,1,2.4,3.62,3.62,0,0,0,2.56.92A3.58,3.58,0,0,0,104.88,39.26Z"/><path class="cls-1" d="M112.11,26.88h2.72V43h-2.72Z"/><path class="cls-1" d="M129.26,38.07h-9.11a3.18,3.18,0,0,0,1.25,2,4.11,4.11,0,0,0,2.51.75,4.25,4.25,0,0,0,3.16-1.26l1.45,1.67a4.92,4.92,0,0,1-2,1.41,7.82,7.82,0,0,1-6.06-.28,5.48,5.48,0,0,1-2.25-2.12,6.34,6.34,0,0,1,0-6.13A5.39,5.39,0,0,1,120.35,32a6.21,6.21,0,0,1,3.09-.76,6.08,6.08,0,0,1,3,.75,5.3,5.3,0,0,1,2.09,2.11,6.37,6.37,0,0,1,.75,3.14C129.31,37.46,129.29,37.73,129.26,38.07Zm-8-3.86a3.27,3.27,0,0,0-1.1,2.06h6.59a3.2,3.2,0,0,0-3.28-2.83A3.31,3.31,0,0,0,121.23,34.21Z"/><path class="cls-1" d="M147.88,28.44a5,5,0,0,1,2.25,1.87,5.66,5.66,0,0,1,0,5.77A4.93,4.93,0,0,1,147.88,38a8.28,8.28,0,0,1-3.44.66H141V43h-2.82V27.79h6.26A8.45,8.45,0,0,1,147.88,28.44Zm-.77,7a3.09,3.09,0,0,0,0-4.48,4.35,4.35,0,0,0-2.8-.78H141v6h3.31A4.35,4.35,0,0,0,147.11,35.44Z"/><path class="cls-1" d="M153.7,26.88h2.72V43H153.7Z"/><path class="cls-1" d="M168.34,32.5a4.72,4.72,0,0,1,1.36,3.7V43h-2.56V41.6a3.25,3.25,0,0,1-1.43,1.16,6.27,6.27,0,0,1-4.51,0,3.52,3.52,0,0,1-1.51-1.24,3.12,3.12,0,0,1-.53-1.8,3.06,3.06,0,0,1,1.16-2.51,5.77,5.77,0,0,1,3.66-.94h3v-.18a2.38,2.38,0,0,0-.73-1.87,3.15,3.15,0,0,0-2.16-.65,6.31,6.31,0,0,0-1.92.3,4.87,4.87,0,0,0-1.6.85l-1.07-2a6.53,6.53,0,0,1,2.2-1.06,9.66,9.66,0,0,1,2.72-.37A5.63,5.63,0,0,1,168.34,32.5Zm-2.48,8.21A2.49,2.49,0,0,0,167,39.38V38h-2.8c-1.57,0-2.35.51-2.35,1.54a1.39,1.39,0,0,0,.59,1.18,2.68,2.68,0,0,0,1.63.43A3.42,3.42,0,0,0,165.86,40.71Z"/><path class="cls-1" d="M183.83,31.4,178.4,43.94a6,6,0,0,1-1.85,2.67,4.46,4.46,0,0,1-2.63.77,5.68,5.68,0,0,1-1.72-.28,3.75,3.75,0,0,1-1.39-.79l1.09-2a2.85,2.85,0,0,0,.92.59,2.75,2.75,0,0,0,1.08.22,1.87,1.87,0,0,0,1.18-.37,3.31,3.31,0,0,0,.86-1.24l.2-.46L171.07,31.4h2.83L177.55,40l3.67-8.59Z"/><path class="cls-1" d="M46.14,28.41,38.83,24.2l-6,5.81,5.49,5.3,7.82-4.51a1.38,1.38,0,0,0,0-2.39Z"/><polygon class="cls-1" points="37.59 23.48 29.55 18.84 11.94 9.81 31.84 29.05 37.59 23.48"/><polygon class="cls-1" points="12.23 49.92 29.59 40.35 37.08 36.03 31.84 30.96 12.23 49.92"/><polygon class="cls-1" points="10.76 10.59 10.74 49.44 30.84 30 10.76 10.59"/></g></g></svg>