<svg width="362" height="69" viewBox="0 0 362 69" fill="none" xmlns="http://www.w3.org/2000/svg">
<rect x="1.5" y="1.5" width="184" height="66" rx="33" fill="#10454F" stroke="#CA8923" stroke-width="3"/>
<g clip-path="url(#clip0_5440_37420)">
<path d="M143.025 25.7939C142.944 25.6913 142.841 25.6068 142.724 25.5462C142.607 25.4855 142.479 25.4499 142.347 25.4419C142.215 25.4338 142.082 25.4535 141.959 25.4995C141.835 25.5455 141.723 25.6168 141.629 25.7088L140.208 27.1069C139.543 27.7608 139.299 28.6861 139.589 29.498C140.793 32.8584 142.752 35.9094 145.32 38.4246C147.88 40.9476 150.985 42.872 154.406 44.055C155.232 44.3401 156.174 44.0996 156.84 43.4471L158.261 42.0503C158.355 41.9585 158.427 41.8482 158.474 41.7267C158.521 41.6052 158.541 41.4752 158.533 41.3456C158.525 41.2159 158.489 41.0894 158.427 40.9745C158.365 40.8596 158.279 40.7589 158.175 40.6792L155.003 38.2557C154.891 38.1707 154.761 38.1117 154.623 38.0832C154.485 38.0546 154.342 38.0573 154.205 38.0909L151.194 38.8298C150.792 38.9285 150.371 38.9233 149.971 38.8146C149.572 38.706 149.208 38.4976 148.915 38.2098L145.538 34.8907C145.245 34.603 145.033 34.2456 144.922 33.8533C144.811 33.4611 144.806 33.0473 144.906 32.6523L145.659 29.6939C145.694 29.5593 145.696 29.4189 145.667 29.2831C145.638 29.1474 145.578 29.0199 145.492 28.9103L143.025 25.7939ZM140.591 24.6902C140.832 24.4537 141.121 24.2703 141.439 24.152C141.757 24.0337 142.098 23.9833 142.437 24.0041C142.777 24.0249 143.108 24.1165 143.409 24.2728C143.71 24.429 143.974 24.6464 144.183 24.9104L146.649 28.0255C147.102 28.5969 147.261 29.3413 147.083 30.0437L146.33 33.0022C146.292 33.1554 146.294 33.3159 146.336 33.4681C146.379 33.6203 146.462 33.759 146.575 33.8708L149.954 37.1899C150.067 37.3017 150.209 37.3826 150.364 37.4247C150.519 37.4668 150.683 37.4688 150.839 37.4303L153.849 36.6914C154.202 36.6047 154.57 36.598 154.926 36.6717C155.282 36.7454 155.616 36.8977 155.903 37.1169L159.074 39.5404C160.214 40.4117 160.318 42.0665 159.298 43.0675L157.876 44.4643C156.859 45.464 155.338 45.903 153.92 45.4127C150.292 44.1584 146.998 42.1177 144.282 39.4418C141.558 36.7738 139.481 33.5377 138.204 29.9735C137.706 28.5821 138.153 27.0867 139.171 26.087L140.593 24.6902H140.591Z" fill="#FFF6D2"/>
</g>
<path d="M30.88 43V28.4H33.6V40.9H38.58V43H30.88ZM43.228 43H40.548V27.96L43.228 27.6V43ZM51.0133 31.28C53.9199 31.28 55.3733 32.6067 55.3733 35.26V43H53.6333L52.8733 41.6C51.8066 42.72 50.5599 43.28 49.1333 43.28C48.1199 43.28 47.3466 43 46.8133 42.44C46.2933 41.8667 46.0333 41.1067 46.0333 40.16C46.0333 39.2 46.3333 38.4267 46.9333 37.84C47.5333 37.2533 48.6533 36.84 50.2933 36.6L52.6933 36.24V35.28C52.6933 33.9867 52.0799 33.34 50.8533 33.34C49.6933 33.34 49.0066 33.9267 48.7933 35.1L46.7133 34.48C47.2199 32.3467 48.6533 31.28 51.0133 31.28ZM49.9933 41.32C50.8999 41.32 51.7999 40.8733 52.6933 39.98V37.92L50.7733 38.26C49.9066 38.4067 49.3333 38.64 49.0533 38.96C48.7733 39.28 48.6333 39.64 48.6333 40.04C48.6333 40.44 48.7533 40.7533 48.9933 40.98C49.2333 41.2067 49.5666 41.32 49.9933 41.32ZM50.2733 30.6L49.3733 29.16L53.2733 26.5L54.4733 28.42L50.2733 30.6ZM64.4669 31.28C66.0669 31.28 67.1869 31.74 67.8269 32.66C68.9735 31.74 70.1935 31.28 71.4869 31.28C72.7935 31.28 73.7602 31.6067 74.3869 32.26C75.0135 32.9 75.3269 33.7867 75.3269 34.92V43H72.6469V35.36C72.6469 34.6667 72.5202 34.16 72.2669 33.84C72.0135 33.5067 71.5669 33.34 70.9269 33.34C70.0202 33.34 69.1869 33.6533 68.4269 34.28C68.4535 34.5467 68.4669 34.76 68.4669 34.92V43H65.7869V35.36C65.7869 34.6667 65.6535 34.16 65.3869 33.84C65.1202 33.5067 64.6069 33.34 63.8469 33.34C63.1002 33.34 62.3535 33.6067 61.6069 34.14V43H58.9269V31.56H60.3469L61.0469 32.5C62.1269 31.6867 63.2669 31.28 64.4669 31.28ZM82.9078 31.28C85.8145 31.28 87.2678 32.6067 87.2678 35.26V43H85.5278L84.7678 41.6C83.7011 42.72 82.4545 43.28 81.0278 43.28C80.0145 43.28 79.2411 43 78.7078 42.44C78.1878 41.8667 77.9278 41.1067 77.9278 40.16C77.9278 39.2 78.2278 38.4267 78.8278 37.84C79.4278 37.2533 80.5478 36.84 82.1878 36.6L84.5878 36.24V35.28C84.5878 33.9867 83.9745 33.34 82.7478 33.34C81.5878 33.34 80.9011 33.9267 80.6878 35.1L78.6078 34.48C79.1145 32.3467 80.5478 31.28 82.9078 31.28ZM81.8878 41.32C82.7945 41.32 83.6945 40.8733 84.5878 39.98V37.92L82.6678 38.26C81.8011 38.4067 81.2278 38.64 80.9478 38.96C80.6678 39.28 80.5278 39.64 80.5278 40.04C80.5278 40.44 80.6478 40.7533 80.8878 40.98C81.1278 41.2067 81.4611 41.32 81.8878 41.32ZM92.9414 32.6C94.1947 31.72 95.4747 31.28 96.7814 31.28C98.1014 31.28 99.0547 31.6067 99.6414 32.26C100.228 32.9 100.521 33.7867 100.521 34.92V43H97.8414V35.2C97.8414 34.52 97.7147 34.04 97.4614 33.76C97.2214 33.48 96.7947 33.34 96.1814 33.34C95.2214 33.34 94.3281 33.64 93.5014 34.24V43H90.8214V31.56H92.0814L92.9414 32.6ZM106.123 40.22C106.47 40.8867 107.136 41.22 108.123 41.22C109.11 41.22 109.776 40.8867 110.123 40.22C110.47 39.5533 110.643 38.5733 110.643 37.28C110.643 35.9867 110.47 35.0067 110.123 34.34C109.776 33.6733 109.11 33.34 108.123 33.34C107.136 33.34 106.47 33.6733 106.123 34.34C105.776 35.0067 105.603 35.9867 105.603 37.28C105.603 38.5733 105.776 39.5533 106.123 40.22ZM113.323 37.28C113.323 41.28 111.59 43.28 108.123 43.28C104.656 43.28 102.923 41.28 102.923 37.28C102.923 33.28 104.656 31.28 108.123 31.28C111.59 31.28 113.323 33.28 113.323 37.28ZM124.099 39.8C124.099 42.08 122.499 43.22 119.299 43.22C117.899 43.22 116.859 42.92 116.179 42.32C115.499 41.7067 115.072 40.82 114.899 39.66L116.979 39.34C117.126 40.62 117.919 41.26 119.359 41.26C120.812 41.26 121.539 40.8067 121.539 39.9C121.539 39.5267 121.392 39.2467 121.099 39.06C120.819 38.8733 120.246 38.68 119.379 38.48L118.459 38.26C117.272 37.98 116.419 37.5733 115.899 37.04C115.392 36.4933 115.139 35.7067 115.139 34.68C115.139 32.4133 116.686 31.28 119.779 31.28C121.112 31.28 122.106 31.5867 122.759 32.2C123.426 32.8 123.839 33.68 123.999 34.84L121.919 35.14C121.772 33.8733 121.032 33.24 119.699 33.24C118.379 33.24 117.719 33.6933 117.719 34.6C117.719 34.9733 117.846 35.26 118.099 35.46C118.366 35.6467 118.899 35.8333 119.699 36.02L120.739 36.28C121.926 36.5733 122.779 36.9867 123.299 37.52C123.832 38.04 124.099 38.8 124.099 39.8Z" fill="#FFF7D2"/>
<path d="M205.849 25.7001C206.749 24.6751 206.899 24.1501 206.899 22.8251V20.2501H204.399V21.4751C204.399 22.1751 204.274 22.5001 203.874 22.9751L202.724 24.2751C201.649 25.4751 201.324 26.3251 201.324 27.5751V29.9001C201.324 32.0751 202.399 33.1501 204.574 33.1501H206.149C208.324 33.1501 209.399 32.0751 209.399 29.9001V26.7251H206.249V29.5251C206.249 29.9501 206.049 30.1501 205.624 30.1501H205.399C204.974 30.1501 204.774 29.9501 204.774 29.5251V27.5751C204.774 27.0251 204.949 26.7001 205.374 26.2251L205.849 25.7001ZM204.074 19.3501H207.224V15.5001H204.074V19.3501Z" fill="#10454F"/>
<path d="M218.89 33.0001V15.5001H215.865L215.89 19.1251L215.94 24.1751L213.915 15.5001H210.34V33.0001H213.365L213.315 27.9251L213.265 23.4751L215.49 33.0001H218.89Z" fill="#10454F"/>
<path d="M228.83 29.9001V18.6001C228.83 16.4251 227.755 15.3501 225.58 15.3501H223.33C221.155 15.3501 220.08 16.4251 220.08 18.6001V29.9001C220.08 32.0751 221.155 33.1501 223.33 33.1501H225.58C227.755 33.1501 228.83 32.0751 228.83 29.9001ZM225.33 18.9751V29.5251C225.33 29.9501 225.13 30.1501 224.705 30.1501H224.205C223.78 30.1501 223.58 29.9501 223.58 29.5251V18.9751C223.58 18.5501 223.78 18.3501 224.205 18.3501H224.705C225.13 18.3501 225.33 18.5501 225.33 18.9751Z" fill="#10454F"/>
<path d="M236.936 26.9251H238.561C240.736 26.9251 241.811 25.8501 241.811 23.6751V18.7501C241.811 16.5751 240.736 15.5001 238.561 15.5001H233.436V33.0001H236.936V26.9251ZM238.311 19.1251V23.3001C238.311 23.7251 238.111 23.9251 237.686 23.9251H236.936V18.5001H237.686C238.111 18.5001 238.311 18.7001 238.311 19.1251Z" fill="#10454F"/>
<path d="M251.386 15.5001H247.886V29.5251C247.886 29.9501 247.686 30.1501 247.261 30.1501H246.886C246.461 30.1501 246.261 29.9501 246.261 29.5251V15.5001H242.761V29.9001C242.761 32.0751 243.836 33.1501 246.011 33.1501H248.136C250.311 33.1501 251.386 32.0751 251.386 29.9001V15.5001Z" fill="#10454F"/>
<path d="M252.601 15.5001V33.0001H259.151V29.8751H256.101V25.6751H258.976V22.5501H256.101V18.6251H259.101V15.5001H252.601Z" fill="#10454F"/>
<path d="M260.267 33.0001H265.192C267.717 33.0001 268.942 31.7751 268.942 29.2501V19.2501C268.942 16.7251 267.717 15.5001 265.192 15.5001H260.267V33.0001ZM263.767 18.5001H264.467C265.142 18.5001 265.442 18.8001 265.442 19.4751V29.0251C265.442 29.7001 265.142 30.0001 264.467 30.0001H263.767V18.5001Z" fill="#10454F"/>
<path d="M270.13 15.5001V33.0001H276.68V29.8751H273.63V25.6751H276.505V22.5501H273.63V18.6251H276.63V15.5001H270.13Z" fill="#10454F"/>
<path d="M284.673 23.9251L281.673 21.7001C281.248 21.4001 281.073 21.1251 281.073 20.5751V18.9251C281.073 18.5001 281.273 18.3001 281.698 18.3001H281.973C282.398 18.3001 282.598 18.5001 282.598 18.9251V21.8001H286.023V18.6001C286.023 16.4251 284.948 15.3501 282.773 15.3501H280.873C278.698 15.3501 277.623 16.4251 277.623 18.6001V21.3751C277.623 22.6251 277.948 23.3501 279.023 24.1251L282.023 26.3501C282.448 26.6501 282.623 26.9251 282.623 27.4751V29.5751C282.623 30.0001 282.423 30.2001 281.998 30.2001H281.673C281.248 30.2001 281.048 30.0001 281.048 29.5751V26.1751H277.623V29.9001C277.623 32.0751 278.698 33.1501 280.873 33.1501H282.823C284.998 33.1501 286.073 32.0751 286.073 29.9001V26.6751C286.073 25.3751 285.748 24.7001 284.673 23.9251Z" fill="#10454F"/>
<path d="M290.516 15.5001V33.0001H297.066V29.8751H294.016V25.6751H296.891V22.5501H294.016V18.6251H297.016V15.5001H290.516Z" fill="#10454F"/>
<path d="M305.059 23.9251L302.059 21.7001C301.634 21.4001 301.459 21.1251 301.459 20.5751V18.9251C301.459 18.5001 301.659 18.3001 302.084 18.3001H302.359C302.784 18.3001 302.984 18.5001 302.984 18.9251V21.8001H306.409V18.6001C306.409 16.4251 305.334 15.3501 303.159 15.3501H301.259C299.084 15.3501 298.009 16.4251 298.009 18.6001V21.3751C298.009 22.6251 298.334 23.3501 299.409 24.1251L302.409 26.3501C302.834 26.6501 303.009 26.9251 303.009 27.4751V29.5751C303.009 30.0001 302.809 30.2001 302.384 30.2001H302.059C301.634 30.2001 301.434 30.0001 301.434 29.5751V26.1751H298.009V29.9001C298.009 32.0751 299.084 33.1501 301.259 33.1501H303.209C305.384 33.1501 306.459 32.0751 306.459 29.9001V26.6751C306.459 25.3751 306.134 24.7001 305.059 23.9251Z" fill="#10454F"/>
<path d="M311.008 26.9251H312.633C314.808 26.9251 315.883 25.8501 315.883 23.6751V18.7501C315.883 16.5751 314.808 15.5001 312.633 15.5001H307.508V33.0001H311.008V26.9251ZM312.383 19.1251V23.3001C312.383 23.7251 312.183 23.9251 311.758 23.9251H311.008V18.5001H311.758C312.183 18.5001 312.383 18.7001 312.383 19.1251Z" fill="#10454F"/>
<path d="M316.859 15.5001V33.0001H323.409V29.8751H320.359V25.6751H323.234V22.5501H320.359V18.6251H323.359V15.5001H316.859Z" fill="#10454F"/>
<path d="M331.5 24.7251C332.45 24.3751 333 23.6251 333 22.1251V18.7501C333 16.5751 331.925 15.5001 329.75 15.5001H324.525V33.0001H328.025V26.3751H328.9C329.325 26.3751 329.525 26.5751 329.525 27.0001V33.0001H333.025V26.9751C333.025 25.7001 332.575 25.0251 331.5 24.7251ZM329.5 19.1751V22.7751C329.5 23.2001 329.3 23.4001 328.875 23.4001H328.025V18.5501H328.875C329.3 18.5501 329.5 18.7501 329.5 19.1751Z" fill="#10454F"/>
<path d="M343.068 33.0001L340.768 15.5001H335.993L333.693 33.0001H336.868L337.118 30.4501H339.318L339.593 33.0001H343.068ZM338.218 19.7751L338.993 27.4001H337.443L338.218 19.7751Z" fill="#10454F"/>
<path d="M350.787 24.7251C351.737 24.3751 352.287 23.6251 352.287 22.1251V18.7501C352.287 16.5751 351.212 15.5001 349.037 15.5001H343.812V33.0001H347.312V26.3751H348.187C348.612 26.3751 348.812 26.5751 348.812 27.0001V33.0001H352.312V26.9751C352.312 25.7001 351.862 25.0251 350.787 24.7251ZM348.787 19.1751V22.7751C348.787 23.2001 348.587 23.4001 348.162 23.4001H347.312V18.5501H348.162C348.587 18.5501 348.787 18.7501 348.787 19.1751Z" fill="#10454F"/>
<path d="M356.73 22.8001C355.83 23.8251 355.68 24.3501 355.68 25.6751V28.2501H358.18V27.0251C358.18 26.3251 358.305 26.0001 358.705 25.5251L359.855 24.2251C360.93 23.0251 361.255 22.1751 361.255 20.9251V18.6001C361.255 16.4251 360.18 15.3501 358.005 15.3501H356.43C354.255 15.3501 353.18 16.4251 353.18 18.6001V21.7751H356.33V18.9751C356.33 18.5501 356.53 18.3501 356.955 18.3501H357.18C357.605 18.3501 357.805 18.5501 357.805 18.9751V20.9251C357.805 21.4751 357.63 21.8001 357.205 22.2751L356.73 22.8001ZM358.505 29.1501H355.355V33.0001H358.505V29.1501Z" fill="#10454F"/>
<path d="M209.549 38.5001L207.324 52.3001L205.099 38.5001H201.949V56.0001H203.849V41.5251L206.249 56.0001H208.299L210.699 41.5251V56.0001H212.649V38.5001H209.549Z" fill="#10454F"/>
<path d="M221.972 56.0001L219.272 38.4501H216.722L214.022 56.0001H215.947L216.347 53.0751H219.572L219.997 56.0001H221.972ZM217.947 41.5751L219.322 51.2751H216.597L217.947 41.5751Z" fill="#10454F"/>
<path d="M228.761 47.7501C229.761 47.3501 230.311 46.5751 230.311 45.0001V41.7501C230.311 39.5751 229.236 38.5001 227.061 38.5001H223.336V56.0001H225.336V48.6501H226.811C227.861 48.6501 228.336 49.1251 228.336 50.1751V56.0001H230.336V50.1001C230.336 48.7501 229.861 48.0501 228.761 47.7501ZM228.311 41.6501V45.4001C228.311 46.4001 227.836 46.8751 226.836 46.8751H225.336V40.3251H226.986C227.886 40.3251 228.311 40.7501 228.311 41.6501Z" fill="#10454F"/>
<path d="M237.324 49.2751V53.0001C237.324 53.9001 236.899 54.3251 235.999 54.3251H235.449C234.549 54.3251 234.124 53.9001 234.124 53.0001V41.5001C234.124 40.6001 234.549 40.1751 235.449 40.1751H235.949C236.849 40.1751 237.274 40.6001 237.274 41.5001V44.7001H239.224V41.5501C239.224 39.4001 238.174 38.3501 236.024 38.3501H235.374C233.199 38.3501 232.124 39.4251 232.124 41.6001V52.9001C232.124 55.0751 233.199 56.1501 235.374 56.1501H236.024C238.199 56.1501 239.274 55.0751 239.274 52.9001V49.2751H237.324Z" fill="#10454F"/>
<path d="M248.315 56.0001L245.615 38.4501H243.065L240.365 56.0001H242.29L242.69 53.0751H245.915L246.34 56.0001H248.315ZM244.29 41.5751L245.665 51.2751H242.94L244.29 41.5751Z" fill="#10454F"/>
<path d="M256.707 56.5251C254.907 54.0501 254.432 53.0501 254.432 49.1501V45.3501C254.432 41.4501 254.907 40.4501 256.707 37.9751L255.457 37.4501C253.157 39.7501 252.632 41.1501 252.632 45.3751V49.1251C252.632 53.3501 253.157 54.7501 255.457 57.0501L256.707 56.5251Z" fill="#10454F"/>
<path d="M264.682 47.8751C264.682 46.0751 263.582 45.0001 261.982 45.0001C261.032 45.0001 260.332 45.3501 259.732 45.8251L259.782 40.3501H264.432V38.5001H257.932V47.8501H259.607C260.332 47.1001 260.882 46.8501 261.532 46.8501C262.332 46.8501 262.682 47.3001 262.682 48.2501V53.0001C262.682 53.9001 262.257 54.3251 261.407 54.3251H261.057C260.207 54.3251 259.782 53.9001 259.782 53.0001V49.9251H257.832V52.9501C257.832 55.1001 258.882 56.1501 260.982 56.1501H261.482C263.607 56.1501 264.682 55.0751 264.682 52.9001V47.8751Z" fill="#10454F"/>
<path d="M273.251 47.8751C273.251 46.0751 272.151 45.0001 270.551 45.0001C269.601 45.0001 268.901 45.3501 268.301 45.8251L268.351 40.3501H273.001V38.5001H266.501V47.8501H268.176C268.901 47.1001 269.451 46.8501 270.101 46.8501C270.901 46.8501 271.251 47.3001 271.251 48.2501V53.0001C271.251 53.9001 270.826 54.3251 269.976 54.3251H269.626C268.776 54.3251 268.351 53.9001 268.351 53.0001V49.9251H266.401V52.9501C266.401 55.1001 267.451 56.1501 269.551 56.1501H270.051C272.176 56.1501 273.251 55.0751 273.251 52.9001V47.8751Z" fill="#10454F"/>
<path d="M275.546 57.0501C277.846 54.7501 278.371 53.3501 278.371 49.1251V45.3751C278.371 41.1501 277.846 39.7501 275.546 37.4501L274.296 37.9751C276.096 40.4501 276.571 41.4501 276.571 45.3501V49.1501C276.571 53.0501 276.096 54.0501 274.296 56.5251L275.546 57.0501Z" fill="#10454F"/>
<path d="M286.024 38.4251H284.999L284.699 38.8251C284.124 39.6001 283.624 39.9251 282.674 40.0501L282.474 40.0751V41.6251H284.124V56.0001H286.024V38.4251Z" fill="#10454F"/>
<path d="M290.98 38.4251H289.955L289.655 38.8251C289.08 39.6001 288.58 39.9251 287.63 40.0501L287.43 40.0751V41.6251H289.08V56.0001H290.98V38.4251Z" fill="#10454F"/>
<path d="M300.236 52.9001V41.6001C300.236 39.4251 299.161 38.3501 296.986 38.3501H296.336C294.161 38.3501 293.086 39.4251 293.086 41.6001V52.9001C293.086 55.0751 294.161 56.1501 296.336 56.1501H296.986C299.161 56.1501 300.236 55.0751 300.236 52.9001ZM298.261 41.5001V53.0001C298.261 53.9001 297.836 54.3251 296.936 54.3251H296.386C295.486 54.3251 295.061 53.9001 295.061 53.0001V41.5001C295.061 40.6001 295.486 40.1751 296.386 40.1751H296.936C297.836 40.1751 298.261 40.6001 298.261 41.5001Z" fill="#10454F"/>
<path d="M306.946 53.0001C306.946 53.9001 306.521 54.3251 305.621 54.3251H305.121C304.221 54.3251 303.796 53.9001 303.796 53.0001V50.1751H301.846V52.9501C301.846 55.1001 302.896 56.1501 305.046 56.1501H305.696C307.871 56.1501 308.946 55.0751 308.946 52.9001V49.2001C308.946 47.9251 308.496 47.2501 307.446 46.9501C308.371 46.6001 308.896 45.8501 308.896 44.3501V41.6001C308.896 39.4251 307.821 38.3501 305.646 38.3501H305.146C302.971 38.3501 301.896 39.4251 301.896 41.6001V44.0001H303.846V41.5001C303.846 40.6001 304.271 40.1751 305.121 40.1751H305.621C306.471 40.1751 306.896 40.6001 306.896 41.5001V44.8501C306.896 45.7501 306.471 46.1751 305.621 46.1751H303.646V48.0251H305.671C306.521 48.0251 306.946 48.4501 306.946 49.3501V53.0001Z" fill="#10454F"/>
<path d="M316.566 38.4251H315.541L315.241 38.8251C314.666 39.6001 314.166 39.9251 313.216 40.0501L313.016 40.0751V41.6251H314.666V56.0001H316.566V38.4251Z" fill="#10454F"/>
<path d="M319.872 49.6001C318.822 50.9001 318.522 51.7501 318.522 53.0001V56.0001H325.472V54.1501H320.522V53.1251C320.522 52.0751 320.672 51.6251 321.347 50.8001L324.172 47.2501C325.222 45.9501 325.472 45.0501 325.472 43.8501V41.6001C325.472 39.4251 324.397 38.3501 322.272 38.3501H321.772C319.647 38.3501 318.572 39.4251 318.572 41.6001V44.8001H320.522V41.5001C320.522 40.6001 320.947 40.1751 321.797 40.1751H322.197C323.047 40.1751 323.472 40.6001 323.472 41.5001V44.1501C323.472 44.8751 323.297 45.3001 322.697 46.0501L319.872 49.6001Z" fill="#10454F"/>
<path d="M334.269 52.9001V41.6001C334.269 39.4251 333.194 38.3501 331.019 38.3501H330.369C328.194 38.3501 327.119 39.4251 327.119 41.6001V52.9001C327.119 55.0751 328.194 56.1501 330.369 56.1501H331.019C333.194 56.1501 334.269 55.0751 334.269 52.9001ZM332.294 41.5001V53.0001C332.294 53.9001 331.869 54.3251 330.969 54.3251H330.419C329.519 54.3251 329.094 53.9001 329.094 53.0001V41.5001C329.094 40.6001 329.519 40.1751 330.419 40.1751H330.969C331.869 40.1751 332.294 40.6001 332.294 41.5001Z" fill="#10454F"/>
<path d="M343.229 52.9001V41.6001C343.229 39.4251 342.154 38.3501 339.979 38.3501H339.329C337.154 38.3501 336.079 39.4251 336.079 41.6001V52.9001C336.079 55.0751 337.154 56.1501 339.329 56.1501H339.979C342.154 56.1501 343.229 55.0751 343.229 52.9001ZM341.254 41.5001V53.0001C341.254 53.9001 340.829 54.3251 339.929 54.3251H339.379C338.479 54.3251 338.054 53.9001 338.054 53.0001V41.5001C338.054 40.6001 338.479 40.1751 339.379 40.1751H339.929C340.829 40.1751 341.254 40.6001 341.254 41.5001Z" fill="#10454F"/>
<defs>
<clipPath id="clip0_5440_37420">
<rect width="22" height="21.614" fill="white" transform="translate(138 24)"/>
</clipPath>
</defs>
</svg>
