<svg width="167" height="69" viewBox="0 0 167 69" fill="none" xmlns="http://www.w3.org/2000/svg">
<rect x="1.5" y="1.5" width="164" height="66" rx="33" fill="#10454F" stroke="#CA8923" stroke-width="3"/>
<path d="M31.92 36.82H29.6V42H26.88V27.4H31.92C33.68 27.4 34.92 27.88 35.64 28.84C36.2667 29.7067 36.58 30.8 36.58 32.12C36.58 33.4267 36.2667 34.5067 35.64 35.36C34.92 36.3333 33.68 36.82 31.92 36.82ZM29.6 34.72H31.5C33.0733 34.72 33.86 33.8533 33.86 32.12C33.86 30.3733 33.0733 29.5 31.5 29.5H29.6V34.72ZM41.4936 42H38.8136V26.96L41.4936 26.6V42ZM49.2789 30.28C52.1856 30.28 53.6389 31.6067 53.6389 34.26V42H51.8989L51.1389 40.6C50.0722 41.72 48.8256 42.28 47.3989 42.28C46.3856 42.28 45.6122 42 45.0789 41.44C44.5589 40.8667 44.2989 40.1067 44.2989 39.16C44.2989 38.2 44.5989 37.4267 45.1989 36.84C45.7989 36.2533 46.9189 35.84 48.5589 35.6L50.9589 35.24V34.28C50.9589 32.9867 50.3456 32.34 49.1189 32.34C47.9589 32.34 47.2722 32.9267 47.0589 34.1L44.9789 33.48C45.4856 31.3467 46.9189 30.28 49.2789 30.28ZM48.2589 40.32C49.1656 40.32 50.0656 39.8733 50.9589 38.98V36.92L49.0389 37.26C48.1722 37.4067 47.5989 37.64 47.3189 37.96C47.0389 38.28 46.8989 38.64 46.8989 39.04C46.8989 39.44 47.0189 39.7533 47.2589 39.98C47.4989 40.2067 47.8322 40.32 48.2589 40.32ZM60.3325 46.74L57.9525 46.38L59.5725 42.16L55.3925 30.56H58.0925L60.8325 38.52L63.3125 30.56H66.0525L60.3325 46.74ZM78.6002 42H75.6202L71.7402 30.56H74.4402L77.1002 38.84L79.7802 30.56H82.4802L78.6002 42ZM84.4386 30.56H87.1186V42H84.4386V30.56ZM85.7786 29.2C84.7786 29.2 84.2786 28.6867 84.2786 27.66C84.2786 26.62 84.7786 26.1 85.7786 26.1C86.8053 26.1 87.3186 26.62 87.3186 27.66C87.3186 28.6867 86.8053 29.2 85.7786 29.2ZM93.5839 42.28C91.0106 42.28 89.7239 40.28 89.7239 36.28C89.7239 32.28 91.2839 30.28 94.4039 30.28C95.2839 30.28 96.1506 30.44 97.0039 30.76V26.96L99.6839 26.76V42H97.9439L97.2039 40.58C96.0972 41.7133 94.8906 42.28 93.5839 42.28ZM94.6439 40.22C95.4706 40.22 96.2572 39.7933 97.0039 38.94V32.74C96.3506 32.4733 95.7106 32.34 95.0839 32.34C94.1239 32.34 93.4372 32.6733 93.0239 33.34C92.6106 34.0067 92.4039 34.9867 92.4039 36.28C92.4039 38.9067 93.1506 40.22 94.6439 40.22ZM107.403 42.28C105.563 42.28 104.249 41.7867 103.463 40.8C102.676 39.8 102.283 38.2933 102.283 36.28C102.283 32.28 103.963 30.28 107.323 30.28C109.256 30.28 110.576 30.88 111.283 32.08C111.896 33.1067 112.203 34.44 112.203 36.08V36.8H104.883C104.896 38.0533 105.103 38.94 105.503 39.46C105.903 39.9667 106.563 40.22 107.483 40.22C108.963 40.22 109.749 39.6867 109.843 38.62L112.043 38.7C111.829 41.0867 110.283 42.28 107.403 42.28ZM108.943 33C108.609 32.56 108.063 32.34 107.303 32.34C106.543 32.34 105.983 32.5533 105.623 32.98C105.276 33.3933 105.049 34.06 104.943 34.98H109.563C109.483 34.0867 109.276 33.4267 108.943 33ZM116.752 39.22C117.099 39.8867 117.765 40.22 118.752 40.22C119.739 40.22 120.405 39.8867 120.752 39.22C121.099 38.5533 121.272 37.5733 121.272 36.28C121.272 34.9867 121.099 34.0067 120.752 33.34C120.405 32.6733 119.739 32.34 118.752 32.34C117.765 32.34 117.099 32.6733 116.752 33.34C116.405 34.0067 116.232 34.9867 116.232 36.28C116.232 37.5733 116.405 38.5533 116.752 39.22ZM123.952 36.28C123.952 40.28 122.219 42.28 118.752 42.28C115.285 42.28 113.552 40.28 113.552 36.28C113.552 32.28 115.285 30.28 118.752 30.28C122.219 30.28 123.952 32.28 123.952 36.28Z" fill="#FFF7D2"/>
<circle cx="142" cy="35" r="7.5" stroke="#FFF6D2"/>
<path d="M145.736 34.0014C146.343 34.3957 146.343 35.2843 145.736 35.6786L141.151 38.6571C140.485 39.0892 139.606 38.6117 139.606 37.8185V31.8616C139.606 31.0683 140.485 30.5908 141.151 31.023L145.736 34.0014Z" fill="#FFF6D2"/>
</svg>
