<svg width="74" height="25" viewBox="0 0 74 25" fill="none" xmlns="http://www.w3.org/2000/svg">
<g clip-path="url(#clip0_6875_38235)">
<path d="M61.6667 0H12.3333C5.52181 0 0 5.52181 0 12.3333C0 19.1448 5.52181 24.6667 12.3333 24.6667H61.6667C68.4782 24.6667 74 19.1449 74 12.3334C74 5.52191 68.4782 0 61.6667 0Z" fill="#FFF6D2"/>
<path d="M14.775 6.40576H16.958L19.7207 15.6696H18.105L17.3404 13.1062H14.3804L13.628 15.6696H12L14.775 6.40576ZM15.8604 8.04279L14.7627 11.799H16.958L15.8604 8.04279Z" fill="#10454F"/>
<path d="M24.2789 8.23389C26.17 8.23389 27.1156 9.50291 27.1156 12.041C27.1156 14.5789 26.1536 15.848 24.2296 15.848C23.7363 15.848 23.2018 15.7633 22.6263 15.5942V18.2718L20.9736 18.5002V8.41155H21.7629L22.1946 8.95722C22.8935 8.47501 23.5883 8.23389 24.2789 8.23389ZM23.8226 9.54098C23.4033 9.54098 23.0045 9.65941 22.6263 9.89627V14.3633C23.0127 14.4817 23.4074 14.5409 23.8103 14.5409C24.4023 14.5409 24.8257 14.3294 25.0806 13.9064C25.3355 13.4749 25.4629 12.8531 25.4629 12.041C25.4629 10.3743 24.9161 9.54098 23.8226 9.54098Z" fill="#10454F"/>
<path d="M30.3713 15.6703H28.7188V8.41155H29.4956L30.1493 9.54098C30.7167 8.71189 31.5182 8.27619 32.5542 8.23389V9.69326C31.584 9.71867 30.8564 10.0232 30.3713 10.607V15.6703Z" fill="#10454F"/>
<path d="M36.1827 15.848C35.048 15.848 34.2382 15.5349 33.753 14.9089C33.2679 14.2744 33.0254 13.3184 33.0254 12.041C33.0254 9.50291 34.0614 8.23389 36.1334 8.23389C37.3256 8.23389 38.1396 8.61459 38.5754 9.37604C38.9536 10.0275 39.1427 10.8734 39.1427 11.914V12.3708H34.6287C34.6369 13.1661 34.7644 13.7287 35.011 14.0587C35.2577 14.3801 35.6647 14.5409 36.232 14.5409C37.1447 14.5409 37.6298 14.2024 37.6874 13.5257L39.044 13.5764C38.9125 15.0908 37.9587 15.848 36.1827 15.848ZM37.1324 9.95975C36.9268 9.6806 36.5897 9.54098 36.121 9.54098C35.6524 9.54098 35.307 9.67639 35.085 9.9471C34.8713 10.2094 34.7315 10.6324 34.6657 11.2161H37.5147C37.4654 10.6492 37.3379 10.2305 37.1324 9.95975Z" fill="#10454F"/>
<path d="M41.9977 9.07144C42.7706 8.51308 43.5599 8.23389 44.3657 8.23389C45.1797 8.23389 45.7676 8.44116 46.1294 8.85571C46.4911 9.26183 46.672 9.82435 46.672 10.5435V15.6703H45.0194V10.7212C45.0194 10.2897 44.9412 9.98517 44.785 9.80747C44.637 9.62977 44.3739 9.54098 43.9957 9.54098C43.4037 9.54098 42.8528 9.73133 42.343 10.112V15.6703H40.6904V8.41155H41.4674L41.9977 9.07144Z" fill="#10454F"/>
<path d="M50.5336 15.8476C48.9467 15.8476 48.1533 14.5785 48.1533 12.0405C48.1533 9.50248 49.1153 8.23346 51.0393 8.23346C51.582 8.23346 52.1164 8.33498 52.6426 8.53802V6.1269L54.2953 6V15.6699H53.2223L52.7659 14.7689C52.0835 15.488 51.3394 15.8476 50.5336 15.8476ZM51.1873 14.5404C51.6971 14.5404 52.1822 14.2697 52.6426 13.7283V9.79439C52.2397 9.62513 51.8451 9.54055 51.4586 9.54055C50.8666 9.54055 50.4432 9.7521 50.1883 10.1751C49.9334 10.5981 49.8059 11.2199 49.8059 12.0405C49.8059 13.7071 50.2664 14.5404 51.1873 14.5404Z" fill="#10454F"/>
<path d="M59.0549 15.848C57.9202 15.848 57.1103 15.5349 56.6252 14.9089C56.1401 14.2744 55.8975 13.3184 55.8975 12.041C55.8975 9.50291 56.9336 8.23389 59.0056 8.23389C60.1978 8.23389 61.0118 8.61459 61.4475 9.37604C61.8258 10.0275 62.0149 10.8734 62.0149 11.914V12.3708H57.5009C57.5091 13.1661 57.6365 13.7287 57.8832 14.0587C58.1299 14.3801 58.5369 14.5409 59.1042 14.5409C60.0169 14.5409 60.502 14.2024 60.5595 13.5257L61.9162 13.5764C61.7847 15.0908 60.8309 15.848 59.0549 15.848ZM60.0045 9.95975C59.799 9.6806 59.4619 9.54098 58.9932 9.54098C58.5245 9.54098 58.1792 9.67639 57.9572 9.9471C57.7434 10.2094 57.6037 10.6324 57.5379 11.2161H60.3869C60.3375 10.6492 60.2101 10.2305 60.0045 9.95975Z" fill="#10454F"/>
</g>
<defs>
<clipPath id="clip0_6875_38235">
<rect width="74" height="25" fill="white"/>
</clipPath>
</defs>
</svg>
