<svg width="257" height="69" viewBox="0 0 257 69" fill="none" xmlns="http://www.w3.org/2000/svg">
<g clip-path="url(#clip0_4906_32457)">
<path d="M228 1.5H29C13.8122 1.5 1.5 13.8122 1.5 29V40C1.5 55.1878 13.8122 67.5 29 67.5H228C243.188 67.5 255.5 55.1878 255.5 40V29C255.5 13.8122 243.188 1.5 228 1.5Z" fill="#10454F" stroke="#CA8923" stroke-width="3"/>
<path d="M232 39V41.6667C232 42.0203 231.836 42.3594 231.544 42.6095C231.253 42.8595 230.857 43 230.444 43H219.556C219.143 43 218.747 42.8595 218.456 42.6095C218.164 42.3594 218 42.0203 218 41.6667V39" stroke="#FFF6D2" stroke-width="2" stroke-linecap="square" stroke-linejoin="round"/>
<path d="M221.701 35.666L225.035 38.9993L228.368 35.666" stroke="#FFF6D2" stroke-width="2" stroke-linecap="square" stroke-linejoin="round"/>
<path d="M224 39C223.999 39.5522 224.447 40 224.999 40C225.552 40 225.999 39.5523 226 39H224ZM226 29V28H224V29H226ZM226 39V29H224V39H226Z" fill="#FFF6D2"/>
<path d="M41.0392 42.9996H37.5192L33.1992 28.3996H35.9192L39.2792 40.3596L42.6392 28.3996H45.3792L41.0392 42.9996ZM50.6165 43.2796C48.7765 43.2796 47.4632 42.7863 46.6765 41.7996C45.8899 40.7996 45.4965 39.2929 45.4965 37.2796C45.4965 33.2796 47.1765 31.2796 50.5365 31.2796C52.4699 31.2796 53.7899 31.8796 54.4965 33.0796C55.1099 34.1063 55.4165 35.4396 55.4165 37.0796V37.7996H48.0965C48.1099 39.0529 48.3165 39.9396 48.7165 40.4596C49.1165 40.9663 49.7765 41.2196 50.6965 41.2196C52.1765 41.2196 52.9632 40.6863 53.0565 39.6196L55.2565 39.6996C55.0432 42.0863 53.4965 43.2796 50.6165 43.2796ZM52.1565 33.9996C51.8232 33.5596 51.2765 33.3396 50.5165 33.3396C49.7565 33.3396 49.1965 33.5529 48.8365 33.9796C48.4899 34.3929 48.2632 35.0596 48.1565 35.9796H52.7765C52.6965 35.0863 52.4899 34.4263 52.1565 33.9996ZM60.6061 42.9996H57.9261V31.5596H59.1861L60.2461 33.3396C61.1661 32.0329 62.4661 31.3463 64.1461 31.2796V33.5796C62.5727 33.6196 61.3927 34.0996 60.6061 35.0196V42.9996ZM75.5984 31.2796C78.5051 31.2796 79.9584 32.6063 79.9584 35.2596V42.9996H78.2184L77.4584 41.5996C76.3918 42.7196 75.1451 43.2796 73.7184 43.2796C72.7051 43.2796 71.9318 42.9996 71.3984 42.4396C70.8784 41.8663 70.6184 41.1063 70.6184 40.1596C70.6184 39.1996 70.9184 38.4263 71.5184 37.8396C72.1184 37.2529 73.2384 36.8396 74.8784 36.5996L77.2784 36.2396V35.2796C77.2784 33.9863 76.6651 33.3396 75.4384 33.3396C74.2784 33.3396 73.5918 33.9263 73.3784 35.0996L71.2984 34.4796C71.8051 32.3463 73.2384 31.2796 75.5984 31.2796ZM74.5784 41.3196C75.4851 41.3196 76.3851 40.8729 77.2784 39.9796V37.9196L75.3584 38.2596C74.4918 38.4063 73.9184 38.6396 73.6384 38.9596C73.3584 39.2796 73.2184 39.6396 73.2184 40.0396C73.2184 40.4396 73.3384 40.7529 73.5784 40.9796C73.8184 41.2063 74.1518 41.3196 74.5784 41.3196ZM85.532 34.2996C85.1987 34.9396 85.032 35.9329 85.032 37.2796C85.032 38.6263 85.1987 39.6196 85.532 40.2596C85.8787 40.8996 86.472 41.2196 87.312 41.2196C88.1653 41.2196 88.772 41.0463 89.132 40.6996C89.5053 40.3529 89.7053 39.8063 89.732 39.0596L91.832 39.1596C91.752 40.5196 91.352 41.5463 90.632 42.2396C89.9253 42.9329 88.7587 43.2796 87.132 43.2796C85.2253 43.2796 83.9253 42.6596 83.232 41.4196C82.8987 40.8196 82.6653 40.1929 82.532 39.5396C82.412 38.8863 82.352 38.1329 82.352 37.2796C82.352 36.4129 82.412 35.6529 82.532 34.9996C82.6653 34.3329 82.8987 33.7063 83.232 33.1196C83.912 31.8929 85.212 31.2796 87.132 31.2796C88.7453 31.2796 89.9053 31.6129 90.612 32.2796C91.3187 32.9329 91.7187 33.9129 91.812 35.2196L89.732 35.4996C89.7053 34.7529 89.5053 34.2063 89.132 33.8596C88.772 33.5129 88.1653 33.3396 87.312 33.3396C86.472 33.3396 85.8787 33.6596 85.532 34.2996ZM96.9147 42.9996H94.2347V27.9596L96.9147 27.5996V42.9996ZM104.7 31.2796C107.606 31.2796 109.06 32.6063 109.06 35.2596V42.9996H107.32L106.56 41.5996C105.493 42.7196 104.246 43.2796 102.82 43.2796C101.807 43.2796 101.033 42.9996 100.5 42.4396C99.98 41.8663 99.72 41.1063 99.72 40.1596C99.72 39.1996 100.02 38.4263 100.62 37.8396C101.22 37.2529 102.34 36.8396 103.98 36.5996L106.38 36.2396V35.2796C106.38 33.9863 105.766 33.3396 104.54 33.3396C103.38 33.3396 102.693 33.9263 102.48 35.0996L100.4 34.4796C100.907 32.3463 102.34 31.2796 104.7 31.2796ZM103.68 41.3196C104.586 41.3196 105.486 40.8729 106.38 39.9796V37.9196L104.46 38.2596C103.593 38.4063 103.02 38.6396 102.74 38.9596C102.46 39.2796 102.32 39.6396 102.32 40.0396C102.32 40.4396 102.44 40.7529 102.68 40.9796C102.92 41.2063 103.253 41.3196 103.68 41.3196ZM115.293 42.9996H112.613V31.5596H113.873L114.933 33.3396C115.853 32.0329 117.153 31.3463 118.833 31.2796V33.5796C117.26 33.6196 116.08 34.0996 115.293 35.0196V42.9996ZM124.778 31.2796C127.685 31.2796 129.138 32.6063 129.138 35.2596V42.9996H127.398L126.638 41.5996C125.571 42.7196 124.325 43.2796 122.898 43.2796C121.885 43.2796 121.111 42.9996 120.578 42.4396C120.058 41.8663 119.798 41.1063 119.798 40.1596C119.798 39.1996 120.098 38.4263 120.698 37.8396C121.298 37.2529 122.418 36.8396 124.058 36.5996L126.458 36.2396V35.2796C126.458 33.9863 125.845 33.3396 124.618 33.3396C123.458 33.3396 122.771 33.9263 122.558 35.0996L120.478 34.4796C120.985 32.3463 122.418 31.2796 124.778 31.2796ZM123.758 41.3196C124.665 41.3196 125.565 40.8729 126.458 39.9796V37.9196L124.538 38.2596C123.671 38.4063 123.098 38.6396 122.818 38.9596C122.538 39.2796 122.398 39.6396 122.398 40.0396C122.398 40.4396 122.518 40.7529 122.758 40.9796C122.998 41.2063 123.331 41.3196 123.758 41.3196ZM134.712 34.2996C134.378 34.9396 134.212 35.9329 134.212 37.2796C134.212 38.6263 134.378 39.6196 134.712 40.2596C135.058 40.8996 135.652 41.2196 136.492 41.2196C137.345 41.2196 137.952 41.0463 138.312 40.6996C138.685 40.3529 138.885 39.8063 138.912 39.0596L141.012 39.1596C140.932 40.5196 140.532 41.5463 139.812 42.2396C139.105 42.9329 137.938 43.2796 136.312 43.2796C134.405 43.2796 133.105 42.6596 132.412 41.4196C132.078 40.8196 131.845 40.1929 131.712 39.5396C131.592 38.8863 131.532 38.1329 131.532 37.2796C131.532 36.4129 131.592 35.6529 131.712 34.9996C131.845 34.3329 132.078 33.7063 132.412 33.1196C133.092 31.8929 134.392 31.2796 136.312 31.2796C137.925 31.2796 139.085 31.6129 139.792 32.2796C140.498 32.9329 140.898 33.9129 140.992 35.2196L138.912 35.4996C138.885 34.7529 138.685 34.2063 138.312 33.8596C137.952 33.5129 137.345 33.3396 136.492 33.3396C135.652 33.3396 135.058 33.6596 134.712 34.2996ZM143.414 31.5596H146.094V42.9996H143.414V31.5596ZM144.754 30.1996C143.754 30.1996 143.254 29.6863 143.254 28.6596C143.254 27.6196 143.754 27.0996 144.754 27.0996C145.781 27.0996 146.294 27.6196 146.294 28.6596C146.294 29.6863 145.781 30.1996 144.754 30.1996ZM151.899 40.2196C152.246 40.8863 152.913 41.2196 153.899 41.2196C154.886 41.2196 155.553 40.8863 155.899 40.2196C156.246 39.5529 156.419 38.5729 156.419 37.2796C156.419 35.9863 156.246 35.0063 155.899 34.3396C155.553 33.6729 154.886 33.3396 153.899 33.3396C152.913 33.3396 152.246 33.6729 151.899 34.3396C151.553 35.0063 151.379 35.9863 151.379 37.2796C151.379 38.5729 151.553 39.5529 151.899 40.2196ZM159.099 37.2796C159.099 41.2796 157.366 43.2796 153.899 43.2796C150.433 43.2796 148.699 41.2796 148.699 37.2796C148.699 33.2796 150.433 31.2796 153.899 31.2796C157.366 31.2796 159.099 33.2796 159.099 37.2796ZM163.815 32.5996C165.069 31.7196 166.349 31.2796 167.655 31.2796C168.975 31.2796 169.929 31.6063 170.515 32.2596C171.102 32.8996 171.395 33.7863 171.395 34.9196V42.9996H168.715V35.1996C168.715 34.5196 168.589 34.0396 168.335 33.7596C168.095 33.4796 167.669 33.3396 167.055 33.3396C166.095 33.3396 165.202 33.6396 164.375 34.2396V42.9996H161.695V31.5596H162.955L163.815 32.5996ZM178.917 43.2796C177.077 43.2796 175.764 42.7863 174.977 41.7996C174.19 40.7996 173.797 39.2929 173.797 37.2796C173.797 33.2796 175.477 31.2796 178.837 31.2796C180.77 31.2796 182.09 31.8796 182.797 33.0796C183.41 34.1063 183.717 35.4396 183.717 37.0796V37.7996H176.397C176.41 39.0529 176.617 39.9396 177.017 40.4596C177.417 40.9663 178.077 41.2196 178.997 41.2196C180.477 41.2196 181.264 40.6863 181.357 39.6196L183.557 39.6996C183.344 42.0863 181.797 43.2796 178.917 43.2796ZM180.457 33.9996C180.124 33.5596 179.577 33.3396 178.817 33.3396C178.057 33.3396 177.497 33.5529 177.137 33.9796C176.79 34.3929 176.564 35.0596 176.457 35.9796H181.077C180.997 35.0863 180.79 34.4263 180.457 33.9996ZM194.407 39.7996C194.407 42.0796 192.807 43.2196 189.607 43.2196C188.207 43.2196 187.167 42.9196 186.487 42.3196C185.807 41.7063 185.38 40.8196 185.207 39.6596L187.287 39.3396C187.433 40.6196 188.227 41.2596 189.667 41.2596C191.12 41.2596 191.847 40.8063 191.847 39.8996C191.847 39.5263 191.7 39.2463 191.407 39.0596C191.127 38.8729 190.553 38.6796 189.687 38.4796L188.767 38.2596C187.58 37.9796 186.727 37.5729 186.207 37.0396C185.7 36.4929 185.447 35.7063 185.447 34.6796C185.447 32.4129 186.993 31.2796 190.087 31.2796C191.42 31.2796 192.413 31.5863 193.067 32.1996C193.733 32.7996 194.147 33.6796 194.307 34.8396L192.227 35.1396C192.08 33.8729 191.34 33.2396 190.007 33.2396C188.687 33.2396 188.027 33.6929 188.027 34.5996C188.027 34.9729 188.153 35.2596 188.407 35.4596C188.673 35.6463 189.207 35.8329 190.007 36.0196L191.047 36.2796C192.233 36.5729 193.087 36.9863 193.607 37.5196C194.14 38.0396 194.407 38.7996 194.407 39.7996Z" fill="#FFF7D2"/>
</g>
<defs>
<clipPath id="clip0_4906_32457">
<rect width="257" height="69" fill="white"/>
</clipPath>
</defs>
</svg>
