<svg xmlns="http://www.w3.org/2000/svg" viewBox="0 0 191.75 58.31"><defs><style>.cls-1{fill:#10454f;}</style></defs><g id="Capa_2" data-name="Capa 2"><g id="Capa_3" data-name="Capa 3"><path class="cls-1" d="M184.34,1.32a6.1,6.1,0,0,1,6.1,6.09V50.9a6.11,6.11,0,0,1-6.1,6.1H7.41a6.1,6.1,0,0,1-6.09-6.1V7.41A6.09,6.09,0,0,1,7.41,1.32H184.34m0-1.32H7.41A7.41,7.41,0,0,0,0,7.41V50.9a7.41,7.41,0,0,0,7.41,7.41H184.34a7.4,7.4,0,0,0,7.41-7.41V7.41A7.41,7.41,0,0,0,184.34,0Z"/><path class="cls-1" d="M20.19,23.83c-3.11,5.39-1.13,13.59,2.31,18.55,1.71,2.49,3.45,4.72,5.83,4.72h.14a7.17,7.17,0,0,0,2.71-.72,7.47,7.47,0,0,1,3.21-.76,6.83,6.83,0,0,1,3,.74,6.59,6.59,0,0,0,2.93.7c2.68,0,4.33-2.46,5.78-4.58a20.17,20.17,0,0,0,2.53-5.19v0a.3.3,0,0,0-.16-.37h0a7.68,7.68,0,0,1-4.66-7,7.93,7.93,0,0,1,3.74-6.62h0a.3.3,0,0,0,.13-.2.31.31,0,0,0,0-.23,8.69,8.69,0,0,0-6.85-3.71,5.74,5.74,0,0,0-.6,0A11.87,11.87,0,0,0,36,20.1a6.89,6.89,0,0,1-2.06.61,6.56,6.56,0,0,1-2.13-.62A10.26,10.26,0,0,0,28,19.14h-.1A9.2,9.2,0,0,0,20.19,23.83Z"/><path class="cls-1" d="M40.86,10.3a8.39,8.39,0,0,0-5.54,2.85,7.89,7.89,0,0,0-2,5.83.31.31,0,0,0,.28.26l.39,0a7.11,7.11,0,0,0,5.24-2.69,8.29,8.29,0,0,0,2-6A.31.31,0,0,0,40.86,10.3Z"/><path class="cls-1" d="M62.74,10.15h3.61a5.32,5.32,0,0,1,2.52.58,4.31,4.31,0,0,1,1.71,1.62,4.53,4.53,0,0,1,.61,2.35,4.5,4.5,0,0,1-.61,2.35,4.31,4.31,0,0,1-1.71,1.62,5.32,5.32,0,0,1-2.52.59H62.74Zm3.56,8.51a4.78,4.78,0,0,0,2.22-.5A3.54,3.54,0,0,0,70,16.76a4.32,4.32,0,0,0,0-4.11,3.54,3.54,0,0,0-1.49-1.4,4.66,4.66,0,0,0-2.22-.5H63.41v7.91Z"/><path class="cls-1" d="M74.21,18.87A3.2,3.2,0,0,1,73,17.64a3.82,3.82,0,0,1,0-3.56,3.2,3.2,0,0,1,1.22-1.23,3.45,3.45,0,0,1,1.73-.44,3.49,3.49,0,0,1,1.74.44,3.27,3.27,0,0,1,1.22,1.23,3.82,3.82,0,0,1,0,3.56,3.27,3.27,0,0,1-1.22,1.23,3.49,3.49,0,0,1-1.74.44A3.45,3.45,0,0,1,74.21,18.87Zm3.13-.51a2.64,2.64,0,0,0,1-1,3,3,0,0,0,.36-1.49,3,3,0,0,0-.36-1.48,2.67,2.67,0,0,0-1-1,2.9,2.9,0,0,0-2.8,0,2.65,2.65,0,0,0-1,1,3,3,0,0,0-.36,1.48,3,3,0,0,0,.36,1.49,2.62,2.62,0,0,0,1,1,2.83,2.83,0,0,0,2.8,0Z"/><path class="cls-1" d="M90.88,12.46l-2.58,6.8h-.61l-2.3-5.9-2.3,5.9h-.6l-2.58-6.8h.63l2.26,6.07,2.32-6.07h.56L88,18.52l2.29-6.06Z"/><path class="cls-1" d="M97.72,13.15a2.89,2.89,0,0,1,.74,2.14v4h-.65V15.34a2.39,2.39,0,0,0-.58-1.74,2.13,2.13,0,0,0-1.62-.6,2.52,2.52,0,0,0-1.88.71A2.67,2.67,0,0,0,93,15.64v3.62h-.65v-6.8H93v1.47a2.5,2.5,0,0,1,1-1.11,3.19,3.19,0,0,1,1.64-.41A2.73,2.73,0,0,1,97.72,13.15Z"/><path class="cls-1" d="M101.15,9.6h.65v9.66h-.65Z"/><path class="cls-1" d="M105.46,18.87a3.35,3.35,0,0,1-1.22-1.23,3.82,3.82,0,0,1,0-3.56,3.35,3.35,0,0,1,1.22-1.23,3.66,3.66,0,0,1,3.48,0,3.25,3.25,0,0,1,1.21,1.23,3.75,3.75,0,0,1,0,3.56,3.25,3.25,0,0,1-1.21,1.23,3.66,3.66,0,0,1-3.48,0Zm3.14-.51a2.64,2.64,0,0,0,1-1,3.15,3.15,0,0,0,.35-1.49,3.11,3.11,0,0,0-.35-1.48,2.67,2.67,0,0,0-1-1,2.9,2.9,0,0,0-2.8,0,2.67,2.67,0,0,0-1,1,3.11,3.11,0,0,0-.35,1.48,3.15,3.15,0,0,0,.35,1.49,2.64,2.64,0,0,0,1,1,2.83,2.83,0,0,0,2.8,0Z"/><path class="cls-1" d="M116.82,13.06A2.5,2.5,0,0,1,117.5,15v4.31h-.63V18.05a2.19,2.19,0,0,1-1,.93,3.14,3.14,0,0,1-1.5.33,2.81,2.81,0,0,1-1.79-.53,1.86,1.86,0,0,1,0-2.78,2.94,2.94,0,0,1,1.94-.53h2.33v-.55a1.92,1.92,0,0,0-.52-1.44,2.07,2.07,0,0,0-1.5-.5,3.61,3.61,0,0,0-1.3.24,3.23,3.23,0,0,0-1,.62l-.33-.46a3.44,3.44,0,0,1,1.22-.71,4.46,4.46,0,0,1,1.5-.26A2.71,2.71,0,0,1,116.82,13.06ZM116,18.39a2.36,2.36,0,0,0,.9-1.14V16h-2.32a2.32,2.32,0,0,0-1.45.36,1.35,1.35,0,0,0,0,2.05,2.22,2.22,0,0,0,1.4.39A2.53,2.53,0,0,0,116,18.39Z"/><path class="cls-1" d="M126.23,9.6v9.66h-.64v-1.6a2.79,2.79,0,0,1-1.13,1.22,3.15,3.15,0,0,1-1.65.43,3.41,3.41,0,0,1-1.72-.44,3.15,3.15,0,0,1-1.2-1.23,3.48,3.48,0,0,1-.44-1.78,3.55,3.55,0,0,1,.44-1.79,3.13,3.13,0,0,1,1.2-1.22,3.41,3.41,0,0,1,1.72-.44,3.08,3.08,0,0,1,1.63.43,3.13,3.13,0,0,1,1.14,1.2V9.6Zm-2,8.76a2.62,2.62,0,0,0,1-1,3,3,0,0,0,.36-1.49,3,3,0,0,0-.36-1.48,2.65,2.65,0,0,0-1-1,2.9,2.9,0,0,0-2.8,0,2.67,2.67,0,0,0-1,1,3,3,0,0,0-.36,1.48,3,3,0,0,0,.36,1.49,2.64,2.64,0,0,0,1,1,2.83,2.83,0,0,0,2.8,0Z"/><path class="cls-1" d="M133.24,18.87A3.25,3.25,0,0,1,132,17.64a3.75,3.75,0,0,1,0-3.56,3.25,3.25,0,0,1,1.21-1.23,3.66,3.66,0,0,1,3.48,0,3.35,3.35,0,0,1,1.22,1.23,3.82,3.82,0,0,1,0,3.56,3.35,3.35,0,0,1-1.22,1.23,3.66,3.66,0,0,1-3.48,0Zm3.14-.51a2.64,2.64,0,0,0,1-1,3.15,3.15,0,0,0,.35-1.49,3.11,3.11,0,0,0-.35-1.48,2.67,2.67,0,0,0-1-1,2.9,2.9,0,0,0-2.8,0,2.67,2.67,0,0,0-1,1,3.11,3.11,0,0,0-.35,1.48,3.15,3.15,0,0,0,.35,1.49,2.64,2.64,0,0,0,1,1,2.83,2.83,0,0,0,2.8,0Z"/><path class="cls-1" d="M145.73,13.15a2.89,2.89,0,0,1,.75,2.14v4h-.66V15.34a2.43,2.43,0,0,0-.57-1.74,2.17,2.17,0,0,0-1.63-.6,2.52,2.52,0,0,0-1.88.71,2.67,2.67,0,0,0-.69,1.93v3.62h-.65v-6.8H141v1.47a2.5,2.5,0,0,1,1-1.11,3.2,3.2,0,0,1,1.65-.41A2.72,2.72,0,0,1,145.73,13.15Z"/><path class="cls-1" d="M155.87,18.83a1.55,1.55,0,0,1-.61.36,2.54,2.54,0,0,1-.78.12,1.69,1.69,0,0,1-1.85-1.85V13h-1.25v-.56h1.25V11h.65v1.48h2.16V13h-2.16V17.4a1.46,1.46,0,0,0,.32,1,1.24,1.24,0,0,0,1,.34,1.48,1.48,0,0,0,1-.38Z"/><path class="cls-1" d="M163,13.15a2.89,2.89,0,0,1,.74,2.14v4h-.65V15.34a2.39,2.39,0,0,0-.58-1.74,2.13,2.13,0,0,0-1.62-.6,2.53,2.53,0,0,0-1.89.71,2.67,2.67,0,0,0-.69,1.93v3.62h-.65V9.6h.65v4.28a2.49,2.49,0,0,1,1-1.08,3.24,3.24,0,0,1,1.62-.39A2.74,2.74,0,0,1,163,13.15Z"/><path class="cls-1" d="M172.2,16h-5.85a2.87,2.87,0,0,0,.41,1.41,2.62,2.62,0,0,0,1,1,3.13,3.13,0,0,0,1.45.34,3,3,0,0,0,1.23-.25,2.35,2.35,0,0,0,.94-.7l.38.42a2.78,2.78,0,0,1-1.11.82,3.51,3.51,0,0,1-1.45.29,3.7,3.7,0,0,1-1.81-.44,3.21,3.21,0,0,1-1.25-1.23,3.59,3.59,0,0,1-.44-1.78,3.74,3.74,0,0,1,.42-1.78,3.19,3.19,0,0,1,1.16-1.23,3.25,3.25,0,0,1,1.67-.44,3.19,3.19,0,0,1,1.66.44,3.07,3.07,0,0,1,1.16,1.21,3.74,3.74,0,0,1,.42,1.78Zm-4.52-2.72a2.56,2.56,0,0,0-.92.9,2.87,2.87,0,0,0-.39,1.31h5.2a2.65,2.65,0,0,0-1.31-2.2A2.53,2.53,0,0,0,169,13,2.62,2.62,0,0,0,167.68,13.3Z"/><path class="cls-1" d="M72.38,39.4H64.59L63.06,43h-3l7-15.57h2.84L77,43h-3Zm-1-2.26-2.93-6.81-2.92,6.81Z"/><path class="cls-1" d="M88.37,31.75a5.5,5.5,0,0,1,2.14,2.14,6.35,6.35,0,0,1,.78,3.18,6.42,6.42,0,0,1-.78,3.19,5.46,5.46,0,0,1-2.14,2.15,6.39,6.39,0,0,1-3.11.75,4.78,4.78,0,0,1-3.8-1.6v5.76H78.68V31.13h2.64v1.56A4.22,4.22,0,0,1,83,31.42,5.75,5.75,0,0,1,85.26,31,6.39,6.39,0,0,1,88.37,31.75Zm-.89,8a4.15,4.15,0,0,0,0-5.38,3.35,3.35,0,0,0-2.53-1,3.6,3.6,0,0,0-1.8.46,3.24,3.24,0,0,0-1.27,1.3,4.32,4.32,0,0,0,0,3.92,3.31,3.31,0,0,0,1.27,1.3,3.59,3.59,0,0,0,1.8.45A3.38,3.38,0,0,0,87.48,39.76Z"/><path class="cls-1" d="M103.63,31.75a5.5,5.5,0,0,1,2.14,2.14,6.35,6.35,0,0,1,.78,3.18,6.42,6.42,0,0,1-.78,3.19,5.46,5.46,0,0,1-2.14,2.15,6.39,6.39,0,0,1-3.11.75,4.78,4.78,0,0,1-3.8-1.6v5.76H93.94V31.13h2.65v1.56a4.13,4.13,0,0,1,1.7-1.27,5.75,5.75,0,0,1,2.23-.42A6.39,6.39,0,0,1,103.63,31.75Zm-.89,8a4.15,4.15,0,0,0,0-5.38,3.35,3.35,0,0,0-2.53-1,3.6,3.6,0,0,0-1.8.46,3.31,3.31,0,0,0-1.27,1.3,4.32,4.32,0,0,0,0,3.92,3.38,3.38,0,0,0,1.27,1.3,3.59,3.59,0,0,0,1.8.45A3.38,3.38,0,0,0,102.74,39.76Z"/><path class="cls-1" d="M117,42.72a7.22,7.22,0,0,1-2.66-1.36l1-2.24a8,8,0,0,0,2.35,1.23,8.53,8.53,0,0,0,2.79.48,4.87,4.87,0,0,0,2.6-.56,1.68,1.68,0,0,0,.85-1.47,1.43,1.43,0,0,0-.48-1.1,3.45,3.45,0,0,0-1.21-.68c-.49-.16-1.16-.34-2-.55a22.83,22.83,0,0,1-2.88-.85,4.63,4.63,0,0,1-1.89-1.32,3.55,3.55,0,0,1-.79-2.44,4.1,4.1,0,0,1,.7-2.34,4.69,4.69,0,0,1,2.11-1.68,8.49,8.49,0,0,1,3.46-.63,11,11,0,0,1,2.8.36,7.84,7.84,0,0,1,2.38,1l-.91,2.25a9.06,9.06,0,0,0-2.13-.91,7.94,7.94,0,0,0-2.16-.31,4.58,4.58,0,0,0-2.55.57,1.81,1.81,0,0,0-.83,1.54,1.39,1.39,0,0,0,.48,1.09,3.5,3.5,0,0,0,1.21.67c.49.16,1.15.35,2,.55a21.15,21.15,0,0,1,2.85.84,4.94,4.94,0,0,1,1.9,1.32,3.47,3.47,0,0,1,.79,2.4,4.1,4.1,0,0,1-.7,2.34,4.81,4.81,0,0,1-2.13,1.67,8.72,8.72,0,0,1-3.47.62A11.91,11.91,0,0,1,117,42.72Z"/><path class="cls-1" d="M136.47,42.36a3.11,3.11,0,0,1-1.19.6,5.09,5.09,0,0,1-1.48.2,4.2,4.2,0,0,1-3-1,3.93,3.93,0,0,1-1.07-3V33.44h-2V31.22h2V28.5h2.78v2.72h3.18v2.22h-3.18v5.65a1.91,1.91,0,0,0,.42,1.33,1.62,1.62,0,0,0,1.23.45,2.4,2.4,0,0,0,1.55-.49Z"/><path class="cls-1" d="M140.46,42.39a5.69,5.69,0,0,1-2.26-2.17,6.16,6.16,0,0,1-.81-3.15,6.09,6.09,0,0,1,.81-3.14,5.67,5.67,0,0,1,2.26-2.16,7.26,7.26,0,0,1,6.51,0,5.67,5.67,0,0,1,2.26,2.16,6.09,6.09,0,0,1,.81,3.14,6.16,6.16,0,0,1-.81,3.15A5.69,5.69,0,0,1,147,42.39a7.26,7.26,0,0,1-6.51,0Zm5.78-2.63a4.12,4.12,0,0,0,0-5.38,3.38,3.38,0,0,0-2.54-1,3.33,3.33,0,0,0-2.52,1,4.15,4.15,0,0,0,0,5.38,3.36,3.36,0,0,0,2.52,1A3.41,3.41,0,0,0,146.24,39.76Z"/><path class="cls-1" d="M159.59,31v2.64a3.93,3.93,0,0,0-.65-.06,3.33,3.33,0,0,0-2.53.94,3.77,3.77,0,0,0-.92,2.73V43h-2.78V31.13h2.65v1.73Q156.56,31,159.59,31Z"/><path class="cls-1" d="M173,38h-9.32A3.23,3.23,0,0,0,164.92,40a4.19,4.19,0,0,0,2.57.77,4.32,4.32,0,0,0,3.22-1.29l1.49,1.71a5,5,0,0,1-2,1.45,7.54,7.54,0,0,1-2.76.48,7.31,7.31,0,0,1-3.45-.77,5.67,5.67,0,0,1-2.3-2.17,6.56,6.56,0,0,1,0-6.28,5.57,5.57,0,0,1,2.19-2.17A6.46,6.46,0,0,1,167,31a6.25,6.25,0,0,1,3.1.76,5.49,5.49,0,0,1,2.14,2.16,6.58,6.58,0,0,1,.76,3.22C173,37.33,173,37.6,173,38Zm-8.22-4a3.35,3.35,0,0,0-1.13,2.1h6.75A3.31,3.31,0,0,0,169.27,34a3.62,3.62,0,0,0-4.53,0Z"/></g></g></svg>