<svg width="60" height="20" viewBox="0 0 60 20" fill="none" xmlns="http://www.w3.org/2000/svg">
<rect width="60" height="20" rx="10" fill="#FFF6D2"/>
<path d="M21.3407 14H18.7007V6.7H21.0007C21.9007 6.7 22.5274 6.9 22.8807 7.3C23.1941 7.66 23.3507 8.08333 23.3507 8.57C23.3507 9.40333 22.9941 9.95667 22.2807 10.23C22.7607 10.3633 23.1107 10.5967 23.3307 10.93C23.5574 11.2633 23.6707 11.6367 23.6707 12.05C23.6707 12.5633 23.5141 13.0033 23.2007 13.37C23.0407 13.5633 22.8007 13.7167 22.4807 13.83C22.1607 13.9433 21.7807 14 21.3407 14ZM20.0607 12.95H21.2607C21.6074 12.95 21.8674 12.8533 22.0407 12.66C22.2207 12.4667 22.3107 12.2033 22.3107 11.87C22.3107 11.5367 22.2207 11.2733 22.0407 11.08C21.8674 10.8867 21.6074 10.79 21.2607 10.79H20.0607V12.95ZM20.0607 9.75H20.9807C21.3007 9.75 21.5474 9.66333 21.7207 9.49C21.9007 9.31 21.9907 9.06667 21.9907 8.76C21.9907 8.44667 21.9007 8.2 21.7207 8.02C21.5474 7.84 21.3007 7.75 20.9807 7.75H20.0607V9.75ZM26.9607 8.14C28.4141 8.14 29.1407 8.80333 29.1407 10.13V14H28.2707L27.8907 13.3C27.3574 13.86 26.7341 14.14 26.0207 14.14C25.5141 14.14 25.1274 14 24.8607 13.72C24.6007 13.4333 24.4707 13.0533 24.4707 12.58C24.4707 12.1 24.6207 11.7133 24.9207 11.42C25.2207 11.1267 25.7807 10.92 26.6007 10.8L27.8007 10.62V10.14C27.8007 9.49333 27.4941 9.17 26.8807 9.17C26.3007 9.17 25.9574 9.46333 25.8507 10.05L24.8107 9.74C25.0641 8.67333 25.7807 8.14 26.9607 8.14ZM26.4507 13.16C26.9041 13.16 27.3541 12.9367 27.8007 12.49V11.46L26.8407 11.63C26.4074 11.7033 26.1207 11.82 25.9807 11.98C25.8407 12.14 25.7707 12.32 25.7707 12.52C25.7707 12.72 25.8307 12.8767 25.9507 12.99C26.0707 13.1033 26.2374 13.16 26.4507 13.16ZM30.3875 15.04C30.7409 15.04 30.9175 14.8433 30.9175 14.45V8.28H32.2575V14.45C32.2575 15.5433 31.6809 16.09 30.5275 16.09C30.1009 16.09 29.7175 16.0333 29.3775 15.92L29.7075 14.91C29.9275 14.9967 30.1542 15.04 30.3875 15.04ZM31.5875 7.6C31.0875 7.6 30.8375 7.34333 30.8375 6.83C30.8375 6.31 31.0875 6.05 31.5875 6.05C32.1009 6.05 32.3575 6.31 32.3575 6.83C32.3575 7.34333 32.1009 7.6 31.5875 7.6ZM36.1502 8.14C37.6035 8.14 38.3302 8.80333 38.3302 10.13V14H37.4602L37.0802 13.3C36.5469 13.86 35.9235 14.14 35.2102 14.14C34.7035 14.14 34.3169 14 34.0502 13.72C33.7902 13.4333 33.6602 13.0533 33.6602 12.58C33.6602 12.1 33.8102 11.7133 34.1102 11.42C34.4102 11.1267 34.9702 10.92 35.7902 10.8L36.9902 10.62V10.14C36.9902 9.49333 36.6835 9.17 36.0702 9.17C35.4902 9.17 35.1469 9.46333 35.0402 10.05L34.0002 9.74C34.2535 8.67333 34.9702 8.14 36.1502 8.14ZM35.6402 13.16C36.0935 13.16 36.5435 12.9367 36.9902 12.49V11.46L36.0302 11.63C35.5969 11.7033 35.3102 11.82 35.1702 11.98C35.0302 12.14 34.9602 12.32 34.9602 12.52C34.9602 12.72 35.0202 12.8767 35.1402 12.99C35.2602 13.1033 35.4269 13.16 35.6402 13.16ZM41.447 14H40.107V8.28H40.737L41.267 9.17C41.727 8.51667 42.377 8.17333 43.217 8.14V9.29C42.4303 9.31 41.8403 9.55 41.447 10.01V14Z" fill="#10454F"/>
</svg>
