<svg width="61" height="20" viewBox="0 0 61 20" fill="none" xmlns="http://www.w3.org/2000/svg">
<rect x="0.807617" width="60.0366" height="20" rx="10" fill="#FFF6D2"/>
<path d="M11.5046 6.7H15.6246V7.75H12.8646V9.77H15.3746V10.81H12.8646V12.95H15.8246V14H11.5046V6.7ZM21.4303 6.7H22.7903V14H21.3503L18.4603 9.04V14H17.1003V6.7H18.5403L21.4303 11.67V6.7ZM27.2087 13.04C28.1687 13.04 28.6554 12.52 28.6687 11.48V11.14H27.5487V10.27H29.8387V14H29.1587L28.9287 13.27C28.502 13.85 27.902 14.14 27.1287 14.14C26.0354 14.14 25.282 13.8 24.8687 13.12C24.6554 12.7733 24.5054 12.38 24.4187 11.94C24.332 11.5 24.2887 10.9667 24.2887 10.34C24.2887 9.70667 24.332 9.17 24.4187 8.73C24.512 8.28333 24.6687 7.89333 24.8887 7.56C25.322 6.89333 26.1087 6.56 27.2487 6.56C28.0687 6.56 28.6587 6.74333 29.0187 7.11C29.3787 7.47667 29.5987 8.01667 29.6787 8.73L28.5787 8.9C28.5387 8.5 28.4154 8.19333 28.2087 7.98C28.002 7.76667 27.682 7.66 27.2487 7.66C26.622 7.66 26.1987 7.86667 25.9787 8.28C25.7587 8.69333 25.6487 9.37667 25.6487 10.33C25.6487 11.2833 25.7554 11.9733 25.9687 12.4C26.1887 12.8267 26.602 13.04 27.2087 13.04ZM31.6218 14V6.7H32.9818V12.95H35.4718V14H31.6218ZM36.4558 6.7H37.8158V14H36.4558V6.7ZM42.448 9.85C43.128 10.0233 43.6147 10.27 43.908 10.59C44.2013 10.91 44.348 11.39 44.348 12.03C44.348 12.67 44.128 13.1833 43.688 13.57C43.248 13.95 42.6013 14.14 41.748 14.14C40.8947 14.14 40.278 13.96 39.898 13.6C39.518 13.2333 39.2847 12.7033 39.198 12.01L40.288 11.84C40.328 12.2333 40.4613 12.54 40.688 12.76C40.9213 12.9733 41.2447 13.08 41.658 13.08C42.5447 13.08 42.988 12.7433 42.988 12.07C42.988 11.7833 42.9047 11.5667 42.738 11.42C42.5713 11.2733 42.2513 11.14 41.778 11.02L41.208 10.88C40.5413 10.7133 40.0647 10.4667 39.778 10.14C39.4913 9.81333 39.348 9.32667 39.348 8.68C39.348 8.02667 39.558 7.51 39.978 7.13C40.398 6.75 41.018 6.56 41.838 6.56C42.6647 6.56 43.258 6.74333 43.618 7.11C43.9847 7.47 44.2113 7.99667 44.298 8.69L43.218 8.86C43.1313 8.03333 42.7047 7.62 41.938 7.62C41.518 7.62 41.208 7.71333 41.008 7.9C40.808 8.08 40.708 8.32 40.708 8.62C40.708 8.92 40.7847 9.14333 40.938 9.29C41.0913 9.43667 41.3847 9.56667 41.818 9.68L42.448 9.85ZM49.7834 6.7H51.1434V14H49.7834V10.87H47.0834V14H45.7234V6.7H47.0834V9.83H49.7834V6.7Z" fill="#10454F"/>
</svg>
