<svg width="61" height="20" viewBox="0 0 61 20" fill="none" xmlns="http://www.w3.org/2000/svg">
<rect x="0.807617" width="60.0366" height="20" rx="10" fill="#FFF6D2"/>
<path d="M10.8455 6.7H14.9655V7.75H12.2055V9.77H14.7155V10.81H12.2055V12.95H15.1655V14H10.8455V6.7ZM19.1912 9.85C19.8712 10.0233 20.3578 10.27 20.6512 10.59C20.9445 10.91 21.0912 11.39 21.0912 12.03C21.0912 12.67 20.8712 13.1833 20.4312 13.57C19.9912 13.95 19.3445 14.14 18.4912 14.14C17.6378 14.14 17.0212 13.96 16.6412 13.6C16.2612 13.2333 16.0278 12.7033 15.9412 12.01L17.0312 11.84C17.0712 12.2333 17.2045 12.54 17.4312 12.76C17.6645 12.9733 17.9878 13.08 18.4012 13.08C19.2878 13.08 19.7312 12.7433 19.7312 12.07C19.7312 11.7833 19.6478 11.5667 19.4812 11.42C19.3145 11.2733 18.9945 11.14 18.5212 11.02L17.9512 10.88C17.2845 10.7133 16.8078 10.4667 16.5212 10.14C16.2345 9.81333 16.0912 9.32667 16.0912 8.68C16.0912 8.02667 16.3012 7.51 16.7212 7.13C17.1412 6.75 17.7612 6.56 18.5812 6.56C19.4078 6.56 20.0012 6.74333 20.3612 7.11C20.7278 7.47 20.9545 7.99667 21.0412 8.69L19.9612 8.86C19.8745 8.03333 19.4478 7.62 18.6812 7.62C18.2612 7.62 17.9512 7.71333 17.7512 7.9C17.5512 8.08 17.4512 8.32 17.4512 8.62C17.4512 8.92 17.5278 9.14333 17.6812 9.29C17.8345 9.43667 18.1278 9.56667 18.5612 9.68L19.1912 9.85ZM24.9866 11.41H23.8266V14H22.4666V6.7H24.9866C25.8666 6.7 26.4866 6.94 26.8466 7.42C27.1599 7.85333 27.3166 8.4 27.3166 9.06C27.3166 9.71333 27.1599 10.2533 26.8466 10.68C26.4866 11.1667 25.8666 11.41 24.9866 11.41ZM23.8266 10.36H24.7766C25.5632 10.36 25.9566 9.92667 25.9566 9.06C25.9566 8.18667 25.5632 7.75 24.7766 7.75H23.8266V10.36ZM29.1691 6.7H30.9391L33.1791 14H31.8691L31.2491 11.98H28.8491L28.2391 14H26.9191L29.1691 6.7ZM30.0491 7.99L29.1591 10.95H30.9391L30.0491 7.99ZM38.5251 6.7H39.8851V14H38.4451L35.5551 9.04V14H34.1951V6.7H35.6351L38.5251 11.67V6.7ZM38.8951 4.64C38.7817 5.06 38.6384 5.36 38.4651 5.54C38.2984 5.72 38.1151 5.81 37.9151 5.81C37.7151 5.81 37.4584 5.75 37.1451 5.63C36.8317 5.51 36.6251 5.45 36.5251 5.45C36.3317 5.45 36.1917 5.59667 36.1051 5.89L35.3551 5.65C35.4684 5.23 35.6084 4.93 35.7751 4.75C35.9484 4.57 36.1351 4.48 36.3351 4.48C36.5351 4.48 36.7917 4.54 37.1051 4.66C37.4251 4.78 37.6351 4.84 37.7351 4.84C37.9284 4.84 38.0684 4.69333 38.1551 4.4L38.8951 4.64ZM46.7734 13.03C46.5601 13.39 46.2501 13.6667 45.8434 13.86C45.4434 14.0467 44.9768 14.14 44.4434 14.14C43.9168 14.14 43.4768 14.0767 43.1234 13.95C42.7701 13.8167 42.4834 13.6433 42.2634 13.43C42.0434 13.21 41.8668 12.9333 41.7334 12.6C41.5001 12.0133 41.3834 11.2633 41.3834 10.35C41.3834 9.78333 41.4268 9.28667 41.5134 8.86C41.6001 8.43333 41.7501 8.04 41.9634 7.68C42.3901 6.93333 43.1901 6.56 44.3634 6.56C45.6968 6.56 46.5768 7.07667 47.0034 8.11C47.2368 8.69 47.3534 9.43667 47.3534 10.35C47.3534 10.9233 47.3101 11.4233 47.2234 11.85C47.1368 12.2767 46.9868 12.67 46.7734 13.03ZM44.3634 13.04C44.9701 13.04 45.3934 12.8033 45.6334 12.33C45.8734 11.8567 45.9934 11.1967 45.9934 10.35C45.9934 9.50333 45.8734 8.84333 45.6334 8.37C45.3934 7.89667 44.9701 7.66 44.3634 7.66C43.7234 7.66 43.2868 7.92 43.0534 8.44C42.8468 8.91333 42.7434 9.55 42.7434 10.35C42.7434 11.6833 43.0134 12.5133 43.5534 12.84C43.7734 12.9733 44.0434 13.04 44.3634 13.04ZM48.8533 14V6.7H50.2133V12.95H52.7033V14H48.8533Z" fill="#10454F"/>
</svg>
