<svg width="312" height="319" viewBox="0 0 312 319" fill="none" xmlns="http://www.w3.org/2000/svg">
<rect x="2" y="2" width="308" height="315" rx="50" fill="#10454F" stroke="#CA8923" stroke-width="4"/>
<path d="M59.2944 190.5V229H73.7044V222.125H66.9944V212.885H73.3194V206.01H66.9944V197.375H73.5944V190.5H59.2944ZM91.7885 209.035L85.1885 204.14C84.2535 203.48 83.8685 202.875 83.8685 201.665V198.035C83.8685 197.1 84.3085 196.66 85.2435 196.66H85.8485C86.7835 196.66 87.2235 197.1 87.2235 198.035V204.36H94.7585V197.32C94.7585 192.535 92.3935 190.17 87.6085 190.17H83.4285C78.6435 190.17 76.2785 192.535 76.2785 197.32V203.425C76.2785 206.175 76.9935 207.77 79.3585 209.475L85.9585 214.37C86.8935 215.03 87.2785 215.635 87.2785 216.845V221.465C87.2785 222.4 86.8385 222.84 85.9035 222.84H85.1885C84.2535 222.84 83.8135 222.4 83.8135 221.465V213.985H76.2785V222.18C76.2785 226.965 78.6435 229.33 83.4285 229.33H87.7185C92.5035 229.33 94.8685 226.965 94.8685 222.18V215.085C94.8685 212.225 94.1535 210.74 91.7885 209.035ZM109.007 212.005V221.355C109.007 222.29 108.567 222.73 107.632 222.73H106.642C105.707 222.73 105.267 222.29 105.267 221.355V198.145C105.267 197.21 105.707 196.77 106.642 196.77H107.522C108.457 196.77 108.897 197.21 108.897 198.145V206.34H116.487V197.32C116.487 192.535 114.122 190.17 109.337 190.17H104.717C99.9322 190.17 97.5672 192.535 97.5672 197.32V222.18C97.5672 226.965 99.9322 229.33 104.717 229.33H109.447C114.232 229.33 116.597 226.965 116.597 222.18V212.005H109.007ZM135.007 210.795C137.097 210.025 138.307 208.375 138.307 205.075V197.65C138.307 192.865 135.942 190.5 131.157 190.5H119.662V229H127.362V214.425H129.287C130.222 214.425 130.662 214.865 130.662 215.8V229H138.362V215.745C138.362 212.94 137.372 211.455 135.007 210.795ZM130.607 198.585V206.505C130.607 207.44 130.167 207.88 129.232 207.88H127.362V197.21H129.232C130.167 197.21 130.607 197.65 130.607 198.585ZM149.186 190.5H141.486V229H149.186V190.5ZM142.641 188.575H147.866L152.211 183.35H145.116L142.641 188.575ZM167.802 209.09C169.837 208.32 170.992 206.67 170.992 203.37V197.65C170.992 192.865 168.627 190.5 163.842 190.5H152.512V229H163.952C168.737 229 171.102 226.635 171.102 221.85V214.04C171.102 211.235 170.112 209.75 167.802 209.09ZM163.347 198.475V204.855C163.347 205.79 162.907 206.23 161.972 206.23H160.157V197.1H161.972C162.907 197.1 163.347 197.54 163.347 198.475ZM160.157 212.665H162.082C163.017 212.665 163.457 213.105 163.457 214.04V221.025C163.457 221.96 163.017 222.4 162.082 222.4H160.157V212.665ZM174.067 190.5V229H188.477V222.125H181.767V212.885H188.092V206.01H181.767V197.375H188.367V190.5H174.067ZM210.242 229V190.5H203.587L203.642 198.475L203.752 209.585L199.297 190.5H191.432V229H198.087L197.977 217.835L197.867 208.045L202.762 229H210.242ZM232.61 222.18V197.32C232.61 192.535 230.245 190.17 225.46 190.17H220.51C215.725 190.17 213.36 192.535 213.36 197.32V222.18C213.36 226.965 215.725 229.33 220.51 229.33H225.46C230.245 229.33 232.61 226.965 232.61 222.18ZM224.91 198.145V221.355C224.91 222.29 224.47 222.73 223.535 222.73H222.435C221.5 222.73 221.06 222.29 221.06 221.355V198.145C221.06 197.21 221.5 196.77 222.435 196.77H223.535C224.47 196.77 224.91 197.21 224.91 198.145ZM251.067 209.035L244.467 204.14C243.532 203.48 243.147 202.875 243.147 201.665V198.035C243.147 197.1 243.587 196.66 244.522 196.66H245.127C246.062 196.66 246.502 197.1 246.502 198.035V204.36H254.037V197.32C254.037 192.535 251.672 190.17 246.887 190.17H242.707C237.922 190.17 235.557 192.535 235.557 197.32V203.425C235.557 206.175 236.272 207.77 238.637 209.475L245.237 214.37C246.172 215.03 246.557 215.635 246.557 216.845V221.465C246.557 222.4 246.117 222.84 245.182 222.84H244.467C243.532 222.84 243.092 222.4 243.092 221.465V213.985H235.557V222.18C235.557 226.965 237.922 229.33 242.707 229.33H246.997C251.782 229.33 254.147 226.965 254.147 222.18V215.085C254.147 212.225 253.432 210.74 251.067 209.035Z" fill="#CA8923"/>
<path d="M38.5445 257.275V261.525C38.5445 261.95 38.3445 262.15 37.9195 262.15H37.4695C37.0445 262.15 36.8445 261.95 36.8445 261.525V250.975C36.8445 250.55 37.0445 250.35 37.4695 250.35H37.8695C38.2945 250.35 38.4945 250.55 38.4945 250.975V254.7H41.9445V250.6C41.9445 248.425 40.8695 247.35 38.6945 247.35H36.5945C34.4195 247.35 33.3445 248.425 33.3445 250.6V261.9C33.3445 264.075 34.4195 265.15 36.5945 265.15H38.7445C40.9195 265.15 41.9945 264.075 41.9945 261.9V257.275H38.5445ZM43.6602 247.5V265H49.6852V261.875H47.1602V247.5H43.6602ZM54.6432 247.5H51.1432V265H54.6432V247.5ZM56.4277 247.5V265H62.9777V261.875H59.9277V257.675H62.8027V254.55H59.9277V250.625H62.9277V247.5H56.4277ZM73.1438 265V247.5H70.1188L70.1438 251.125L70.1938 256.175L68.1688 247.5H64.5938V265H67.6188L67.5688 259.925L67.5188 255.475L69.7438 265H73.1438ZM80.1338 265V250.625H82.2588V247.5H74.5088V250.625H76.6338V265H80.1338ZM83.6357 247.5V265H90.1857V261.875H87.1357V257.675H90.0107V254.55H87.1357V250.625H90.1357V247.5H83.6357ZM98.6785 255.925L95.6785 253.7C95.2535 253.4 95.0785 253.125 95.0785 252.575V250.925C95.0785 250.5 95.2785 250.3 95.7035 250.3H95.9785C96.4035 250.3 96.6035 250.5 96.6035 250.925V253.8H100.029V250.6C100.029 248.425 98.9535 247.35 96.7785 247.35H94.8785C92.7035 247.35 91.6285 248.425 91.6285 250.6V253.375C91.6285 254.625 91.9535 255.35 93.0285 256.125L96.0285 258.35C96.4535 258.65 96.6285 258.925 96.6285 259.475V261.575C96.6285 262 96.4285 262.2 96.0035 262.2H95.6785C95.2535 262.2 95.0535 262 95.0535 261.575V258.175H91.6285V261.9C91.6285 264.075 92.7035 265.15 94.8785 265.15H96.8285C99.0035 265.15 100.079 264.075 100.079 261.9V258.675C100.079 257.375 99.7535 256.7 98.6785 255.925ZM110.878 264.325C112.228 264.325 112.828 263.625 112.828 262.2V253.175C112.828 250.25 111.578 249.075 108.928 249.075H105.578C102.928 249.075 101.678 250.25 101.678 253.175V262.775C101.678 265.7 102.928 266.875 105.578 266.875H111.878V266.025H105.578C103.528 266.025 102.578 265.125 102.578 262.775V253.175C102.578 250.825 103.528 249.925 105.578 249.925H108.928C110.978 249.925 111.928 250.825 111.928 253.175V262.2C111.928 263.15 111.578 263.475 110.928 263.475H110.853C110.478 263.475 110.328 263.325 110.328 262.95V253.825C110.328 252.325 109.528 251.575 107.953 251.575H106.628C105.028 251.575 104.203 252.325 104.203 253.825V255.875H106.728V254.275C106.728 254 106.853 253.875 107.128 253.875H107.328C107.603 253.875 107.728 254 107.728 254.275V256.3L105.728 256.975C104.503 257.4 104.078 258.1 104.078 259.525V262.325C104.078 263.65 104.803 264.35 105.903 264.35C106.728 264.35 107.228 264.05 107.903 263.4C108.278 264.025 108.853 264.325 109.728 264.325H110.878ZM107.178 261.9C106.778 261.9 106.603 261.75 106.603 261.4V259.7C106.603 259.275 106.728 259.025 107.078 258.875L107.728 258.6V261.8C107.553 261.85 107.453 261.9 107.178 261.9ZM121.578 255.925L118.578 253.7C118.153 253.4 117.978 253.125 117.978 252.575V250.925C117.978 250.5 118.178 250.3 118.603 250.3H118.878C119.303 250.3 119.503 250.5 119.503 250.925V253.8H122.928V250.6C122.928 248.425 121.853 247.35 119.678 247.35H117.778C115.603 247.35 114.528 248.425 114.528 250.6V253.375C114.528 254.625 114.853 255.35 115.928 256.125L118.928 258.35C119.353 258.65 119.528 258.925 119.528 259.475V261.575C119.528 262 119.328 262.2 118.903 262.2H118.578C118.153 262.2 117.953 262 117.953 261.575V258.175H114.528V261.9C114.528 264.075 115.603 265.15 117.778 265.15H119.728C121.903 265.15 122.978 264.075 122.978 261.9V258.675C122.978 257.375 122.653 256.7 121.578 255.925ZM133.28 265L130.98 247.5H126.205L123.905 265H127.08L127.33 262.45H129.53L129.805 265H133.28ZM128.43 251.775L129.205 259.4H127.655L128.43 251.775ZM139.552 257.275V261.525C139.552 261.95 139.352 262.15 138.927 262.15H138.477C138.052 262.15 137.852 261.95 137.852 261.525V250.975C137.852 250.55 138.052 250.35 138.477 250.35H138.877C139.302 250.35 139.502 250.55 139.502 250.975V254.7H142.952V250.6C142.952 248.425 141.877 247.35 139.702 247.35H137.602C135.427 247.35 134.352 248.425 134.352 250.6V261.9C134.352 264.075 135.427 265.15 137.602 265.15H139.752C141.927 265.15 143.002 264.075 143.002 261.9V257.275H139.552ZM151.618 255.95C152.543 255.6 153.068 254.85 153.068 253.35V250.75C153.068 248.575 151.993 247.5 149.818 247.5H144.668V265H149.868C152.043 265 153.118 263.925 153.118 261.75V258.2C153.118 256.925 152.668 256.25 151.618 255.95ZM149.593 251.125V254.025C149.593 254.45 149.393 254.65 148.968 254.65H148.143V250.5H148.968C149.393 250.5 149.593 250.7 149.593 251.125ZM148.143 257.575H149.018C149.443 257.575 149.643 257.775 149.643 258.2V261.375C149.643 261.8 149.443 262 149.018 262H148.143V257.575ZM154.738 247.5V265H161.288V261.875H158.238V257.675H161.113V254.55H158.238V250.625H161.238V247.5H154.738ZM166.404 258.925H168.029C170.204 258.925 171.279 257.85 171.279 255.675V250.75C171.279 248.575 170.204 247.5 168.029 247.5H162.904V265H166.404V258.925ZM167.779 251.125V255.3C167.779 255.725 167.579 255.925 167.154 255.925H166.404V250.5H167.154C167.579 250.5 167.779 250.7 167.779 251.125ZM180.995 265L178.695 247.5H173.92L171.62 265H174.795L175.045 262.45H177.245L177.52 265H180.995ZM176.145 251.775L176.92 259.4H175.37L176.145 251.775ZM187.16 258.775L190.11 247.5H186.785L185.535 253.45L184.36 247.5H180.71L183.66 259.025V265H187.16V258.775ZM195.263 265H198.563L199.888 253.55V265H203.338V247.5H198.263L197.188 258.1L196.188 247.5H191.138V265H193.938V253.425L195.263 265ZM205.09 247.5V265H211.64V261.875H208.59V257.675H211.465V254.55H208.59V250.625H211.59V247.5H205.09ZM221.806 265V247.5H218.781L218.806 251.125L218.856 256.175L216.831 247.5H213.256V265H216.281L216.231 259.925L216.181 255.475L218.406 265H221.806ZM228.796 265V250.625H230.921V247.5H223.171V250.625H225.296V265H228.796ZM239.126 255.925L236.126 253.7C235.701 253.4 235.526 253.125 235.526 252.575V250.925C235.526 250.5 235.726 250.3 236.151 250.3H236.426C236.851 250.3 237.051 250.5 237.051 250.925V253.8H240.476V250.6C240.476 248.425 239.401 247.35 237.226 247.35H235.326C233.151 247.35 232.076 248.425 232.076 250.6V253.375C232.076 254.625 232.401 255.35 233.476 256.125L236.476 258.35C236.901 258.65 237.076 258.925 237.076 259.475V261.575C237.076 262 236.876 262.2 236.451 262.2H236.126C235.701 262.2 235.501 262 235.501 261.575V258.175H232.076V261.9C232.076 264.075 233.151 265.15 235.326 265.15H237.276C239.451 265.15 240.526 264.075 240.526 261.9V258.675C240.526 257.375 240.201 256.7 239.126 255.925ZM245.15 261.15H241.9V265H245.15V261.15ZM251.876 257.275V261.525C251.876 261.95 251.676 262.15 251.251 262.15H250.801C250.376 262.15 250.176 261.95 250.176 261.525V250.975C250.176 250.55 250.376 250.35 250.801 250.35H251.201C251.626 250.35 251.826 250.55 251.826 250.975V254.7H255.276V250.6C255.276 248.425 254.201 247.35 252.026 247.35H249.926C247.751 247.35 246.676 248.425 246.676 250.6V261.9C246.676 264.075 247.751 265.15 249.926 265.15H252.076C254.251 265.15 255.326 264.075 255.326 261.9V257.275H251.876ZM265.691 261.9V250.6C265.691 248.425 264.616 247.35 262.441 247.35H260.191C258.016 247.35 256.941 248.425 256.941 250.6V261.9C256.941 264.075 258.016 265.15 260.191 265.15H262.441C264.616 265.15 265.691 264.075 265.691 261.9ZM262.191 250.975V261.525C262.191 261.95 261.991 262.15 261.566 262.15H261.066C260.641 262.15 260.441 261.95 260.441 261.525V250.975C260.441 250.55 260.641 250.35 261.066 250.35H261.566C261.991 250.35 262.191 250.55 262.191 250.975ZM271.528 265H274.828L276.153 253.55V265H279.603V247.5H274.528L273.453 258.1L272.453 247.5H267.403V265H270.203V253.425L271.528 265Z" fill="#FFF6D2"/>
<rect x="102.5" y="56.5" width="108" height="108" rx="54" stroke="#FFF6D2" stroke-width="5"/>
<path fill-rule="evenodd" clip-rule="evenodd" d="M132.875 90.8438C129.613 90.8438 126.969 93.4881 126.969 96.75V128.25C126.969 131.512 129.613 134.156 132.875 134.156H180.125C183.387 134.156 186.031 131.512 186.031 128.25V96.75C186.031 93.4881 183.387 90.8438 180.125 90.8438H132.875ZM130.906 97.2947V128.25C130.906 129.337 131.788 130.219 132.875 130.219H180.125C181.212 130.219 182.094 129.337 182.094 128.25V97.2948L163.195 112.293C163.172 112.311 163.149 112.329 163.125 112.346C159.211 115.176 153.789 115.176 149.875 112.346C149.851 112.329 149.828 112.311 149.805 112.293L130.906 97.2947ZM178.927 94.7812H134.073L152.216 109.18C154.74 110.982 158.261 110.982 160.784 109.18L178.927 94.7812Z" fill="#FFF6D2"/>
</svg>
