<svg width="193" height="69" viewBox="0 0 193 69" fill="none" xmlns="http://www.w3.org/2000/svg">
<rect x="1.5" y="1.5" width="190" height="66" rx="33" fill="#10454F" stroke="#CA8923" stroke-width="3"/>
<path d="M163.083 37.6667V40.5556C163.083 40.9386 162.906 41.306 162.59 41.5769C162.274 41.8478 161.845 42 161.398 42H149.602C149.155 42 148.726 41.8478 148.41 41.5769C148.094 41.306 147.917 40.9386 147.917 40.5556V37.6667" stroke="#FFF6D2" stroke-width="2" stroke-linecap="square" stroke-linejoin="round"/>
<path d="M151.926 34.0549L155.537 37.666L159.148 34.0549" stroke="#FFF6D2" stroke-width="2" stroke-linecap="square" stroke-linejoin="round"/>
<path d="M154.499 37.6667C154.499 38.2189 154.947 38.6667 155.499 38.6667C156.052 38.6667 156.499 38.219 156.499 37.6668L154.499 37.6667ZM156.5 26.8334L156.5 25.8334L154.5 25.8333L154.5 26.8333L156.5 26.8334ZM156.499 37.6668L156.5 26.8334L154.5 26.8333L154.499 37.6667L156.499 37.6668Z" fill="#FFF6D2"/>
<path d="M28.068 26.94H33.414C36.01 26.94 37.77 27.732 38.694 29.316C39.1487 30.0787 39.464 30.9073 39.64 31.802C39.816 32.6967 39.904 33.694 39.904 34.794C39.904 35.8793 39.8527 36.796 39.75 37.544C39.6473 38.292 39.4493 39.0253 39.156 39.744C38.8773 40.448 38.5033 41.0273 38.034 41.482C36.9927 42.494 35.4527 43 33.414 43H28.068V26.94ZM33.018 29.25H31.06V40.69H33.018C34.5873 40.69 35.6507 40.1253 36.208 38.996C36.6773 38.0133 36.912 36.6713 36.912 34.97C36.912 33.2687 36.6773 31.9267 36.208 30.944C35.6507 29.8147 34.5873 29.25 33.018 29.25ZM45.6733 39.942C46.0547 40.6753 46.788 41.042 47.8733 41.042C48.9587 41.042 49.692 40.6753 50.0733 39.942C50.4547 39.2087 50.6453 38.1307 50.6453 36.708C50.6453 35.2853 50.4547 34.2073 50.0733 33.474C49.692 32.7407 48.9587 32.374 47.8733 32.374C46.788 32.374 46.0547 32.7407 45.6733 33.474C45.292 34.2073 45.1013 35.2853 45.1013 36.708C45.1013 38.1307 45.292 39.2087 45.6733 39.942ZM53.5933 36.708C53.5933 41.108 51.6867 43.308 47.8733 43.308C44.06 43.308 42.1533 41.108 42.1533 36.708C42.1533 32.308 44.06 30.108 47.8733 30.108C51.6867 30.108 53.5933 32.308 53.5933 36.708ZM60.5849 43H57.8129L54.5789 30.416H57.5489L59.3969 39.04L61.4649 31.516H63.9509L66.0189 39.04L67.8889 30.416H70.8589L67.6469 43H64.8529L62.7189 35.388L60.5849 43ZM75.4527 31.56C76.8314 30.592 78.2394 30.108 79.6767 30.108C81.1287 30.108 82.1774 30.4673 82.8227 31.186C83.4681 31.89 83.7907 32.8653 83.7907 34.112V43H80.8427V34.42C80.8427 33.672 80.7034 33.144 80.4247 32.836C80.1607 32.528 79.6914 32.374 79.0167 32.374C77.9607 32.374 76.9781 32.704 76.0687 33.364V43H73.1207V30.416H74.5067L75.4527 31.56ZM90.6566 43H87.7086V26.456L90.6566 26.06V43ZM97.0425 39.942C97.4238 40.6753 98.1571 41.042 99.2425 41.042C100.328 41.042 101.061 40.6753 101.442 39.942C101.824 39.2087 102.014 38.1307 102.014 36.708C102.014 35.2853 101.824 34.2073 101.442 33.474C101.061 32.7407 100.328 32.374 99.2425 32.374C98.1571 32.374 97.4238 32.7407 97.0425 33.474C96.6611 34.2073 96.4705 35.2853 96.4705 36.708C96.4705 38.1307 96.6611 39.2087 97.0425 39.942ZM104.962 36.708C104.962 41.108 103.056 43.308 99.2425 43.308C95.4291 43.308 93.5225 41.108 93.5225 36.708C93.5225 32.308 95.4291 30.108 99.2425 30.108C103.056 30.108 104.962 32.308 104.962 36.708ZM112.24 30.108C115.437 30.108 117.036 31.5673 117.036 34.486V43H115.122L114.286 41.46C113.113 42.692 111.741 43.308 110.172 43.308C109.057 43.308 108.207 43 107.62 42.384C107.048 41.7533 106.762 40.9173 106.762 39.876C106.762 38.82 107.092 37.9693 107.752 37.324C108.412 36.6787 109.644 36.224 111.448 35.96L114.088 35.564V34.508C114.088 33.0853 113.413 32.374 112.064 32.374C110.788 32.374 110.033 33.0193 109.798 34.31L107.51 33.628C108.067 31.2813 109.644 30.108 112.24 30.108ZM111.118 41.152C112.115 41.152 113.105 40.6607 114.088 39.678V37.412L111.976 37.786C111.023 37.9473 110.392 38.204 110.084 38.556C109.776 38.908 109.622 39.304 109.622 39.744C109.622 40.184 109.754 40.5287 110.018 40.778C110.282 41.0273 110.649 41.152 111.118 41.152ZM123.915 43.308C121.084 43.308 119.669 41.108 119.669 36.708C119.669 32.308 121.385 30.108 124.817 30.108C125.785 30.108 126.738 30.284 127.677 30.636V26.456L130.625 26.236V43H128.711L127.897 41.438C126.68 42.6847 125.352 43.308 123.915 43.308ZM125.081 41.042C125.99 41.042 126.856 40.5727 127.677 39.634V32.814C126.958 32.5207 126.254 32.374 125.565 32.374C124.509 32.374 123.754 32.7407 123.299 33.474C122.844 34.2073 122.617 35.2853 122.617 36.708C122.617 39.5973 123.438 41.042 125.081 41.042Z" fill="#FFF7D2"/>
</svg>
