<svg width="192" height="59" viewBox="0 0 192 59" fill="none" xmlns="http://www.w3.org/2000/svg">
<g clip-path="url(#clip0_4906_32411)">
<path d="M184.34 1.32C185.956 1.32 187.506 1.9613 188.65 3.10311C189.794 4.24492 190.437 5.79391 190.44 7.41V50.9C190.437 52.517 189.794 54.067 188.65 55.2104C187.507 56.3538 185.957 56.9974 184.34 57H7.41C5.79391 56.9974 4.24492 56.3535 3.10311 55.2098C1.9613 54.0661 1.32 52.5161 1.32 50.9V7.41C1.32 5.79483 1.96162 4.24582 3.10372 3.10372C4.24582 1.96162 5.79483 1.32 7.41 1.32H184.34ZM184.34 0H7.41C5.44475 0 3.55998 0.780694 2.17034 2.17034C0.780694 3.55998 0 5.44475 0 7.41L0 50.9C0 52.8653 0.780694 54.75 2.17034 56.1397C3.55998 57.5293 5.44475 58.31 7.41 58.31H184.34C185.313 58.3113 186.278 58.1205 187.177 57.7486C188.077 57.3767 188.894 56.8309 189.583 56.1426C190.271 55.4543 190.817 54.6369 191.189 53.7372C191.561 52.8376 191.751 51.8735 191.75 50.9V7.41C191.75 5.44475 190.969 3.55998 189.58 2.17034C188.19 0.780694 186.305 0 184.34 0Z" fill="#10454F"/>
<path d="M62.8401 35.23H65.5201V41.29C64.6987 41.9275 63.7711 42.415 62.7801 42.73C61.7387 43.0605 60.6527 43.2291 59.5601 43.23C58.0986 43.2527 56.6546 42.9089 55.3601 42.23C54.1477 41.5794 53.135 40.6116 52.4301 39.43C51.7367 38.2109 51.3721 36.8325 51.3721 35.43C51.3721 34.0275 51.7367 32.649 52.4301 31.43C53.1361 30.2457 54.1529 29.2773 55.3701 28.63C56.6754 27.951 58.129 27.6073 59.6001 27.63C60.7899 27.6134 61.9717 27.8274 63.0801 28.26C64.0923 28.6572 64.9942 29.2916 65.7101 30.11L63.9301 31.85C63.3862 31.2883 62.7328 30.8441 62.0104 30.5448C61.288 30.2455 60.512 30.0975 59.7301 30.11C58.7363 30.0958 57.7542 30.3258 56.8701 30.78C56.0531 31.2155 55.3767 31.8745 54.9201 32.68C54.4394 33.5266 54.1942 34.4865 54.2101 35.46C54.198 36.4203 54.4431 37.3664 54.9201 38.2C55.3804 39.0052 56.0556 39.6665 56.8701 40.11C57.7396 40.5868 58.7186 40.8281 59.7101 40.81C60.8079 40.8314 61.8906 40.5513 62.8401 40V35.23Z" fill="#10454F"/>
<path d="M71 42.4007C70.0797 41.9144 69.3141 41.18 68.79 40.2807C68.2545 39.3438 67.9815 38.2797 68 37.2007C67.9807 36.1279 68.2538 35.0701 68.79 34.1407C69.3129 33.2354 70.0783 32.4942 71 32.0007C71.9872 31.5007 73.0783 31.2402 74.185 31.2402C75.2916 31.2402 76.3827 31.5007 77.37 32.0007C78.2868 32.4836 79.0492 33.2148 79.57 34.1107C80.1092 35.0393 80.3858 36.097 80.37 37.1707C80.3854 38.2507 80.109 39.3147 79.57 40.2507C79.0525 41.1516 78.2895 41.8869 77.37 42.3707C76.3827 42.8706 75.2916 43.1312 74.185 43.1312C73.0783 43.1312 71.9872 42.8706 71 42.3707V42.4007ZM76.65 39.8307C77.2858 39.1021 77.6362 38.1678 77.6362 37.2007C77.6362 36.2336 77.2858 35.2993 76.65 34.5707C75.9838 33.9136 75.0857 33.5452 74.15 33.5452C73.2143 33.5452 72.3162 33.9136 71.65 34.5707C71.0295 35.3066 70.6892 36.2381 70.6892 37.2007C70.6892 38.1633 71.0295 39.0948 71.65 39.8307C72.3162 40.4878 73.2143 40.8562 74.15 40.8562C75.0857 40.8562 75.9838 40.4878 76.65 39.8307Z" fill="#10454F"/>
<path d="M85 42.4007C84.0797 41.9144 83.3141 41.18 82.79 40.2807C82.2545 39.3438 81.9815 38.2797 82 37.2007C81.9807 36.1279 82.2538 35.0701 82.79 34.1407C83.3129 33.2354 84.0783 32.4942 85 32.0007C85.9872 31.5007 87.0783 31.2402 88.185 31.2402C89.2916 31.2402 90.3827 31.5007 91.37 32.0007C92.2877 32.486 93.0527 33.2164 93.58 34.1107C94.1162 35.0401 94.3893 36.0979 94.37 37.1707C94.3884 38.2497 94.1155 39.3138 93.58 40.2507C93.0559 41.15 92.2903 41.8844 91.37 42.3707C90.3827 42.8706 89.2916 43.1312 88.185 43.1312C87.0783 43.1312 85.9872 42.8706 85 42.3707V42.4007ZM90.65 39.8307C91.2858 39.1021 91.6362 38.1678 91.6362 37.2007C91.6362 36.2336 91.2858 35.2993 90.65 34.5707C90.3274 34.2427 89.9408 33.9846 89.5141 33.8125C89.0874 33.6405 88.6299 33.5582 88.17 33.5707C87.713 33.5573 87.2582 33.6393 86.8346 33.8115C86.411 33.9837 86.028 34.2422 85.71 34.5707C85.0838 35.3039 84.7399 36.2365 84.7399 37.2007C84.7399 38.1649 85.0838 39.0975 85.71 39.8307C86.0265 40.1612 86.4093 40.4211 86.8332 40.5934C87.2571 40.7657 87.7126 40.8466 88.17 40.8307C88.6368 40.8513 89.1027 40.7729 89.5371 40.6005C89.9714 40.4282 90.3643 40.1658 90.69 39.8307H90.65Z" fill="#10454F"/>
<path d="M108.54 31.3991V41.2491C108.54 45.3424 106.454 47.3857 102.28 47.3791C101.211 47.4025 100.144 47.2746 99.1103 46.9991C98.2085 46.7673 97.3643 46.352 96.6303 45.7791L97.8503 43.7791C98.4194 44.2337 99.0715 44.5733 99.7703 44.7791C100.531 45.0331 101.328 45.1615 102.13 45.1591C103.141 45.2465 104.147 44.9341 104.93 44.2891C105.253 43.932 105.499 43.5128 105.654 43.0571C105.809 42.6014 105.869 42.1188 105.83 41.6391V41.0291C105.358 41.5392 104.777 41.9358 104.13 42.1891C103.428 42.4557 102.682 42.588 101.93 42.5791C100.887 42.5928 99.8566 42.349 98.9303 41.8691C98.0558 41.4137 97.3278 40.7204 96.8303 39.8691C96.3189 38.9773 96.0498 37.9671 96.0498 36.9391C96.0498 35.911 96.3189 34.9009 96.8303 34.0091C97.3286 33.1585 98.0564 32.4653 98.9303 32.0091C99.8599 31.5403 100.889 31.3036 101.93 31.3191C102.716 31.3107 103.496 31.4497 104.23 31.7291C104.912 31.9788 105.52 32.3947 106 32.9391V31.3991H108.54ZM104.88 39.2591C105.209 38.9537 105.468 38.5814 105.64 38.1674C105.813 37.7535 105.895 37.3073 105.88 36.8591C105.896 36.415 105.815 35.9729 105.642 35.5635C105.47 35.1541 105.21 34.7874 104.88 34.4891C104.189 33.8649 103.281 33.5349 102.35 33.5691C101.41 33.5313 100.492 33.8613 99.7903 34.4891C99.461 34.7874 99.2009 35.1541 99.0282 35.5635C98.8555 35.9729 98.7743 36.415 98.7903 36.8591C98.7759 37.3073 98.8577 37.7535 99.0302 38.1674C99.2027 38.5814 99.4619 38.9537 99.7903 39.2591C100.492 39.8869 101.41 40.2169 102.35 40.1791C103.281 40.2132 104.189 39.8832 104.88 39.2591Z" fill="#10454F"/>
<path d="M112.11 26.8809H114.83V43.0009H112.11V26.8809Z" fill="#10454F"/>
<path d="M129.26 38.0693H120.15C120.295 38.8715 120.742 39.5875 121.4 40.0693C122.132 40.5864 123.014 40.8497 123.91 40.8193C124.495 40.8382 125.078 40.7361 125.622 40.5192C126.165 40.3024 126.658 39.9756 127.07 39.5593L128.52 41.2293C127.983 41.8602 127.295 42.3452 126.52 42.6393C125.542 42.9986 124.502 43.1589 123.462 43.1109C122.421 43.0628 121.401 42.8072 120.46 42.3593C119.522 41.8832 118.741 41.1472 118.21 40.2393C117.692 39.3008 117.42 38.2463 117.42 37.1743C117.42 36.1022 117.692 35.0477 118.21 34.1093C118.709 33.2173 119.451 32.4855 120.35 31.9993C121.297 31.4819 122.361 31.2199 123.44 31.2393C124.488 31.2265 125.521 31.4849 126.44 31.9893C127.324 32.4791 128.049 33.2111 128.53 34.0993C129.046 35.0642 129.304 36.1456 129.28 37.2393C129.31 37.4593 129.29 37.7293 129.26 38.0693ZM121.26 34.2093C120.652 34.7371 120.261 35.4706 120.16 36.2693H126.75C126.658 35.4722 126.269 34.739 125.662 34.2148C125.054 33.6907 124.272 33.4139 123.47 33.4393C122.654 33.4109 121.856 33.6851 121.23 34.2093H121.26Z" fill="#10454F"/>
<path d="M147.88 28.4391C148.799 28.8242 149.583 29.4754 150.13 30.3091C150.647 31.1825 150.92 32.179 150.92 33.1941C150.92 34.2093 150.647 35.2058 150.13 36.0791C149.594 36.9343 148.809 37.6045 147.88 37.9991C146.793 38.4619 145.62 38.687 144.44 38.6591H141V42.9991H138.18V27.7891H144.44C145.619 27.7633 146.791 27.9847 147.88 28.4391V28.4391ZM147.11 35.4391C147.413 35.1505 147.655 34.803 147.821 34.418C147.986 34.0329 148.071 33.6182 148.071 33.1991C148.071 32.7801 147.986 32.3654 147.821 31.9803C147.655 31.5952 147.413 31.2478 147.11 30.9591C146.293 30.3858 145.305 30.1104 144.31 30.1791H141V36.1791H144.31C145.3 36.2595 146.288 35.9984 147.11 35.4391V35.4391Z" fill="#10454F"/>
<path d="M153.7 26.8809H156.42V43.0009H153.7V26.8809Z" fill="#10454F"/>
<path d="M168.34 32.5006C168.82 32.9829 169.19 33.5632 169.425 34.2018C169.66 34.8405 169.754 35.5223 169.7 36.2006V43.0006H167.14V41.6006C166.785 42.117 166.289 42.5199 165.71 42.7606C164.259 43.32 162.651 43.32 161.2 42.7606C160.59 42.4981 160.066 42.0682 159.69 41.5206C159.333 40.9892 159.148 40.3608 159.16 39.7206C159.143 39.2406 159.239 38.7632 159.44 38.3271C159.642 37.8911 159.943 37.5086 160.32 37.2106C161.4 36.4953 162.689 36.1642 163.98 36.2706H166.98V36.0906C167.002 35.7446 166.948 35.3979 166.822 35.0749C166.696 34.7519 166.501 34.4603 166.25 34.2206C165.635 33.7447 164.866 33.5132 164.09 33.5706C163.439 33.5709 162.791 33.6721 162.17 33.8706C161.588 34.0514 161.046 34.3397 160.57 34.7206L159.5 32.7206C160.16 32.2321 160.907 31.8725 161.7 31.6606C162.585 31.4084 163.501 31.2838 164.42 31.2906C165.833 31.1866 167.232 31.6186 168.34 32.5006V32.5006ZM165.86 40.7106C166.389 40.42 166.794 39.9474 167 39.3806V38.0006H164.2C162.63 38.0006 161.85 38.5106 161.85 39.5406C161.843 39.7708 161.893 39.9991 161.996 40.2051C162.099 40.411 162.252 40.5882 162.44 40.7206C162.923 41.0355 163.495 41.1863 164.07 41.1506C164.696 41.1705 165.315 41.0183 165.86 40.7106V40.7106Z" fill="#10454F"/>
<path d="M183.83 31.4004L178.4 43.9404C178.04 44.9836 177.4 45.9074 176.55 46.6104C175.775 47.1367 174.855 47.4061 173.92 47.3804C173.335 47.3761 172.755 47.2816 172.2 47.1004C171.685 46.94 171.211 46.6706 170.81 46.3104L171.9 44.3104C172.165 44.5646 172.478 44.7649 172.82 44.9004C173.161 45.0459 173.528 45.1207 173.9 45.1204C174.323 45.1344 174.74 45.004 175.08 44.7504C175.458 44.4088 175.752 43.9844 175.94 43.5104L176.14 43.0504L171.07 31.4004H173.9L177.55 40.0004L181.22 31.4104L183.83 31.4004Z" fill="#10454F"/>
<path d="M46.1401 28.4092L38.8301 24.1992L32.8301 30.0092L38.3201 35.3092L46.1401 30.7992C46.3498 30.6781 46.524 30.5039 46.6451 30.2941C46.7661 30.0844 46.8299 29.8464 46.8299 29.6042C46.8299 29.362 46.7661 29.1241 46.6451 28.9143C46.524 28.7046 46.3498 28.5304 46.1401 28.4092V28.4092Z" fill="#10454F"/>
<path d="M37.5904 23.4805L29.5504 18.8405L11.9404 9.81055L31.8404 29.0505L37.5904 23.4805Z" fill="#10454F"/>
<path d="M12.2305 49.9209L29.5905 40.3509L37.0805 36.0309L31.8405 30.9609L12.2305 49.9209Z" fill="#10454F"/>
<path d="M10.7602 10.5898L10.7402 49.4398L30.8402 29.9998L10.7602 10.5898Z" fill="#10454F"/>
<path d="M52.5654 9.08802H55.8554C56.4714 9.08802 57.0874 9.19068 57.7034 9.39602C58.3288 9.60135 58.8888 9.91402 59.3834 10.334C59.8874 10.7447 60.2934 11.2627 60.6014 11.888C60.9094 12.504 61.0634 13.2227 61.0634 14.044C61.0634 14.8747 60.9094 15.598 60.6014 16.214C60.2934 16.83 59.8874 17.348 59.3834 17.768C58.8888 18.1787 58.3288 18.4867 57.7034 18.692C57.0874 18.8973 56.4714 19 55.8554 19H52.5654V9.08802ZM53.5734 18.104H55.5754C56.3221 18.104 56.9708 17.9873 57.5214 17.754C58.0814 17.5207 58.5434 17.2173 58.9074 16.844C59.2714 16.4613 59.5421 16.0273 59.7194 15.542C59.9061 15.0567 59.9994 14.5573 59.9994 14.044C59.9994 13.5307 59.9061 13.0313 59.7194 12.546C59.5421 12.0607 59.2714 11.6313 58.9074 11.258C58.5434 10.8753 58.0814 10.5673 57.5214 10.334C56.9708 10.1007 56.3221 9.98402 55.5754 9.98402H53.5734V18.104Z" fill="#10454F"/>
<path d="M64.5711 19H63.6191V12.448H64.5711V19ZM64.7671 9.92802C64.7671 10.124 64.6971 10.2873 64.5571 10.418C64.4171 10.5393 64.2631 10.6 64.0951 10.6C63.9271 10.6 63.7731 10.5393 63.6331 10.418C63.4931 10.2873 63.4231 10.124 63.4231 9.92802C63.4231 9.73202 63.4931 9.57335 63.6331 9.45202C63.7731 9.32135 63.9271 9.25602 64.0951 9.25602C64.2631 9.25602 64.4171 9.32135 64.5571 9.45202C64.6971 9.57335 64.7671 9.73202 64.7671 9.92802Z" fill="#10454F"/>
<path d="M71.0911 14.002C70.9511 13.7313 70.7365 13.512 70.4471 13.344C70.1671 13.1667 69.8451 13.078 69.4811 13.078C69.3131 13.078 69.1451 13.0967 68.9771 13.134C68.8091 13.1713 68.6598 13.232 68.5291 13.316C68.3985 13.4 68.2911 13.5073 68.2071 13.638C68.1325 13.7687 68.0951 13.9227 68.0951 14.1C68.0951 14.408 68.2211 14.646 68.4731 14.814C68.7251 14.9727 69.1218 15.108 69.6631 15.22C70.4378 15.3787 71.0071 15.612 71.3711 15.92C71.7445 16.2187 71.9311 16.6247 71.9311 17.138C71.9311 17.5114 71.8565 17.8287 71.7071 18.09C71.5671 18.342 71.3805 18.552 71.1471 18.72C70.9138 18.8787 70.6478 18.9907 70.3491 19.056C70.0598 19.1307 69.7658 19.168 69.4671 19.168C68.9725 19.168 68.4918 19.0654 68.0251 18.86C67.5585 18.6547 67.1758 18.3327 66.8771 17.894L67.6331 17.334C67.8011 17.6233 68.0485 17.866 68.3751 18.062C68.7018 18.258 69.0611 18.356 69.4531 18.356C69.6585 18.356 69.8545 18.3373 70.0411 18.3C70.2278 18.2627 70.3911 18.1973 70.5311 18.104C70.6711 18.0107 70.7831 17.894 70.8671 17.754C70.9511 17.6047 70.9931 17.4227 70.9931 17.208C70.9931 16.8627 70.8251 16.606 70.4891 16.438C70.1625 16.2607 69.6865 16.0973 69.0611 15.948C68.8651 15.9013 68.6551 15.8454 68.4311 15.78C68.2165 15.7054 68.0158 15.6027 67.8291 15.472C67.6425 15.332 67.4885 15.1593 67.3671 14.954C67.2458 14.7487 67.1851 14.492 67.1851 14.184C67.1851 13.848 67.2505 13.5633 67.3811 13.33C67.5118 13.0873 67.6845 12.8913 67.8991 12.742C68.1231 12.5833 68.3751 12.4667 68.6551 12.392C68.9351 12.3173 69.2245 12.28 69.5231 12.28C69.9805 12.28 70.4238 12.3827 70.8531 12.588C71.2825 12.7933 71.6045 13.0827 71.8191 13.456L71.0911 14.002Z" fill="#10454F"/>
<path d="M75.2778 22.36H74.3258V12.448H75.2778V13.582H75.3198C75.5905 13.1527 75.9498 12.8307 76.3978 12.616C76.8552 12.392 77.3172 12.28 77.7838 12.28C78.2972 12.28 78.7592 12.3687 79.1698 12.546C79.5898 12.7233 79.9445 12.966 80.2338 13.274C80.5325 13.582 80.7612 13.946 80.9198 14.366C81.0878 14.786 81.1718 15.2387 81.1718 15.724C81.1718 16.2093 81.0878 16.662 80.9198 17.082C80.7612 17.502 80.5325 17.866 80.2338 18.174C79.9445 18.482 79.5898 18.7247 79.1698 18.902C78.7592 19.0793 78.2972 19.168 77.7838 19.168C77.3172 19.168 76.8552 19.0607 76.3978 18.846C75.9498 18.622 75.5905 18.3047 75.3198 17.894H75.2778V22.36ZM80.1638 15.724C80.1638 15.36 80.1078 15.0193 79.9958 14.702C79.8838 14.3753 79.7205 14.0953 79.5058 13.862C79.3005 13.6193 79.0438 13.428 78.7358 13.288C78.4278 13.148 78.0778 13.078 77.6858 13.078C77.3218 13.078 76.9858 13.148 76.6778 13.288C76.3698 13.4187 76.1038 13.6053 75.8798 13.848C75.6558 14.0813 75.4785 14.3613 75.3478 14.688C75.2265 15.0053 75.1658 15.3507 75.1658 15.724C75.1658 16.0973 75.2265 16.4473 75.3478 16.774C75.4785 17.0913 75.6558 17.3667 75.8798 17.6C76.1038 17.8333 76.3698 18.02 76.6778 18.16C76.9858 18.2907 77.3218 18.356 77.6858 18.356C78.0778 18.356 78.4278 18.2907 78.7358 18.16C79.0438 18.02 79.3005 17.8333 79.5058 17.6C79.7205 17.3573 79.8838 17.0773 79.9958 16.76C80.1078 16.4333 80.1638 16.088 80.1638 15.724Z" fill="#10454F"/>
<path d="M90.2226 15.724C90.2226 16.2187 90.1339 16.676 89.9566 17.096C89.7886 17.516 89.5506 17.88 89.2426 18.188C88.9346 18.496 88.5659 18.7387 88.1366 18.916C87.7072 19.084 87.2359 19.168 86.7226 19.168C86.2186 19.168 85.7519 19.084 85.3226 18.916C84.8932 18.7387 84.5246 18.496 84.2166 18.188C83.9086 17.88 83.6659 17.516 83.4886 17.096C83.3206 16.676 83.2366 16.2187 83.2366 15.724C83.2366 15.2293 83.3206 14.772 83.4886 14.352C83.6659 13.932 83.9086 13.568 84.2166 13.26C84.5246 12.952 84.8932 12.714 85.3226 12.546C85.7519 12.3687 86.2186 12.28 86.7226 12.28C87.2359 12.28 87.7072 12.3687 88.1366 12.546C88.5659 12.714 88.9346 12.952 89.2426 13.26C89.5506 13.568 89.7886 13.932 89.9566 14.352C90.1339 14.772 90.2226 15.2293 90.2226 15.724ZM89.2146 15.724C89.2146 15.36 89.1539 15.0193 89.0326 14.702C88.9206 14.3753 88.7572 14.0953 88.5426 13.862C88.3279 13.6193 88.0666 13.428 87.7586 13.288C87.4506 13.148 87.1052 13.078 86.7226 13.078C86.3399 13.078 85.9946 13.148 85.6866 13.288C85.3879 13.428 85.1312 13.6193 84.9166 13.862C84.7019 14.0953 84.5339 14.3753 84.4126 14.702C84.3006 15.0193 84.2446 15.36 84.2446 15.724C84.2446 16.088 84.3006 16.4333 84.4126 16.76C84.5339 17.0773 84.7019 17.3573 84.9166 17.6C85.1312 17.8333 85.3879 18.02 85.6866 18.16C85.9946 18.2907 86.3399 18.356 86.7226 18.356C87.1052 18.356 87.4506 18.2907 87.7586 18.16C88.0666 18.02 88.3279 17.8333 88.5426 17.6C88.7572 17.3573 88.9206 17.0773 89.0326 16.76C89.1539 16.4333 89.2146 16.088 89.2146 15.724Z" fill="#10454F"/>
<path d="M93.6251 12.448C93.6438 12.6253 93.6578 12.8213 93.6671 13.036C93.6765 13.2507 93.6811 13.428 93.6811 13.568H93.7091C93.8958 13.1853 94.1991 12.8773 94.6191 12.644C95.0391 12.4013 95.4825 12.28 95.9491 12.28C96.7798 12.28 97.4005 12.5273 97.8111 13.022C98.2311 13.5167 98.4411 14.17 98.4411 14.982V19H97.4891V15.374C97.4891 15.0287 97.4611 14.716 97.4051 14.436C97.3491 14.156 97.2511 13.918 97.1111 13.722C96.9805 13.5167 96.7985 13.358 96.5651 13.246C96.3411 13.134 96.0565 13.078 95.7111 13.078C95.4591 13.078 95.2118 13.1293 94.9691 13.232C94.7358 13.3347 94.5258 13.4933 94.3391 13.708C94.1525 13.9133 94.0031 14.1794 93.8911 14.506C93.7791 14.8234 93.7231 15.2013 93.7231 15.64V19H92.7711V13.89C92.7711 13.7127 92.7665 13.484 92.7571 13.204C92.7478 12.924 92.7338 12.672 92.7151 12.448H93.6251Z" fill="#10454F"/>
<path d="M102.372 19H101.42V12.448H102.372V19ZM102.568 9.92802C102.568 10.124 102.498 10.2873 102.358 10.418C102.218 10.5393 102.064 10.6 101.896 10.6C101.728 10.6 101.574 10.5393 101.434 10.418C101.294 10.2873 101.224 10.124 101.224 9.92802C101.224 9.73202 101.294 9.57335 101.434 9.45202C101.574 9.32135 101.728 9.25602 101.896 9.25602C102.064 9.25602 102.218 9.32135 102.358 9.45202C102.498 9.57335 102.568 9.73202 102.568 9.92802Z" fill="#10454F"/>
<path d="M106.386 17.894V19H105.434V8.41602H106.386V13.582H106.414C106.694 13.1527 107.058 12.8307 107.506 12.616C107.954 12.392 108.416 12.28 108.892 12.28C109.405 12.28 109.867 12.3687 110.278 12.546C110.698 12.7233 111.053 12.966 111.342 13.274C111.641 13.582 111.869 13.946 112.028 14.366C112.196 14.786 112.28 15.2387 112.28 15.724C112.28 16.2093 112.196 16.662 112.028 17.082C111.869 17.502 111.641 17.866 111.342 18.174C111.053 18.482 110.698 18.7247 110.278 18.902C109.867 19.0793 109.405 19.168 108.892 19.168C108.416 19.168 107.954 19.0607 107.506 18.846C107.058 18.6314 106.694 18.314 106.414 17.894H106.386ZM111.272 15.724C111.272 15.36 111.216 15.0193 111.104 14.702C110.992 14.3753 110.829 14.0953 110.614 13.862C110.409 13.6193 110.152 13.428 109.844 13.288C109.536 13.148 109.186 13.078 108.794 13.078C108.43 13.078 108.094 13.148 107.786 13.288C107.478 13.4187 107.212 13.6053 106.988 13.848C106.764 14.0813 106.587 14.3613 106.456 14.688C106.335 15.0053 106.274 15.3507 106.274 15.724C106.274 16.0973 106.335 16.4473 106.456 16.774C106.587 17.0913 106.764 17.3667 106.988 17.6C107.212 17.8333 107.478 18.02 107.786 18.16C108.094 18.2907 108.43 18.356 108.794 18.356C109.186 18.356 109.536 18.2907 109.844 18.16C110.152 18.02 110.409 17.8333 110.614 17.6C110.829 17.3573 110.992 17.0773 111.104 16.76C111.216 16.4333 111.272 16.088 111.272 15.724Z" fill="#10454F"/>
<path d="M115.8 19H114.848V8.41602H115.8V19Z" fill="#10454F"/>
<path d="M123.845 15.22C123.817 14.604 123.617 14.0953 123.243 13.694C122.879 13.2833 122.357 13.078 121.675 13.078C121.358 13.078 121.064 13.1387 120.793 13.26C120.523 13.372 120.285 13.5307 120.079 13.736C119.874 13.932 119.711 14.1607 119.589 14.422C119.468 14.674 119.398 14.94 119.379 15.22H123.845ZM124.811 15.528C124.811 15.5933 124.811 15.6633 124.811 15.738C124.811 15.8127 124.807 15.892 124.797 15.976H119.365C119.375 16.3027 119.44 16.6107 119.561 16.9C119.683 17.1893 119.851 17.4413 120.065 17.656C120.28 17.8707 120.532 18.0433 120.821 18.174C121.111 18.2953 121.423 18.356 121.759 18.356C122.254 18.356 122.679 18.244 123.033 18.02C123.397 17.7867 123.673 17.5207 123.859 17.222L124.573 17.782C124.181 18.2767 123.747 18.6314 123.271 18.846C122.805 19.0607 122.301 19.168 121.759 19.168C121.274 19.168 120.821 19.084 120.401 18.916C119.991 18.7387 119.636 18.496 119.337 18.188C119.039 17.88 118.801 17.516 118.623 17.096C118.455 16.676 118.371 16.2187 118.371 15.724C118.371 15.2293 118.455 14.772 118.623 14.352C118.791 13.932 119.025 13.568 119.323 13.26C119.622 12.952 119.972 12.714 120.373 12.546C120.775 12.3687 121.209 12.28 121.675 12.28C122.189 12.28 122.641 12.3687 123.033 12.546C123.425 12.714 123.752 12.9473 124.013 13.246C124.275 13.5353 124.471 13.876 124.601 14.268C124.741 14.66 124.811 15.08 124.811 15.528Z" fill="#10454F"/>
<path d="M136.357 15.22C136.329 14.604 136.128 14.0953 135.755 13.694C135.391 13.2833 134.868 13.078 134.187 13.078C133.87 13.078 133.576 13.1387 133.305 13.26C133.034 13.372 132.796 13.5307 132.591 13.736C132.386 13.932 132.222 14.1607 132.101 14.422C131.98 14.674 131.91 14.94 131.891 15.22H136.357ZM137.323 15.528C137.323 15.5933 137.323 15.6633 137.323 15.738C137.323 15.8127 137.318 15.892 137.309 15.976H131.877C131.886 16.3027 131.952 16.6107 132.073 16.9C132.194 17.1893 132.362 17.4413 132.577 17.656C132.792 17.8707 133.044 18.0433 133.333 18.174C133.622 18.2953 133.935 18.356 134.271 18.356C134.766 18.356 135.19 18.244 135.545 18.02C135.909 17.7867 136.184 17.5207 136.371 17.222L137.085 17.782C136.693 18.2767 136.259 18.6314 135.783 18.846C135.316 19.0607 134.812 19.168 134.271 19.168C133.786 19.168 133.333 19.084 132.913 18.916C132.502 18.7387 132.148 18.496 131.849 18.188C131.55 17.88 131.312 17.516 131.135 17.096C130.967 16.676 130.883 16.2187 130.883 15.724C130.883 15.2293 130.967 14.772 131.135 14.352C131.303 13.932 131.536 13.568 131.835 13.26C132.134 12.952 132.484 12.714 132.885 12.546C133.286 12.3687 133.72 12.28 134.187 12.28C134.7 12.28 135.153 12.3687 135.545 12.546C135.937 12.714 136.264 12.9473 136.525 13.246C136.786 13.5353 136.982 13.876 137.113 14.268C137.253 14.66 137.323 15.08 137.323 15.528Z" fill="#10454F"/>
<path d="M140.725 12.448C140.743 12.6253 140.757 12.8213 140.767 13.036C140.776 13.2507 140.781 13.428 140.781 13.568H140.809C140.995 13.1853 141.299 12.8773 141.719 12.644C142.139 12.4013 142.582 12.28 143.049 12.28C143.879 12.28 144.5 12.5273 144.911 13.022C145.331 13.5167 145.541 14.17 145.541 14.982V19H144.589V15.374C144.589 15.0287 144.561 14.716 144.505 14.436C144.449 14.156 144.351 13.918 144.211 13.722C144.08 13.5167 143.898 13.358 143.665 13.246C143.441 13.134 143.156 13.078 142.811 13.078C142.559 13.078 142.311 13.1293 142.069 13.232C141.835 13.3347 141.625 13.4933 141.439 13.708C141.252 13.9133 141.103 14.1794 140.991 14.506C140.879 14.8234 140.823 15.2013 140.823 15.64V19H139.871V13.89C139.871 13.7127 139.866 13.484 139.857 13.204C139.847 12.924 139.833 12.672 139.815 12.448H140.725Z" fill="#10454F"/>
<path d="M153.486 19H152.534V8.41602H153.486V19Z" fill="#10454F"/>
<path d="M160.663 14.772C160.663 14.2027 160.514 13.778 160.215 13.498C159.916 13.218 159.482 13.078 158.913 13.078C158.521 13.078 158.157 13.148 157.821 13.288C157.485 13.428 157.2 13.6147 156.967 13.848L156.435 13.218C156.706 12.9473 157.06 12.7233 157.499 12.546C157.947 12.3687 158.451 12.28 159.011 12.28C159.366 12.28 159.697 12.3313 160.005 12.434C160.313 12.5273 160.584 12.672 160.817 12.868C161.05 13.064 161.232 13.3113 161.363 13.61C161.494 13.9087 161.559 14.2587 161.559 14.66V17.53C161.559 17.782 161.568 18.0433 161.587 18.314C161.606 18.5847 161.634 18.8133 161.671 19H160.817C160.789 18.8413 160.766 18.6687 160.747 18.482C160.728 18.2953 160.719 18.1134 160.719 17.936H160.691C160.392 18.3747 160.052 18.692 159.669 18.888C159.296 19.0747 158.843 19.168 158.311 19.168C158.059 19.168 157.798 19.1307 157.527 19.056C157.266 18.9907 157.023 18.8787 156.799 18.72C156.584 18.5613 156.402 18.356 156.253 18.104C156.113 17.852 156.043 17.544 156.043 17.18C156.043 16.676 156.169 16.2793 156.421 15.99C156.682 15.6913 157.028 15.472 157.457 15.332C157.886 15.1827 158.376 15.0893 158.927 15.052C159.487 15.0053 160.066 14.982 160.663 14.982V14.772ZM160.383 15.724C159.991 15.724 159.594 15.7427 159.193 15.78C158.801 15.808 158.442 15.8733 158.115 15.976C157.798 16.0693 157.536 16.2093 157.331 16.396C157.126 16.5827 157.023 16.83 157.023 17.138C157.023 17.3714 157.065 17.5673 157.149 17.726C157.242 17.8847 157.364 18.0153 157.513 18.118C157.662 18.2113 157.826 18.2813 158.003 18.328C158.19 18.3653 158.376 18.384 158.563 18.384C158.899 18.384 159.198 18.328 159.459 18.216C159.72 18.0947 159.94 17.936 160.117 17.74C160.294 17.5347 160.43 17.3014 160.523 17.04C160.616 16.7787 160.663 16.5034 160.663 16.214V15.724H160.383Z" fill="#10454F"/>
</g>
<defs>
<clipPath id="clip0_4906_32411">
<rect width="191.75" height="58.31" fill="white"/>
</clipPath>
</defs>
</svg>
