<svg width="257" height="69" viewBox="0 0 257 69" fill="none" xmlns="http://www.w3.org/2000/svg">
<rect x="1.5" y="1.5" width="254" height="66" rx="27.5" fill="#10454F" stroke="#CA8923" stroke-width="3"/>
<path d="M232 39V41.6667C232 42.0203 231.836 42.3594 231.544 42.6095C231.253 42.8595 230.857 43 230.444 43H219.556C219.143 43 218.747 42.8595 218.456 42.6095C218.164 42.3594 218 42.0203 218 41.6667V39" stroke="#FFF6D2" stroke-width="2" stroke-linecap="square" stroke-linejoin="round"/>
<path d="M221.701 35.666L225.035 38.9993L228.368 35.666" stroke="#FFF6D2" stroke-width="2" stroke-linecap="square" stroke-linejoin="round"/>
<path d="M224 39C223.999 39.5522 224.447 40 224.999 40C225.552 40 225.999 39.5523 226 39L224 39ZM226 29L226 28L224 28L224 29L226 29ZM226 39L226 29L224 29L224 39L226 39Z" fill="#FFF6D2"/>
<path d="M39.04 43H35.52L31.2 28.4H33.92L37.28 40.36L40.64 28.4H43.38L39.04 43ZM45.4581 31.56H48.1381V43H45.4581V31.56ZM46.7981 30.2C45.7981 30.2 45.2981 29.6867 45.2981 28.66C45.2981 27.62 45.7981 27.1 46.7981 27.1C47.8248 27.1 48.3381 27.62 48.3381 28.66C48.3381 29.6867 47.8248 30.2 46.7981 30.2ZM55.8634 43.28C54.0234 43.28 52.7101 42.7867 51.9234 41.8C51.1368 40.8 50.7434 39.2933 50.7434 37.28C50.7434 33.28 52.4234 31.28 55.7834 31.28C57.7168 31.28 59.0368 31.88 59.7434 33.08C60.3568 34.1067 60.6634 35.44 60.6634 37.08V37.8H53.3434C53.3568 39.0533 53.5634 39.94 53.9634 40.46C54.3634 40.9667 55.0234 41.22 55.9434 41.22C57.4234 41.22 58.2101 40.6867 58.3034 39.62L60.5034 39.7C60.2901 42.0867 58.7434 43.28 55.8634 43.28ZM57.4034 34C57.0701 33.56 56.5234 33.34 55.7634 33.34C55.0034 33.34 54.4434 33.5533 54.0834 33.98C53.7368 34.3933 53.5101 35.06 53.4034 35.98H58.0234C57.9434 35.0867 57.7368 34.4267 57.4034 34ZM66.933 43H64.413L61.473 31.56H64.173L65.853 39.4L67.733 32.56H69.993L71.873 39.4L73.573 31.56H76.273L73.353 43H70.813L68.873 36.08L66.933 43ZM86.537 43.28C83.9637 43.28 82.677 41.28 82.677 37.28C82.677 33.28 84.237 31.28 87.357 31.28C88.237 31.28 89.1037 31.44 89.957 31.76V27.96L92.637 27.76V43H90.897L90.157 41.58C89.0504 42.7133 87.8437 43.28 86.537 43.28ZM87.597 41.22C88.4237 41.22 89.2104 40.7933 89.957 39.94V33.74C89.3037 33.4733 88.6637 33.34 88.037 33.34C87.077 33.34 86.3904 33.6733 85.977 34.34C85.5637 35.0067 85.357 35.9867 85.357 37.28C85.357 39.9067 86.1037 41.22 87.597 41.22ZM96.3956 31.56H99.0756V43H96.3956V31.56ZM97.7356 30.2C96.7356 30.2 96.2356 29.6867 96.2356 28.66C96.2356 27.62 96.7356 27.1 97.7356 27.1C98.7623 27.1 99.2756 27.62 99.2756 28.66C99.2756 29.6867 98.7623 30.2 97.7356 30.2ZM111.021 39.8C111.021 42.08 109.421 43.22 106.221 43.22C104.821 43.22 103.781 42.92 103.101 42.32C102.421 41.7067 101.994 40.82 101.821 39.66L103.901 39.34C104.048 40.62 104.841 41.26 106.281 41.26C107.734 41.26 108.461 40.8067 108.461 39.9C108.461 39.5267 108.314 39.2467 108.021 39.06C107.741 38.8733 107.168 38.68 106.301 38.48L105.381 38.26C104.194 37.98 103.341 37.5733 102.821 37.04C102.314 36.4933 102.061 35.7067 102.061 34.68C102.061 32.4133 103.608 31.28 106.701 31.28C108.034 31.28 109.028 31.5867 109.681 32.2C110.348 32.8 110.761 33.68 110.921 34.84L108.841 35.14C108.694 33.8733 107.954 33.24 106.621 33.24C105.301 33.24 104.641 33.6933 104.641 34.6C104.641 34.9733 104.768 35.26 105.021 35.46C105.288 35.6467 105.821 35.8333 106.621 36.02L107.661 36.28C108.848 36.5733 109.701 36.9867 110.221 37.52C110.754 38.04 111.021 38.8 111.021 39.8ZM115.779 34.3C115.446 34.94 115.279 35.9333 115.279 37.28C115.279 38.6267 115.446 39.62 115.779 40.26C116.126 40.9 116.719 41.22 117.559 41.22C118.412 41.22 119.019 41.0467 119.379 40.7C119.752 40.3533 119.952 39.8067 119.979 39.06L122.079 39.16C121.999 40.52 121.599 41.5467 120.879 42.24C120.172 42.9333 119.006 43.28 117.379 43.28C115.472 43.28 114.172 42.66 113.479 41.42C113.146 40.82 112.912 40.1933 112.779 39.54C112.659 38.8867 112.599 38.1333 112.599 37.28C112.599 36.4133 112.659 35.6533 112.779 35C112.912 34.3333 113.146 33.7067 113.479 33.12C114.159 31.8933 115.459 31.28 117.379 31.28C118.992 31.28 120.152 31.6133 120.859 32.28C121.566 32.9333 121.966 33.9133 122.059 35.22L119.979 35.5C119.952 34.7533 119.752 34.2067 119.379 33.86C119.019 33.5133 118.412 33.34 117.559 33.34C116.719 33.34 116.126 33.66 115.779 34.3ZM127.162 43H124.482V27.96L127.162 27.6V43ZM132.967 40.22C133.314 40.8867 133.98 41.22 134.967 41.22C135.954 41.22 136.62 40.8867 136.967 40.22C137.314 39.5533 137.487 38.5733 137.487 37.28C137.487 35.9867 137.314 35.0067 136.967 34.34C136.62 33.6733 135.954 33.34 134.967 33.34C133.98 33.34 133.314 33.6733 132.967 34.34C132.62 35.0067 132.447 35.9867 132.447 37.28C132.447 38.5733 132.62 39.5533 132.967 40.22ZM140.167 37.28C140.167 41.28 138.434 43.28 134.967 43.28C131.5 43.28 129.767 41.28 129.767 37.28C129.767 33.28 131.5 31.28 134.967 31.28C138.434 31.28 140.167 33.28 140.167 37.28ZM150.943 39.8C150.943 42.08 149.343 43.22 146.143 43.22C144.743 43.22 143.703 42.92 143.023 42.32C142.343 41.7067 141.916 40.82 141.743 39.66L143.823 39.34C143.969 40.62 144.763 41.26 146.203 41.26C147.656 41.26 148.383 40.8067 148.383 39.9C148.383 39.5267 148.236 39.2467 147.943 39.06C147.663 38.8733 147.089 38.68 146.223 38.48L145.303 38.26C144.116 37.98 143.263 37.5733 142.743 37.04C142.236 36.4933 141.983 35.7067 141.983 34.68C141.983 32.4133 143.529 31.28 146.623 31.28C147.956 31.28 148.949 31.5867 149.603 32.2C150.269 32.8 150.683 33.68 150.843 34.84L148.763 35.14C148.616 33.8733 147.876 33.24 146.543 33.24C145.223 33.24 144.563 33.6933 144.563 34.6C144.563 34.9733 144.689 35.26 144.943 35.46C145.209 35.6467 145.743 35.8333 146.543 36.02L147.583 36.28C148.769 36.5733 149.623 36.9867 150.143 37.52C150.676 38.04 150.943 38.8 150.943 39.8ZM157.001 43.28C154.654 43.28 153.481 42.0667 153.481 39.64V31.56H156.161V39.2C156.161 39.8933 156.294 40.4067 156.561 40.74C156.841 41.06 157.301 41.22 157.941 41.22C158.847 41.22 159.707 40.7933 160.521 39.94V31.56H163.201V43H161.461L160.701 41.62C159.661 42.7267 158.427 43.28 157.001 43.28ZM169.642 43H166.962V31.56H168.222L169.282 33.34C170.202 32.0333 171.502 31.3467 173.182 31.28V33.58C171.609 33.62 170.429 34.1 169.642 35.02V43ZM179.067 43.28C177.227 43.28 175.913 42.7867 175.127 41.8C174.34 40.8 173.947 39.2933 173.947 37.28C173.947 33.28 175.627 31.28 178.987 31.28C180.92 31.28 182.24 31.88 182.947 33.08C183.56 34.1067 183.867 35.44 183.867 37.08V37.8H176.547C176.56 39.0533 176.767 39.94 177.167 40.46C177.567 40.9667 178.227 41.22 179.147 41.22C180.627 41.22 181.413 40.6867 181.507 39.62L183.707 39.7C183.493 42.0867 181.947 43.28 179.067 43.28ZM180.607 34C180.273 33.56 179.727 33.34 178.967 33.34C178.207 33.34 177.647 33.5533 177.287 33.98C176.94 34.3933 176.713 35.06 176.607 35.98H181.227C181.147 35.0867 180.94 34.4267 180.607 34ZM194.556 39.8C194.556 42.08 192.956 43.22 189.756 43.22C188.356 43.22 187.316 42.92 186.636 42.32C185.956 41.7067 185.529 40.82 185.356 39.66L187.436 39.34C187.583 40.62 188.376 41.26 189.816 41.26C191.269 41.26 191.996 40.8067 191.996 39.9C191.996 39.5267 191.849 39.2467 191.556 39.06C191.276 38.8733 190.703 38.68 189.836 38.48L188.916 38.26C187.729 37.98 186.876 37.5733 186.356 37.04C185.849 36.4933 185.596 35.7067 185.596 34.68C185.596 32.4133 187.143 31.28 190.236 31.28C191.569 31.28 192.563 31.5867 193.216 32.2C193.883 32.8 194.296 33.68 194.456 34.84L192.376 35.14C192.229 33.8733 191.489 33.24 190.156 33.24C188.836 33.24 188.176 33.6933 188.176 34.6C188.176 34.9733 188.303 35.26 188.556 35.46C188.823 35.6467 189.356 35.8333 190.156 36.02L191.196 36.28C192.383 36.5733 193.236 36.9867 193.756 37.52C194.289 38.04 194.556 38.8 194.556 39.8Z" fill="#FFF7D2"/>
</svg>
