<svg width="167" height="69" viewBox="0 0 167 69" fill="none" xmlns="http://www.w3.org/2000/svg">
<rect x="1.5" y="1.5" width="164" height="66" rx="33" fill="#10454F" stroke="#CA8923" stroke-width="3"/>
<circle cx="133.8" cy="35" r="7.5" stroke="#FFF6D2"/>
<path d="M137.536 34.0009C138.143 34.3952 138.143 35.2839 137.536 35.6782L132.951 38.6566C132.285 39.0887 131.406 38.6113 131.406 37.818V31.8611C131.406 31.0678 132.285 30.5904 132.951 31.0225L137.536 34.0009Z" fill="#FFF6D2"/>
<path d="M33.84 42.5H30.32L26 27.9H28.72L32.08 39.86L35.44 27.9H38.18L33.84 42.5Z" fill="#FFF7D2"/>
<path d="M43.4173 42.78C41.5773 42.78 40.264 42.2867 39.4773 41.3C38.6907 40.3 38.2973 38.7933 38.2973 36.78C38.2973 32.78 39.9773 30.78 43.3373 30.78C45.2707 30.78 46.5907 31.38 47.2973 32.58C47.9107 33.6067 48.2173 34.94 48.2173 36.58V37.3H40.8973C40.9107 38.5533 41.1173 39.44 41.5173 39.96C41.9173 40.4667 42.5773 40.72 43.4973 40.72C44.9773 40.72 45.764 40.1867 45.8573 39.12L48.0573 39.2C47.844 41.5867 46.2973 42.78 43.4173 42.78ZM44.9573 33.5C44.624 33.06 44.0773 32.84 43.3173 32.84C42.5573 32.84 41.9973 33.0533 41.6373 33.48C41.2907 33.8933 41.064 34.56 40.9573 35.48H45.5773C45.4973 34.5867 45.2907 33.9267 44.9573 33.5Z" fill="#FFF7D2"/>
<path d="M53.4069 42.5H50.7269V31.06H51.9869L53.0469 32.84C53.9669 31.5333 55.2669 30.8467 56.9469 30.78V33.08C55.3735 33.12 54.1935 33.6 53.4069 34.52V42.5Z" fill="#FFF7D2"/>
<path d="M69.4392 42.5H66.4592L62.5792 31.06H65.2792L67.9392 39.34L70.6192 31.06H73.3192L69.4392 42.5Z" fill="#FFF7D2"/>
<path d="M75.2777 31.06H77.9577V42.5H75.2777V31.06ZM75.3777 30.1L74.4777 28.66L78.3777 26L79.5777 27.92L75.3777 30.1Z" fill="#FFF7D2"/>
<path d="M84.423 42.78C81.8496 42.78 80.563 40.78 80.563 36.78C80.563 32.78 82.123 30.78 85.243 30.78C86.123 30.78 86.9896 30.94 87.843 31.26V27.46L90.523 27.26V42.5H88.783L88.043 41.08C86.9363 42.2133 85.7296 42.78 84.423 42.78ZM85.483 40.72C86.3096 40.72 87.0963 40.2933 87.843 39.44V33.24C87.1896 32.9733 86.5496 32.84 85.923 32.84C84.963 32.84 84.2763 33.1733 83.863 33.84C83.4496 34.5067 83.243 35.4867 83.243 36.78C83.243 39.4067 83.9896 40.72 85.483 40.72Z" fill="#FFF7D2"/>
<path d="M98.2416 42.78C96.4016 42.78 95.0882 42.2867 94.3016 41.3C93.5149 40.3 93.1216 38.7933 93.1216 36.78C93.1216 32.78 94.8016 30.78 98.1616 30.78C100.095 30.78 101.415 31.38 102.122 32.58C102.735 33.6067 103.042 34.94 103.042 36.58V37.3H95.7216C95.7349 38.5533 95.9416 39.44 96.3416 39.96C96.7416 40.4667 97.4016 40.72 98.3216 40.72C99.8016 40.72 100.588 40.1867 100.682 39.12L102.882 39.2C102.668 41.5867 101.122 42.78 98.2416 42.78ZM99.7816 33.5C99.4482 33.06 98.9016 32.84 98.1416 32.84C97.3816 32.84 96.8216 33.0533 96.4616 33.48C96.1149 33.8933 95.8882 34.56 95.7816 35.48H100.402C100.322 34.5867 100.115 33.9267 99.7816 33.5Z" fill="#FFF7D2"/>
<path d="M107.591 39.72C107.938 40.3867 108.604 40.72 109.591 40.72C110.578 40.72 111.244 40.3867 111.591 39.72C111.938 39.0533 112.111 38.0733 112.111 36.78C112.111 35.4867 111.938 34.5067 111.591 33.84C111.244 33.1733 110.578 32.84 109.591 32.84C108.604 32.84 107.938 33.1733 107.591 33.84C107.244 34.5067 107.071 35.4867 107.071 36.78C107.071 38.0733 107.244 39.0533 107.591 39.72ZM114.791 36.78C114.791 40.78 113.058 42.78 109.591 42.78C106.124 42.78 104.391 40.78 104.391 36.78C104.391 32.78 106.124 30.78 109.591 30.78C113.058 30.78 114.791 32.78 114.791 36.78Z" fill="#FFF7D2"/>
</svg>
