<svg width="312" height="319" viewBox="0 0 312 319" fill="none" xmlns="http://www.w3.org/2000/svg">
<rect x="2" y="2" width="308" height="315" rx="50" fill="#10454F" stroke="#CA8923" stroke-width="4"/>
<path d="M106.34 212.005V221.355C106.34 222.29 105.9 222.73 104.965 222.73H103.975C103.04 222.73 102.6 222.29 102.6 221.355V198.145C102.6 197.21 103.04 196.77 103.975 196.77H104.855C105.79 196.77 106.23 197.21 106.23 198.145V206.34H113.82V197.32C113.82 192.535 111.455 190.17 106.67 190.17H102.05C97.2653 190.17 94.9003 192.535 94.9003 197.32V222.18C94.9003 226.965 97.2653 229.33 102.05 229.33H106.78C111.565 229.33 113.93 226.965 113.93 222.18V212.005H106.34ZM136.251 229L131.191 190.5H120.686L115.626 229H122.611L123.161 223.39H128.001L128.606 229H136.251ZM125.581 199.905L127.286 216.68H123.876L125.581 199.905ZM138.388 190.5V229H151.643V222.125H146.088V190.5H138.388ZM154.196 190.5V229H167.451V222.125H161.896V190.5H154.196ZM196.889 190.5H189.189V221.355C189.189 222.29 188.749 222.73 187.814 222.73H186.989C186.054 222.73 185.614 222.29 185.614 221.355V190.5H177.914V222.18C177.914 226.965 180.279 229.33 185.064 229.33H189.739C194.524 229.33 196.889 226.965 196.889 222.18V190.5ZM215.351 209.035L208.751 204.14C207.816 203.48 207.431 202.875 207.431 201.665V198.035C207.431 197.1 207.871 196.66 208.806 196.66H209.411C210.346 196.66 210.786 197.1 210.786 198.035V204.36H218.321V197.32C218.321 192.535 215.956 190.17 211.171 190.17H206.991C202.206 190.17 199.841 192.535 199.841 197.32V203.425C199.841 206.175 200.556 207.77 202.921 209.475L209.521 214.37C210.456 215.03 210.841 215.635 210.841 216.845V221.465C210.841 222.4 210.401 222.84 209.466 222.84H208.751C207.816 222.84 207.376 222.4 207.376 221.465V213.985H199.841V222.18C199.841 226.965 202.206 229.33 206.991 229.33H211.281C216.066 229.33 218.431 226.965 218.431 222.18V215.085C218.431 212.225 217.716 210.74 215.351 209.035Z" fill="#CA8923"/>
<path d="M101.014 259.825H102.814V256.975H105.589V255.25H102.814V252.4H101.014V255.25H98.2393V256.975H101.014V259.825ZM110.027 247.425H109.002L108.702 247.825C108.127 248.6 107.627 248.925 106.677 249.05L106.477 249.075V250.625H108.127V265H110.027V247.425ZM119.411 247.35C117.236 247.35 116.161 248.425 116.161 250.6V253.3C116.161 254.8 116.686 255.55 117.611 255.9C116.561 256.2 116.111 256.875 116.111 258.15V261.9C116.111 264.075 117.186 265.15 119.361 265.15H119.861C122.036 265.15 123.111 264.075 123.111 261.9V258.15C123.111 256.875 122.661 256.2 121.611 255.9C122.536 255.55 123.061 254.8 123.061 253.3V250.6C123.061 248.425 121.986 247.35 119.811 247.35H119.411ZM118.036 258.275C118.036 257.375 118.461 256.95 119.361 256.95H119.861C120.761 256.95 121.186 257.375 121.186 258.275V262.025C121.186 262.925 120.761 263.35 119.861 263.35H119.361C118.461 263.35 118.036 262.925 118.036 262.025V258.275ZM119.386 255.175C118.486 255.175 118.061 254.75 118.061 253.85V250.475C118.061 249.575 118.486 249.15 119.386 249.15H119.836C120.736 249.15 121.161 249.575 121.161 250.475V253.85C121.161 254.75 120.736 255.175 119.836 255.175H119.386ZM127.352 250.5C127.352 249.6 127.777 249.175 128.627 249.175H129.102C129.952 249.175 130.377 249.6 130.377 250.5V252.925H132.302V250.5C132.302 248.325 131.327 247.35 129.152 247.35H128.627C126.452 247.35 125.377 248.425 125.377 250.6V261.9C125.377 264.075 126.452 265.15 128.627 265.15H129.127C131.302 265.15 132.377 264.075 132.377 261.9V257.525C132.377 255.8 131.327 254.625 129.552 254.625H129.427C128.627 254.625 127.952 254.85 127.352 255.175V250.5ZM127.352 256.85C127.752 256.65 128.477 256.475 129.077 256.475C129.977 256.475 130.427 256.9 130.427 257.9V262C130.427 262.9 130.002 263.325 129.152 263.325H128.627C127.777 263.325 127.352 262.9 127.352 262V256.85ZM136.592 250.5C136.592 249.6 137.017 249.175 137.867 249.175H138.342C139.192 249.175 139.617 249.6 139.617 250.5V252.925H141.542V250.5C141.542 248.325 140.567 247.35 138.392 247.35H137.867C135.692 247.35 134.617 248.425 134.617 250.6V261.9C134.617 264.075 135.692 265.15 137.867 265.15H138.367C140.542 265.15 141.617 264.075 141.617 261.9V257.525C141.617 255.8 140.567 254.625 138.792 254.625H138.667C137.867 254.625 137.192 254.85 136.592 255.175V250.5ZM136.592 256.85C136.992 256.65 137.717 256.475 138.317 256.475C139.217 256.475 139.667 256.9 139.667 257.9V262C139.667 262.9 139.242 263.325 138.392 263.325H137.867C137.017 263.325 136.592 262.9 136.592 262V256.85ZM149.335 250.5C149.335 249.6 149.76 249.175 150.61 249.175H151.085C151.935 249.175 152.36 249.6 152.36 250.5V252.925H154.285V250.5C154.285 248.325 153.31 247.35 151.135 247.35H150.61C148.435 247.35 147.36 248.425 147.36 250.6V261.9C147.36 264.075 148.435 265.15 150.61 265.15H151.11C153.285 265.15 154.36 264.075 154.36 261.9V257.525C154.36 255.8 153.31 254.625 151.535 254.625H151.41C150.61 254.625 149.935 254.85 149.335 255.175V250.5ZM149.335 256.85C149.735 256.65 150.46 256.475 151.06 256.475C151.96 256.475 152.41 256.9 152.41 257.9V262C152.41 262.9 151.985 263.325 151.135 263.325H150.61C149.76 263.325 149.335 262.9 149.335 262V256.85ZM157.8 258.6C156.75 259.9 156.45 260.75 156.45 262V265H163.4V263.15H158.45V262.125C158.45 261.075 158.6 260.625 159.275 259.8L162.1 256.25C163.15 254.95 163.4 254.05 163.4 252.85V250.6C163.4 248.425 162.325 247.35 160.2 247.35H159.7C157.575 247.35 156.5 248.425 156.5 250.6V253.8H158.45V250.5C158.45 249.6 158.875 249.175 159.725 249.175H160.125C160.975 249.175 161.4 249.6 161.4 250.5V253.15C161.4 253.875 161.225 254.3 160.625 255.05L157.8 258.6ZM172.397 256.875C172.397 255.075 171.297 254 169.697 254C168.747 254 168.047 254.35 167.447 254.825L167.497 249.35H172.147V247.5H165.647V256.85H167.322C168.047 256.1 168.597 255.85 169.247 255.85C170.047 255.85 170.397 256.3 170.397 257.25V262C170.397 262.9 169.972 263.325 169.122 263.325H168.772C167.922 263.325 167.497 262.9 167.497 262V258.925H165.547V261.95C165.547 264.1 166.597 265.15 168.697 265.15H169.197C171.322 265.15 172.397 264.075 172.397 261.9V256.875ZM179.32 258.6C178.27 259.9 177.97 260.75 177.97 262V265H184.92V263.15H179.97V262.125C179.97 261.075 180.12 260.625 180.795 259.8L183.62 256.25C184.67 254.95 184.92 254.05 184.92 252.85V250.6C184.92 248.425 183.845 247.35 181.72 247.35H181.22C179.095 247.35 178.02 248.425 178.02 250.6V253.8H179.97V250.5C179.97 249.6 180.395 249.175 181.245 249.175H181.645C182.495 249.175 182.92 249.6 182.92 250.5V253.15C182.92 253.875 182.745 254.3 182.145 255.05L179.32 258.6ZM185.591 261.7H190.266V265H192.066V261.7H193.291V259.95H192.066V247.5H189.591L185.591 259.9V261.7ZM190.266 259.95H187.341L190.266 250.675V259.95ZM201.645 247.35C199.47 247.35 198.395 248.425 198.395 250.6V253.3C198.395 254.8 198.92 255.55 199.845 255.9C198.795 256.2 198.345 256.875 198.345 258.15V261.9C198.345 264.075 199.42 265.15 201.595 265.15H202.095C204.27 265.15 205.345 264.075 205.345 261.9V258.15C205.345 256.875 204.895 256.2 203.845 255.9C204.77 255.55 205.295 254.8 205.295 253.3V250.6C205.295 248.425 204.22 247.35 202.045 247.35H201.645ZM200.27 258.275C200.27 257.375 200.695 256.95 201.595 256.95H202.095C202.995 256.95 203.42 257.375 203.42 258.275V262.025C203.42 262.925 202.995 263.35 202.095 263.35H201.595C200.695 263.35 200.27 262.925 200.27 262.025V258.275ZM201.62 255.175C200.72 255.175 200.295 254.75 200.295 253.85V250.475C200.295 249.575 200.72 249.15 201.62 249.15H202.07C202.97 249.15 203.395 249.575 203.395 250.475V253.85C203.395 254.75 202.97 255.175 202.07 255.175H201.62ZM207.135 261.7H211.81V265H213.61V261.7H214.835V259.95H213.61V247.5H211.135L207.135 259.9V261.7ZM211.81 259.95H208.885L211.81 250.675V259.95ZM77.1395 278.696C77.1875 279.784 77.8355 280.328 79.0835 280.328C79.7155 280.328 80.1875 280.08 80.4995 279.584C80.8195 279.08 80.9995 278.252 81.0395 277.1C80.3755 277.292 79.7395 277.388 79.1315 277.388C78.5315 277.388 78.0355 277.32 77.6435 277.184C77.2515 277.04 76.9475 276.844 76.7315 276.596C76.3315 276.124 76.1315 275.516 76.1315 274.772C76.1315 274.02 76.3995 273.384 76.9355 272.864C77.4715 272.336 78.2435 272.072 79.2515 272.072C80.2595 272.072 80.9795 272.448 81.4115 273.2C81.8515 273.944 82.0715 275.052 82.0715 276.524C82.0715 277.924 81.8675 279.024 81.4595 279.824C81.0115 280.72 80.1955 281.168 79.0115 281.168C78.1395 281.168 77.4715 280.964 77.0075 280.556C76.5435 280.148 76.2875 279.564 76.2395 278.804L77.1395 278.696ZM77.1635 274.76C77.1635 275.272 77.3195 275.7 77.6315 276.044C77.9515 276.388 78.4435 276.56 79.1075 276.56C79.7715 276.56 80.4195 276.48 81.0515 276.32C81.0355 275.104 80.8835 274.236 80.5955 273.716C80.3155 273.188 79.8435 272.924 79.1795 272.924C78.5235 272.924 78.0235 273.1 77.6795 273.452C77.3355 273.804 77.1635 274.24 77.1635 274.76ZM91.6815 274.424C92.1615 274.768 92.4015 275.416 92.4015 276.368V281H91.7175L91.4535 279.932C90.6855 280.756 89.8415 281.168 88.9215 281.168C88.3135 281.168 87.8655 281.008 87.5775 280.688C87.2975 280.368 87.1575 279.936 87.1575 279.392C87.1575 278.848 87.3255 278.408 87.6615 278.072C88.0055 277.736 88.6455 277.492 89.5815 277.34L91.3695 277.052V276.368C91.3695 275.776 91.2415 275.368 90.9855 275.144C90.7375 274.92 90.3935 274.808 89.9535 274.808C89.0735 274.808 88.5495 275.236 88.3815 276.092L87.5415 275.84C87.6695 275.248 87.9375 274.788 88.3455 274.46C88.7535 274.132 89.3055 273.968 90.0015 273.968C90.7055 273.968 91.2655 274.12 91.6815 274.424ZM89.2095 280.376C89.9295 280.376 90.6495 279.988 91.3695 279.212V277.772L89.6775 278.06C89.1095 278.164 88.7175 278.328 88.5015 278.552C88.2855 278.768 88.1775 279.036 88.1775 279.356C88.1775 279.668 88.2615 279.916 88.4295 280.1C88.5975 280.284 88.8575 280.376 89.2095 280.376ZM97.9327 273.968C98.8607 273.968 99.4847 274.284 99.8047 274.916C100.101 274.652 100.453 274.428 100.861 274.244C101.277 274.06 101.705 273.968 102.145 273.968C103.537 273.968 104.233 274.684 104.233 276.116V281H103.201V276.176C103.201 275.728 103.105 275.388 102.913 275.156C102.721 274.924 102.409 274.808 101.977 274.808C101.265 274.808 100.609 275.08 100.009 275.624C100.033 275.784 100.045 275.948 100.045 276.116V281H99.0127V276.176C99.0127 275.728 98.9167 275.388 98.7247 275.156C98.5327 274.924 98.2167 274.808 97.7767 274.808C97.0807 274.808 96.4407 275.06 95.8567 275.564V281H94.8247V274.136H95.4607L95.7247 274.82C96.3967 274.252 97.1327 273.968 97.9327 273.968ZM109.685 277.592V276.776H114.965V277.592H109.685ZM120.968 278.696C121.016 279.784 121.664 280.328 122.912 280.328C123.544 280.328 124.016 280.08 124.328 279.584C124.648 279.08 124.828 278.252 124.868 277.1C124.204 277.292 123.568 277.388 122.96 277.388C122.36 277.388 121.864 277.32 121.472 277.184C121.08 277.04 120.776 276.844 120.56 276.596C120.16 276.124 119.96 275.516 119.96 274.772C119.96 274.02 120.228 273.384 120.764 272.864C121.3 272.336 122.072 272.072 123.08 272.072C124.088 272.072 124.808 272.448 125.24 273.2C125.68 273.944 125.9 275.052 125.9 276.524C125.9 277.924 125.696 279.024 125.288 279.824C124.84 280.72 124.024 281.168 122.84 281.168C121.968 281.168 121.3 280.964 120.836 280.556C120.372 280.148 120.116 279.564 120.068 278.804L120.968 278.696ZM120.992 274.76C120.992 275.272 121.148 275.7 121.46 276.044C121.78 276.388 122.272 276.56 122.936 276.56C123.6 276.56 124.248 276.48 124.88 276.32C124.864 275.104 124.712 274.236 124.424 273.716C124.144 273.188 123.672 272.924 123.008 272.924C122.352 272.924 121.852 273.1 121.508 273.452C121.164 273.804 120.992 274.24 120.992 274.76ZM134.634 273.968C136.362 273.968 137.226 275.168 137.226 277.568C137.226 279.968 136.33 281.168 134.538 281.168C133.954 281.168 133.326 281.044 132.654 280.796V283.664L131.622 283.808V274.136H132.234L132.474 274.736C133.17 274.224 133.89 273.968 134.634 273.968ZM136.194 277.568C136.194 276.776 136.054 276.12 135.774 275.6C135.502 275.072 135.054 274.808 134.43 274.808C133.806 274.808 133.214 275.012 132.654 275.42V280.016C133.15 280.224 133.714 280.328 134.346 280.328C135.578 280.328 136.194 279.408 136.194 277.568ZM142.253 273.968C143.181 273.968 143.805 274.284 144.125 274.916C144.421 274.652 144.773 274.428 145.181 274.244C145.597 274.06 146.025 273.968 146.465 273.968C147.857 273.968 148.553 274.684 148.553 276.116V281H147.521V276.176C147.521 275.728 147.425 275.388 147.233 275.156C147.041 274.924 146.729 274.808 146.297 274.808C145.585 274.808 144.929 275.08 144.329 275.624C144.353 275.784 144.365 275.948 144.365 276.116V281H143.333V276.176C143.333 275.728 143.237 275.388 143.045 275.156C142.853 274.924 142.537 274.808 142.097 274.808C141.401 274.808 140.761 275.06 140.177 275.564V281H139.145V274.136H139.781L140.045 274.82C140.717 274.252 141.453 273.968 142.253 273.968ZM154.461 272.24H159.117V273.08H155.517V276.128H158.865V276.968H155.517V280.16H159.357V281H154.461V272.24ZM164.092 276.248C164.94 276.488 165.536 276.78 165.88 277.124C166.232 277.468 166.408 278 166.408 278.72C166.408 279.432 166.156 280.02 165.652 280.484C165.156 280.94 164.432 281.168 163.48 281.168C162.536 281.168 161.844 280.972 161.404 280.58C160.964 280.188 160.688 279.624 160.576 278.888L161.44 278.732C161.592 279.788 162.244 280.316 163.396 280.316C164.7 280.316 165.352 279.8 165.352 278.768C165.352 278.32 165.232 277.988 164.992 277.772C164.752 277.556 164.352 277.372 163.792 277.22L163 276.992C162.176 276.768 161.596 276.484 161.26 276.14C160.924 275.788 160.756 275.256 160.756 274.544C160.756 273.824 160.996 273.232 161.476 272.768C161.956 272.304 162.652 272.072 163.564 272.072C164.484 272.072 165.152 272.268 165.568 272.66C165.984 273.052 166.248 273.616 166.36 274.352L165.496 274.508C165.344 273.452 164.736 272.924 163.672 272.924C162.432 272.924 161.812 273.44 161.812 274.472C161.812 274.92 161.92 275.256 162.136 275.48C162.36 275.696 162.736 275.876 163.264 276.02L164.092 276.248ZM167.16 273.08V272.24H172.92V273.08H170.568V281H169.512V273.08H167.16ZM176.462 282.272L179.306 271.7H180.35L177.506 282.272H176.462ZM185.575 278.912C185.695 279.848 186.347 280.316 187.531 280.316C188.139 280.316 188.611 280.184 188.947 279.92C189.283 279.656 189.451 279.268 189.451 278.756C189.451 278.244 189.303 277.836 189.007 277.532C188.719 277.22 188.267 277.064 187.651 277.064H186.559V276.272H187.663C188.199 276.272 188.611 276.12 188.899 275.816C189.187 275.504 189.331 275.092 189.331 274.58C189.331 274.068 189.179 273.664 188.875 273.368C188.571 273.072 188.127 272.924 187.543 272.924C186.959 272.924 186.519 273.06 186.223 273.332C185.927 273.604 185.759 273.984 185.719 274.472L184.819 274.352C184.875 273.632 185.131 273.072 185.587 272.672C186.043 272.272 186.707 272.072 187.579 272.072C188.459 272.072 189.143 272.3 189.631 272.756C190.119 273.204 190.363 273.824 190.363 274.616C190.363 275.072 190.239 275.476 189.991 275.828C189.751 276.18 189.427 276.448 189.019 276.632C189.467 276.792 189.819 277.056 190.075 277.424C190.339 277.792 190.471 278.252 190.471 278.804C190.471 279.548 190.207 280.128 189.679 280.544C189.151 280.96 188.423 281.168 187.495 281.168C185.759 281.168 184.815 280.452 184.663 279.02L185.575 278.912ZM195.4 272.924C194.656 272.924 194.136 273.248 193.84 273.896C193.592 274.432 193.452 275.224 193.42 276.272C194.124 276.064 194.8 275.96 195.448 275.96C197.408 275.96 198.388 276.764 198.388 278.372C198.38 279.252 198.132 279.94 197.644 280.436C197.156 280.924 196.436 281.168 195.484 281.168C194.388 281.168 193.596 280.804 193.108 280.076C192.628 279.34 192.388 278.292 192.388 276.932C192.388 274.532 192.904 273.028 193.936 272.42C194.336 272.188 194.816 272.072 195.376 272.072C197.152 272.072 198.088 272.872 198.184 274.472L197.284 274.568C197.228 273.472 196.6 272.924 195.4 272.924ZM197.356 278.372C197.356 277.892 197.2 277.504 196.888 277.208C196.576 276.912 196.084 276.764 195.412 276.764C194.74 276.764 194.076 276.864 193.42 277.064C193.452 278.216 193.624 279.048 193.936 279.56C194.248 280.072 194.748 280.328 195.436 280.328C196.716 280.328 197.356 279.676 197.356 278.372ZM202.945 280.328C203.585 280.328 204.061 280.156 204.373 279.812C204.693 279.46 204.853 278.992 204.853 278.408C204.853 277.824 204.625 277.376 204.169 277.064C203.713 276.752 202.925 276.596 201.805 276.596H200.365L200.641 272.24H205.393V273.092H201.517L201.337 275.732H201.901C203.261 275.732 204.265 275.956 204.913 276.404C205.569 276.852 205.897 277.504 205.897 278.36C205.897 279.208 205.641 279.888 205.129 280.4C204.625 280.912 203.917 281.168 203.005 281.168C202.101 281.168 201.417 280.956 200.953 280.532C200.497 280.108 200.245 279.5 200.197 278.708L201.109 278.624C201.173 279.76 201.785 280.328 202.945 280.328ZM212.963 281.168C211.491 281.168 210.755 279.968 210.755 277.568C210.755 275.168 211.647 273.968 213.431 273.968C214.047 273.968 214.679 274.124 215.327 274.436V271.904L216.359 271.784V281H215.675L215.375 279.956C214.647 280.764 213.843 281.168 212.963 281.168ZM213.299 280.328C214.019 280.328 214.695 279.944 215.327 279.176V275.252C214.751 274.94 214.187 274.784 213.635 274.784C212.963 274.784 212.487 275.028 212.207 275.516C211.927 276.004 211.787 276.688 211.787 277.568C211.787 279.408 212.291 280.328 213.299 280.328ZM222.791 274.424C223.271 274.768 223.511 275.416 223.511 276.368V281H222.827L222.563 279.932C221.795 280.756 220.951 281.168 220.031 281.168C219.423 281.168 218.975 281.008 218.687 280.688C218.407 280.368 218.267 279.936 218.267 279.392C218.267 278.848 218.435 278.408 218.771 278.072C219.115 277.736 219.755 277.492 220.691 277.34L222.479 277.052V276.368C222.479 275.776 222.351 275.368 222.095 275.144C221.847 274.92 221.503 274.808 221.063 274.808C220.183 274.808 219.659 275.236 219.491 276.092L218.651 275.84C218.779 275.248 219.047 274.788 219.455 274.46C219.863 274.132 220.415 273.968 221.111 273.968C221.815 273.968 222.375 274.12 222.791 274.424ZM220.319 280.376C221.039 280.376 221.759 279.988 222.479 279.212V277.772L220.787 278.06C220.219 278.164 219.827 278.328 219.611 278.552C219.395 278.768 219.287 279.036 219.287 279.356C219.287 279.668 219.371 279.916 219.539 280.1C219.707 280.284 219.967 280.376 220.319 280.376ZM227.326 283.94L226.39 283.772L227.446 281.048L224.854 274.136H225.922L227.95 279.692L229.918 274.136H230.974L227.326 283.94ZM234.934 277.172C235.654 277.348 236.166 277.584 236.47 277.88C236.782 278.168 236.938 278.604 236.938 279.188C236.938 279.764 236.722 280.232 236.29 280.592C235.858 280.952 235.218 281.132 234.37 281.132C233.522 281.132 232.906 280.972 232.522 280.652C232.146 280.324 231.906 279.852 231.802 279.236L232.642 279.104C232.762 279.912 233.31 280.316 234.286 280.316C235.366 280.316 235.906 279.952 235.906 279.224C235.906 278.904 235.806 278.668 235.606 278.516C235.414 278.364 235.066 278.224 234.562 278.096L233.878 277.928C233.182 277.752 232.686 277.52 232.39 277.232C232.102 276.944 231.958 276.508 231.958 275.924C231.958 275.332 232.166 274.86 232.582 274.508C232.998 274.148 233.61 273.968 234.418 273.968C235.234 273.968 235.822 274.132 236.182 274.46C236.55 274.78 236.786 275.248 236.89 275.864L236.038 275.996C235.934 275.188 235.422 274.784 234.502 274.784C233.494 274.784 232.99 275.148 232.99 275.876C232.99 276.196 233.082 276.436 233.266 276.596C233.45 276.748 233.774 276.884 234.238 277.004L234.934 277.172Z" fill="#FFF6D2"/>
<rect x="102.5" y="56.5" width="108" height="108" rx="54" stroke="#FFF6D2" stroke-width="5"/>
<g clip-path="url(#clip0_4939_32735)">
<path d="M141.018 87.6484C140.808 87.3826 140.542 87.1638 140.239 87.0065C139.936 86.8493 139.603 86.7572 139.261 86.7363C138.919 86.7155 138.576 86.7664 138.256 86.8856C137.935 87.0048 137.644 87.1897 137.402 87.4279L133.719 91.0504C131.998 92.7444 131.364 95.1419 132.115 97.2454C135.235 105.952 140.31 113.857 146.964 120.373C153.597 126.91 161.643 131.896 170.505 134.961C172.646 135.7 175.086 135.077 176.811 133.386L180.494 129.767C180.737 129.529 180.925 129.244 181.046 128.929C181.167 128.614 181.219 128.277 181.198 127.941C181.177 127.605 181.083 127.278 180.923 126.98C180.763 126.682 180.54 126.421 180.27 126.215L172.051 119.936C171.762 119.716 171.426 119.563 171.068 119.489C170.71 119.415 170.34 119.422 169.985 119.509L162.183 121.423C161.141 121.679 160.05 121.666 159.016 121.384C157.982 121.102 157.039 120.563 156.28 119.817L147.53 111.217C146.771 110.472 146.22 109.546 145.933 108.53C145.646 107.513 145.632 106.441 145.892 105.418L147.844 97.7529C147.933 97.4042 147.94 97.0404 147.864 96.6887C147.789 96.3371 147.633 96.0068 147.409 95.7229L141.018 87.6484ZM134.712 84.7889C135.336 84.1762 136.085 83.7008 136.91 83.3943C137.734 83.0878 138.616 82.9572 139.496 83.0112C140.376 83.0651 141.235 83.3024 142.014 83.7073C142.794 84.1121 143.477 84.6753 144.018 85.3594L150.409 93.4304C151.581 94.9109 151.994 96.8394 151.531 98.6594L149.582 106.324C149.482 106.721 149.487 107.137 149.598 107.532C149.709 107.926 149.922 108.285 150.216 108.575L158.97 117.174C159.265 117.464 159.631 117.674 160.033 117.783C160.435 117.892 160.859 117.897 161.264 117.797L169.062 115.883C169.976 115.658 170.93 115.641 171.853 115.832C172.775 116.023 173.64 116.417 174.384 116.985L182.6 123.264C185.553 125.522 185.824 129.809 183.18 132.403L179.497 136.022C176.86 138.612 172.92 139.749 169.247 138.479C159.847 135.229 151.311 129.942 144.274 123.009C137.218 116.096 131.836 107.712 128.528 98.4774C127.238 94.8724 128.396 90.9979 131.032 88.4079L134.716 84.7889H134.712Z" fill="#FFF6D2"/>
</g>
<defs>
<clipPath id="clip0_4939_32735">
<rect width="57" height="56" fill="white" transform="translate(128 83)"/>
</clipPath>
</defs>
</svg>
