<svg width="312" height="319" viewBox="0 0 312 319" fill="none" xmlns="http://www.w3.org/2000/svg">
<rect x="2" y="2" width="308" height="315" rx="50" fill="#10454F" stroke="#CA8923" stroke-width="4"/>
<path d="M93.6416 209.035L87.0416 204.14C86.1066 203.48 85.7216 202.875 85.7216 201.665V198.035C85.7216 197.1 86.1616 196.66 87.0966 196.66H87.7016C88.6366 196.66 89.0766 197.1 89.0766 198.035V204.36H96.6116V197.32C96.6116 192.535 94.2466 190.17 89.4616 190.17H85.2816C80.4966 190.17 78.1316 192.535 78.1316 197.32V203.425C78.1316 206.175 78.8466 207.77 81.2116 209.475L87.8116 214.37C88.7466 215.03 89.1316 215.635 89.1316 216.845V221.465C89.1316 222.4 88.6916 222.84 87.7566 222.84H87.0416C86.1066 222.84 85.6666 222.4 85.6666 221.465V213.985H78.1316V222.18C78.1316 226.965 80.4966 229.33 85.2816 229.33H89.5716C94.3566 229.33 96.7216 226.965 96.7216 222.18V215.085C96.7216 212.225 96.0066 210.74 93.6416 209.035ZM107.285 190.5H99.5853V229H107.285V190.5ZM100.74 188.575H105.965L110.31 183.35H103.215L100.74 188.575ZM122.216 213.71V221.355C122.216 222.29 121.776 222.73 120.841 222.73H119.576C118.641 222.73 118.201 222.29 118.201 221.355V198.145C118.201 197.21 118.641 196.77 119.576 196.77H120.676C121.611 196.77 122.051 197.21 122.051 198.145V204.69H129.641V197.32C129.641 192.535 127.276 190.17 122.491 190.17H117.651C112.866 190.17 110.501 192.535 110.501 197.32V222.18C110.501 226.965 112.866 229.33 117.651 229.33H122.601C127.386 229.33 129.751 226.965 129.751 222.18V207.275H119.796V213.71H122.216ZM151.838 190.5H144.138V221.355C144.138 222.29 143.698 222.73 142.763 222.73H141.938C141.003 222.73 140.563 222.29 140.563 221.355V190.5H132.863V222.18C132.863 226.965 135.228 229.33 140.013 229.33H144.688C149.473 229.33 151.838 226.965 151.838 222.18V190.5ZM155.01 190.5V229H169.42V222.125H162.71V212.885H169.035V206.01H162.71V197.375H169.31V190.5H155.01ZM191.185 229V190.5H184.53L184.585 198.475L184.695 209.585L180.24 190.5H172.375V229H179.03L178.92 217.835L178.81 208.045L183.705 229H191.185ZM213.553 222.18V197.32C213.553 192.535 211.188 190.17 206.403 190.17H201.453C196.668 190.17 194.303 192.535 194.303 197.32V222.18C194.303 226.965 196.668 229.33 201.453 229.33H206.403C211.188 229.33 213.553 226.965 213.553 222.18ZM205.853 198.145V221.355C205.853 222.29 205.413 222.73 204.478 222.73H203.378C202.443 222.73 202.003 222.29 202.003 221.355V198.145C202.003 197.21 202.443 196.77 203.378 196.77H204.478C205.413 196.77 205.853 197.21 205.853 198.145ZM232.01 209.035L225.41 204.14C224.475 203.48 224.09 202.875 224.09 201.665V198.035C224.09 197.1 224.53 196.66 225.465 196.66H226.07C227.005 196.66 227.445 197.1 227.445 198.035V204.36H234.98V197.32C234.98 192.535 232.615 190.17 227.83 190.17H223.65C218.865 190.17 216.5 192.535 216.5 197.32V203.425C216.5 206.175 217.215 207.77 219.58 209.475L226.18 214.37C227.115 215.03 227.5 215.635 227.5 216.845V221.465C227.5 222.4 227.06 222.84 226.125 222.84H225.41C224.475 222.84 224.035 222.4 224.035 221.465V213.985H216.5V222.18C216.5 226.965 218.865 229.33 223.65 229.33H227.94C232.725 229.33 235.09 226.965 235.09 222.18V215.085C235.09 212.225 234.375 210.74 232.01 209.035Z" fill="#CA8923"/>
<path d="M78.0341 252.5H76.1841L75.4341 260.975V265H78.7841V260.975L78.0341 252.5ZM78.6841 247.5H75.5341V251.35H78.6841V247.5ZM89.0739 265V247.5H86.0489L86.0739 251.125L86.1239 256.175L84.0989 247.5H80.5239V265H83.5489L83.4989 259.925L83.4489 255.475L85.6739 265H89.0739ZM99.514 261.9V250.6C99.514 248.425 98.439 247.35 96.264 247.35H94.014C91.839 247.35 90.764 248.425 90.764 250.6V261.9C90.764 264.075 91.839 265.15 94.014 265.15H96.264C98.439 265.15 99.514 264.075 99.514 261.9ZM96.014 250.975V261.525C96.014 261.95 95.814 262.15 95.389 262.15H94.889C94.464 262.15 94.264 261.95 94.264 261.525V250.975C94.264 250.55 94.464 250.35 94.889 250.35H95.389C95.814 250.35 96.014 250.55 96.014 250.975ZM110.37 265V250.625H112.495V247.5H104.745V250.625H106.87V265H110.37ZM113.872 247.5V265H120.422V261.875H117.372V257.675H120.247V254.55H117.372V250.625H120.372V247.5H113.872ZM129.431 258.925H131.056C133.231 258.925 134.306 257.85 134.306 255.675V250.75C134.306 248.575 133.231 247.5 131.056 247.5H125.931V265H129.431V258.925ZM130.806 251.125V255.3C130.806 255.725 130.606 255.925 130.181 255.925H129.431V250.5H130.181C130.606 250.5 130.806 250.7 130.806 251.125ZM139.307 247.5H135.807V265H139.307V247.5ZM141.091 247.5V265H147.641V261.875H144.591V257.675H147.466V254.55H144.591V250.625H147.591V247.5H141.091ZM156.232 256.725C157.182 256.375 157.732 255.625 157.732 254.125V250.75C157.732 248.575 156.657 247.5 154.482 247.5H149.257V265H152.757V258.375H153.632C154.057 258.375 154.257 258.575 154.257 259V265H157.757V258.975C157.757 257.7 157.307 257.025 156.232 256.725ZM154.232 251.175V254.775C154.232 255.2 154.032 255.4 153.607 255.4H152.757V250.55H153.607C154.032 250.55 154.232 250.75 154.232 251.175ZM159.425 265H164.35C166.875 265 168.1 263.775 168.1 261.25V251.25C168.1 248.725 166.875 247.5 164.35 247.5H159.425V265ZM162.925 250.5H163.625C164.3 250.5 164.6 250.8 164.6 251.475V261.025C164.6 261.7 164.3 262 163.625 262H162.925V250.5ZM178.542 265L176.242 247.5H171.467L169.167 265H172.342L172.592 262.45H174.792L175.067 265H178.542ZM173.692 251.775L174.467 259.4H172.917L173.692 251.775ZM186.614 255.925L183.614 253.7C183.189 253.4 183.014 253.125 183.014 252.575V250.925C183.014 250.5 183.214 250.3 183.639 250.3H183.914C184.339 250.3 184.539 250.5 184.539 250.925V253.8H187.964V250.6C187.964 248.425 186.889 247.35 184.714 247.35H182.814C180.639 247.35 179.564 248.425 179.564 250.6V253.375C179.564 254.625 179.889 255.35 180.964 256.125L183.964 258.35C184.389 258.65 184.564 258.925 184.564 259.475V261.575C184.564 262 184.364 262.2 183.939 262.2H183.614C183.189 262.2 182.989 262 182.989 261.575V258.175H179.564V261.9C179.564 264.075 180.639 265.15 182.814 265.15H184.764C186.939 265.15 188.014 264.075 188.014 261.9V258.675C188.014 257.375 187.689 256.7 186.614 255.925ZM202.007 265V247.5H198.982L199.007 251.125L199.057 256.175L197.032 247.5H193.457V265H196.482L196.432 259.925L196.382 255.475L198.607 265H202.007ZM212.622 265L210.322 247.5H205.547L203.247 265H206.422L206.672 262.45H208.872L209.147 265H212.622ZM207.772 251.775L208.547 259.4H206.997L207.772 251.775ZM213.866 265H218.791C221.316 265 222.541 263.775 222.541 261.25V251.25C222.541 248.725 221.316 247.5 218.791 247.5H213.866V265ZM217.366 250.5H218.066C218.741 250.5 219.041 250.8 219.041 251.475V261.025C219.041 261.7 218.741 262 218.066 262H217.366V250.5ZM232.982 265L230.682 247.5H225.907L223.607 265H226.782L227.032 262.45H229.232L229.507 265H232.982ZM228.132 251.775L228.907 259.4H227.357L228.132 251.775ZM237.576 251.525V247.5H234.226V251.525L234.976 260H236.826L237.576 251.525ZM237.476 261.15H234.326V265H237.476V261.15Z" fill="#FFF6D2"/>
<rect x="102.5" y="56.5" width="108" height="108" rx="54" stroke="#FFF6D2" stroke-width="5"/>
<path d="M176.781 136.312H160.188C159.699 136.312 159.23 136.118 158.884 135.772C158.538 135.427 158.344 134.958 158.344 134.469V116.031C158.344 115.542 158.538 115.073 158.884 114.728C159.23 114.382 159.699 114.188 160.188 114.188H164.612L165.184 110.5H160.188C159.699 110.5 159.23 110.306 158.884 109.96C158.538 109.614 158.344 109.145 158.344 108.656V105.577C158.327 103.944 158.874 102.355 159.892 101.078C160.413 100.552 161.033 100.136 161.717 99.8544C162.402 99.5725 163.135 99.4308 163.875 99.4375H165.719V95.75H163.432C162.087 95.6857 160.742 95.8902 159.477 96.3514C158.211 96.8126 157.05 97.5213 156.061 98.4361C155.073 99.351 154.276 100.454 153.718 101.68C153.161 102.906 152.853 104.231 152.812 105.577V108.656C152.812 109.145 152.618 109.614 152.272 109.96C151.927 110.306 151.458 110.5 150.969 110.5H147.281V114.188H150.969C151.458 114.188 151.927 114.382 152.272 114.728C152.618 115.073 152.812 115.542 152.812 116.031V134.469C152.812 134.958 152.618 135.427 152.272 135.772C151.927 136.118 151.458 136.312 150.969 136.312H136.219C134.752 136.312 133.345 135.73 132.308 134.692C131.27 133.655 130.688 132.248 130.688 130.781V90.2188C130.688 88.7518 131.27 87.3449 132.308 86.3076C133.345 85.2703 134.752 84.6875 136.219 84.6875H176.781C178.248 84.6875 179.655 85.2703 180.692 86.3076C181.73 87.3449 182.312 88.7518 182.312 90.2188V130.781C182.312 132.248 181.73 133.655 180.692 134.692C179.655 135.73 178.248 136.312 176.781 136.312ZM162.031 132.625H176.781C177.27 132.625 177.739 132.431 178.085 132.085C178.431 131.739 178.625 131.27 178.625 130.781V90.2188C178.625 89.7298 178.431 89.2608 178.085 88.915C177.739 88.5693 177.27 88.375 176.781 88.375H136.219C135.73 88.375 135.261 88.5693 134.915 88.915C134.569 89.2608 134.375 89.7298 134.375 90.2188V130.781C134.375 131.27 134.569 131.739 134.915 132.085C135.261 132.431 135.73 132.625 136.219 132.625H149.125V117.875H146.507C145.734 117.875 144.993 117.568 144.447 117.022C143.901 116.475 143.594 115.734 143.594 114.962V109.707C143.599 108.938 143.908 108.202 144.453 107.659C144.999 107.117 145.737 106.812 146.507 106.812H149.125V105.596C149.231 101.908 150.795 98.4132 153.473 95.8765C156.152 93.3398 159.726 91.9683 163.414 92.0625H166.493C167.263 92.0625 168.001 92.3669 168.547 92.9092C169.092 93.4515 169.401 94.1878 169.406 94.9572V100.193C169.411 100.578 169.339 100.96 169.195 101.317C169.05 101.673 168.836 101.998 168.565 102.271C168.294 102.544 167.971 102.76 167.615 102.907C167.259 103.053 166.878 103.127 166.493 103.125H163.875C163.389 103.132 162.925 103.331 162.584 103.678C162.283 104.247 162.119 104.878 162.105 105.522V106.812H166.143C166.965 106.852 167.742 107.201 168.318 107.79C168.599 108.095 168.809 108.458 168.933 108.853C169.057 109.248 169.093 109.665 169.037 110.076L168.226 115.404C168.118 116.111 167.754 116.753 167.203 117.209C166.653 117.664 165.954 117.901 165.239 117.875H162.031V132.625Z" fill="#FFF6D2"/>
</svg>
