<svg width="213" height="69" viewBox="0 0 213 69" fill="none" xmlns="http://www.w3.org/2000/svg">
<rect x="1.5" y="1.5" width="210" height="66" rx="33" fill="#10454F" stroke="#CA8923" stroke-width="3"/>
<path d="M32.04 29.32C30.7867 29.32 29.94 29.7333 29.5 30.56C29.06 31.3733 28.84 32.7533 28.84 34.7C28.84 36.6333 29.06 38.0133 29.5 38.84C29.94 39.6667 30.7867 40.08 32.04 40.08C33.0133 40.08 33.7 39.8133 34.1 39.28C34.5133 38.7467 34.7333 37.9733 34.76 36.96L36.96 37.06C36.8533 38.78 36.44 40.08 35.72 40.96C35.0133 41.84 33.7867 42.28 32.04 42.28C29.76 42.28 28.1867 41.6133 27.32 40.28C26.88 39.6133 26.5667 38.84 26.38 37.96C26.2067 37.0667 26.12 35.98 26.12 34.7C26.12 33.42 26.2067 32.34 26.38 31.46C26.5667 30.5667 26.88 29.7867 27.32 29.12C28.1867 27.7867 29.76 27.12 32.04 27.12C33.68 27.12 34.86 27.4867 35.58 28.22C36.3 28.9533 36.74 30.0333 36.9 31.46L34.7 31.8C34.62 31 34.3733 30.3867 33.96 29.96C33.5467 29.5333 32.9067 29.32 32.04 29.32ZM41.4395 39.22C41.7862 39.8867 42.4529 40.22 43.4395 40.22C44.4262 40.22 45.0929 39.8867 45.4395 39.22C45.7862 38.5533 45.9595 37.5733 45.9595 36.28C45.9595 34.9867 45.7862 34.0067 45.4395 33.34C45.0929 32.6733 44.4262 32.34 43.4395 32.34C42.4529 32.34 41.7862 32.6733 41.4395 33.34C41.0929 34.0067 40.9195 34.9867 40.9195 36.28C40.9195 37.5733 41.0929 38.5533 41.4395 39.22ZM48.6395 36.28C48.6395 40.28 46.9062 42.28 43.4395 42.28C39.9729 42.28 38.2395 40.28 38.2395 36.28C38.2395 32.28 39.9729 30.28 43.4395 30.28C46.9062 30.28 48.6395 32.28 48.6395 36.28ZM53.3555 31.6C54.6088 30.72 55.8888 30.28 57.1955 30.28C58.5155 30.28 59.4688 30.6067 60.0555 31.26C60.6421 31.9 60.9355 32.7867 60.9355 33.92V42H58.2555V34.2C58.2555 33.52 58.1288 33.04 57.8755 32.76C57.6355 32.48 57.2088 32.34 56.5955 32.34C55.6355 32.34 54.7421 32.64 53.9155 33.24V42H51.2355V30.56H52.4955L53.3555 31.6ZM66.5372 39.22C66.8839 39.8867 67.5505 40.22 68.5372 40.22C69.5239 40.22 70.1905 39.8867 70.5372 39.22C70.8839 38.5533 71.0572 37.5733 71.0572 36.28C71.0572 34.9867 70.8839 34.0067 70.5372 33.34C70.1905 32.6733 69.5239 32.34 68.5372 32.34C67.5505 32.34 66.8839 32.6733 66.5372 33.34C66.1905 34.0067 66.0172 34.9867 66.0172 36.28C66.0172 37.5733 66.1905 38.5533 66.5372 39.22ZM73.7372 36.28C73.7372 40.28 72.0039 42.28 68.5372 42.28C65.0705 42.28 63.3372 40.28 63.3372 36.28C63.3372 32.28 65.0705 30.28 68.5372 30.28C72.0039 30.28 73.7372 32.28 73.7372 36.28ZM78.3531 33.3C78.0198 33.94 77.8531 34.9333 77.8531 36.28C77.8531 37.6267 78.0198 38.62 78.3531 39.26C78.6998 39.9 79.2931 40.22 80.1331 40.22C80.9865 40.22 81.5931 40.0467 81.9531 39.7C82.3265 39.3533 82.5265 38.8067 82.5531 38.06L84.6531 38.16C84.5731 39.52 84.1731 40.5467 83.4531 41.24C82.7465 41.9333 81.5798 42.28 79.9531 42.28C78.0465 42.28 76.7465 41.66 76.0531 40.42C75.7198 39.82 75.4865 39.1933 75.3531 38.54C75.2331 37.8867 75.1731 37.1333 75.1731 36.28C75.1731 35.4133 75.2331 34.6533 75.3531 34C75.4865 33.3333 75.7198 32.7067 76.0531 32.12C76.7331 30.8933 78.0331 30.28 79.9531 30.28C81.5665 30.28 82.7265 30.6133 83.4331 31.28C84.1398 31.9333 84.5398 32.9133 84.6331 34.22L82.5531 34.5C82.5265 33.7533 82.3265 33.2067 81.9531 32.86C81.5931 32.5133 80.9865 32.34 80.1331 32.34C79.2931 32.34 78.6998 32.66 78.3531 33.3ZM91.0158 42.28C89.1758 42.28 87.8624 41.7867 87.0758 40.8C86.2891 39.8 85.8958 38.2933 85.8958 36.28C85.8958 32.28 87.5758 30.28 90.9358 30.28C92.8691 30.28 94.1891 30.88 94.8958 32.08C95.5091 33.1067 95.8158 34.44 95.8158 36.08V36.8H88.4958C88.5091 38.0533 88.7158 38.94 89.1158 39.46C89.5158 39.9667 90.1758 40.22 91.0958 40.22C92.5758 40.22 93.3624 39.6867 93.4558 38.62L95.6558 38.7C95.4424 41.0867 93.8958 42.28 91.0158 42.28ZM92.5558 33C92.2224 32.56 91.6758 32.34 90.9158 32.34C90.1558 32.34 89.5958 32.5533 89.2358 32.98C88.8891 33.3933 88.6624 34.06 88.5558 34.98H93.1758C93.0958 34.0867 92.8891 33.4267 92.5558 33ZM109.373 30.28C110.973 30.28 112.093 30.74 112.733 31.66C113.88 30.74 115.1 30.28 116.393 30.28C117.7 30.28 118.666 30.6067 119.293 31.26C119.92 31.9 120.233 32.7867 120.233 33.92V42H117.553V34.36C117.553 33.6667 117.426 33.16 117.173 32.84C116.92 32.5067 116.473 32.34 115.833 32.34C114.926 32.34 114.093 32.6533 113.333 33.28C113.36 33.5467 113.373 33.76 113.373 33.92V42H110.693V34.36C110.693 33.6667 110.56 33.16 110.293 32.84C110.026 32.5067 109.513 32.34 108.753 32.34C108.006 32.34 107.26 32.6067 106.513 33.14V42H103.833V30.56H105.253L105.953 31.5C107.033 30.6867 108.173 30.28 109.373 30.28ZM127.814 30.28C130.721 30.28 132.174 31.6067 132.174 34.26V42H130.434L129.674 40.6C128.607 41.72 127.361 42.28 125.934 42.28C124.921 42.28 124.147 42 123.614 41.44C123.094 40.8667 122.834 40.1067 122.834 39.16C122.834 38.2 123.134 37.4267 123.734 36.84C124.334 36.2533 125.454 35.84 127.094 35.6L129.494 35.24V34.28C129.494 32.9867 128.881 32.34 127.654 32.34C126.494 32.34 125.807 32.9267 125.594 34.1L123.514 33.48C124.021 31.3467 125.454 30.28 127.814 30.28ZM126.794 40.32C127.701 40.32 128.601 39.8733 129.494 38.98V36.92L127.574 37.26C126.707 37.4067 126.134 37.64 125.854 37.96C125.574 38.28 125.434 38.64 125.434 39.04C125.434 39.44 125.554 39.7533 125.794 39.98C126.034 40.2067 126.367 40.32 126.794 40.32ZM127.074 29.6L126.174 28.16L130.074 25.5L131.274 27.42L127.074 29.6ZM143.908 38.8C143.908 41.08 142.308 42.22 139.108 42.22C137.708 42.22 136.668 41.92 135.988 41.32C135.308 40.7067 134.881 39.82 134.708 38.66L136.788 38.34C136.934 39.62 137.728 40.26 139.168 40.26C140.621 40.26 141.348 39.8067 141.348 38.9C141.348 38.5267 141.201 38.2467 140.908 38.06C140.628 37.8733 140.054 37.68 139.188 37.48L138.268 37.26C137.081 36.98 136.228 36.5733 135.708 36.04C135.201 35.4933 134.948 34.7067 134.948 33.68C134.948 31.4133 136.494 30.28 139.588 30.28C140.921 30.28 141.914 30.5867 142.568 31.2C143.234 31.8 143.648 32.68 143.808 33.84L141.728 34.14C141.581 32.8733 140.841 32.24 139.508 32.24C138.188 32.24 137.528 32.6933 137.528 33.6C137.528 33.9733 137.654 34.26 137.908 34.46C138.174 34.6467 138.708 34.8333 139.508 35.02L140.548 35.28C141.734 35.5733 142.588 35.9867 143.108 36.52C143.641 37.04 143.908 37.8 143.908 38.8Z" fill="#FFF7D2"/>
<path d="M192.015 29.4384C190.619 24.086 186.314 19.7808 180.904 18.4424C175.493 17.104 169.617 18.8497 165.894 23.0385C161.298 28.1582 160.716 35.8377 164.439 41.6555C164.148 43.7499 163.916 45.8443 163.625 47.9387C163.508 48.695 164.439 49.2186 165.079 49.0441C167.115 48.4623 169.21 47.9387 171.246 47.3569C176.773 49.6259 183.173 48.5787 187.594 44.5062C191.725 40.7246 193.412 34.7908 192.016 29.4384H192.015ZM187.943 40.6671C184.452 45.7868 177.587 47.707 171.944 45.1468H171.886C171.653 45.0305 171.362 44.9723 171.013 45.0305C169.384 45.4959 167.755 45.9031 166.126 46.3685C166.301 44.9723 166.475 43.6342 166.65 42.2379C166.708 41.7725 166.825 41.2489 166.592 40.7835C166.417 40.4926 166.185 40.2017 166.01 39.8526C165.603 39.1545 165.254 38.3982 164.963 37.6418C164.032 34.9656 163.974 31.9986 164.846 29.3227C166.359 24.6103 170.664 21.0614 175.551 20.4796C180.613 19.7815 185.674 22.225 188.292 26.472C190.968 30.8353 190.794 36.4201 187.943 40.6674V40.6671Z" fill="#FFF6D2"/>
<path d="M185.325 35.1983L182.707 33.162C181.892 32.5221 180.787 32.6384 180.089 33.3366L179.333 34.0929C178.751 33.7438 178.227 33.3366 177.704 32.8711C177.238 32.4057 176.831 31.8239 176.482 31.2422L177.238 30.4858C177.936 29.7877 177.995 28.6823 177.413 27.8678L175.376 25.1916C174.969 24.6099 174.329 24.2608 173.631 24.2608C172.933 24.2026 172.235 24.4935 171.769 24.9589L169.501 27.2279C168.221 28.5078 167.93 30.4858 168.744 32.1148C169.85 34.2092 171.246 36.0709 172.875 37.6999C174.504 39.3289 176.424 40.7252 178.46 41.8306C179.1 42.1796 179.74 42.296 180.38 42.296C181.427 42.296 182.532 41.8887 183.289 41.0743L185.558 38.8053C186.023 38.3399 186.314 37.6417 186.256 36.9436C186.256 36.2455 185.907 35.6055 185.325 35.1983ZM183.929 37.1763L181.66 39.4453C181.078 40.027 180.205 40.1434 179.507 39.7943C177.645 38.8053 175.958 37.5836 174.446 36.0709C172.933 34.5583 171.711 32.8711 170.722 31.0094C170.373 30.3113 170.49 29.4386 171.071 28.8569L173.34 26.5879H173.398C173.457 26.5879 173.457 26.5879 173.457 26.6461L175.318 29.0896L174.562 29.7877C173.98 30.3695 173.806 31.3003 174.213 32.0567C174.678 32.9875 175.318 33.802 176.016 34.5001C176.715 35.1983 177.529 35.8382 178.46 36.3037C179.216 36.7109 180.089 36.5364 180.671 35.9546L181.485 35.1401L183.87 37.0018C183.87 37.0018 183.929 37.0018 183.929 37.06V37.1763Z" fill="#FFF6D2"/>
</svg>
