<svg width="312" height="319" viewBox="0 0 312 319" fill="none" xmlns="http://www.w3.org/2000/svg">
<rect x="2" y="2" width="308" height="315" rx="50" fill="#10454F" stroke="#CA8923" stroke-width="4"/>
<path d="M59.2944 194.5V233H73.7044V226.125H66.9944V216.885H73.3194V210.01H66.9944V201.375H73.5944V194.5H59.2944ZM91.7885 213.035L85.1885 208.14C84.2535 207.48 83.8685 206.875 83.8685 205.665V202.035C83.8685 201.1 84.3085 200.66 85.2435 200.66H85.8485C86.7835 200.66 87.2235 201.1 87.2235 202.035V208.36H94.7585V201.32C94.7585 196.535 92.3935 194.17 87.6085 194.17H83.4285C78.6435 194.17 76.2785 196.535 76.2785 201.32V207.425C76.2785 210.175 76.9935 211.77 79.3585 213.475L85.9585 218.37C86.8935 219.03 87.2785 219.635 87.2785 220.845V225.465C87.2785 226.4 86.8385 226.84 85.9035 226.84H85.1885C84.2535 226.84 83.8135 226.4 83.8135 225.465V217.985H76.2785V226.18C76.2785 230.965 78.6435 233.33 83.4285 233.33H87.7185C92.5035 233.33 94.8685 230.965 94.8685 226.18V219.085C94.8685 216.225 94.1535 214.74 91.7885 213.035ZM109.007 216.005V225.355C109.007 226.29 108.567 226.73 107.632 226.73H106.642C105.707 226.73 105.267 226.29 105.267 225.355V202.145C105.267 201.21 105.707 200.77 106.642 200.77H107.522C108.457 200.77 108.897 201.21 108.897 202.145V210.34H116.487V201.32C116.487 196.535 114.122 194.17 109.337 194.17H104.717C99.9322 194.17 97.5672 196.535 97.5672 201.32V226.18C97.5672 230.965 99.9322 233.33 104.717 233.33H109.447C114.232 233.33 116.597 230.965 116.597 226.18V216.005H109.007ZM135.007 214.795C137.097 214.025 138.307 212.375 138.307 209.075V201.65C138.307 196.865 135.942 194.5 131.157 194.5H119.662V233H127.362V218.425H129.287C130.222 218.425 130.662 218.865 130.662 219.8V233H138.362V219.745C138.362 216.94 137.372 215.455 135.007 214.795ZM130.607 202.585V210.505C130.607 211.44 130.167 211.88 129.232 211.88H127.362V201.21H129.232C130.167 201.21 130.607 201.65 130.607 202.585ZM149.186 194.5H141.486V233H149.186V194.5ZM142.641 192.575H147.866L152.211 187.35H145.116L142.641 192.575ZM167.802 213.09C169.837 212.32 170.992 210.67 170.992 207.37V201.65C170.992 196.865 168.627 194.5 163.842 194.5H152.512V233H163.952C168.737 233 171.102 230.635 171.102 225.85V218.04C171.102 215.235 170.112 213.75 167.802 213.09ZM163.347 202.475V208.855C163.347 209.79 162.907 210.23 161.972 210.23H160.157V201.1H161.972C162.907 201.1 163.347 201.54 163.347 202.475ZM160.157 216.665H162.082C163.017 216.665 163.457 217.105 163.457 218.04V225.025C163.457 225.96 163.017 226.4 162.082 226.4H160.157V216.665ZM174.067 194.5V233H188.477V226.125H181.767V216.885H188.092V210.01H181.767V201.375H188.367V194.5H174.067ZM210.242 233V194.5H203.587L203.642 202.475L203.752 213.585L199.297 194.5H191.432V233H198.087L197.977 221.835L197.867 212.045L202.762 233H210.242ZM232.61 226.18V201.32C232.61 196.535 230.245 194.17 225.46 194.17H220.51C215.725 194.17 213.36 196.535 213.36 201.32V226.18C213.36 230.965 215.725 233.33 220.51 233.33H225.46C230.245 233.33 232.61 230.965 232.61 226.18ZM224.91 202.145V225.355C224.91 226.29 224.47 226.73 223.535 226.73H222.435C221.5 226.73 221.06 226.29 221.06 225.355V202.145C221.06 201.21 221.5 200.77 222.435 200.77H223.535C224.47 200.77 224.91 201.21 224.91 202.145ZM251.067 213.035L244.467 208.14C243.532 207.48 243.147 206.875 243.147 205.665V202.035C243.147 201.1 243.587 200.66 244.522 200.66H245.127C246.062 200.66 246.502 201.1 246.502 202.035V208.36H254.037V201.32C254.037 196.535 251.672 194.17 246.887 194.17H242.707C237.922 194.17 235.557 196.535 235.557 201.32V207.425C235.557 210.175 236.272 211.77 238.637 213.475L245.237 218.37C246.172 219.03 246.557 219.635 246.557 220.845V225.465C246.557 226.4 246.117 226.84 245.182 226.84H244.467C243.532 226.84 243.092 226.4 243.092 225.465V217.985H235.557V226.18C235.557 230.965 237.922 233.33 242.707 233.33H246.997C251.782 233.33 254.147 230.965 254.147 226.18V219.085C254.147 216.225 253.432 214.74 251.067 213.035Z" fill="#CA8923"/>
<path d="M39.8987 255.925L36.8987 253.7C36.4737 253.4 36.2987 253.125 36.2987 252.575V250.925C36.2987 250.5 36.4987 250.3 36.9237 250.3H37.1987C37.6237 250.3 37.8237 250.5 37.8237 250.925V253.8H41.2487V250.6C41.2487 248.425 40.1737 247.35 37.9987 247.35H36.0987C33.9237 247.35 32.8487 248.425 32.8487 250.6V253.375C32.8487 254.625 33.1737 255.35 34.2487 256.125L37.2487 258.35C37.6737 258.65 37.8487 258.925 37.8487 259.475V261.575C37.8487 262 37.6487 262.2 37.2237 262.2H36.8987C36.4737 262.2 36.2737 262 36.2737 261.575V258.175H32.8487V261.9C32.8487 264.075 33.9237 265.15 36.0987 265.15H38.0487C40.2237 265.15 41.2987 264.075 41.2987 261.9V258.675C41.2987 257.375 40.9737 256.7 39.8987 255.925ZM51.4481 247.5H47.9481V261.525C47.9481 261.95 47.7481 262.15 47.3231 262.15H46.9481C46.5231 262.15 46.3231 261.95 46.3231 261.525V247.5H42.8231V261.9C42.8231 264.075 43.8981 265.15 46.0731 265.15H48.1981C50.3731 265.15 51.4481 264.075 51.4481 261.9V247.5ZM56.6626 258.925H58.2876C60.4626 258.925 61.5376 257.85 61.5376 255.675V250.75C61.5376 248.575 60.4626 247.5 58.2876 247.5H53.1626V265H56.6626V258.925ZM58.0376 251.125V255.3C58.0376 255.725 57.8376 255.925 57.4126 255.925H56.6626V250.5H57.4126C57.8376 250.5 58.0376 250.7 58.0376 251.125ZM66.5132 258.925H68.1382C70.3132 258.925 71.3882 257.85 71.3882 255.675V250.75C71.3882 248.575 70.3132 247.5 68.1382 247.5H63.0132V265H66.5132V258.925ZM67.8882 251.125V255.3C67.8882 255.725 67.6882 255.925 67.2632 255.925H66.5132V250.5H67.2632C67.6882 250.5 67.8882 250.7 67.8882 251.125ZM81.5638 261.9V250.6C81.5638 248.425 80.4888 247.35 78.3138 247.35H76.0638C73.8888 247.35 72.8138 248.425 72.8138 250.6V261.9C72.8138 264.075 73.8888 265.15 76.0638 265.15H78.3138C80.4888 265.15 81.5638 264.075 81.5638 261.9ZM78.0638 250.975V261.525C78.0638 261.95 77.8638 262.15 77.4388 262.15H76.9388C76.5138 262.15 76.3138 261.95 76.3138 261.525V250.975C76.3138 250.55 76.5138 250.35 76.9388 250.35H77.4388C77.8638 250.35 78.0638 250.55 78.0638 250.975ZM90.2509 256.725C91.2009 256.375 91.7509 255.625 91.7509 254.125V250.75C91.7509 248.575 90.6759 247.5 88.5009 247.5H83.2759V265H86.7759V258.375H87.6509C88.0759 258.375 88.2759 258.575 88.2759 259V265H91.7759V258.975C91.7759 257.7 91.3259 257.025 90.2509 256.725ZM88.2509 251.175V254.775C88.2509 255.2 88.0509 255.4 87.6259 255.4H86.7759V250.55H87.6259C88.0509 250.55 88.2509 250.75 88.2509 251.175ZM98.5718 265V250.625H100.697V247.5H92.9468V250.625H95.0718V265H98.5718ZM111.324 264.325C112.674 264.325 113.274 263.625 113.274 262.2V253.175C113.274 250.25 112.024 249.075 109.374 249.075H106.024C103.374 249.075 102.124 250.25 102.124 253.175V262.775C102.124 265.7 103.374 266.875 106.024 266.875H112.324V266.025H106.024C103.974 266.025 103.024 265.125 103.024 262.775V253.175C103.024 250.825 103.974 249.925 106.024 249.925H109.374C111.424 249.925 112.374 250.825 112.374 253.175V262.2C112.374 263.15 112.024 263.475 111.374 263.475H111.299C110.924 263.475 110.774 263.325 110.774 262.95V253.825C110.774 252.325 109.974 251.575 108.399 251.575H107.074C105.474 251.575 104.649 252.325 104.649 253.825V255.875H107.174V254.275C107.174 254 107.299 253.875 107.574 253.875H107.774C108.049 253.875 108.174 254 108.174 254.275V256.3L106.174 256.975C104.949 257.4 104.524 258.1 104.524 259.525V262.325C104.524 263.65 105.249 264.35 106.349 264.35C107.174 264.35 107.674 264.05 108.349 263.4C108.724 264.025 109.299 264.325 110.174 264.325H111.324ZM107.624 261.9C107.224 261.9 107.049 261.75 107.049 261.4V259.7C107.049 259.275 107.174 259.025 107.524 258.875L108.174 258.6V261.8C107.999 261.85 107.899 261.9 107.624 261.9ZM122.024 255.925L119.024 253.7C118.599 253.4 118.424 253.125 118.424 252.575V250.925C118.424 250.5 118.624 250.3 119.049 250.3H119.324C119.749 250.3 119.949 250.5 119.949 250.925V253.8H123.374V250.6C123.374 248.425 122.299 247.35 120.124 247.35H118.224C116.049 247.35 114.974 248.425 114.974 250.6V253.375C114.974 254.625 115.299 255.35 116.374 256.125L119.374 258.35C119.799 258.65 119.974 258.925 119.974 259.475V261.575C119.974 262 119.774 262.2 119.349 262.2H119.024C118.599 262.2 118.399 262 118.399 261.575V258.175H114.974V261.9C114.974 264.075 116.049 265.15 118.224 265.15H120.174C122.349 265.15 123.424 264.075 123.424 261.9V258.675C123.424 257.375 123.099 256.7 122.024 255.925ZM133.726 265L131.426 247.5H126.651L124.351 265H127.526L127.776 262.45H129.976L130.251 265H133.726ZM128.876 251.775L129.651 259.4H128.101L128.876 251.775ZM139.998 257.275V261.525C139.998 261.95 139.798 262.15 139.373 262.15H138.923C138.498 262.15 138.298 261.95 138.298 261.525V250.975C138.298 250.55 138.498 250.35 138.923 250.35H139.323C139.748 250.35 139.948 250.55 139.948 250.975V254.7H143.398V250.6C143.398 248.425 142.323 247.35 140.148 247.35H138.048C135.873 247.35 134.798 248.425 134.798 250.6V261.9C134.798 264.075 135.873 265.15 138.048 265.15H140.198C142.373 265.15 143.448 264.075 143.448 261.9V257.275H139.998ZM152.064 255.95C152.989 255.6 153.514 254.85 153.514 253.35V250.75C153.514 248.575 152.439 247.5 150.264 247.5H145.114V265H150.314C152.489 265 153.564 263.925 153.564 261.75V258.2C153.564 256.925 153.114 256.25 152.064 255.95ZM150.039 251.125V254.025C150.039 254.45 149.839 254.65 149.414 254.65H148.589V250.5H149.414C149.839 250.5 150.039 250.7 150.039 251.125ZM148.589 257.575H149.464C149.889 257.575 150.089 257.775 150.089 258.2V261.375C150.089 261.8 149.889 262 149.464 262H148.589V257.575ZM155.184 247.5V265H161.734V261.875H158.684V257.675H161.559V254.55H158.684V250.625H161.684V247.5H155.184ZM166.85 258.925H168.475C170.65 258.925 171.725 257.85 171.725 255.675V250.75C171.725 248.575 170.65 247.5 168.475 247.5H163.35V265H166.85V258.925ZM168.225 251.125V255.3C168.225 255.725 168.025 255.925 167.6 255.925H166.85V250.5H167.6C168.025 250.5 168.225 250.7 168.225 251.125ZM181.441 265L179.141 247.5H174.366L172.066 265H175.241L175.491 262.45H177.691L177.966 265H181.441ZM176.591 251.775L177.366 259.4H175.816L176.591 251.775ZM187.606 258.775L190.556 247.5H187.231L185.981 253.45L184.806 247.5H181.156L184.106 259.025V265H187.606V258.775ZM195.708 265H199.008L200.333 253.55V265H203.783V247.5H198.708L197.633 258.1L196.633 247.5H191.583V265H194.383V253.425L195.708 265ZM205.536 247.5V265H212.086V261.875H209.036V257.675H211.911V254.55H209.036V250.625H212.036V247.5H205.536ZM222.252 265V247.5H219.227L219.252 251.125L219.302 256.175L217.277 247.5H213.702V265H216.727L216.677 259.925L216.627 255.475L218.852 265H222.252ZM229.242 265V250.625H231.367V247.5H223.617V250.625H225.742V265H229.242ZM239.572 255.925L236.572 253.7C236.147 253.4 235.972 253.125 235.972 252.575V250.925C235.972 250.5 236.172 250.3 236.597 250.3H236.872C237.297 250.3 237.497 250.5 237.497 250.925V253.8H240.922V250.6C240.922 248.425 239.847 247.35 237.672 247.35H235.772C233.597 247.35 232.522 248.425 232.522 250.6V253.375C232.522 254.625 232.847 255.35 233.922 256.125L236.922 258.35C237.347 258.65 237.522 258.925 237.522 259.475V261.575C237.522 262 237.322 262.2 236.897 262.2H236.572C236.147 262.2 235.947 262 235.947 261.575V258.175H232.522V261.9C232.522 264.075 233.597 265.15 235.772 265.15H237.722C239.897 265.15 240.972 264.075 240.972 261.9V258.675C240.972 257.375 240.647 256.7 239.572 255.925ZM245.596 261.15H242.346V265H245.596V261.15ZM252.321 257.275V261.525C252.321 261.95 252.121 262.15 251.696 262.15H251.246C250.821 262.15 250.621 261.95 250.621 261.525V250.975C250.621 250.55 250.821 250.35 251.246 250.35H251.646C252.071 250.35 252.271 250.55 252.271 250.975V254.7H255.721V250.6C255.721 248.425 254.646 247.35 252.471 247.35H250.371C248.196 247.35 247.121 248.425 247.121 250.6V261.9C247.121 264.075 248.196 265.15 250.371 265.15H252.521C254.696 265.15 255.771 264.075 255.771 261.9V257.275H252.321ZM266.137 261.9V250.6C266.137 248.425 265.062 247.35 262.887 247.35H260.637C258.462 247.35 257.387 248.425 257.387 250.6V261.9C257.387 264.075 258.462 265.15 260.637 265.15H262.887C265.062 265.15 266.137 264.075 266.137 261.9ZM262.637 250.975V261.525C262.637 261.95 262.437 262.15 262.012 262.15H261.512C261.087 262.15 260.887 261.95 260.887 261.525V250.975C260.887 250.55 261.087 250.35 261.512 250.35H262.012C262.437 250.35 262.637 250.55 262.637 250.975ZM271.974 265H275.274L276.599 253.55V265H280.049V247.5H274.974L273.899 258.1L272.899 247.5H267.849V265H270.649V253.425L271.974 265Z" fill="#FFF6D2"/>
<rect x="102.5" y="56.5" width="108" height="108" rx="54" stroke="#FFF6D2" stroke-width="5"/>
<path fill-rule="evenodd" clip-rule="evenodd" d="M132.875 90.8438C129.613 90.8438 126.969 93.4881 126.969 96.75V128.25C126.969 131.512 129.613 134.156 132.875 134.156H180.125C183.387 134.156 186.031 131.512 186.031 128.25V96.75C186.031 93.4881 183.387 90.8438 180.125 90.8438H132.875ZM130.906 97.2947V128.25C130.906 129.337 131.788 130.219 132.875 130.219H180.125C181.212 130.219 182.094 129.337 182.094 128.25V97.2948L163.195 112.293C163.172 112.311 163.149 112.329 163.125 112.346C159.211 115.176 153.789 115.176 149.875 112.346C149.851 112.329 149.828 112.311 149.805 112.293L130.906 97.2947ZM178.927 94.7812H134.073L152.216 109.18C154.74 110.982 158.261 110.982 160.784 109.18L178.927 94.7812Z" fill="#FFF6D2"/>
</svg>
