<svg width="167" height="69" viewBox="0 0 167 69" fill="none" xmlns="http://www.w3.org/2000/svg">
<rect x="1.5" y="1.5" width="164" height="66" rx="33" fill="#10454F" stroke="#CA8923" stroke-width="3"/>
<path d="M124.017 32.0415L133.017 25.0415L142.017 32.0415V43.0415C142.017 43.5719 141.806 44.0806 141.431 44.4557C141.056 44.8308 140.548 45.0415 140.017 45.0415H126.017C125.487 45.0415 124.978 44.8308 124.603 44.4557C124.228 44.0806 124.017 43.5719 124.017 43.0415V32.0415Z" stroke="#FFF6D2" stroke-width="2" stroke-linecap="round" stroke-linejoin="round"/>
<path d="M130.017 45.0415V35.0415H136.017V45.0415" stroke="#FFF6D2" stroke-width="2" stroke-linecap="round" stroke-linejoin="round"/>
<path d="M35 27.4H37.72V42H35V35.74H29.6V42H26.88V27.4H29.6V33.66H35V27.4ZM43.5294 39.22C43.876 39.8867 44.5427 40.22 45.5294 40.22C46.516 40.22 47.1827 39.8867 47.5294 39.22C47.876 38.5533 48.0494 37.5733 48.0494 36.28C48.0494 34.9867 47.876 34.0067 47.5294 33.34C47.1827 32.6733 46.516 32.34 45.5294 32.34C44.5427 32.34 43.876 32.6733 43.5294 33.34C43.1827 34.0067 43.0094 34.9867 43.0094 36.28C43.0094 37.5733 43.1827 38.5533 43.5294 39.22ZM50.7294 36.28C50.7294 40.28 48.996 42.28 45.5294 42.28C42.0627 42.28 40.3294 40.28 40.3294 36.28C40.3294 32.28 42.0627 30.28 45.5294 30.28C48.996 30.28 50.7294 32.28 50.7294 36.28ZM58.8653 30.28C60.4653 30.28 61.5853 30.74 62.2253 31.66C63.372 30.74 64.592 30.28 65.8853 30.28C67.192 30.28 68.1586 30.6067 68.7853 31.26C69.412 31.9 69.7253 32.7867 69.7253 33.92V42H67.0453V34.36C67.0453 33.6667 66.9186 33.16 66.6653 32.84C66.412 32.5067 65.9653 32.34 65.3253 32.34C64.4186 32.34 63.5853 32.6533 62.8253 33.28C62.852 33.5467 62.8653 33.76 62.8653 33.92V42H60.1853V34.36C60.1853 33.6667 60.052 33.16 59.7853 32.84C59.5186 32.5067 59.0053 32.34 58.2453 32.34C57.4986 32.34 56.752 32.6067 56.0053 33.14V42H53.3253V30.56H54.7453L55.4453 31.5C56.5253 30.6867 57.6653 30.28 58.8653 30.28ZM77.2463 42.28C75.4063 42.28 74.0929 41.7867 73.3063 40.8C72.5196 39.8 72.1263 38.2933 72.1263 36.28C72.1263 32.28 73.8063 30.28 77.1663 30.28C79.0996 30.28 80.4196 30.88 81.1263 32.08C81.7396 33.1067 82.0463 34.44 82.0463 36.08V36.8H74.7263C74.7396 38.0533 74.9463 38.94 75.3463 39.46C75.7463 39.9667 76.4063 40.22 77.3263 40.22C78.8063 40.22 79.5929 39.6867 79.6863 38.62L81.8863 38.7C81.6729 41.0867 80.1263 42.28 77.2463 42.28ZM78.7863 33C78.4529 32.56 77.9063 32.34 77.1463 32.34C76.3863 32.34 75.8263 32.5533 75.4663 32.98C75.1196 33.3933 74.8929 34.06 74.7863 34.98H79.4063C79.3263 34.0867 79.1196 33.4267 78.7863 33Z" fill="#FFF7D2"/>
</svg>
