<svg width="167" height="69" viewBox="0 0 167 69" fill="none" xmlns="http://www.w3.org/2000/svg">
<rect x="1.5" y="1.5" width="164" height="66" rx="33" fill="#10454F" stroke="#CA8923" stroke-width="3"/>
<path d="M124.018 32.0415L133.018 25.0415L142.018 32.0415V43.0415C142.018 43.5719 141.807 44.0806 141.432 44.4557C141.057 44.8308 140.548 45.0415 140.018 45.0415H126.018C125.487 45.0415 124.978 44.8308 124.603 44.4557C124.228 44.0806 124.018 43.5719 124.018 43.0415V32.0415Z" stroke="#FFF6D2" stroke-width="2" stroke-linecap="round" stroke-linejoin="round"/>
<path d="M130.018 45.0415V35.0415H136.018V45.0415" stroke="#FFF6D2" stroke-width="2" stroke-linecap="round" stroke-linejoin="round"/>
<path d="M26.88 27.4H29.6V42H26.88V27.4ZM35.4844 31.6C36.7377 30.72 38.0177 30.28 39.3244 30.28C40.6444 30.28 41.5977 30.6067 42.1844 31.26C42.771 31.9 43.0644 32.7867 43.0644 33.92V42H40.3844V34.2C40.3844 33.52 40.2577 33.04 40.0044 32.76C39.7644 32.48 39.3377 32.34 38.7244 32.34C37.7644 32.34 36.871 32.64 36.0444 33.24V42H33.3644V30.56H34.6244L35.4844 31.6ZM46.6261 30.56H49.3061V42H46.6261V30.56ZM47.9661 29.2C46.9661 29.2 46.4661 28.6867 46.4661 27.66C46.4661 26.62 46.9661 26.1 47.9661 26.1C48.9928 26.1 49.5061 26.62 49.5061 27.66C49.5061 28.6867 48.9928 29.2 47.9661 29.2ZM55.0914 33.3C54.7581 33.94 54.5914 34.9333 54.5914 36.28C54.5914 37.6267 54.7581 38.62 55.0914 39.26C55.4381 39.9 56.0314 40.22 56.8714 40.22C57.7247 40.22 58.3314 40.0467 58.6914 39.7C59.0647 39.3533 59.2647 38.8067 59.2914 38.06L61.3914 38.16C61.3114 39.52 60.9114 40.5467 60.1914 41.24C59.4847 41.9333 58.3181 42.28 56.6914 42.28C54.7847 42.28 53.4847 41.66 52.7914 40.42C52.4581 39.82 52.2247 39.1933 52.0914 38.54C51.9714 37.8867 51.9114 37.1333 51.9114 36.28C51.9114 35.4133 51.9714 34.6533 52.0914 34C52.2247 33.3333 52.4581 32.7067 52.7914 32.12C53.4714 30.8933 54.7714 30.28 56.6914 30.28C58.3047 30.28 59.4647 30.6133 60.1714 31.28C60.8781 31.9333 61.2781 32.9133 61.3714 34.22L59.2914 34.5C59.2647 33.7533 59.0647 33.2067 58.6914 32.86C58.3314 32.5133 57.7247 32.34 56.8714 32.34C56.0314 32.34 55.4381 32.66 55.0914 33.3ZM63.7941 30.56H66.4741V42H63.7941V30.56ZM65.1341 29.2C64.1341 29.2 63.6341 28.6867 63.6341 27.66C63.6341 26.62 64.1341 26.1 65.1341 26.1C66.1607 26.1 66.6741 26.62 66.6741 27.66C66.6741 28.6867 66.1607 29.2 65.1341 29.2ZM72.2794 39.22C72.626 39.8867 73.2927 40.22 74.2794 40.22C75.266 40.22 75.9327 39.8867 76.2794 39.22C76.626 38.5533 76.7994 37.5733 76.7994 36.28C76.7994 34.9867 76.626 34.0067 76.2794 33.34C75.9327 32.6733 75.266 32.34 74.2794 32.34C73.2927 32.34 72.626 32.6733 72.2794 33.34C71.9327 34.0067 71.7594 34.9867 71.7594 36.28C71.7594 37.5733 71.9327 38.5533 72.2794 39.22ZM79.4794 36.28C79.4794 40.28 77.746 42.28 74.2794 42.28C70.8127 42.28 69.0794 40.28 69.0794 36.28C69.0794 32.28 70.8127 30.28 74.2794 30.28C77.746 30.28 79.4794 32.28 79.4794 36.28Z" fill="#FFF7D2"/>
</svg>
