<svg xmlns="http://www.w3.org/2000/svg" viewBox="0 0 24.46 26.49"><defs><style>.cls-1{fill:#fff6d2;}</style></defs><g id="Capa_2" data-name="Capa 2"><g id="Capa_3" data-name="Capa 3"><path class="cls-1" d="M21.49,5.94H3A3,3,0,0,1,0,3H0A3,3,0,0,1,3,0H21.49a3,3,0,0,1,3,3h0A3,3,0,0,1,21.49,5.94Z"/><path class="cls-1" d="M21.49,16.21H3a3,3,0,0,1-3-3H0a3,3,0,0,1,3-3H21.49a3,3,0,0,1,3,3h0A3,3,0,0,1,21.49,16.21Z"/><path class="cls-1" d="M21.49,26.49H3a3,3,0,0,1-3-3H0a3,3,0,0,1,3-3H21.49a3,3,0,0,1,3,3h0A3,3,0,0,1,21.49,26.49Z"/></g></g></svg>