<svg width="167" height="69" viewBox="0 0 167 69" fill="none" xmlns="http://www.w3.org/2000/svg">
<rect x="1.5" y="1.5" width="164" height="66" rx="33" fill="#10454F" stroke="#CA8923" stroke-width="3"/>
<path d="M146 37V39.6667C146 40.0203 145.836 40.3594 145.544 40.6095C145.253 40.8595 144.857 41 144.444 41H133.556C133.143 41 132.747 40.8595 132.456 40.6095C132.164 40.3594 132 40.0203 132 39.6667V37" stroke="#FFF6D2" stroke-width="2" stroke-linecap="square" stroke-linejoin="round"/>
<path d="M135.701 33.666L139.035 36.9993L142.368 33.666" stroke="#FFF6D2" stroke-width="2" stroke-linecap="square" stroke-linejoin="round"/>
<path d="M138 37C137.999 37.5522 138.447 38 138.999 38C139.552 38 139.999 37.5523 140 37L138 37ZM140 27L140 26L138 26L138 27L140 27ZM140 37L140 27L138 27L138 37L140 37Z" fill="#FFF6D2"/>
<path d="M26.88 27.4H31.74C34.1 27.4 35.7 28.12 36.54 29.56C36.9533 30.2533 37.24 31.0067 37.4 31.82C37.56 32.6333 37.64 33.54 37.64 34.54C37.64 35.5267 37.5933 36.36 37.5 37.04C37.4067 37.72 37.2267 38.3867 36.96 39.04C36.7067 39.68 36.3667 40.2067 35.94 40.62C34.9933 41.54 33.5933 42 31.74 42H26.88V27.4ZM31.38 29.5H29.6V39.9H31.38C32.8067 39.9 33.7733 39.3867 34.28 38.36C34.7067 37.4667 34.92 36.2467 34.92 34.7C34.92 33.1533 34.7067 31.9333 34.28 31.04C33.7733 30.0133 32.8067 29.5 31.38 29.5ZM42.8848 39.22C43.2315 39.8867 43.8982 40.22 44.8848 40.22C45.8715 40.22 46.5382 39.8867 46.8848 39.22C47.2315 38.5533 47.4048 37.5733 47.4048 36.28C47.4048 34.9867 47.2315 34.0067 46.8848 33.34C46.5382 32.6733 45.8715 32.34 44.8848 32.34C43.8982 32.34 43.2315 32.6733 42.8848 33.34C42.5382 34.0067 42.3648 34.9867 42.3648 36.28C42.3648 37.5733 42.5382 38.5533 42.8848 39.22ZM50.0848 36.28C50.0848 40.28 48.3515 42.28 44.8848 42.28C41.4182 42.28 39.6848 40.28 39.6848 36.28C39.6848 32.28 41.4182 30.28 44.8848 30.28C48.3515 30.28 50.0848 32.28 50.0848 36.28ZM56.4408 42H53.9208L50.9808 30.56H53.6808L55.3608 38.4L57.2408 31.56H59.5008L61.3808 38.4L63.0808 30.56H65.7808L62.8608 42H60.3208L58.3808 35.08L56.4408 42ZM69.957 31.6C71.2104 30.72 72.4904 30.28 73.797 30.28C75.117 30.28 76.0704 30.6067 76.657 31.26C77.2437 31.9 77.537 32.7867 77.537 33.92V42H74.857V34.2C74.857 33.52 74.7304 33.04 74.477 32.76C74.237 32.48 73.8104 32.34 73.197 32.34C72.237 32.34 71.3437 32.64 70.517 33.24V42H67.837V30.56H69.097L69.957 31.6ZM83.7788 42H81.0988V26.96L83.7788 26.6V42ZM89.5841 39.22C89.9307 39.8867 90.5974 40.22 91.5841 40.22C92.5707 40.22 93.2374 39.8867 93.5841 39.22C93.9307 38.5533 94.1041 37.5733 94.1041 36.28C94.1041 34.9867 93.9307 34.0067 93.5841 33.34C93.2374 32.6733 92.5707 32.34 91.5841 32.34C90.5974 32.34 89.9307 32.6733 89.5841 33.34C89.2374 34.0067 89.0641 34.9867 89.0641 36.28C89.0641 37.5733 89.2374 38.5533 89.5841 39.22ZM96.7841 36.28C96.7841 40.28 95.0507 42.28 91.5841 42.28C88.1174 42.28 86.3841 40.28 86.3841 36.28C86.3841 32.28 88.1174 30.28 91.5841 30.28C95.0507 30.28 96.7841 32.28 96.7841 36.28ZM103.4 30.28C106.307 30.28 107.76 31.6067 107.76 34.26V42H106.02L105.26 40.6C104.193 41.72 102.947 42.28 101.52 42.28C100.507 42.28 99.7333 42 99.2 41.44C98.68 40.8667 98.42 40.1067 98.42 39.16C98.42 38.2 98.72 37.4267 99.32 36.84C99.92 36.2533 101.04 35.84 102.68 35.6L105.08 35.24V34.28C105.08 32.9867 104.467 32.34 103.24 32.34C102.08 32.34 101.393 32.9267 101.18 34.1L99.1 33.48C99.6067 31.3467 101.04 30.28 103.4 30.28ZM102.38 40.32C103.287 40.32 104.187 39.8733 105.08 38.98V36.92L103.16 37.26C102.293 37.4067 101.72 37.64 101.44 37.96C101.16 38.28 101.02 38.64 101.02 39.04C101.02 39.44 101.14 39.7533 101.38 39.98C101.62 40.2067 101.953 40.32 102.38 40.32ZM114.014 42.28C111.44 42.28 110.154 40.28 110.154 36.28C110.154 32.28 111.714 30.28 114.834 30.28C115.714 30.28 116.58 30.44 117.434 30.76V26.96L120.114 26.76V42H118.374L117.634 40.58C116.527 41.7133 115.32 42.28 114.014 42.28ZM115.074 40.22C115.9 40.22 116.687 39.7933 117.434 38.94V32.74C116.78 32.4733 116.14 32.34 115.514 32.34C114.554 32.34 113.867 32.6733 113.454 33.34C113.04 34.0067 112.834 34.9867 112.834 36.28C112.834 38.9067 113.58 40.22 115.074 40.22Z" fill="#FFF7D2"/>
</svg>
