<svg width="257" height="69" viewBox="0 0 257 69" fill="none" xmlns="http://www.w3.org/2000/svg">
<rect x="1.5" y="1.5" width="254" height="66" rx="27.5" fill="#10454F" stroke="#CA8923" stroke-width="3"/>
<path d="M232 39V41.6667C232 42.0203 231.836 42.3594 231.544 42.6095C231.253 42.8595 230.857 43 230.444 43H219.556C219.143 43 218.747 42.8595 218.456 42.6095C218.164 42.3594 218 42.0203 218 41.6667V39" stroke="#FFF6D2" stroke-width="2" stroke-linecap="square" stroke-linejoin="round"/>
<path d="M221.701 35.666L225.035 38.9993L228.368 35.666" stroke="#FFF6D2" stroke-width="2" stroke-linecap="square" stroke-linejoin="round"/>
<path d="M224 39C223.999 39.5522 224.447 40 224.999 40C225.552 40 225.999 39.5523 226 39.0001L224 39ZM226 29L226 28L224 28L224 29L226 29ZM226 39.0001L226 29L224 29L224 39L226 39.0001Z" fill="#FFF6D2"/>
<path d="M35.04 43H31.52L27.2 28.4H29.92L33.28 40.36L36.64 28.4H39.38L35.04 43ZM44.6173 43.28C42.7773 43.28 41.464 42.7867 40.6773 41.8C39.8907 40.8 39.4973 39.2933 39.4973 37.28C39.4973 33.28 41.1773 31.28 44.5373 31.28C46.4707 31.28 47.7907 31.88 48.4973 33.08C49.1107 34.1067 49.4173 35.44 49.4173 37.08V37.8H42.0973C42.1107 39.0533 42.3173 39.94 42.7173 40.46C43.1173 40.9667 43.7773 41.22 44.6973 41.22C46.1773 41.22 46.964 40.6867 47.0573 39.62L49.2573 39.7C49.044 42.0867 47.4973 43.28 44.6173 43.28ZM46.1573 34C45.824 33.56 45.2773 33.34 44.5173 33.34C43.7573 33.34 43.1973 33.5533 42.8373 33.98C42.4907 34.3933 42.264 35.06 42.1573 35.98H46.7773C46.6973 35.0867 46.4907 34.4267 46.1573 34ZM54.6069 43H51.9269V31.56H53.1869L54.2469 33.34C55.1669 32.0333 56.4669 31.3467 58.1469 31.28V33.58C56.5735 33.62 55.3935 34.1 54.6069 35.02V43ZM68.3592 28.4H71.8992L76.3792 43H73.7592L72.5192 38.96H67.7192L66.4992 43H63.8592L68.3592 28.4ZM70.1192 30.98L68.3392 36.9H71.8992L70.1192 30.98ZM83.4713 43H80.4913L76.6113 31.56H79.3113L81.9713 39.84L84.6513 31.56H87.3513L83.4713 43ZM89.3097 31.56H91.9897V43H89.3097V31.56ZM90.6497 30.2C89.6497 30.2 89.1497 29.6867 89.1497 28.66C89.1497 27.62 89.6497 27.1 90.6497 27.1C91.6764 27.1 92.1897 27.62 92.1897 28.66C92.1897 29.6867 91.6764 30.2 90.6497 30.2ZM103.935 39.8C103.935 42.08 102.335 43.22 99.135 43.22C97.735 43.22 96.695 42.92 96.015 42.32C95.335 41.7067 94.9083 40.82 94.735 39.66L96.815 39.34C96.9617 40.62 97.755 41.26 99.195 41.26C100.648 41.26 101.375 40.8067 101.375 39.9C101.375 39.5267 101.228 39.2467 100.935 39.06C100.655 38.8733 100.082 38.68 99.215 38.48L98.295 38.26C97.1083 37.98 96.255 37.5733 95.735 37.04C95.2283 36.4933 94.975 35.7067 94.975 34.68C94.975 32.4133 96.5217 31.28 99.615 31.28C100.948 31.28 101.942 31.5867 102.595 32.2C103.262 32.8 103.675 33.68 103.835 34.84L101.755 35.14C101.608 33.8733 100.868 33.24 99.535 33.24C98.215 33.24 97.555 33.6933 97.555 34.6C97.555 34.9733 97.6817 35.26 97.935 35.46C98.2017 35.6467 98.735 35.8333 99.535 36.02L100.575 36.28C101.762 36.5733 102.615 36.9867 103.135 37.52C103.668 38.04 103.935 38.8 103.935 39.8ZM108.713 40.22C109.06 40.8867 109.726 41.22 110.713 41.22C111.7 41.22 112.366 40.8867 112.713 40.22C113.06 39.5533 113.233 38.5733 113.233 37.28C113.233 35.9867 113.06 35.0067 112.713 34.34C112.366 33.6733 111.7 33.34 110.713 33.34C109.726 33.34 109.06 33.6733 108.713 34.34C108.366 35.0067 108.193 35.9867 108.193 37.28C108.193 38.5733 108.366 39.5533 108.713 40.22ZM115.913 37.28C115.913 41.28 114.18 43.28 110.713 43.28C107.246 43.28 105.513 41.28 105.513 37.28C105.513 33.28 107.246 31.28 110.713 31.28C114.18 31.28 115.913 33.28 115.913 37.28ZM126.689 39.8C126.689 42.08 125.089 43.22 121.889 43.22C120.489 43.22 119.449 42.92 118.769 42.32C118.089 41.7067 117.662 40.82 117.489 39.66L119.569 39.34C119.716 40.62 120.509 41.26 121.949 41.26C123.402 41.26 124.129 40.8067 124.129 39.9C124.129 39.5267 123.982 39.2467 123.689 39.06C123.409 38.8733 122.836 38.68 121.969 38.48L121.049 38.26C119.862 37.98 119.009 37.5733 118.489 37.04C117.982 36.4933 117.729 35.7067 117.729 34.68C117.729 32.4133 119.276 31.28 122.369 31.28C123.702 31.28 124.696 31.5867 125.349 32.2C126.016 32.8 126.429 33.68 126.589 34.84L124.509 35.14C124.362 33.8733 123.622 33.24 122.289 33.24C120.969 33.24 120.309 33.6933 120.309 34.6C120.309 34.9733 120.436 35.26 120.689 35.46C120.956 35.6467 121.489 35.8333 122.289 36.02L123.329 36.28C124.516 36.5733 125.369 36.9867 125.889 37.52C126.422 38.04 126.689 38.8 126.689 39.8ZM134.935 43V28.4H137.655V40.9H142.635V43H134.935ZM148.563 43.28C146.723 43.28 145.409 42.7867 144.623 41.8C143.836 40.8 143.443 39.2933 143.443 37.28C143.443 33.28 145.123 31.28 148.483 31.28C150.416 31.28 151.736 31.88 152.443 33.08C153.056 34.1067 153.363 35.44 153.363 37.08V37.8H146.043C146.056 39.0533 146.263 39.94 146.663 40.46C147.063 40.9667 147.723 41.22 148.643 41.22C150.123 41.22 150.909 40.6867 151.003 39.62L153.203 39.7C152.989 42.0867 151.443 43.28 148.563 43.28ZM150.103 34C149.769 33.56 149.223 33.34 148.463 33.34C147.703 33.34 147.143 33.5533 146.783 33.98C146.436 34.3933 146.209 35.06 146.103 35.98H150.723C150.643 35.0867 150.436 34.4267 150.103 34ZM163.412 38.26C163.106 38.6867 162.639 39.0267 162.012 39.28C161.386 39.52 160.646 39.64 159.792 39.64C158.952 39.64 158.252 39.54 157.692 39.34L157.132 39.94C156.906 40.1667 156.792 40.3867 156.792 40.6C156.792 40.92 157.012 41.08 157.452 41.08H161.712C162.766 41.08 163.592 41.3667 164.192 41.94C164.806 42.5133 165.112 43.1867 165.112 43.96C165.112 44.7333 164.952 45.3467 164.632 45.8C164.312 46.2533 163.852 46.5867 163.252 46.8C162.239 47.16 160.939 47.34 159.352 47.34C157.779 47.34 156.566 47.1467 155.712 46.76C154.859 46.3867 154.432 45.74 154.432 44.82C154.432 44.38 154.559 43.98 154.812 43.62C155.066 43.2733 155.379 43.0067 155.752 42.82C154.939 42.5667 154.532 41.9733 154.532 41.04C154.532 40.4267 154.772 39.86 155.252 39.34L156.172 38.38C155.546 37.66 155.232 36.6867 155.232 35.46C155.232 34.38 155.526 33.4467 156.112 32.66C156.779 31.74 157.992 31.28 159.752 31.28C160.512 31.28 161.172 31.3733 161.732 31.56H165.072V33.14H163.752C164.112 33.7933 164.292 34.48 164.292 35.2C164.292 35.9067 164.226 36.4867 164.092 36.94C163.959 37.3933 163.732 37.8333 163.412 38.26ZM159.752 33.06C158.446 33.06 157.792 33.86 157.792 35.46C157.792 37.06 158.446 37.86 159.752 37.86C161.072 37.86 161.732 37.06 161.732 35.46C161.732 33.86 161.072 33.06 159.752 33.06ZM156.872 44.22C156.872 44.7 157.086 45.0067 157.512 45.14C157.952 45.2733 158.672 45.34 159.672 45.34C160.672 45.34 161.379 45.26 161.792 45.1C162.219 44.9533 162.432 44.6267 162.432 44.12C162.432 43.3733 161.912 43 160.872 43H157.452C157.066 43.3467 156.872 43.7533 156.872 44.22ZM171.455 31.28C174.361 31.28 175.815 32.6067 175.815 35.26V43H174.075L173.315 41.6C172.248 42.72 171.001 43.28 169.575 43.28C168.561 43.28 167.788 43 167.255 42.44C166.735 41.8667 166.475 41.1067 166.475 40.16C166.475 39.2 166.775 38.4267 167.375 37.84C167.975 37.2533 169.095 36.84 170.735 36.6L173.135 36.24V35.28C173.135 33.9867 172.521 33.34 171.295 33.34C170.135 33.34 169.448 33.9267 169.235 35.1L167.155 34.48C167.661 32.3467 169.095 31.28 171.455 31.28ZM170.435 41.32C171.341 41.32 172.241 40.8733 173.135 39.98V37.92L171.215 38.26C170.348 38.4067 169.775 38.64 169.495 38.96C169.215 39.28 169.075 39.64 169.075 40.04C169.075 40.44 169.195 40.7533 169.435 40.98C169.675 41.2067 170.008 41.32 170.435 41.32ZM182.048 43H179.368V27.96L182.048 27.6V43ZM189.774 43.28C187.934 43.28 186.62 42.7867 185.834 41.8C185.047 40.8 184.654 39.2933 184.654 37.28C184.654 33.28 186.334 31.28 189.694 31.28C191.627 31.28 192.947 31.88 193.654 33.08C194.267 34.1067 194.574 35.44 194.574 37.08V37.8H187.254C187.267 39.0533 187.474 39.94 187.874 40.46C188.274 40.9667 188.934 41.22 189.854 41.22C191.334 41.22 192.12 40.6867 192.214 39.62L194.414 39.7C194.2 42.0867 192.654 43.28 189.774 43.28ZM191.314 34C190.98 33.56 190.434 33.34 189.674 33.34C188.914 33.34 188.354 33.5533 187.994 33.98C187.647 34.3933 187.42 35.06 187.314 35.98H191.934C191.854 35.0867 191.647 34.4267 191.314 34ZM205.263 39.8C205.263 42.08 203.663 43.22 200.463 43.22C199.063 43.22 198.023 42.92 197.343 42.32C196.663 41.7067 196.236 40.82 196.063 39.66L198.143 39.34C198.29 40.62 199.083 41.26 200.523 41.26C201.976 41.26 202.703 40.8067 202.703 39.9C202.703 39.5267 202.556 39.2467 202.263 39.06C201.983 38.8733 201.41 38.68 200.543 38.48L199.623 38.26C198.436 37.98 197.583 37.5733 197.063 37.04C196.556 36.4933 196.303 35.7067 196.303 34.68C196.303 32.4133 197.85 31.28 200.943 31.28C202.276 31.28 203.27 31.5867 203.923 32.2C204.59 32.8 205.003 33.68 205.163 34.84L203.083 35.14C202.936 33.8733 202.196 33.24 200.863 33.24C199.543 33.24 198.883 33.6933 198.883 34.6C198.883 34.9733 199.01 35.26 199.263 35.46C199.53 35.6467 200.063 35.8333 200.863 36.02L201.903 36.28C203.09 36.5733 203.943 36.9867 204.463 37.52C204.996 38.04 205.263 38.8 205.263 39.8Z" fill="#FFF7D2"/>
</svg>
