<svg width="108" height="13" viewBox="0 0 108 13" fill="none" xmlns="http://www.w3.org/2000/svg">
<path d="M29.5936 10.0611V2.99902H23.2077V4.76454H27.8178V6.69982C27.2828 6.1679 26.5885 5.81706 25.3477 5.81706C23.185 5.81706 22.1719 7.19779 22.1719 8.81618C22.1719 10.4459 23.185 11.8153 25.3477 11.8153C26.5885 11.8153 27.2828 11.4645 27.8178 10.9325V11.8153H30.6522V10.0498H29.5936V10.0611ZM25.8827 10.0611C24.5851 10.0611 23.9476 9.80079 23.9476 8.8275C23.9476 7.8542 24.5851 7.5939 25.8827 7.5939C27.1804 7.5939 27.8178 7.8542 27.8178 8.8275C27.8178 9.80079 27.1804 10.0611 25.8827 10.0611Z" fill="#FFF6D2"/>
<path d="M34.8984 3.01025C37.2206 3.01025 38.5865 4.43625 38.5865 6.36021H36.8108C36.7425 5.4435 36.3669 4.77577 34.9781 4.77577C33.3276 4.77577 32.6901 5.30769 32.6901 7.42405C32.6901 9.5404 33.3276 10.0723 34.9781 10.0723C36.3669 10.0723 36.7311 9.4046 36.8108 8.48789H38.5865C38.5865 10.4118 37.2206 11.8378 34.8984 11.8378C32.2917 11.8378 30.9258 10.0157 30.9258 7.42405C30.9258 4.82104 32.2917 3.01025 34.8984 3.01025Z" fill="#FFF6D2"/>
<path d="M43.9693 2.99871C42.7286 2.99871 41.8635 3.47404 41.3285 4.06255V0.656006H39.5527V11.8263H41.3285V10.7625C41.8635 11.351 42.7286 11.8263 43.9693 11.8263C46.8492 11.8263 47.8509 10.0155 47.8509 7.41251C47.8509 4.82082 46.8379 2.99871 43.9693 2.99871ZM43.6961 10.0608C41.9545 10.0608 41.3171 9.52886 41.3171 7.41251C41.3171 5.29615 41.9545 4.76423 43.6961 4.76423C45.4377 4.76423 46.0752 5.29615 46.0752 7.41251C46.0752 9.52886 45.4377 10.0608 43.6961 10.0608Z" fill="#FFF6D2"/>
<path d="M54.2724 0.656006H50.2656V2.42152H54.2724V0.656006Z" fill="#FFF6D2"/>
<path d="M20.0098 7.0053L16.8225 6.23572C16.5493 6.1565 16.4583 6.08859 16.4583 5.82829V5.05871C16.4583 4.68523 16.7087 4.49284 17.2096 4.49284H18.8032C19.4748 4.49284 19.5545 4.85499 19.5545 5.12661V5.83961H21.3416V5.2511C21.3416 3.80247 20.4765 3.01025 18.9056 3.01025H17.1299C15.5363 3.01025 14.6598 3.76852 14.6598 5.14925V6.00937C14.6598 6.89213 15.1265 7.46932 16.0257 7.68435L19.2813 8.47657C19.5658 8.55579 19.6683 8.66896 19.6683 8.91795V9.75544C19.6683 10.0384 19.5772 10.3553 18.917 10.3553H17.1299C16.4583 10.3553 16.3786 9.9931 16.3786 9.72148V8.86136H14.5801V9.60831C14.5801 11.0343 15.4793 11.8492 17.0388 11.8492H18.9967C20.6245 11.8492 21.4896 11.1135 21.4896 9.71017V8.65765C21.4554 7.79752 20.9432 7.22033 20.0098 7.0053Z" fill="#FFF6D2"/>
<path d="M55.7051 7.96688V5.47705C55.7051 3.88129 54.8286 2.99854 53.2463 2.99854H51.2885C49.6948 2.99854 48.8184 3.88129 48.8184 5.47705V9.35892C48.8184 10.9547 49.6948 11.8374 51.2885 11.8374H53.2463C54.8286 11.8374 55.7051 10.9886 55.7051 9.42683V8.87228H53.9066V9.56264C53.9066 10.0719 53.6675 10.3096 53.1439 10.3096H51.3909C50.8901 10.3096 50.6283 10.0606 50.6283 9.56264V7.96688H55.7051ZM50.6283 5.27334C50.6283 4.77537 50.8787 4.52639 51.3909 4.52639H53.1667C53.6789 4.52639 53.9293 4.76405 53.9293 5.27334V6.46167H50.6396V5.27334H50.6283Z" fill="#FFF6D2"/>
<path d="M11.7473 8.90681C10.0057 8.63519 8.00225 8.19381 5.93054 7.4695C6.75012 9.05394 7.63799 10.5592 8.59417 11.9625C7.9681 12.2341 7.30789 12.4152 6.60214 12.4718C5.70288 11.0798 4.84916 9.61981 4.06373 8.08064C3.64256 9.37082 3.36937 10.6157 3.21001 11.8154C2.53841 11.4759 1.93511 11.0118 1.43426 10.4686C1.69607 9.06525 2.09447 7.60531 2.69777 6.11141C1.78713 5.65871 0.887874 5.16074 0 4.58356C0.170745 3.93846 0.45532 3.33864 0.819576 2.7954C1.21798 3.06702 1.61639 3.316 2.02617 3.55367C1.82128 3.04439 1.62777 2.5351 1.43426 2.0145C1.90096 1.51653 2.44735 1.08647 3.05064 0.758267C3.35799 1.61839 3.67671 2.4672 4.0182 3.30469C4.59873 2.22953 5.2931 1.12042 6.08991 0C6.1582 0 6.23788 0 6.30618 0C6.97778 0.0226348 7.62661 0.158444 8.21853 0.373475C7.41033 1.44863 6.71597 2.50115 6.12406 3.53103L10.2561 1.58444C10.7569 2.02582 11.1895 2.54642 11.5196 3.13493L6.37448 5.56817C8.5031 6.32644 10.5634 6.77913 12.305 7.03943C12.214 7.69585 12.0318 8.32962 11.7473 8.90681Z" fill="#FFF6D2"/>
<path d="M101.988 10.3204C100.683 10.3204 99.3913 10.3204 98.0993 10.3204C98.0247 10.5437 97.9502 10.7669 97.8757 10.9778C97.8011 11.1762 97.739 11.3747 97.6645 11.5731C97.6148 11.7095 97.5775 11.8336 97.5278 11.97C97.4905 12.094 97.4781 12.094 97.3539 12.094C96.8321 12.094 96.3103 12.094 95.801 12.094C95.3289 12.094 94.8444 12.094 94.3723 12.094C94.335 12.094 94.2977 12.094 94.248 12.0816C94.2605 12.0444 94.2605 12.0072 94.2729 11.9824C94.422 11.6351 94.5586 11.3002 94.7077 10.953C94.8692 10.5809 95.0183 10.1964 95.1798 9.82431C95.304 9.53904 95.4283 9.25378 95.5401 8.96851C95.6767 8.64604 95.801 8.32356 95.9376 8.01349C96.0867 7.66621 96.2358 7.31893 96.3849 6.95925C96.4718 6.736 96.5588 6.51275 96.6582 6.3019C96.8197 5.91741 96.9812 5.53293 97.1427 5.14844C97.3415 4.66473 97.5527 4.18102 97.7514 3.69731C97.8757 3.41204 97.9875 3.12678 98.0993 2.84151C98.1614 2.68027 98.2484 2.51904 98.3105 2.3578C98.4471 2.04773 98.5714 1.72526 98.708 1.40278C98.8198 1.12992 98.9441 0.86946 99.1428 0.633806C99.3168 0.435361 99.5404 0.311333 99.7889 0.236916C99.9379 0.199707 100.087 0.199707 100.249 0.199707C101.056 0.199707 101.864 0.199707 102.671 0.199707C102.783 0.199707 102.795 0.224513 102.82 0.323735C102.845 0.472569 102.87 0.621403 102.907 0.757835C102.932 0.906669 102.969 1.0431 103.007 1.19193C103.044 1.35317 103.069 1.51441 103.106 1.67564C103.143 1.83688 103.168 2.01052 103.205 2.17176C103.23 2.29579 103.255 2.41981 103.292 2.54384C103.33 2.70508 103.367 2.85391 103.392 3.01515C103.441 3.2384 103.491 3.47406 103.541 3.69731C103.59 3.97017 103.653 4.23063 103.702 4.50349C103.752 4.71434 103.802 4.93759 103.839 5.14844C103.876 5.34688 103.913 5.54533 103.963 5.74377C104 5.91741 104.038 6.07865 104.075 6.25229C104.1 6.40112 104.125 6.54996 104.162 6.68639C104.199 6.87243 104.249 7.05848 104.286 7.25692C104.323 7.43056 104.348 7.6166 104.385 7.80264C104.41 7.92667 104.448 8.06311 104.472 8.18713C104.522 8.41038 104.572 8.62123 104.609 8.84448C104.646 9.00572 104.671 9.15455 104.709 9.31579C104.733 9.45222 104.771 9.60106 104.795 9.73749C104.845 9.94834 104.882 10.1592 104.932 10.3824C104.957 10.4817 104.969 10.5933 104.994 10.6925C105.007 10.7545 105.019 10.8165 105.032 10.8785C105.094 11.1762 105.156 11.4615 105.218 11.7591C105.23 11.7964 105.243 11.8212 105.243 11.8584C105.255 11.8832 105.268 11.9204 105.268 11.9452C105.28 12.0692 105.268 12.0816 105.143 12.0816C104.274 12.0816 103.404 12.0816 102.522 12.0816C102.398 12.0816 102.385 12.0816 102.36 11.9576C102.323 11.784 102.298 11.6227 102.261 11.4491C102.236 11.3126 102.199 11.1886 102.174 11.0522C102.137 10.9034 102.112 10.7545 102.075 10.6057C102.025 10.5189 102.013 10.4196 101.988 10.3204ZM100.584 3.56088C100.572 3.56088 100.572 3.56088 100.559 3.56088C100.05 4.9872 99.528 6.40112 99.031 7.82745C99.1304 7.85226 101.379 7.85226 101.491 7.83985C101.491 7.80265 101.491 7.76544 101.491 7.74063C101.466 7.6042 101.429 7.48017 101.404 7.34374C101.367 7.19491 101.342 7.05847 101.305 6.90964C101.28 6.76081 101.255 6.61197 101.218 6.47554C101.193 6.33911 101.143 6.20268 101.118 6.06625C101.081 5.90501 101.056 5.74377 101.031 5.57013C100.981 5.32208 100.919 5.07402 100.857 4.82596C100.783 4.50349 100.721 4.16861 100.658 3.84614C100.634 3.75932 100.609 3.6601 100.584 3.56088Z" fill="#FFF6D2"/>
<path d="M67.3806 0.634044C67.3433 0.497613 67.393 0.373585 67.4179 0.261959C67.4179 0.249556 67.4427 0.224751 67.4676 0.224751C67.4924 0.212348 67.5297 0.224751 67.5669 0.224751C69.2317 0.224751 70.884 0.224751 72.5487 0.224751C72.6854 0.224751 72.8344 0.237153 72.9587 0.261959C73.4556 0.385987 73.8283 0.683655 74.0022 1.17977C74.0519 1.3038 74.0643 1.44023 74.0892 1.57666C74.114 1.66348 74.1265 1.7503 74.1513 1.83712C74.1637 1.91154 74.1762 1.97355 74.1886 2.04797C74.2259 2.22161 74.2507 2.39525 74.2755 2.56889C74.3004 2.73012 74.3377 2.89136 74.3749 3.0526C74.3874 3.11461 74.3998 3.17663 74.4122 3.25104C74.4743 3.54871 74.524 3.85878 74.5861 4.15645C74.6234 4.31769 74.6607 4.49133 74.6855 4.65256C74.6979 4.73938 74.7104 4.8138 74.7228 4.90062C74.7476 5.04945 74.7849 5.21069 74.8222 5.35952C74.8594 5.54557 74.8843 5.71921 74.9216 5.90525C74.9464 6.01688 74.9713 6.1161 74.9837 6.22772C74.9961 6.28974 75.0085 6.35175 75.0209 6.42617C75.0706 6.72384 75.1328 7.0091 75.1824 7.30677C75.2197 7.48041 75.257 7.65405 75.2818 7.84009C75.2943 7.92691 75.3067 8.00133 75.3191 8.08815C75.3191 8.11295 75.3315 8.13776 75.344 8.17497C75.3564 8.17497 75.3564 8.17497 75.3688 8.17497C75.4061 8.07575 75.4558 7.96412 75.493 7.8649C75.58 7.65405 75.667 7.4308 75.7539 7.21995C75.8285 7.02151 75.903 6.82306 75.9775 6.62461C76.139 6.21532 76.3005 5.81843 76.4621 5.40914C76.6484 4.93783 76.8472 4.45412 77.0335 3.98281C77.195 3.58592 77.3441 3.17663 77.5056 2.77974C77.6423 2.42005 77.7913 2.07277 77.928 1.72549C78.0771 1.35341 78.2137 0.981324 78.3628 0.609239C78.4001 0.510016 78.4374 0.39839 78.4871 0.299168C78.4995 0.274362 78.5368 0.249556 78.5616 0.249556C78.6113 0.237153 78.661 0.237154 78.7107 0.237154C79.6797 0.237154 80.6611 0.237154 81.6302 0.237154C81.6799 0.237154 81.7171 0.249556 81.7792 0.249556C81.7544 0.31157 81.742 0.348779 81.7296 0.39839C81.6302 0.634044 81.5308 0.857295 81.4438 1.09295C81.2823 1.46503 81.1332 1.84952 80.9717 2.22161C80.7729 2.68051 80.5866 3.13942 80.3878 3.58592C80.2388 3.9332 80.1021 4.28048 79.953 4.62776C79.7542 5.11147 79.543 5.59518 79.3443 6.09129C79.1206 6.62461 78.897 7.14553 78.6734 7.67886C78.4871 8.11295 78.3131 8.55946 78.1268 8.99356C77.9777 9.35324 77.8162 9.71292 77.6671 10.0726C77.5056 10.4571 77.3441 10.8292 77.1826 11.2137C77.0708 11.4865 76.9466 11.7594 76.8472 12.0323C76.8099 12.1067 76.7726 12.1439 76.6857 12.1439C75.9527 12.1439 75.2197 12.1439 74.4867 12.1439C74.2134 12.1439 73.9401 12.1439 73.6668 12.1439C73.5426 12.1439 73.5426 12.1439 73.5177 12.0323C73.468 11.8586 73.4308 11.685 73.3935 11.5237C73.3686 11.4121 73.3314 11.2881 73.2941 11.1765C73.2444 11.0028 73.2071 10.8168 73.1574 10.6431C73.0953 10.4199 73.0456 10.209 72.9835 9.99819C72.9338 9.82455 72.8966 9.66331 72.8593 9.48967C72.822 9.35324 72.7847 9.22921 72.7475 9.09278C72.6978 8.89433 72.6481 8.68348 72.5984 8.48504C72.5363 8.26179 72.4742 8.02613 72.4245 7.80288C72.3623 7.56723 72.3127 7.34398 72.2505 7.10832C72.1884 6.87267 72.1263 6.62461 72.0518 6.38896C72.0145 6.24013 71.9772 6.1037 71.94 5.95486C71.9027 5.80603 71.853 5.65719 71.8157 5.50836C71.7536 5.28511 71.7039 5.06186 71.6418 4.83861C71.5921 4.66497 71.5424 4.49133 71.5051 4.30528C71.443 4.08203 71.3933 3.85878 71.3436 3.63553C71.3064 3.4867 71.2691 3.33786 71.2194 3.18903C71.1697 3.00299 71.12 2.82935 71.0703 2.6433C70.9709 2.172 70.6976 1.82472 70.2504 1.61387C69.8653 1.44023 69.4801 1.27899 69.0826 1.15496C68.9087 1.10535 68.7472 1.03094 68.5732 0.981324C68.4117 0.931712 68.2378 0.894504 68.0763 0.857295C67.9396 0.820087 67.803 0.782878 67.6663 0.758073C67.5669 0.671253 67.4676 0.65885 67.3806 0.634044Z" fill="#FFF6D2"/>
<path d="M94.9959 0.572444C94.9462 0.783292 94.9089 0.99414 94.8592 1.20499C94.8095 1.41584 94.7722 1.62668 94.7225 1.83753C94.6729 2.04838 94.6232 2.25923 94.5859 2.47008C94.5362 2.68093 94.5114 2.89177 94.4368 3.10262C94.3623 3.07782 94.3002 3.05301 94.238 3.02821C94.0144 2.94139 93.7784 2.85457 93.5548 2.78015C93.2939 2.70573 93.0206 2.64372 92.7348 2.60651C92.4491 2.5693 92.1633 2.53209 91.8776 2.53209C91.6788 2.53209 91.4801 2.5569 91.2813 2.59411C91.0949 2.63131 90.921 2.68093 90.7595 2.75534C90.6229 2.81736 90.4862 2.90418 90.3868 3.0158C90.1011 3.32587 90.0762 3.67315 90.362 3.99563C90.4862 4.14446 90.6353 4.25609 90.8092 4.35531C91.1198 4.54135 91.4304 4.70259 91.7409 4.87623C91.9894 5.01266 92.2503 5.14909 92.4988 5.29792C92.7597 5.45916 93.0206 5.6328 93.2566 5.81884C93.6666 6.15372 94.0144 6.55061 94.2256 7.04672C94.2877 7.19556 94.325 7.35679 94.3747 7.51803C94.4741 7.8405 94.4492 8.17538 94.4492 8.51026C94.4492 8.54747 94.4368 8.59708 94.4368 8.63429C94.4244 8.74591 94.3995 8.85754 94.3747 8.95676C94.3374 9.1304 94.3002 9.30404 94.238 9.46528C94.1511 9.72573 94.0268 9.97379 93.8653 10.2094C93.6541 10.5195 93.4057 10.8048 93.1199 11.0404C92.7348 11.3629 92.3124 11.5986 91.8528 11.7846C91.654 11.8714 91.4304 11.9334 91.2192 11.9955C91.0452 12.0451 90.8713 12.0947 90.685 12.1319C90.5359 12.1691 90.3868 12.1691 90.2253 12.2063C89.8029 12.2807 89.3805 12.2311 88.9581 12.2435C88.9084 12.2435 88.8587 12.2435 88.7966 12.2435C88.4239 12.2683 88.0512 12.2063 87.6785 12.1443C87.517 12.1195 87.3555 12.0947 87.194 12.0575C86.8958 11.9831 86.5977 11.9086 86.3119 11.8342C86.1132 11.7722 85.9268 11.6978 85.7405 11.6234C85.6535 11.5862 85.6535 11.5738 85.6784 11.4869C85.7156 11.3505 85.7405 11.2141 85.7777 11.0776C85.8026 10.9784 85.8274 10.8668 85.8523 10.7676C85.8771 10.6559 85.8896 10.5443 85.9144 10.4451C85.9517 10.2467 86.0014 10.0482 86.0386 9.84976C86.0759 9.68853 86.1132 9.52729 86.1504 9.36605C86.1753 9.26683 86.1877 9.16761 86.2126 9.05598C86.2374 8.95676 86.2498 8.95676 86.3368 8.99397C86.6474 9.1552 86.958 9.29164 87.281 9.39086C87.4673 9.45287 87.6661 9.51489 87.8524 9.5645C87.9394 9.5893 88.0388 9.60171 88.1382 9.61411C88.2624 9.63892 88.3742 9.65132 88.4985 9.67612C88.5109 9.67612 88.5357 9.68853 88.5481 9.68853C88.8712 9.72574 89.1942 9.75054 89.5172 9.72573C89.8153 9.70093 90.1259 9.65132 90.3992 9.52729C90.685 9.40326 90.9583 9.24202 91.0949 8.94436C91.1446 8.84513 91.1819 8.73351 91.1943 8.62188C91.2067 8.47305 91.157 8.33662 91.0949 8.21259C90.9831 8.00174 90.7968 7.85291 90.598 7.71648C90.2626 7.48082 89.9023 7.29478 89.542 7.09633C89.0699 6.83587 88.5978 6.57542 88.1754 6.25294C87.7779 5.94287 87.4425 5.59559 87.2064 5.14909C87.107 4.95064 87.0449 4.7398 86.9952 4.51655C86.958 4.3057 86.9207 4.09485 86.9331 3.8716C86.9455 3.69796 86.9704 3.52432 86.9952 3.35068C87.0201 3.11502 87.0822 2.89177 87.1692 2.66852C87.4052 2.07319 87.7779 1.58948 88.2624 1.18018C88.486 0.99414 88.7221 0.832903 88.9705 0.708875C89.306 0.535235 89.6414 0.373998 90.0141 0.287179C90.1756 0.24997 90.3371 0.187956 90.4986 0.150747C90.685 0.113539 90.8837 0.0887333 91.0701 0.0515248C91.3807 -0.0104894 91.7037 0.00191327 92.0143 0.00191327C92.1012 0.00191327 92.2006 0.00191327 92.2876 0.00191327C92.6603 -0.0104896 93.033 0.0391219 93.4057 0.101136C93.6169 0.138345 93.8281 0.16315 94.0393 0.225164C94.325 0.299581 94.6232 0.361596 94.8965 0.485624C94.9213 0.535235 94.9462 0.547638 94.9959 0.572444Z" fill="#FFF6D2"/>
<path d="M86.1274 0.225757C86.1274 0.262965 86.1274 0.287771 86.1274 0.312577C86.0777 0.560633 86.028 0.796287 85.9783 1.04434C85.9038 1.37922 85.8292 1.70169 85.7671 2.03657C85.7298 2.1854 85.7174 2.33424 85.6801 2.47067C85.6429 2.65671 85.5808 2.85516 85.5435 3.0412C85.5062 3.19003 85.4814 3.35127 85.4565 3.50011C85.4193 3.64894 85.3944 3.79777 85.3571 3.95901C85.3323 4.09544 85.295 4.23187 85.2702 4.38071C85.2205 4.60396 85.1708 4.82721 85.1335 5.05046C85.1087 5.19929 85.0714 5.34813 85.0466 5.49696C85.0217 5.63339 84.9844 5.76982 84.9472 5.89385C84.9099 6.05509 84.885 6.21633 84.8602 6.37756C84.8354 6.51399 84.7981 6.65042 84.7732 6.78686C84.7484 6.87368 84.736 6.9605 84.7235 7.04732C84.7111 7.10933 84.6987 7.15894 84.6863 7.22096C84.6366 7.44421 84.5869 7.67986 84.5372 7.90311C84.4999 8.10156 84.4502 8.3 84.413 8.49845C84.3508 8.80852 84.2887 9.10619 84.2142 9.41626C84.1893 9.55269 84.1396 9.70152 84.1148 9.83795C84.0775 10.0364 84.0403 10.2348 84.003 10.4333C83.9657 10.5945 83.9284 10.7558 83.8912 10.917C83.8663 11.0534 83.8291 11.1899 83.8042 11.3387C83.7794 11.4751 83.7421 11.6116 83.7173 11.748C83.7048 11.8348 83.68 11.9216 83.6676 12.0084C83.6427 12.0829 83.6427 12.0953 83.5558 12.0953C83.5433 12.0953 83.5433 12.0953 83.5309 12.0953C82.5743 12.0953 81.6301 12.0953 80.6735 12.0953C80.5245 12.0953 80.5245 12.0829 80.5617 11.9464C80.599 11.81 80.6238 11.6612 80.6611 11.5247C80.686 11.4379 80.7108 11.3387 80.7232 11.2519C80.7481 11.1278 80.7729 11.0038 80.7978 10.8798C80.835 10.6937 80.8847 10.5201 80.922 10.3341C80.9593 10.1356 80.9965 9.93718 81.0462 9.75113C81.1084 9.47827 81.1705 9.19301 81.2326 8.92014C81.2574 8.78371 81.2823 8.63488 81.3195 8.49845C81.3817 8.22559 81.4438 7.95272 81.5059 7.67986C81.568 7.39459 81.6301 7.12173 81.6922 6.83647C81.7295 6.67523 81.7544 6.51399 81.7792 6.34035C81.8041 6.20392 81.8413 6.06749 81.8786 5.93106C81.9034 5.84424 81.9034 5.75742 81.9283 5.6706C81.9531 5.53417 81.9904 5.41014 82.0153 5.27371C82.0525 5.11247 82.0774 4.93883 82.1146 4.7776C82.1395 4.64117 82.1768 4.50473 82.2016 4.3683C82.2389 4.21947 82.2637 4.05823 82.301 3.9094C82.3507 3.69855 82.4004 3.4753 82.4376 3.26445C82.4749 3.11562 82.4998 2.96678 82.5246 2.81795C82.5619 2.65671 82.5992 2.48307 82.6364 2.32184C82.6985 2.04897 82.7607 1.76371 82.8228 1.49085C82.8849 1.21798 82.9346 0.932718 82.9843 0.659856C83.0091 0.548231 83.034 0.424202 83.0588 0.312577C83.0712 0.250562 83.0961 0.23816 83.1706 0.23816C83.357 0.23816 83.5558 0.23816 83.7421 0.23816C84.4999 0.23816 85.2702 0.23816 86.028 0.23816C86.028 0.213354 86.0777 0.225757 86.1274 0.225757Z" fill="#FFF6D2"/>
<path d="M106.498 3C106.009 3 105.638 2.87244 105.383 2.61732C105.128 2.35906 105 1.9874 105 1.50236C105 1.01417 105.128 0.64252 105.383 0.387401C105.641 0.129134 106.013 0 106.498 0C106.986 0 107.357 0.129134 107.613 0.387401C107.871 0.645669 108 1.01732 108 1.50236C108 1.9874 107.871 2.35906 107.613 2.61732C107.357 2.87244 106.986 3 106.498 3ZM106.498 0.316535C105.726 0.316535 105.34 0.711811 105.34 1.50236C105.34 2.28976 105.726 2.68346 106.498 2.68346C107.272 2.68346 107.66 2.28976 107.66 1.50236C107.66 0.711811 107.272 0.316535 106.498 0.316535ZM105.907 0.548031H106.526C106.794 0.548031 106.969 0.614173 107.05 0.746457C107.117 0.853543 107.15 0.974803 107.15 1.11024C107.15 1.40945 107.047 1.58898 106.843 1.64882C106.887 1.68976 106.924 1.74488 106.956 1.81417L107.23 2.44724H106.852L106.587 1.83307C106.553 1.74803 106.496 1.70551 106.417 1.70551H106.266V2.44724H105.907V0.548031ZM106.266 1.43622H106.521C106.701 1.43622 106.791 1.33386 106.791 1.12913C106.791 0.924409 106.701 0.822047 106.521 0.822047H106.266V1.43622Z" fill="#FFF6D2"/>
<path d="M62.0098 6.12476V8.80425" stroke="#FFF6D2" stroke-width="0.5"/>
</svg>
