<svg width="180" height="22" viewBox="0 0 180 22" fill="none" xmlns="http://www.w3.org/2000/svg">
<path d="M166.671 3.32275C167.927 9.32099 169.17 15.3057 170.426 21.304C168.981 21.304 167.562 21.304 166.117 21.304C165.928 20.4258 165.752 19.5342 165.563 18.6291C165.509 18.6291 165.468 18.6156 165.428 18.6156C163.523 18.6156 161.632 18.6156 159.727 18.6156C159.592 18.6156 159.592 18.6156 159.538 18.7506C159.254 19.5342 158.97 20.3178 158.687 21.0878C158.673 21.1283 158.646 21.1689 158.646 21.2229C158.633 21.2904 158.592 21.3175 158.525 21.3175C158.484 21.3175 158.444 21.3175 158.403 21.3175C156.917 21.3175 155.431 21.3175 153.958 21.3175C153.891 21.3175 153.823 21.3175 153.742 21.3175C153.769 21.2499 153.783 21.1959 153.81 21.1418C154.836 18.6966 155.863 16.2514 156.89 13.7926C157.998 11.1583 159.105 8.52393 160.2 5.88957C160.348 5.52481 160.51 5.16005 160.659 4.79529C160.781 4.51159 160.943 4.2414 161.159 4.01174C161.524 3.61996 161.997 3.43083 162.51 3.37679C162.699 3.34977 162.902 3.33626 163.091 3.33626C164.226 3.33626 165.36 3.33626 166.495 3.33626C166.536 3.32275 166.59 3.32275 166.671 3.32275ZM163.388 8.25374C163.374 8.29426 163.361 8.32128 163.347 8.3483C162.807 9.83435 162.267 11.3204 161.713 12.8064C161.483 13.4549 161.24 14.0899 160.997 14.7383C160.97 14.7924 160.956 14.8599 160.943 14.9274C162.226 14.9274 163.496 14.9274 164.752 14.9274C164.766 14.8059 163.456 8.44287 163.388 8.25374Z" fill="#FFF5CD"/>
<path d="M122.009 21.2769C121.968 21.1553 121.941 21.0338 121.914 20.9122C121.266 18.4534 120.604 15.9812 119.955 13.5225C119.28 10.9827 118.605 8.42936 117.929 5.88957C117.929 5.87606 117.916 5.84904 117.916 5.83553C117.902 5.70043 117.821 5.61938 117.713 5.56534C116.281 4.75477 114.768 4.16035 113.187 3.74155C113.147 3.72804 113.093 3.71453 113.052 3.70102C113.039 3.70102 113.025 3.68751 113.012 3.674C113.012 3.66049 112.998 3.64698 112.998 3.64698C113.066 3.26872 113.039 3.33626 113.349 3.33626C115.7 3.33626 118.037 3.33626 120.388 3.33626C120.685 3.33626 120.969 3.36328 121.252 3.43083C121.968 3.59294 122.428 4.02525 122.617 4.74126C122.711 5.11952 122.779 5.52481 122.86 5.90308C123.211 7.64581 123.549 9.38854 123.887 11.1313C123.995 11.6852 124.103 12.2526 124.211 12.8064C124.387 13.6711 124.562 14.5492 124.738 15.4138C124.738 15.4408 124.751 15.4678 124.765 15.5354C124.792 15.4543 124.819 15.4138 124.832 15.3598C125.305 14.0763 125.792 12.7929 126.264 11.5095C127.264 8.83465 128.25 6.15976 129.25 3.48487C129.264 3.45785 129.277 3.41732 129.291 3.3903C129.304 3.33626 129.345 3.32275 129.399 3.32275C129.439 3.32275 129.48 3.32275 129.52 3.32275C131.02 3.32275 132.533 3.32275 134.032 3.32275C134.086 3.32275 134.154 3.32275 134.235 3.32275C134.208 3.3903 134.195 3.44434 134.181 3.49838C133.533 5.0925 132.884 6.67312 132.236 8.26724C131.222 10.7665 130.196 13.2658 129.182 15.7515C128.453 17.5483 127.723 19.3316 126.994 21.1283C126.926 21.2769 126.926 21.2769 126.778 21.2769C125.238 21.2769 123.698 21.2769 122.158 21.2769C122.117 21.2904 122.063 21.2904 122.009 21.2769Z" fill="#FFF5CD"/>
<path d="M140.773 20.6424C140.99 19.2779 141.206 17.954 141.422 16.603C141.489 16.63 141.543 16.6571 141.598 16.6706C142.138 16.9272 142.678 17.1704 143.246 17.3596C143.989 17.6162 144.745 17.7648 145.529 17.8054C145.84 17.8189 146.164 17.8324 146.474 17.8324C147.015 17.8324 147.542 17.7378 148.042 17.5217C148.298 17.4136 148.528 17.2785 148.731 17.0759C149.001 16.8192 149.163 16.4949 149.19 16.1167C149.203 15.806 149.109 15.5223 148.92 15.2791C148.771 15.0764 148.595 14.9143 148.393 14.7657C147.92 14.4145 147.393 14.1308 146.866 13.8741C146.191 13.5499 145.529 13.1851 144.921 12.7528C144.448 12.4151 144.016 12.0368 143.651 11.591C143.151 10.9831 142.827 10.3076 142.732 9.52402C142.651 8.82152 142.719 8.14605 142.921 7.47057C143.259 6.33577 143.935 5.43063 144.867 4.70111C145.691 4.05266 146.637 3.63386 147.65 3.36367C148.42 3.16103 149.203 3.05295 150 3.01242C151.216 2.95838 152.419 3.07997 153.607 3.39069C153.932 3.47175 154.256 3.59333 154.58 3.70141C154.634 3.71492 154.688 3.74194 154.742 3.76896C154.526 5.06587 154.324 6.34928 154.107 7.64619C153.999 7.60567 153.932 7.56514 153.851 7.53812C153.148 7.21389 152.405 6.97072 151.635 6.86264C151.189 6.79509 150.743 6.76807 150.298 6.78158C149.919 6.78158 149.528 6.79509 149.163 6.88966C148.812 6.97072 148.474 7.0923 148.177 7.29495C147.974 7.43004 147.812 7.59216 147.704 7.7948C147.488 8.18658 147.488 8.57835 147.758 8.94311C147.866 9.09171 148.015 9.24032 148.163 9.36191C148.501 9.64561 148.879 9.86176 149.271 10.0644C149.757 10.3211 150.257 10.5643 150.757 10.8344C151.419 11.1857 152.04 11.591 152.594 12.1043C153.162 12.6312 153.621 13.2527 153.878 13.9957C154.08 14.5766 154.134 15.1845 154.094 15.806C154.053 16.4139 153.932 17.0083 153.702 17.5757C153.27 18.643 152.554 19.467 151.622 20.1155C150.838 20.6424 149.987 21.0071 149.068 21.2368C148.447 21.3989 147.825 21.4935 147.19 21.5475C146.501 21.6151 145.812 21.6151 145.124 21.561C143.921 21.48 142.732 21.2908 141.584 20.9261C141.287 20.8315 141.044 20.7369 140.773 20.6424Z" fill="#FFF5CD"/>
<path d="M140.774 3.35029C139.802 9.33501 138.842 15.3197 137.87 21.291C137.694 21.3315 133.344 21.318 133.209 21.2774C134.182 15.3062 135.141 9.3215 136.114 3.35029C136.249 3.32327 140.599 3.30976 140.774 3.35029Z" fill="#FFF5CD"/>
<path d="M46.2191 17.8134V6.71387H36.2466V9.48874H43.446V12.5304C42.6105 11.6944 41.5261 11.143 39.5885 11.143C36.211 11.143 34.6289 13.3131 34.6289 15.8567C34.6289 18.4181 36.211 20.5704 39.5885 20.5704C41.5261 20.5704 42.6105 20.019 43.446 19.183V20.5704H47.8723V17.7956H46.2191V17.8134ZM40.424 17.8134C38.3975 17.8134 37.402 17.4042 37.402 15.8745C37.402 14.3448 38.3975 13.9356 40.424 13.9356C42.4505 13.9356 43.446 14.3448 43.446 15.8745C43.446 17.4042 42.4505 17.8134 40.424 17.8134Z" fill="#FFF6D2"/>
<path d="M54.5028 6.73193C58.1292 6.73193 60.2623 8.97318 60.2623 11.9971H57.4892C57.3826 10.5563 56.7959 9.50681 54.6272 9.50681C52.0496 9.50681 51.0542 10.3428 51.0542 13.6691C51.0542 16.9954 52.0496 17.8314 54.6272 17.8314C56.7959 17.8314 57.3648 16.782 57.4892 15.3412H60.2623C60.2623 18.3651 58.1292 20.6063 54.5028 20.6063C50.432 20.6063 48.2988 17.7425 48.2988 13.6691C48.2988 9.57796 50.432 6.73193 54.5028 6.73193Z" fill="#FFF6D2"/>
<path d="M68.6707 6.71378C66.7331 6.71378 65.382 7.46086 64.5466 8.38582V3.03174H61.7734V20.5881H64.5466V18.9161C65.382 19.8411 66.7331 20.5881 68.6707 20.5881C73.1681 20.5881 74.7324 17.7421 74.7324 13.651C74.7324 9.57759 73.1503 6.71378 68.6707 6.71378ZM68.2441 17.8133C65.5243 17.8133 64.5288 16.9773 64.5288 13.651C64.5288 10.3247 65.5243 9.48865 68.2441 9.48865C70.9638 9.48865 71.9593 10.3247 71.9593 13.651C71.9593 16.9773 70.9638 17.8133 68.2441 17.8133Z" fill="#FFF6D2"/>
<path d="M84.7573 3.03174H78.5V5.80661H84.7573V3.03174Z" fill="#FFF6D2"/>
<path d="M31.2508 13.011L26.2734 11.8014C25.8468 11.6769 25.7046 11.5702 25.7046 11.1611V9.9515C25.7046 9.3645 26.0957 9.06211 26.8778 9.06211H29.3665C30.4153 9.06211 30.5398 9.63132 30.5398 10.0582V11.1788H33.3307V10.2539C33.3307 7.97707 31.9797 6.73193 29.5265 6.73193H26.7534C24.2647 6.73193 22.8959 7.92371 22.8959 10.0938V11.4457C22.8959 12.8331 23.6248 13.7403 25.0291 14.0782L30.1131 15.3234C30.5575 15.4479 30.7175 15.6258 30.7175 16.0171V17.3334C30.7175 17.7781 30.5753 18.2761 29.5443 18.2761H26.7534C25.7046 18.2761 25.5802 17.7069 25.5802 17.28V15.9281H22.7715V17.1021C22.7715 19.3434 24.1758 20.6241 26.6112 20.6241H29.6687C32.2108 20.6241 33.5618 19.4679 33.5618 17.2622V15.608C33.5084 14.2561 32.7085 13.3489 31.2508 13.011Z" fill="#FFF6D2"/>
<path d="M86.9969 14.5226V10.6094C86.9969 8.1013 85.6281 6.71387 83.1572 6.71387H80.0997C77.611 6.71387 76.2422 8.1013 76.2422 10.6094V16.7105C76.2422 19.2186 77.611 20.606 80.0997 20.606H83.1572C85.6281 20.606 86.9969 19.2719 86.9969 16.8172V15.9457H84.1882V17.0307C84.1882 17.8311 83.8149 18.2047 82.9972 18.2047H80.2596C79.4775 18.2047 79.0686 17.8134 79.0686 17.0307V14.5226H86.9969ZM79.0686 10.2892C79.0686 9.50653 79.4597 9.1152 80.2596 9.1152H83.0328C83.8327 9.1152 84.2238 9.48874 84.2238 10.2892V12.1569H79.0864V10.2892H79.0686Z" fill="#FFF6D2"/>
<path d="M18.3452 15.9989C15.6255 15.572 12.4968 14.8783 9.2615 13.7398C10.5414 16.2301 11.928 18.5959 13.4212 20.8015C12.4435 21.2284 11.4124 21.513 10.3103 21.602C8.90598 19.4141 7.57275 17.1195 6.34617 14.7004C5.68845 16.7282 5.26181 18.6848 5.01294 20.5703C3.96414 20.0367 3.02199 19.3074 2.23983 18.4536C2.64868 16.2479 3.27086 13.9533 4.21301 11.6053C2.79089 10.8938 1.38656 10.1112 0 9.20399C0.266646 8.1901 0.711056 7.24735 1.2799 6.39355C1.90207 6.82045 2.52425 7.21178 3.1642 7.58532C2.84422 6.78488 2.54203 5.98443 2.23983 5.1662C2.96866 4.38354 3.82193 3.70761 4.76407 3.19177C5.24404 4.54363 5.74178 5.87771 6.27507 7.19399C7.18166 5.50416 8.26603 3.76098 9.51037 2C9.61703 2 9.74147 2 9.84812 2C10.8969 2.03558 11.9102 2.24903 12.8346 2.58699C11.5724 4.27682 10.4881 5.93107 9.5637 7.54974L16.0165 4.49027C16.7987 5.18399 17.4742 6.00222 17.9897 6.92718L9.95478 10.7515C13.279 11.9433 16.4965 12.6548 19.2163 13.0639C19.0741 14.0956 18.7897 15.0917 18.3452 15.9989Z" fill="#FFF6D2"/>
<path d="M172 0.564383V0H175.151V0.564383H173.991V4H173.166V0.564383H172Z" fill="#FFF5D1"/>
<path d="M178.731 0H179.885L180 4H179.186L179.12 0.920548L178.13 3.52329H177.414L176.521 1.00822L176.46 4H175.647L175.756 0H176.916L177.784 2.52603L178.731 0Z" fill="#FFF5D1"/>
<line x1="101.375" y1="9.375" x2="101.375" y2="14.625" stroke="#FFF5CD" stroke-width="0.75" stroke-linecap="round"/>
</svg>
