<svg width="400" height="91" viewBox="0 0 400 91" fill="none" xmlns="http://www.w3.org/2000/svg">
<path d="M212.645 73.0049V22.043H166.828V34.7834H199.905V48.749C196.066 44.9105 191.084 42.3787 182.182 42.3787C166.665 42.3787 159.396 52.3424 159.396 64.0212C159.396 75.7816 166.665 85.6637 182.182 85.6637C191.084 85.6637 196.066 83.1319 199.905 79.2934V85.6637H220.24V72.9232H212.645V73.0049ZM186.021 73.0049C176.71 73.0049 172.137 71.1264 172.137 64.1029C172.137 57.0793 176.71 55.2009 186.021 55.2009C195.331 55.2009 199.905 57.0793 199.905 64.1029C199.905 71.1264 195.331 73.0049 186.021 73.0049Z" fill="#FFF6D2"/>
<path d="M250.702 22.127C267.363 22.127 277.163 32.4173 277.163 46.3012H264.422C263.932 39.6859 261.237 34.8674 251.274 34.8674C239.432 34.8674 234.858 38.7059 234.858 53.9781C234.858 69.2504 239.432 73.0888 251.274 73.0888C261.237 73.0888 263.851 68.2703 264.422 61.6551H277.163C277.163 75.5389 267.363 85.8293 250.702 85.8293C232 85.8293 222.199 72.6805 222.199 53.9781C222.199 35.1941 232 22.127 250.702 22.127Z" fill="#FFF6D2"/>
<path d="M315.793 22.0443C306.891 22.0443 300.684 25.4744 296.846 29.7212V5.13867H284.105V85.7467H296.846V78.0697C300.684 82.3165 306.891 85.7467 315.793 85.7467C336.456 85.7467 343.643 72.6795 343.643 53.8955C343.643 35.1931 336.374 22.0443 315.793 22.0443ZM313.833 73.0062C301.338 73.0062 296.764 69.1677 296.764 53.8955C296.764 38.6232 301.338 34.7848 313.833 34.7848C326.329 34.7848 330.902 38.6232 330.902 53.8955C330.902 69.1677 326.329 73.0062 313.833 73.0062Z" fill="#FFF6D2"/>
<path d="M389.705 5.13867H360.957V17.8791H389.705V5.13867Z" fill="#FFF6D2"/>
<path d="M143.878 50.9564L121.011 45.4028C119.051 44.8311 118.397 44.3411 118.397 42.4627V36.9092C118.397 34.2141 120.194 32.8257 123.788 32.8257H135.221C140.04 32.8257 140.612 35.4391 140.612 37.3992V42.5444H153.434V38.2976C153.434 27.8438 147.227 22.127 135.956 22.127H123.216C111.782 22.127 105.494 27.5988 105.494 37.5625V43.7694C105.494 50.1397 108.842 54.3048 115.294 55.8565L138.651 61.5734C140.693 62.1451 141.428 62.9618 141.428 64.7585V70.8021C141.428 72.8438 140.775 75.1306 136.038 75.1306H123.216C118.397 75.1306 117.826 72.5172 117.826 70.5571V64.3502H104.922V69.7404C104.922 80.0308 111.374 85.911 122.563 85.911H136.61C148.288 85.911 154.495 80.6024 154.495 70.4754V62.8801C154.25 56.6732 150.575 52.5081 143.878 50.9564Z" fill="#FFF6D2"/>
<path d="M399.996 57.896V39.9286C399.996 28.4132 393.708 22.043 382.355 22.043H368.308C356.874 22.043 350.586 28.4132 350.586 39.9286V67.9413C350.586 79.4568 356.874 85.827 368.308 85.827H382.355C393.708 85.827 399.996 79.7018 399.996 68.4313V64.4295H387.092V69.4114C387.092 73.0865 385.377 74.8016 381.62 74.8016H369.043C365.45 74.8016 363.571 73.0049 363.571 69.4114V57.896H399.996ZM363.571 38.4586C363.571 34.8651 365.368 33.0684 369.043 33.0684H381.784C385.459 33.0684 387.256 34.7834 387.256 38.4586V47.0339H363.653V38.4586H363.571Z" fill="#FFF6D2"/>
<path d="M84.5839 64.6744C72.0884 62.7144 57.7146 59.5292 42.8507 54.3024C48.7309 65.7361 55.1011 76.5982 61.9614 86.7252C57.4696 88.6853 52.7327 89.992 47.6692 90.4004C41.2173 80.355 35.0921 69.8196 29.4569 58.7125C26.4351 68.0229 24.475 77.0066 23.3316 85.6635C18.5131 83.2135 14.1846 79.865 10.5912 75.9449C12.4696 65.8178 15.328 55.2824 19.6565 44.502C13.1229 41.2352 6.67102 37.6418 0.300781 33.4766C1.52583 28.8214 3.56757 24.4929 6.181 20.5728C9.03944 22.5329 11.8979 24.3296 14.838 26.0447C13.3679 22.3695 11.9795 18.6944 10.5912 14.9376C13.9396 11.3441 17.8598 8.24068 22.1883 5.87226C24.3933 12.0792 26.6801 18.2044 29.1302 24.2479C33.2953 16.4893 38.2772 8.48569 43.9941 0.400391C44.4841 0.400391 45.0558 0.400391 45.5458 0.400391C50.3643 0.56373 55.0195 1.54377 59.2663 3.09549C53.4677 10.8541 48.4859 18.4494 44.2391 25.8813L73.8852 11.8341C77.4786 15.0193 80.5821 18.7761 82.9505 23.0229L46.0358 40.5819C61.308 46.0537 76.0902 49.3205 88.5857 51.1989C87.9323 55.9358 86.6256 60.5093 84.5839 64.6744Z" fill="#FFF6D2"/>
</svg>
